<svg xmlns="http://www.w3.org/2000/svg" viewBox="0 0 219.2 179.35"><defs><style>.cls-1,.cls-7{fill:#ea7286;}.cls-2{fill:#faca62;}.cls-3{fill:#f5b9af;}.cls-4,.cls-5{fill:#fff;}.cls-4{opacity:0.33;}.cls-6{fill:#2a2b3d;}.cls-7{opacity:0.36;}</style></defs><title>Asset 2</title><g id="Layer_2" data-name="Layer 2"><g id="Player"><path class="cls-1" d="M132.08,179.33a2.19,2.19,0,0,1-1.87-1c-.75-1.34.12-4.05,3.42-8.42,4.19-5.54,3.51-21.6,3.51-21.6l24.3-8.64C168.91,160.21,140.25,180.06,132.08,179.33Z"/><path class="cls-2" d="M151.3,145.84l-1.75.3c1.56,9.17-1.55,17.54-9.24,24.88a49.55,49.55,0,0,1-10.1,7.32,2.19,2.19,0,0,0,1.87,1,49.26,49.26,0,0,0,9.41-7,34.32,34.32,0,0,0,7.95-11A26.81,26.81,0,0,0,151.3,145.84Z"/><path class="cls-1" d="M117.1,169c-.47.53-.95,1.05-1.46,1.55a29.15,29.15,0,0,1-12.49,7.13q-.86.26-1.77.48l-.47.11a23.52,23.52,0,0,1-11.17-.07q-1-.27-2.07-.63c-6.25-2.17-11.75-6.81-16.43-12.52-.57-.71-1.14-1.43-1.69-2.17A87.66,87.66,0,0,1,61.65,150q-.88-1.76-1.68-3.48c-5.27-11.38-7.81-21.91-7.26-24.12,1.37-5.56,71.56,10.1,71.56,10.1S129.12,155.12,117.1,169Z"/><path class="cls-2" d="M65.41,126.64l.8.38h0ZM118,142.33l-.33-.33a7,7,0,0,0-5.6-2c-2.68.37-5.1,2.54-7.18,6.43-3.94,7.36-3.91,22.83-3.53,31.65q.91-.23,1.77-.48c-.35-8.71-.32-23.52,3.33-30.34,1.79-3.35,3.75-5.2,5.84-5.5a5.11,5.11,0,0,1,3.77,1.15c-.57,3-3.09,17.45-.45,27.56.51-.5,1-1,1.46-1.55-2.3-10.65.79-26,.82-26.16ZM90.09,133.7c-3.24-.65-7.27,1.3-12,5.79s-7.65,12-8.46,21.95c0,.47-.07.94-.1,1.39.55.74,1.12,1.46,1.69,2.17.24-7.77,1.83-18.27,8.09-24.23,5.3-5,8.57-5.69,10.39-5.34a3.92,3.92,0,0,1,2.55,1.71,68.12,68.12,0,0,0-4.74,13.54c-1.67,7-2.9,17,.14,26.84q1,.36,2.07.63c-3.39-9.77-2.17-20-.5-27a66.25,66.25,0,0,1,4.82-13.62l.2-.38-.18-.39A5.71,5.71,0,0,0,90.09,133.7Zm-25.48-7.44a54.11,54.11,0,0,0-3.83,13,61.52,61.52,0,0,0-.81,7.17q.8,1.72,1.68,3.48a60.35,60.35,0,0,1,.87-10.28A53.58,53.58,0,0,1,66.21,127l-.8-.38Z"/><path class="cls-1" d="M54.43,112.34a4.91,4.91,0,0,1-.52,1.76l-.09.17a11.56,11.56,0,0,1-1.27,1.89,26.56,26.56,0,0,1-2.88,3c-12.15,11.07-24.29,33.61-24.29,33.61a68.25,68.25,0,0,1-6.32-4.7l-1.34-1.17A53.78,53.78,0,0,1,7.55,134.82c-.32-.51-.62-1-.91-1.55A51,51,0,0,1,.81,116.62q-.15-.89-.27-1.77a66.66,66.66,0,0,1,.32-19c.1-.66.21-1.31.32-2a88.83,88.83,0,0,1,8.54-25C25,97.56,46.9,108.38,46.9,108.38S54.71,108.23,54.43,112.34Z"/><path class="cls-2" d="M60.82,112.84c-.48-.08-1.14-.16-2-.24-1.13-.1-2.59-.18-4.37-.26l-1.56-.06c-4.24-.15-8.53-.19-8.58-.19h-.07c-.24,0-21.77,1.56-43.68,2.76q.12.89.27,1.77c21.45-1.18,42.48-2.68,43.5-2.76,3.27,0,6.7.12,9.6.24l1.24.05-1.33.12c-1.08.1-2.32.2-3.74.3-14.86,1.12-27.25,7.4-35,12.48a86.3,86.3,0,0,0-8.41,6.22c.29.52.59,1,.91,1.55A88.65,88.65,0,0,1,16,128.54a77.47,77.47,0,0,1,25.72-11c-3.36,3.77-14.63,16.57-24,29.33l1.34,1.17c11.08-15.07,24.85-30.25,25-30.42l-.49-.44a63.84,63.84,0,0,1,6.65-.87l2.34-.18c2.81-.23,5-.45,6.47-.65,2.11-.29,3.31-.5,3.27-1.53C62.26,113.11,61.29,112.93,60.82,112.84Zm-41.68-7.71A92.42,92.42,0,0,0,45.85,110l.07-1.78c-21.19-.81-35.4-7.8-43.6-13.51l-1.14-.82c-.11.65-.22,1.3-.32,2l.36.25A72.71,72.71,0,0,0,19.14,105.13Z"/><path class="cls-1" d="M188.57,80.28s-101.64,99.08-137,20A198.47,198.47,0,0,1,42.14,75c-.19-.65-.37-1.31-.55-2A122,122,0,0,1,38,55.72c-.08-.64-.15-1.27-.22-1.89-1.08-10.07-.39-18.79,1.83-26.1.18-.58.37-1.14.56-1.7A36.35,36.35,0,0,1,53.69,7.76q.83-.58,1.68-1.11C61.89,2.59,70,.36,79.39,0c.89,0,1.79,0,2.71,0a93.94,93.94,0,0,1,21,2.67c1.1.25,2.2.53,3.32.83q2.52.66,5.13,1.46a118.9,118.9,0,0,1,18.95,7.65c.87.44,1.73.89,2.57,1.35a113.79,113.79,0,0,1,13.67,8.71c1,.76,2,1.54,3,2.32A118.81,118.81,0,0,1,168,43.17c.61.76,1.2,1.51,1.78,2.26q2.46,3.2,4.55,6.3c.68,1,1.34,2,2,3C185.35,68.93,188.57,80.28,188.57,80.28Z"/><path class="cls-2" d="M176.3,54.71c-.62-1-1.28-2-2-3,.73,7.66-1.18,10-1.3,10.09h0l1.2,1.31C174.55,62.84,176.37,60.9,176.3,54.71Zm-10.54,3.95c-1.06,2.45-2.27,3.71-3.58,3.75-2.61.09-5.55-4.32-6.61-6.27A91.22,91.22,0,0,0,154,39.73,72.53,72.53,0,0,0,149.71,25c-1-.78-2-1.56-3-2.32A67,67,0,0,1,152.27,40a87,87,0,0,1,1.52,16.31v.23l.1.21c.4.76,4,7.42,8.21,7.42h.14c2-.07,3.79-1.69,5.15-4.82,1.67-3.83,2.3-8.91,2.4-13.94-.58-.75-1.17-1.5-1.78-2.26C168.06,48.73,167.56,54.53,165.76,58.66ZM133.4,14.8,133,14c-.84-.46-1.7-.91-2.57-1.35.44,1,.89,1.92,1.33,2.93C136,25,141.18,39,141.9,51.62c.48,8.29-1,9.37-1.45,9.51s-2.12.09-6.17-5.43a73.49,73.49,0,0,1-4.13-6.39,89.17,89.17,0,0,0-6.36-19.5,97.24,97.24,0,0,0-10.47-18,87.46,87.46,0,0,0-6.95-8.3c-1.12-.3-2.22-.58-3.32-.83a92.5,92.5,0,0,1,19.1,27.82,88.13,88.13,0,0,1,6.28,19.27l0,.15.08.13a74,74,0,0,0,4.31,6.7c3.44,4.69,6.09,6.68,8.1,6.09,2.27-.66,3.14-4.26,2.74-11.32C142.94,38.64,137.68,24.44,133.4,14.8ZM118.94,48.93a110.67,110.67,0,0,0-14.66-25.59A147.55,147.55,0,0,0,86.89,4.25Q84.42,2,82.1,0c-.92,0-1.82,0-2.71,0,2,1.66,4.11,3.5,6.29,5.52,10.16,9.39,23.88,24.65,31.62,44,5.3,13.3,3.86,15.48,3.29,15.83-.35.22-2.54.94-10.88-6.63-4.32-3.93-8.23-8.2-8.64-8.66A190.54,190.54,0,0,0,84.31,30,149.54,149.54,0,0,0,66.54,14a93.13,93.13,0,0,0-11.17-7.3q-.85.52-1.68,1.11C65.2,13.94,75.66,23.5,83,31.19a186.5,186.5,0,0,1,16.64,20l.07.09s4.18,4.62,8.8,8.81c8.75,8,11.62,7.71,13,6.84s1.71-2.64,1.27-5.6A61.6,61.6,0,0,0,118.94,48.93ZM91.6,61.42C77.68,46.94,61.39,36.84,50.18,30.92c-3.66-1.93-7-3.56-10-4.89-.19.56-.38,1.12-.56,1.7,2.87,1.3,6.17,2.89,9.73,4.78,11.09,5.86,27.19,15.84,40.95,30.14,10.24,10.65,9.77,13.22,9.39,13.75-.2.28-1.59,1.5-9.63-1.3-4.23-1.48-8.25-3.36-8.65-3.55A188.52,188.52,0,0,0,37.82,53.83c.07.62.14,1.25.22,1.89A187.52,187.52,0,0,1,80.57,73.09l.07,0s4.32,2.06,8.85,3.64c6.62,2.31,10.33,2.52,11.67.67.88-1.22.55-3.08-1-5.68A65.47,65.47,0,0,0,91.6,61.42ZM42.14,75a196.49,196.49,0,0,1,25.6,8l.66-1.65A199.16,199.16,0,0,0,41.59,73C41.77,73.65,42,74.31,42.14,75Z"/><path class="cls-3" d="M196.15,117s13.27.05,12.31,5c-.8,4.11-1.07,4.44-22,14-4.31,1.95-9.49,4.29-15.73,7.13-36.61,16.67-80.86,8.34-104.79-8.62-2.94-2.08-5.58-3.85-7.93-5.36h0A82.42,82.42,0,0,0,46,122.55a26.78,26.78,0,0,0-2.51-.94,7.87,7.87,0,0,1-3.6-2.41,7.81,7.81,0,0,1,2-11.78c.52-.29,1-.62,1.55-1,6.07-4.14,11.9-12,18.42-20.79C68.29,77.1,75.27,67.6,83.76,59.6a80.5,80.5,0,0,1,8.8-7.25,56.62,56.62,0,0,1,33-11,65.8,65.8,0,0,1,12.77,1.07,62.33,62.33,0,0,1,26.24,11.61c22.57,16.74,33.76,44.71,48.72,49.81C233.3,110.71,196.15,117,196.15,117Z"/><path class="cls-4" d="M186.43,135.94c-4.31,1.95-9.49,4.29-15.73,7.13-36.61,16.67-80.86,8.34-104.79-8.62-2.94-2.08-5.58-3.85-7.93-5.36,4.23.17,11.55,1.71,23.92,7.23,24.58,11,54.11,5.39,75.46-7.25C174.85,118.71,184.81,126.55,186.43,135.94Z"/><path class="cls-1" d="M154.48,112.87c0,1.06-.06,1.7-.06,1.7-.5.49-1,1-1.52,1.44-16.52,15.25-37,21.35-40.26,10.46a9.5,9.5,0,0,1-.36-1.78,16.83,16.83,0,0,1,.16-4.58,28.59,28.59,0,0,0,.35-4.55c0-.6,0-1.19-.06-1.78a45.94,45.94,0,0,0-2-10.27c-.18-.59-.35-1.17-.53-1.74-.59-1.87-1.16-3.63-1.58-5.24-.16-.6-.3-1.18-.41-1.74-1.08-5.55.57-9.09,11.81-9.92,23.89-1.75,31.86,15.93,31.86,15.93a19.49,19.49,0,0,1,1,2.31,21.79,21.79,0,0,1,.81,2.7,1,1,0,0,1,0,.17c.15.65.27,1.29.37,1.9.12.77.21,1.5.27,2.18s.09,1.25.1,1.79C154.48,112.23,154.48,112.57,154.48,112.87Z"/><path class="cls-1" d="M176.3,67.89l-.55-.7.55.7Z"/><circle class="cls-5" cx="177.83" cy="97.81" r="15.54" transform="translate(41.54 248.19) rotate(-76.63)"/><circle class="cls-6" cx="184.6" cy="96.76" r="9.5"/><path class="cls-2" d="M145.45,117.92a78.7,78.7,0,0,1-33.17,6.77,9.5,9.5,0,0,0,.36,1.78h.16a80.64,80.64,0,0,0,33.47-7,64,64,0,0,0,6.63-3.5c.51-.47,1-1,1.52-1.44,0,0,.06-.64.06-1.7A58.63,58.63,0,0,1,145.45,117.92Zm-32.72-4.14c0,.59.06,1.18.06,1.78,7.5.09,24.6-.17,41.67-3.71,0-.54-.05-1.14-.1-1.79C137.3,113.63,120.14,113.88,112.73,113.78Zm41.36-5.9c-.1-.61-.22-1.25-.37-1.9-6.14-1.31-22.28-4.44-37-4.44-2.24,0-4.44.07-6.57.23.18.57.35,1.15.53,1.74C127.16,102.35,148,106.54,154.09,107.88ZM125.62,96a57.67,57.67,0,0,1,28.06,9.78,21.79,21.79,0,0,0-.81-2.7,53.94,53.94,0,0,0-7.93-4.19,62.56,62.56,0,0,0-19.22-4.67,75.39,75.39,0,0,0-17.53.54c.11.56.25,1.14.41,1.74A73.57,73.57,0,0,1,125.62,96Z"/><path class="cls-7" d="M83.76,59.6c.19,11.2-.33,34.61-8,35.29-5.31.47-10.28-4.45-13.8-9.23C68.29,77.1,75.27,67.6,83.76,59.6Z"/><path class="cls-7" d="M92.56,52.35A57.44,57.44,0,0,1,117.74,42c-.41,12.41-2.49,38.67-12.63,37.7C96.22,78.85,93.43,62.82,92.56,52.35Z"/><path class="cls-7" d="M156.59,82.27c-7.23-5.18-14.82-28.17-18.28-39.81a62.33,62.33,0,0,1,26.24,11.61C164.66,65.38,164,87.53,156.59,82.27Z"/></g></g></svg>