<svg id="Background" xmlns="http://www.w3.org/2000/svg" viewBox="0 0 1920 1080"><defs><style>.cls-1{fill:#87ceda;}.cls-2{fill:#59c1d7;}.cls-3{fill:#45b4ca;}.cls-4{fill:#2481a2;}.cls-5{fill:#1a658b;}.cls-6{fill:#0a3147;}</style></defs><title>whole-background</title><g id="Layer_6" data-name="Layer 6"><rect id="back" class="cls-1" width="1920" height="1080"/></g><g id="Layer_5" data-name="Layer 5"><path class="cls-2" d="M0,461.23c134.47,3.47,175.07,123.53,325.43,187.68,153.19,65.37,230.8-13.27,372.76-21.44s192.66,24.22,308.29,0,176.31-91,335.12-96.51c111.31-3.84,79.27,57.25,321.61,57.25,120.51,0,159.41-122.36,256.79-127V1080H0V461.23"/><path class="cls-2" d="M715.75,538.67c1.58,5,10.19,16.54,16.16,22.07,2.58,1.84,4.71,4.84,8.07,5.22.31-5.9-3-11.46-6-16.45-3.74-6.18-11.44-9.5-14.6-16-1.23-2.52-3.87-6.95-1.41-8.29s3.26,7.18,5.94,5.5c2.86-1.81-.69-12.65,2.89-11.21,4.15,1.67,3.15,13.89,6.82,20.07,2.07,4.65,9.77,13.12,11,3a109.58,109.58,0,0,1,6.44-18.74c1-2.16,6.25-10.14,6.46-2.92-1.07,6.46-3.79,12.56-5.76,18.77-1.39,6.78-4.93,13.21-5.11,20.13s1.87,14,4.1,20.65c1.66,4.93,2.66,10.91,6.8,14.05,1.73,1.32,4.63,2.41,6.41,1.16,6.13-4.29,3.2-14.67,3.8-22.13.62-7.81-3.36-16.32-.24-23.51,3.8-8.77-.81-12.45,3-17,6.09-2.91,2.23,9.55,8.36,4.63,2.7-3.9,11-2.49,5.39,2.25-5.2,3.68-10.81,8.6-11.25,14.77-.17,2.38-.91,14.49,3.47,6.26a88.86,88.86,0,0,1,9.77-13.33c3.23-5,2.88-8.74,5-12.85,1.43-4.58-.71-18.05,7-14.27-.73,4.81-1.55,15,6.23,9.94,2.91-1.33,14.4-3.07,10.77,1.61-3.36,2-16.83,4.28-21.55,12.49-1.43,6.9,7.65-1.32,9.37-3.83,1.77-3.26,8.22-5.57,8.44-1.7.15,2.52-11.93,6.94,2,7.32,6.56-.48,15.82,2.16,8.49,5.55-10.58,1-22.82-3.34-31.84,4.26-6.61,6.43-20.63,14.77-15.87,22.68,2.36,3.93,9.24-.48,13.67-1.69,6.07-1.66,11-6.39,17.32-7.54,7.63-1.3,13-7.83,15.86-14.64,4.14-6.31,6.86.23,3.52,5.26-.59,3.25,8.78,1.47,13.81,1.59,3.27.07,6.94,3.86,5.3,4.84-6.36,3.77-16.14-4.35-26.41,2.91,1.06,5.76,12.71.53,17.53,4.1,1.49,1.09,4.47,4,2.79,4.79-3.31,1.52-16-5.77-7.71,5.1,3.19,6.55-4.81,1-6.1-.57-6.14-7.59-12.7-6.52-19.28-5.39-1.75.3-11.94,2.36-4.36,3.06,6.81.38,15.26-3.63,20.86,1.52,2.59,2.81,9.47,10.09,5.72,13-3.52,2.69-7.28-9.73-10.31-8.37-3.29.24,3,10.73-1.76,10.5-2,1-4.73-8.67-8.92-10.66a22.62,22.62,0,0,0-19.7-.24c-7.14,1.84-11.72,8.39-16,14a43,43,0,0,0-7.91,16.22c-1.38,6-2,12.73.08,18.53-4.5,3.12-15.43,1-16,0,3.53-6,6.65-12.37,7.34-19.18.63-6.15.74-13.37-3-18.3-3-4-8.59-6-13.58-6.34-6.74-.41-13.15,3.39-19.25,6.28A68.5,68.5,0,0,0,703.21,607c-3.32,2.76-3.41,6.86-8.83,9.48-9.43,1.5,4.56-11.63-4-6.19-7.49,2.06-3.44-7.53,2.2-6.47,5-1.45,13.91-1.38,14.18-6.58.22-4.44-7-6.48-11.46-6.79-8.27-.6-16.07-7.08-9.61-6.73,3.22.24,4,1,3-2.45-.85-6.08,6,1.6,9.48,4.31,6.08,4.71,15.16,5.06,22.87,3,8.9-2.48-7.17-6.57-10.23-6.18-6.94-1-22.8-4.68-20.5-7.91,2-4.47,9.13,2.75,14.72,2.46,1-.05,2.9-1,2.28-1.78-4.6-5.53-14.21-7.39-11.56-12,2.26-2,9.16,3.55,12.18,5.34,3.73,2,7.12,4.71,10.51,7.13,3.65,3,8.44,4.61,12.59,6.93,3.69,3.06,16.68,3,11-4.09-4.43-5.63-11.42-10.46-18.68-11-9.43.3-16.37-6.84-24.94-9.47-6.59-2.16-13-4.83-20.06-5-7.68-1.47-1.53-7.16,4.94-5,3.15,1.06-5.45-9.13-2.12-9.73,6.2-1.13,10.47,13.14,18.82,14.26,3.24-2.42-.8-6.72-2.1-9.47-4.75-7.33-16.93-15.38-13.49-22.49,1.69-3.51,6.63,4.88,9.36,7,2.17-2.4-3.22-10.47.31-10.58,6.44-.18,5.73,14,8.25,20.59,2.5,6.28,6,12.11,9.22,18,1.72,4,13.9,7.67,7.9.57-6.57-7-12.53-13.86-16-23.05-1-4.82-5.86-15.39-.49-16.4,4.89-.92,2.52,14.24,7.3,20,.26-1.51,1.81-9.11,4.94-8.34,3.33.82-1,5.26.55,10.25Z"/><path class="cls-2" d="M1579.58,365c0-1.7,6.6-7.6,4.64-8.13-6.11-1.67-12.5,5.35-16.08,5.35a63,63,0,0,1-7.11-.67c2.78-2.64-5.39-2.63-14.7-2.23l.22.07-6.62-1c1.41-.83,2.75-1.88,2.44-2.74-.61-1.68-2.45-7.5-4-10.87-1.46-3.21-10.82,5.65-15.68,11.14-8.28-1-15-1.52-17.27-.62-6.78,2.68-20.92,9.29-20.92,9.29,0,3,15.92,13.57,26.82,13.57,5.92,0,14.27,0,21.69-.34,1.91,2,6.07,5.78,11.27,6.66a23.74,23.74,0,0,0-4.1-6.83s-.16-.11-.45-.28a39.22,39.22,0,0,0,8-1.35l.34-.12c4.08,2.62,11.83,6.69,12.19,4.35s.48-6.5.56-7.69c.05-.66-1.23-1.11-2.37-1.38a23.62,23.62,0,0,1,9.46-2.49c1.44,0,12.29,6.27,16.26,4.29C1586.36,371.88,1579.58,368.13,1579.58,365Z"/></g><g id="Layer_4" data-name="Layer 4"><path class="cls-3" d="M0,784.68C144.38,675.4,318.29,812.94,459.68,828c188,20,263.82-3.23,379.45-27.45,127.15-49,208.85-127.8,367.66-133.27S1611.21,939.21,1920,784.68V1080H0V784.68"/><path class="cls-3" d="M1289.13,502.38c-1.25,10.39,4.83,38.55,11.12,53.57,3.18,5.5,4.56,12.72,10.35,16.19,5.46-10.47,4.1-23.32,2.73-34.91-1.69-14.34-12.94-26.77-13.33-41.2-.14-5.61-1.27-15.87,4.33-16.25,5.37-.37,0,15.77,6.24,14.91,6.71-.92,9.24-23.59,14.55-18,6.17,6.49-5.78,27.89-4.22,42.18-.09,10.18,6.9,32,17.47,14.65a221.64,221.64,0,0,1,27.27-28.77c3.56-3.11,19.78-13.26,14.17,0-7.29,10.87-17.3,19.74-26,29.39-8.16,11.18-19.94,20-26,32.41-6.15,12.61-8.19,27-9.64,41-1.09,10.35-4.21,22,.72,31.21,2.05,3.83,6.43,8.22,10.69,7.43,14.73-2.73,18-24.05,25.27-37.14,7.61-13.7,7.42-32.48,19.06-43,14.19-12.81,8.84-23.34,19.57-28.36,13.51-.26-3.86,19.23,11.39,15.35,8.13-4.86,22.08,4.58,7.94,8.56-12.52,2.4-26.8,6.69-32.73,17.56-2.28,4.19-13.66,25.62,1.14,14.27C1390,587.06,1400,582,1410,577.32c10-6.37,12.48-13.52,19.7-19.26,6.4-7.16,13.67-33.46,24.57-20.17-5.32,8.15-15.21,25.94,3.09,23.24,6.41,0,28.76,6.37,18.27,11.87-7.75.83-34.19-6.16-49.58,4.86-8.31,11.38,15,3.95,20.23.81,5.92-4.48,19.58-3.32,16.78,3.9-1.83,4.71-27.47,2.74-2.52,14.94,12.32,4.57,27,17,10.85,17.14-20.1-6.93-38.77-25-61.5-18.64-17.34,6.22-49.78,9.78-47.68,28.11,1,9.12,17.22,6.78,26.28,8.25,12.44,2,25.25-2.54,37.78.65,15,4,30.09-3.51,41-13.49,12.78-8.06,12.31,6.1,2,12.49-3.77,5.42,14.75,10,23.83,14.33,5.88,2.84,9.41,12.8,5.62,13.21-14.7,1.59-25.77-21.31-50.47-16.6-2.85,11.37,22.67,11.5,28.5,22,1.79,3.23,4.81,11,1.11,11-7.3,0-24.3-23.73-18.28,2.9.39,14.57-9.59-2.14-10.61-6.09-4.9-18.91-17.73-22.4-30.64-25.8-3.43-.91-23.68-5.62-10.46,2,12.08,6.34,30.78,6,36.71,20.07,2.38,7.25,8.86,26.21-.34,28.31-8.63,2-5.17-23.75-11.82-23.78-6.19-2.3-3.41,22-11.91,17.65-4.41.09-1.42-19.71-7.39-26.79-8.47-10-21.13-17.19-35.66-16.78-14.52-2.58-28.29,5.56-40.82,12.25-10.62,5.67-20.56,13.39-27.86,23-7.5,9.82-14.12,21.56-15.22,33.8-10.77,1.94-28.94-10.92-29.13-13.16,11.44-8.1,22.36-17,29.27-28.82,6.24-10.68,12.43-23.74,9.72-35.8-2.19-9.75-10.64-18.11-19.47-22.8-11.92-6.33-26.74-4.73-40.24-4.54a137,137,0,0,0-34.1,4.8c-8.33,2.28-11.9,9.65-23.92,9.94-18.42-5.09,17.93-17.38-2.18-14.61-15.35-2.45,0-16.55,9.36-9.95,10.33,1.53,26.46,9,31.25-.21,4.09-7.89-7.42-17.62-15.22-21.87-14.56-7.94-23.38-26.2-11.91-20.2,5.66,3.09,6.44,5.11,7.52-2,3.49-11.76,9.56,7.88,13.68,15.71,7.16,13.61,23.38,21.78,39.11,24.46,18.26,2.87-7.59-17.89-13.5-19.72-11.81-7.56-37.61-27.43-30.75-31.4,7.29-6.5,14.35,12.58,24.76,16.68,1.8.7,6.13.51,5.63-1.35-3.79-13.88-19.74-25.23-11.11-31.37,5.72-1.69,13.71,14,17.73,19.82,5.17,6.67,9.05,14.47,13.22,21.69,4.19,8.41,11.54,15.4,17.17,23.06,4.18,8.63,27.87,19.27,23.4,1.67-3.39-13.92-12.1-28.51-24.88-35.49-17.41-7.26-24.12-26-37.54-37.92-10.21-9.4-19.72-19.6-32.38-25.68-12.77-9,3.15-14.3,13.11-4.94,4.85,4.54-2.36-21.14,4.2-19.48,12.23,3.09,8.15,32.6,22.43,41.57,7.91-1.72,4.11-12.9,4-19-2.56-17.28-18-42-5.89-52.13,6-5,8,14.4,11.25,20.45,6-2.56,2.83-21.72,9.33-19,11.89,5-1.16,30.21-2,44.31-.66,13.5.79,27,1.85,40.39-.18,8.7,19,25.48,13.92,7.59-6.21-18.1-11.32-35.62-10-55.2,2.26-9.57,2.09-32.87,12.71-30.26,9.67,2.38-7.23,28-3.29,42.44,1.73-2.54,10.84-15.09,15.91-11.08,5.37,4.24-6.25,8.71-7.51,19.1Z"/></g><g id="Layer_3" data-name="Layer 3"><path class="cls-4" d="M0,661.3c82.56-40.93,131.73-23,169.68-42.38,53-27.11,87.61-71.19,179.23-86.3,145.54-24,96.15,70,236.94,89.87C759.45,647,668.35,754,784,729.73s118.47,184.19,277.28,178.72c63.39-2.18,42.1-123,163.77-122.7,61.42.15,135.77-109.29,177.84-131.6,101.11-53.61,180.85,16.39,228.26,41.36,85.78,45.2,134.81,71.24,288.87-34.21V1080H0V661.3"/><path class="cls-4" d="M775.89,740.11s2.45,2.45,3.33,2.45,10-5.94,15-13.46c3.21-4.76,8.37-19.21,11.71-25,8.57-14.87,8.4-13.12,22.74-22.21s26.93-3.85,32,1.57c4.6,4.91,4.61,14,4.61,18.36s2.27,5.83,4.25,5.25,1-3.55,3.21-4.37c2.66-1,2.39,6,6.65,3.85,2.12-1.08-.84-7-.11-11.57.92-5.79,7.35-6.48,11.43-1.67A34.18,34.18,0,0,1,896,703.56c.94,3.75,1.66,8.79,3.89,8.4,1.56-.28.88-2.5,1.84-2.63.61-.08,1.09,1.93,2,1.8,2.08-.32,2.64-1,2.14-3.55s-1.05-3,.7-4.89,2.24-.74,4.77,0,3.74-2.08,2.35-3.79-1.84-2.38-.87-3.34c1.76-1.51,2.9-3.06.28-4.83s-8.67,1.28-13.51-1.13c-9.56-4.84-5.44-15.94,4.35-16.06,3.3,0,13.4,6.45,17.26,5.31,2.56-.76,2.62-2.86,1-4.43-.74-.72-.17-1.46.54-1.61,2.4-.51,2.47-1.7,2.2-3.29-.46-2-4.34-.86-6.23-2.67-1.58-1.52-1.28-3.44,0-4.08.77-.39,2-.48,2.74-1.17,1.28-1.23.81-3.15-1-3.32-.7-.07-1.87.75-2.86-.35-1.29-1.69,1.69-2,.87-3.85-1.12-2.47-3-1.05-9.26,3s-11,8.92-15.74,3.85c-2.8-3.85,3.32-7.46,7.17-9.21s9.09.76,10.49-1.28c1.75-2.55.35-5.71-2.1-6.13-1.35-.22-3.77.52-4.73-1-1.39-2.21,3.81-3.57-.46-7.4-2.21-2-4.2-.81-5.48,2.57-2.46,6.49-16.52,17.19-21.86,13.35-7.25-8.4,20.71-21.7,21-25.38.46-5.07-4.52-5.34-7.32-4.9-1.55.24-2.5-.95-.7-3.41,2.22-3-1.54-7.55-4.69-3.7-4,4.85-7.58,10.54-11.42,8.27s-2.1-6.64-2.1-9-4.78-3.85-5.83-.93c-2.11,2.9-.81,44.64-19.81,42.31-7.13-.87,2.42-29.81,4.69-35.93s-.29-7.51-2.63-7.87a4.11,4.11,0,0,0-4.63,2.15c-1.26,2.1-2.56,4.27-6.07,1.32-1.74-1.47-3-2.09-5.39-.58-1.4.87-3.06,2.53,3,15.7,4,8.75,5.16,15.75-2,31.16-5.59,12.13-21.92,10-26.35-1.63-7-18.52-19.84-40.69-9.09-46.63,8.72-4.82,27.37.23,33.55-3.15,2.21-1.21,2-3.42.35-3.67s-2.16-.47-2.51-1.29c-.83-1.94,3.21-2.74,1.11-5.07-1.89-2.09-13.87,2.68-17.2,3.21s-4.11-3.23-1.66-7c4.41-6.77,14.83-1.91,17.66-3.06,3.23-1.31,2.19-5.24.17-5.51-1.35-.17-3.14-.26-4.19-1.57-1.14-2.27,3.73-2.61,3.41-4.72-.61-4-5-.39-6.65-3-1.48-2.36,3.11-5.32-.34-7-3.24-1.57-12.77,11.28-14.75,13.75-1.62,2-9,11.56-14.14,7-6.06-6.28,11.05-17.55,13.84-20s-.4-5.83-2.44-6.12c-2.63-.37-2.93,3.22-4.49,3.15-2.81-.3-.58-3.91-3-4.49s-3.32.76-3.61,4c-.38,4.21-1.23,10.37-4.43,10.08-2-.18-1.74-2.64-1.11-5.42.81-3.61-.26-4.66-2.16-5.13-1.63-.41-2.68.61-2.95,2.45-.14,1-1.47,1.69-2-.06-.82-3.44-5.66-3.15-5.71.12a108.87,108.87,0,0,0,.84,17.54c3.6,29.54,29.14,71.58,21.45,73.22-3,.63-11.52-7.62-14-9.33-11.42-7.92-19.79-9-20-21.91-.18-8.46,10.33-11.86,11.14-14.66,1-3.48-2.07-4.8-4.84-3.29-.84.45-1.26-.15-1.17-1.2.19-2.23-.92-3.81-2.9-3.55-2.74.35-7.91,14.07-12.81,11.28-6.73-3.85,4.23-14.1,5.51-18.19,1.09-3.5-2.1-5-3.33-3.85-.7.66-1.31,3-2.23,2.85s-.34-2.4-1.35-3.41c-1.4-1.4-3.68-.31-3.66,1.88,0,1.83,1.19,6.4-.62,6.9-2.51.7-1.32-3.9-3.52-4.2-1.77-.24-2.17.56-2.17,2.08,0,.52-.54.57-.88.41-1.79-.84-5.57-.64-.95,5.91,3.67,5.22,2.54,10.68-1.05,11.54s-6.82-9.22-8-12.12-8.16-.76-6.58,3.44c2,5.34-2.52,4-4.61,3.72s-4,4.61-.7,6.3c3.94,2,17.15,4.8,14.57,12.3s-9.75.43-12.35.76c-1.87.23-2,2.68-.76,4,.8.81.46,1.93-.4,2-3.15.33-3.34,3.29.8,6.73,5.48,4.55,13.23,5.83,30.6,4.66,8-.54,21.92-1.4,32.53,7.34,16.79,13.84,15.16,30.55,15.16,36.73,0,4.55-1.52,17.08-4.08,17.13-3.9.09-3.5-12.26-9.91-19.7C776.25,684.94,774,687.53,770,682s-1.54-11.67,4-11.67c3.32,0,2.75-2.92,1.14-3-4.34-.12.33-3.57-1.62-5s-3.68,1.94-5.22,1.58c-2.45-.58.2-3.81-2-4.9-1.63-.81-1.85.88-3,2.22s-1.57-1.39-3-.47c-2,1.33,3.44,7.17.26,7.78-7.69,1.49-2.88-4.73-5-8-.93-1.42-3.81-1.45-5.8,1-.46.57-1.78.23-2.05-.53-.79-2.28-2.35-3.06-4.56-1.8-1.23.7-.38,2.74-1.32,4.73-.78,1.66-2.21.53-2.49-.2a14.59,14.59,0,0,1-.8-3.8c-.38-3.5-3.59-3-4-1.86a14.2,14.2,0,0,0-.09,3.22c0,1-.79,1.69-1.43.86-.14-.2-.58-.79-.7-1-.67-1.19-3.33.16-2.8,1.4.68,1.49,0,1.89-1.22,1.57-.8-.41-2.25,1.32-1.75,2.27.59,1.14-1.9,1.55-1.72,3.82.2,2.71,5.85,3.76,9.53,5.16s6.65,5.07,5.94,8c-1,3.93-5.81,4.11-7.74,2.19s-1.26-6-2-8.79a2.43,2.43,0,0,0-4.24-1c-.74,1.1,0,2-1.23,2.45-1.35.57-2-1.18-4-.17-2.74,1.34-1.27,4.89,3.89,6.69,2.29.8,2.1,4.76-.17,5.81-2.09,1-4.24-1.18-6.11-2.94-1.15-1.09-3.55.55-2.27,3.51a1,1,0,0,1-.72,1.42c-1,.14-2.15.5-2.49,1.24-.67,1.49.35,4,9,6,8.8,2,14.11-.12,19.35-2.16,1.61-.62,13.29-5.59,24.66-4.89s14.33,5.42,16.26,9.62c1.46,3.17,3.89,13.58,1.86,21.68-2.62,10.49-8.51,16.09-8.51,16.09Z"/><path class="cls-3" d="M979,678.76c-5.89-.18-12.9.66-17.81,3.7-.38.32.37,1.54.37,1.54s-.79-1.36-1.21-.84-1.92,5.14,9.77,6.54c2.29,2.25,7.24,3.18,8.32-.79l.89-.28s2.94,6.78,9,3.88c1.87-1.08,1.5-4.86-1-5.89.89-.28,2.1-.28,2.57.42s-.09,4.53,4.35,4.25,6.87-9.91,2.85-10-5.42,1.88-6.54,1.69c1.63-1.54,4.62-1.92,4-3.09S986.48,672.4,979,678.76Z"/></g><g id="Layer_2" data-name="Layer 2"><path class="cls-5" d="M0,506.75c82.56-40.93,101.77-44.48,137.51-21.24,48,31.22,11,148.06,101.11,170.47C365.37,687.5,368.54,894.78,499.87,811.6c91.92-58.21,37.56,15,153.19-9.19s49.54,99.93,208.34,94.47c63.4-2.19,74.19,156.42,196,120.63,73-21.44,101.28-88.88,159.31-55.91,110.56,62.81,136.09-87.07,161.62-74.8,67.92,32.64,108.62-55.28,162.61-35,58,21.74,99.86-58.61,129.48-77.32,51.89-32.78,40.85-74.55,105.19-105.19,103.11-49.11,58.72-122.47,144.36-162.51V1080H0V506.75"/><path class="cls-5" d="M100.06,487.74l0,0Zm224.84-212c-.56.41-1.19.75-1.78,1.15a38,38,0,0,1-3.64,2.65c-.68.43-1.39.86-2.11,1.27a9.59,9.59,0,0,1-2.76,6.48,10.31,10.31,0,0,1-4.31,2.51c-.06.29-.12.58-.19.87a7.94,7.94,0,0,1,3.22,2,8.73,8.73,0,0,1,2.21,4.17,12.26,12.26,0,0,1,8.64,8.26c1.49,5.43-1.81,13.16-8,14.06l-2.16.31a10.26,10.26,0,0,1,.37,2.73c.29,3-.61,6.62-3,8.47l-.19.16a10.61,10.61,0,0,1-4.72,2.75,10.81,10.81,0,0,1-5.7,0c-.25-.07-.51-.17-.75-.26-.3,1.1-.56,2.22-.86,3.32a7.33,7.33,0,0,1,3.95,3.4,10.09,10.09,0,0,1,1,3.07c0-.21-.05-.42-.08-.63a2,2,0,0,0,.18.54,6.33,6.33,0,0,1,.41,2.32,14.54,14.54,0,0,1,8.14,6.72c2.76,5.56,1.53,12.29-4.08,15.59a11.05,11.05,0,0,1-9.11.95,10.41,10.41,0,0,1-1.34,4c-2.55,4.36-8.71,6.62-13.36,4.28-1.27,2.6-2.59,5.17-4,7.71a10.94,10.94,0,0,1,4.28,11.7,12.27,12.27,0,0,1-1.35,3,29,29,0,0,1,10.53,11.48c2.79,5.84,1.66,12.78-4.27,16.25-7.19,4.22-14.65-.09-17.46-7.09.5,1.23-1.33-1.26-1.72-1.55a35.69,35.69,0,0,0-4.73-2.84,30.7,30.7,0,0,1-3.18,1.13,18.58,18.58,0,0,1-2.43.56c-.07,0-2.66.76-1.22.13a10.33,10.33,0,0,1-7.91.28c-3.93,3.23-7.93,6.38-11.92,9.47a9.2,9.2,0,0,1,1,4.13,12.71,12.71,0,0,1-3.74,9.2,18.16,18.16,0,0,1,1,1.49,10.83,10.83,0,0,1-12.23,15.92,10.65,10.65,0,0,1-6.84-5.88l.24.57a5.38,5.38,0,0,0-.39-.71,7.87,7.87,0,0,1-6.6-.42,1.43,1.43,0,0,0-.21-.12,6,6,0,0,1-1-.67c-9.82,8.46-19.77,16.6-31,23.2-.91.76-1.81,1.51-2.73,2.25A4.59,4.59,0,0,1,180,476a5,5,0,0,1-2.66,9.64,4.91,4.91,0,0,1-3.49-3.76c-.36,0-.7,0-1.05,0a8.09,8.09,0,0,1-2.63-.37c-.08,0-.09-.12-.15-.16-.95.65-1.84,1.36-2.81,2C155.56,490.78,143.59,497,133,506a116.3,116.3,0,0,1,16.93-3.28c.05-.33.09-.65.16-1.14a24.46,24.46,0,0,1,1-2.4c2.06-3.72,6.12-4.61,10-4.85a17.43,17.43,0,0,1,10.35,2.58c3.19-1.24,6.41-2.39,9.64-3.51,0-.29.05-.64.05-.86a12.93,12.93,0,0,1,1.65-6c3.64-6.09,9.11-9.74,16.4-8.41a8.43,8.43,0,0,1,2.66,1,8.33,8.33,0,0,1,2.72-.49,8.8,8.8,0,0,1,5.86,2.42,1.24,1.24,0,0,0,.22.18,6.72,6.72,0,0,1,1.58,2.09c5.07-1.65,10.09-3.37,15-5.38.15-.44.29-.86.46-1.3.49-1.3,1-2.56,1.56-3.84a.11.11,0,0,0,0-.06c.05-.16.13-.41.26-.77-.19.53,2.74-7.26.92-2.15a12.82,12.82,0,0,1,3.45-5.68c6-5.16,14.15-3.58,17.66,3.06a84.93,84.93,0,0,0,9.35-5c13-8.25,25.16,12.64,12,20.53-7,4.22-15.45,6.58-23.25,9.49,1,3.75-.15,8.22-3.9,10l-.25.11a8.83,8.83,0,0,1-1.73.76,11,11,0,0,1-3.31,7.63A11.79,11.79,0,0,1,223,509.51a9.33,9.33,0,0,1-7.6-.75,9,9,0,0,1-3.7-4.19,185.69,185.69,0,0,1-33.75,4.62,9.14,9.14,0,0,1-5.87,5.86,1.72,1.72,0,0,1-.21.07,6.1,6.1,0,0,1-1,.22,9.72,9.72,0,0,1-7,11.17c-5,1.38-11-1.65-12.19-6.93-.15-.7-.48-2.76-.55-3.22-.18-1-.36-2.09-.51-3.16-.1-.89-.27-2.38-.27-2.87a6.82,6.82,0,0,1,.06-1.11c.05-.43.08-.77.12-1.06-1.74-.22-3.49-.4-5.23-.67a.89.89,0,0,1-.66-.95c-4.82.84-9.64,1.78-14.52,3a1.25,1.25,0,0,1-.87-.09,80.66,80.66,0,0,0-7.17,8.11c.13,0,.25-.08.37-.1,2.54-.37,5.06.59,5.8,3.3s-1.45,6.17-4.55,6a11.36,11.36,0,0,1-4-.87c-.13.08-.27.14-.4.21a12.19,12.19,0,0,0-2,1.52c-1,.92-2.13,1.64-3.25,2.47-.07.06-.15,0-.23.07a108.43,108.43,0,0,0-5.35,10.81c.08,1.9.19,3.79.19,5.72,0,2.44-3.84,2.44-3.79,0v-.4a1.13,1.13,0,0,1-.38-1.46c.12-.29.25-.56.38-.86a149.89,149.89,0,0,0-4.1-33.06s-.08,0-.13,0a3.71,3.71,0,0,1-1.61-.86l-.45-.08A6.57,6.57,0,0,1,95,508.73c-.09-.06-.56-.28-.88-.44a5.25,5.25,0,0,1-3,0,5.76,5.76,0,0,1-4.18-5.5c0-5,6.17-7.44,9.73-4h0c.37.18.74.41,1.11.62-2.2-7.71-4.74-15.35-7.47-22.95-1.25-2.18-2.48-4.38-3.68-6.57a2.38,2.38,0,0,1-.54,0l-1.35-.2a5.63,5.63,0,0,1-1.09.7c-.34.16-.62.27-.87.38l-1.67.64a6.53,6.53,0,0,1-3,.4c-3.4-.34-6.31-1.58-8.12-4.66a9.47,9.47,0,0,1,0-9.49A9,9,0,0,1,78,453.17c-3.45-7.28-6.6-14.61-9.43-22.06a9,9,0,0,1-10.16-6.55c0-.11,0-.22-.07-.33a9.93,9.93,0,0,1-.29-2.16,40.3,40.3,0,0,1-8.33-4.59c-2.66-1.91-3.1-2.17-5.42-2-14.2,1-14.43-22.05,0-22.24a19.64,19.64,0,0,1,7,1.14,11.46,11.46,0,0,1,2.59-4.71,6.29,6.29,0,0,1,2.24-1.61c-.53-2.6-1-5.21-1.51-7.84a8.15,8.15,0,0,1-9.46-8.36,8.23,8.23,0,0,1,1.1-4c-2.37-.76-4.77-1.46-7.15-2-5.85-1.31-9.21-8-7.68-13.52a11.11,11.11,0,0,1,16.15-6.57,39.21,39.21,0,0,1,4,2.7c-.06-2.65-.12-5.29-.15-7.92a40.88,40.88,0,0,1-5.48-6.7c-2.11-3.23-3.95-7.23-7-9.08-9.86-6-4.71-19.62,3.76-21.47v-1a9.3,9.3,0,0,1,7.11-9,24.17,24.17,0,0,1,2.4-8.88,38.49,38.49,0,0,1-1.66-7.11c-.93-7.45-1.05-14.63,4.18-20.52,5-5.67,15.39-2.75,17.06,4.5,1.32,5.73-.26,12.65-1.1,18.51.12.08.21.18.33.25.38-.25.75-.53,1.14-.77,10.35-6.27,22.54,8.86,13.1,17A30.55,30.55,0,0,0,81,300.85a9.92,9.92,0,0,1,4.16,7.87,10.15,10.15,0,0,1-1.37,5.59,26.47,26.47,0,0,1-2.32,2.94,9.38,9.38,0,0,1-6.32,3.25c0,1.43,0,2.86,0,4.28,0,4.63,0,9.23,0,13.84a7.46,7.46,0,0,1,1.09.74,5.91,5.91,0,0,1,2,3.64c3.35-.75,6.92.41,9.88,2.72l.12.09c3.64,2.84,3.79,9,1.64,12.66a10.43,10.43,0,0,1-8.11,5.08,7.42,7.42,0,0,1,1,3.65,7.52,7.52,0,0,1-6.7,7.39s0,.07,0,.11a9.6,9.6,0,0,1,1.94-.2,10.16,10.16,0,0,1,8.56,4.83c5.68-2.43,13.55,2.11,13,8.72-.54,6.45-4.85,13-9.2,17.84a22.76,22.76,0,0,1-2.38,2.27,9.89,9.89,0,0,1-2,15.85c2,7.57,3.89,15.13,5.38,22.72a8.78,8.78,0,0,1,9,2.22c4.18,4.19,3.37,11.68-1.89,14.63h0l-.09.09c-.32.3-1.65,1.71-1.36,1.19a18.44,18.44,0,0,1-2,2.63,5.58,5.58,0,0,1-.87.74c.14,2.79.15,5.6.06,8.42,1.7,4.85,3.33,9.72,4.84,14.62a9.65,9.65,0,0,1,.61-2c-.45,1,.69-1.79.54-1.58A5.69,5.69,0,0,1,104,484.9a5.36,5.36,0,1,1,.73,10.61v0a10.63,10.63,0,0,0-.32,1.44,11.52,11.52,0,0,0-.12,1.84,9.15,9.15,0,0,1,.34,3.23c-.07,1.5.19,3.16-.25,4.6a1.76,1.76,0,0,1-.87,1.09,184.5,184.5,0,0,1,4.23,24.17c1.29-7.43,3.61-14.74,5.75-21.95a.93.93,0,0,1-.49-.47c0-.06,0-.1-.07-.16a4.39,4.39,0,0,1-3.93-4.07.08.08,0,0,1,0,0c0-.21,0-.42,0-.62,0,0,0,0,0,0v-.16s0,.09,0,.15l0,0c.19-1.85.2-1.38.12-.95,0,.11,0,.22,0,.32a3.55,3.55,0,0,1,.06-.55,4.4,4.4,0,0,1,3.12-3.11,4.13,4.13,0,0,1,3.72.76c1.28-5,2.44-10.08,3.33-15.15a3.07,3.07,0,0,1-.88-.54,4,4,0,0,1-.73-.87c-.18,0-.37,0-.56-.07a4.62,4.62,0,1,1,3.56-8.44l.07.06c.35-2.74.62-5.51.87-8.29a1.5,1.5,0,0,1-1-1.15c-1.32-7.79-2.23-11.35.22-19.25a42.75,42.75,0,0,0,1.46-6.6c-1.86-3.54-1.08-7.29.72-10.79,0-2.72,0-5.44.06-8.16a3.92,3.92,0,0,1-1.24-1.85c-1.07-3.74-.94-7.86-1.28-11.79-3.76-6.82-5.31-14.9-7.43-22.49a8.32,8.32,0,0,1-6.77-.23c-2.76-1.3-4.25-3.49-5.8-6-1.13-1.85-2.41-3.82-2.75-6-.61-3.9,1-6.66,4.62-8.13a7.6,7.6,0,0,1,4.08-.35c-2-6.21-3.8-12.46-5.34-18.79-.29-1.22-.53-2.46-.78-3.7A13.6,13.6,0,0,0,98.42,341a19.89,19.89,0,0,1-1.63-1.14,5.75,5.75,0,0,1-4.19,2,5.41,5.41,0,0,1-5.36-5.35c0-.15,0-.29,0-.43a5.17,5.17,0,0,1,1.06-3.17c-3.05-3-4.3-7.36-1.88-11.47a8.8,8.8,0,0,1,9.36-4.3,80.37,80.37,0,0,1-2.37-22,10.45,10.45,0,0,1,10.31-10.31h.53c6.86-.09,11.43,7.06,9.74,13,0,1,0,1.94,0,2.9,5.64.27,11,4.73,9,12.18a42.92,42.92,0,0,1-4.25,10.8,6.12,6.12,0,0,1,2.59,3.59,7.17,7.17,0,0,1,0,3.79c-.26.66-.54,1.31-.83,2l-1.11,1.43c-1.7,1.33-1.91,1.49-.65.48a9.08,9.08,0,0,1-3.59,1.93c.94,3.14,1.91,6.29,2.83,9.45.58,2,1.21,4,1.83,6,2.46-.94,5.49-.51,6.8,1.88-.18-2.66-.43-5-.46-6-.3-7.79.11-15.58.29-23.37l-.68-1.48c-2.31-5-2.81-10.82-.33-15.79a7.41,7.41,0,0,1,1.29-1.81c.11-6,.31-11.91.75-17.86a43.63,43.63,0,0,1-2.84-12.37,16.6,16.6,0,0,1-.93-17,5.89,5.89,0,0,1,.68-.88c-13.86-2.37-6.84-23.68,5.7-16.88a25.46,25.46,0,0,1,5.13,3.76c.16-1,.47-2.82.52-3.16.25-1.4.37-2.85.74-4.23.22-.81.48-1.73.8-2.7-.1-.13-.2-.23-.3-.37a7.67,7.67,0,0,1-.66-1.49c.55,1.48.29.78.12.42-.79-1.83-.82-3.77.68-5.28a5.7,5.7,0,0,1,1.41-1c-1.06-3-2.4-5.78-2.36-9.19a7.72,7.72,0,0,1,11.5-6.6c7.6,4.14,8.39,13.9,7.29,22.15a6.59,6.59,0,0,1,6.81,1.61c2.55,2.55,2.67,7.34,0,9.84.24,3.28-.72,6.95-1.27,9.91-1.57,8.37-1.31,17.06-3.86,25.22a7.58,7.58,0,0,1,3.09,2.5,4.4,4.4,0,0,1,.71,1.46,20.78,20.78,0,0,0,3-4.48c5.5-10,21.41-.71,15.27,8.93a18.33,18.33,0,0,1-10.85,7.89.83.83,0,0,1,.08.12c1.91,3.35.36,8.82-3.88,9.53a11.08,11.08,0,0,1-5.75-.27c-.24.37-.46.76-.68,1.15,0,0-.65,1.5-.3.63a8.18,8.18,0,0,1-3.35,4.53s-.08,0-.1.06c0,11.51-1.73,22.74-3.8,34.05a59.26,59.26,0,0,1-2.49,10.2c.54-.42,1.08-.81,1.63-1.16a49.15,49.15,0,0,0,9.12-7c-.23-.17-.46-.32-.69-.51l-.23-.18a6.11,6.11,0,0,1-2.09-3.44,14.85,14.85,0,0,1-1.26-9.05c.71-3.25,4.49-5.2,7.59-4.31a13,13,0,0,1,4.48,2.45c1.74-5,3.57-10.14,6.66-13.9,6.11-7.42,18.25.54,15.67,9.13-1.49,5-4.73,9.59-8.37,13.82a8.09,8.09,0,0,1,1.5,2.77,7.9,7.9,0,0,1-2,7.6c-2.32,2.33-6.63,3.23-9.47,1.23l-.62-.44a73.72,73.72,0,0,1-7.2,6.26,7.76,7.76,0,0,1,1.72,3.17c1.29,4.69-2.48,10.88-7.84,10.3-1.79-.19-3.58-.27-5.37-.3,0,2.09-1.23,3.81-2.27,5.62-1.28,2.23-2.67,4.61-4.94,5.82q-.57,4.32-1.25,8.64a1.82,1.82,0,0,1,.72.68c3,1.56,5.73,4.41,5.26,8.15a16.64,16.64,0,0,1-3.92,9.45,7.23,7.23,0,0,1-5.8,2.62c-.12.6-.23,1.19-.35,1.79-.23,1.15-.5,2.27-.75,3.4a6,6,0,0,1,2,1.31c4.11,4.2,2.07,9.66.06,14.31-1.61,3.71-3.28,8.07-7.21,9.84-1.31,8.82-2.7,13.69-7.09,21.18-.26,2.36-.53,4.72-.9,7,1.26-1.95,3.16-2.72,5.73-2.35,2.1.31,3.57,2.74,3.57,4.69a4.88,4.88,0,0,1-3.57,4.69,7.78,7.78,0,0,1-1.65.25l-1-.13c-.64.11-1.45.24-.53.1a15.17,15.17,0,0,0-1.89.42,2.26,2.26,0,0,0-1,.76,4,4,0,0,1-.51,2.28,5.91,5.91,0,0,1-1.27,2.33,2.86,2.86,0,0,1-.44.3c-1,4.73-2.15,9.44-3.35,14.19-.29,1.16-.55,2.34-.82,3.51a4.48,4.48,0,0,1-1.1,4.68c-1.65,7.45-3.17,15-5.19,22.36.38-.7.79-1.35,1.17-2a12.5,12.5,0,0,1,3.16-5.28,99.32,99.32,0,0,1,8.9-12c0-.09-.06-.14,0-.24.73-2.95,1.88-5.77,2.62-8.71l-.08-.05c-3.51-1.65-2.48-7.25,1.06-8.09a4.31,4.31,0,0,1,3.42.44c2.95,1.9,3,7.37-1.06,8.1a2.2,2.2,0,0,0-.36.13c-.5,1.43-1.1,2.84-1.69,4.24a101.53,101.53,0,0,1,11.65-10.17s-.08,0-.11-.06a4.42,4.42,0,0,1-1.26-2.87,1,1,0,0,1,0-.16,5.74,5.74,0,0,1-.2-1.7,3.82,3.82,0,0,1,2.72-3.56,3.71,3.71,0,0,1,4.17,1.7,5.21,5.21,0,0,1,.62,2.48l.79-.54,5.64-3.64a.78.78,0,0,1,.1-.78,11.16,11.16,0,0,0,2.58-6.2c0-1-.44-1.27-1-2a6.82,6.82,0,0,1-.79-3.41,3.58,3.58,0,0,1,2.64-3.47c2.07-.56,3.68.7,4.42,2.51,1.24,3-.55,4.77-1.72,7.36a19.74,19.74,0,0,1-1.84,3.2c4.51-2.92,8.91-5.92,13.24-9a1.93,1.93,0,0,1,.83-2.5c9.28-5.76,14.33-14.48,20.94-22.76,1.24-1.54,2.53-3,3.81-4.53-.83-6.49-2.1-13-3.58-19.47a6.28,6.28,0,0,0-2.35-1.22c-4.74-1.5-8.41-4.15-12.12-7.39-4.48-3.92-4-11.47,0-15.47a11.74,11.74,0,0,1,7.31-3.14c-.11-.36-.23-.73-.34-1.1a13.6,13.6,0,0,1-1.64-.47l.43.18c-.38-.15-.76-.28-1.16-.4-6.64-2.06-10.09-9.71-6.46-15.9a10.72,10.72,0,0,1,3.58-3.66,25.57,25.57,0,0,1,0-10.09c.9-4.95,5.73-7.1,10.09-7.68l1.3-.16c5.35-.66,9.91,4.53,10.55,9.48a9.72,9.72,0,0,1,6.12,1.25c6,3.54,6.14,10.93,2.05,15.91-1.81,2.2-4,4.06-5.9,6.16.15,1.7.32,3.39.51,5.08a13.13,13.13,0,0,1,6.52-.49l.16,0c4,.59,7.82,5.69,7.36,9.68a11.92,11.92,0,0,1-6.63,9.9,13.43,13.43,0,0,1-3.74,1.73,8.66,8.66,0,0,1-1,.16,1.55,1.55,0,0,1-.19.24c.13,2.24.13,4.4.06,6.53a6.22,6.22,0,0,1,5.16,2.74c1.1-1.16,2.19-2.31,3.27-3.48a193.24,193.24,0,0,1,14.18-13.32c.11-.78.22-1.56.31-2.35-.25,2-.18,1.41.24-1.71-.37,2.65-.06-.25,0-.68.06-.85.08-1.71.13-2.56,0-.51-.08-1.79,0-1.71a13.06,13.06,0,0,1-.23-2.71c.31-8.75,10.06-13.72,16.85-10.11,2.14-1.77,4.48-3.21,6.74-4.84,2.72-1.95,4.33-5.53,5.38-8.61a39.1,39.1,0,0,1,2.24-5.24,13.84,13.84,0,0,1-2.29-2.84c-3.54-6.55.72-17.42,9.42-16.43h0a19.76,19.76,0,0,1,3.56-10.28l-.43-.56a11.31,11.31,0,0,1-1.46-5.58,8.44,8.44,0,0,1,.08-1.59c0,.19-.06.37-.08.56,0-.24.06-.48.08-.73s0-.32.06-.48a15.06,15.06,0,0,1,1.56-6.18,11.6,11.6,0,0,1,2.24-2.8l-.46-.75c-.89-1.36-1.84-2.7-2.79-4a15.91,15.91,0,0,0-1.7-2.12c-.34-.4-1.63-1.53-1.85-1.81a12.05,12.05,0,0,1-1.07-.68c-7.82-6-7.53-17.89,2.77-21.15,5.08-1.62,9.21.16,12.58,3.32a7.29,7.29,0,0,1,2.76-1.18c.46-.09.85-.14,1.27-.2,0-.11,0-.22.07-.33l.12-.36a6.23,6.23,0,0,1,2.41-3.26,8.92,8.92,0,0,1-4.12-7.49,10.55,10.55,0,0,1,1.32-5.09c-2.34-2.2-4-5.63-3.71-8.62,0-.28.06-.55.09-.84.7-6.4,4.84-11.83,11.83-11.83.14,0,.28,0,.43,0-.95-5.54.53-12.36,1.17-16.77,1.17-8,4.45-17.82,12.33-21.26,2.6-4.58,7.31-7.41,13-5.86a11.68,11.68,0,0,1,8.33,11,8,8,0,0,1,.56,1c2.89,6.14.91,12-1.6,17.91a67.19,67.19,0,0,1-4.6,9.28,12.59,12.59,0,0,1,6.66,5.35c3.6,6.22.88,12.61-4.36,16.58ZM149.06,251.43a35.22,35.22,0,0,0,6-9.06c.12-.23-.23-.52-.41-.3-2.44,2.39-4.35,5.35-7.38,7.1-1.86,1.1.35,3.84,1.75,2.26ZM117.53,372.86h1c1.82-1.08,3-4,4-6.41.23-.59.46-1.16.68-1.65l.16-.35c1-2.21,2-4.5,1.56-6.78a17.26,17.26,0,0,0-2.42,5.16c-.28.81-.57,1.64-.89,2.42a16,16,0,0,1-1.77,3.06,14.72,14.72,0,0,0-1.6,2.75Zm-11.06-35.75h.59c4-.46,5.82-7.28,6.58-10.22a66.77,66.77,0,0,0,2-11.35,83.19,83.19,0,0,1-3.1,9.54,44,44,0,0,1-3.9,7.87l0,.06a9.89,9.89,0,0,0-1.4,2.18Zm21.72,77.21v.16a5.85,5.85,0,0,1,.13.88c0,.13,0,.26,0,.4l0,.19c.29,1.07.93,1.83,1.56,1.83s1.19-.69,1.49-1.69l0-.13c.06-.48.11-1,.22-1.46v-.1c1.6-10.44,3.33-22.79,4-35.26.23-3.88.35-7.86.46-11.71l0-.75.53-.18a1.73,1.73,0,0,1,.38-.08l.12,0c1.33-.62,2.67-1.22,4-1.82,7.68-3.45,15.63-7,21.61-13,4.8-4.79,8.74-10.37,12.53-15.83l-.18.22c-4.15,5.1-8.44,10.37-13.66,14.39-7.34,5.71-15.28,9.38-23.69,13.27l-1.59.74,0-1.3c.19-7.09.28-14.3.37-21.27.07-5.81.14-11.83.27-17.73v-.51l.47-.21a1,1,0,0,0,.55-.75.91.91,0,0,0-.35-.78H137l0-.84c.29-8.19.59-14.41,1-20.19L138,300h.76a1.45,1.45,0,0,1,.41.07,9,9,0,0,0,1.19.08c4,0,9.11-2.44,13.2-4.39,1-.48,2-.94,2.83-1.32,3.79-1.72,7.92-3.87,10.81-7.08l-2.58,1.12c-4.09,1.77-8.31,3.6-12.65,5-1.13.37-2.38.7-3.69,1-3.06.8-6.51,1.7-8.74,3.42l-1.45,1.12.15-1.82c0-.34.05-.71.06-1.07s0-.75.06-1.15c.77-8.32,2.36-16.57,3.9-24.55,3-15.62,5.89-30.45,3.15-46.15-.08,3.18-.09,6.35-.09,9.44,0,11.32-.07,23-3.37,34.6v.12l-1.55.31a22.7,22.7,0,0,0-3.76-5.94c-1.47-1.69-3-3.34-4.5-4.94,1.24,1.93,2.37,3.88,3.48,5.8l.17.29a43,43,0,0,1,3.38,6.71c.44,1.14.56,1.46,1.19,1.95l.41.32-.12.51a148,148,0,0,0-4,30.42c-.16,3.4-.26,6.87-.36,10.22,0,1.7-.11,3.4-.16,5.1l0,1.26-1.13-.56a1.86,1.86,0,0,1-.51-.34l-.38-.29a6,6,0,0,0-1.52-1l-.31-.11-.15-.28a15.37,15.37,0,0,0-1.8-2.59l-.13-.16-.42-.51a15.14,15.14,0,0,0-3-3h0a23.55,23.55,0,0,0,2.31,4.54c.69,1.19,1.74,3,3.08,3.2h.37l.24.29a8.87,8.87,0,0,0,.68.69c.12.11.23.21.32.31.64.63,1.23,1.17,1.85,1.75l.43.4-.17,6.29c-.51,18-1,36.63-2.45,54.85-.56,7.1-1.4,14.27-2.56,21.91l-1.59.05c-2.42-11.3-7.1-22.29-11.23-32l-.47-1.13h0l-.77-1.77c-.55-1.27-1.09-2.58-1.61-3.85-.37-.91-.74-1.82-1.13-2.74a149.9,149.9,0,0,1-7.77-26.41l-.2-1h0l-.4-2.07a298.32,298.32,0,0,1-4.08-33.88,0,0,0,0,0,0,0,232.42,232.42,0,0,0,2.54,32.6l.38,2.44-1.69-1.69-.13-.09-.47-.28a23,23,0,0,1-4.45-3.18,55.4,55.4,0,0,1-4.15-4.47,18,18,0,0,0,2.49,4,17.75,17.75,0,0,0,1.31,1.32c1.19,1.12,2.53,2.38,2.86,3.7a7.39,7.39,0,0,0,4.33,4.06l.52.12.1.52a148.79,148.79,0,0,0,4.1,16.52c1.68,5.15,3.75,10.28,5.74,15.24l.54,1.33-1.42-.24a28.05,28.05,0,0,1-3.13-.77,16.74,16.74,0,0,0-4.61-.87c-.34,0-.67,0-1,.05.65.31,1.3.61,2,.93a32.75,32.75,0,0,0,8.7,3.2l.45.07.17.42c5,12.07,10.08,24.56,11.45,38.29ZM94,458a26,26,0,0,0,1.08-3c-.79,1.18-1.51,2.29-2.09,3.21s-1.19,1.83-1.76,2.7l0,0,0,0A8.17,8.17,0,0,1,90,462c-.22.19-.42.36-.6.54l-.9.9-.43-1.19L86,456.7c-5.25-14.21-10.68-28.9-14.75-43.76l-.22-.78.79-.21c5.75-1.51,10.29-7,13.61-11.61,1.48-2.06,2.81-4.31,4.09-6.47.86-1.46,1.75-3,2.69-4.43.26-.4.54-.81.83-1.24a19.1,19.1,0,0,0,3-5.59.75.75,0,0,0-.11-.65.83.83,0,0,0-.61-.29.81.81,0,0,0-.67.4,35.63,35.63,0,0,0-2.59,5,36.55,36.55,0,0,1-2.82,5.44,78,78,0,0,1-8.88,11.16,22.89,22.89,0,0,1-9.08,5.76l-.83.28-.21-.85a268.45,268.45,0,0,1-7-44.3L63.1,364l.58-.21c3.61-1.36,6.71-3.94,9.71-6.44l1.45-1.17c3-2.36,6.62-5.3,8.09-8.48a.23.23,0,0,0,0-.25.17.17,0,0,0-.13-.09.39.39,0,0,0-.14,0,29.36,29.36,0,0,0-5.86,4.76A41.17,41.17,0,0,1,72.38,356a39.43,39.43,0,0,1-8.48,4.39l-1,.37-.08-1.07c-.54-8-.92-16.64-1.1-25.56-.06-4.48-.06-9.09,0-13.68v-.8h.62c3.32-2.14,6.53-7.61,8.25-12.14.43-1.15,1-2.34,1.58-3.6,1.48-3.12,3.13-6.61,2.64-9.73a29.13,29.13,0,0,0-3.11,6.67A34.93,34.93,0,0,1,69,307c-.78,1.27-1.68,2.53-2.62,3.85-1.08,1.52-2.19,3.1-3.13,4.68l-1.55,2.64.11-6.78c.25-14.42.51-29.29-1.1-43.59-1.66,21.1-1,42.93-.37,62.35l.06,1.8L59,330.75c-1-.84-2.06-1.71-3.19-2.5a23.41,23.41,0,0,0-2.24-1.19,20,20,0,0,1-3.2-1.81c-.83-.61-1.64-1.32-2.43-2a21.22,21.22,0,0,0-4.92-3.53,16.34,16.34,0,0,0,4.14,4.93,25.61,25.61,0,0,1,3.47,3.67c1.94,2.69,4.89,3.92,8,5.23l.88.37,0,0,.08,0h.74l0,.78c.06,1.38.12,2.8.12,4.14.25,7.76.61,14.85,1.1,21.64l0,.63-1.68.56a1.39,1.39,0,0,0-1,.77l-.31.69-.72-.26a35.54,35.54,0,0,0-3.8-1.12l-1.41-.37-1.18-.32A79.75,79.75,0,0,1,44,358.72a17.74,17.74,0,0,1-1.92-.87,10.14,10.14,0,0,0-3.43-1.21c.6,3.45,6,5.27,9.24,6.37l.37.12,2,.64a52.27,52.27,0,0,1,7.49,2.84l1,.49A4.9,4.9,0,0,0,61,368a3,3,0,0,0,.42,0l.84-.13.08.85a301.74,301.74,0,0,0,6.15,40.5c.1.52.24,1.14.45,1.9l.42,1.54L67.84,412A50.21,50.21,0,0,0,62,410.31a54.05,54.05,0,0,1-6.06-1.77c-2-.8-4.11-1.58-6.11-2.33s-4.14-1.55-6.23-2.37a29.79,29.79,0,0,0,10.28,7.09l2.13.93c3.65,1.61,8.19,3.61,11.93,3.61a9.69,9.69,0,0,0,1.09-.06.91.91,0,0,1,.34-.07H70l.15.6C74,430.77,79.59,445.5,85,459.74l2,5.42-1.64-.59a19.63,19.63,0,0,0-6.43-1.5h-.14c.93,1.83,3,2.76,5.11,3.66.49.22,1,.43,1.45.66a1.54,1.54,0,0,0,.63.16h.15a17.2,17.2,0,0,1,3.21-2.21v-.46h.8l.08,0,.14,0a2.56,2.56,0,0,1,.63-.29l0,0,0,0s0,0,0-.06l.11-.12a6.71,6.71,0,0,0,.83-1.89,11.57,11.57,0,0,1,.58-1.56c.53-1,1-2,1.32-2.86Zm57.47,46.76a2,2,0,0,0,.29.64,2.33,2.33,0,0,0,.93.7c1.22,2.78,4.13,4.82,5.69,7.44,1.69,3,3.55,5.93,5.35,8.89.06.11.29.11.24-.06-.41-3.66-1-7.21-2.86-10.41a25.23,25.23,0,0,0-4.18-6,7.87,7.87,0,0,0-1.39-1.1c1.1-.17,2.21-.28,3.31-.4,4.88-.64,9.77-1.05,14.82-1.45,10.46-.87,21.39-1.22,31.56-4,3.71-1.05,7.38-2.27,11-3.55a.66.66,0,0,0,.24.7c2.32,2,5.81,2.38,8.66,3.49a28.12,28.12,0,0,1,9.7,6.21.8.8,0,0,0,1.17-1.1,24.12,24.12,0,0,0-9-6.85c-2.61-1.11-5.75-2.79-8.66-3.2,5.12-1.92,10.12-4.07,15.12-6.46a3.09,3.09,0,0,0,1.16-.58,339.26,339.26,0,0,0,34.12-19.35c.17-.06.06-.29-.12-.18-10.11,4.36-19.88,9.82-29.82,15,.7-1.05,1.34-2.1,1.92-2.85,2.15-3.14,3.95-5.76,4.48-9.53,0-.29-.41-.41-.64-.23-2.44,2.56-4.13,5.52-6.28,8.37a68.54,68.54,0,0,1-4.47,5.41,7.14,7.14,0,0,0-1.69,2.2c-10.17,5-20.57,9.31-31.79,11.46-5.41,1-10.87,1.62-16.33,2.09a29.31,29.31,0,0,0,4.53-5.41c2.85-4,5.17-8.37,8.6-11.91.59-.58-.29-1.4-.93-.88-3.49,2.86-5.93,6.28-8.43,9.94a35.74,35.74,0,0,1-4.42,5.53,39.44,39.44,0,0,0-3.77,3.08c-7.09.52-14.18.81-21.22,1.45l-5.87.58a2.42,2.42,0,0,0-1,2.32ZM150,502.65h0c0-.16,0-.32.05-.49C150,502.38,150,502.47,150,502.65ZM266.9,360.75c.37,1.12.75,2.33,1.08,3.62-.35-1.48-.71-2.72-1-3.61,0,0,0,0-.05,0s-.05,0-.05,0Zm6.6,44.83c-3.37-1.05-12.27-4.07-15.12-1a.71.71,0,0,0,.12,1.1c1.39,1.05,2.9.58,4.59.76a45.16,45.16,0,0,1,8.37,1.33c4.93,1.4,11.33,3.55,14,8.14.23.41.81.06.64-.35-2.62-5.17-7.09-8.25-12.55-10ZM313.18,260c0-.08-.09-.13-.14-.13a.11.11,0,0,0-.08,0,32.65,32.65,0,0,0-9.36,10l-.74-.3c2.25-10.48,4.5-19.65,6.87-27.87-4.48,11.67-8.3,24.63-12.18,41.24l-.3,1.27-.54-1.37a5.22,5.22,0,0,0-.9-1.75,10.64,10.64,0,0,0-1.1-1,15.2,15.2,0,0,1-1.19-1.1,7.2,7.2,0,0,1,.08,1.54,4.43,4.43,0,0,0,.16,1.73c.12.36.24.73.37,1.1.24.73.49,1.48.69,2.24a14.66,14.66,0,0,0,1.25,3.35l.06.12,0,.15c-1.24,5.49-2.45,11.1-3.63,16.51-1.83,8.5-3.73,17.28-5.78,25.8l-.79-.18a7.29,7.29,0,0,0,.16-1.6c0-3.63-2.17-8.13-3.6-11.1l-.2-.41a35.56,35.56,0,0,0-9.55-12.72.25.25,0,0,0-.17-.06.29.29,0,0,0-.26.13s0,.06.06.17c1.43,2.28,3,4.52,4.48,6.69,1.17,1.7,2.38,3.46,3.53,5.22,3.19,4.81,4.14,9,5.24,13.79v0l.12,0v.33a.52.52,0,0,0,0,.11.5.5,0,0,1,0,.16l.76.24c-1,4-2,8.14-3.09,12.15A212,212,0,0,1,270,380.93l-.76-.23a37.83,37.83,0,0,0-.2-11.11,22.27,22.27,0,0,1,.13,4.16c-.1,1.37-.31,2.74-.51,4.07a32.07,32.07,0,0,0-.54,6c0,.06,0,.08.11.18l.21.21-.14.26c-2.59,5.05-4.69,8.88-6.81,12.4-6.71,11.19-17.14,19-26.39,25.52l-.57-.54a44.61,44.61,0,0,0,3.68-9.24l.17-.54a70.51,70.51,0,0,0,2.89-14.23.46.46,0,0,0-.12-.39.86.86,0,0,0-.6-.23.59.59,0,0,0-.63.46l-.69,3.36c-.71,3.52-1.45,7.16-2.51,10.62a44.27,44.27,0,0,1-2.44,5.93,34.07,34.07,0,0,0-2.73,7.17l0,.16-2.27,1.6c-2.41,1.68-4.89,3.42-7.27,5.17a226.06,226.06,0,0,0-18.72,16l-2.77,2.55.07-1a77.79,77.79,0,0,0-.64-16.91v-.05a5.72,5.72,0,0,1-.09-1.71,6.27,6.27,0,0,1,.7-1.84l.08-.16a54.52,54.52,0,0,0,3.16-8.35c1.43-4.51,2.91-9.17,6.12-12.75l.07-.09a2.94,2.94,0,0,0,.74-1.09.9.9,0,0,0-.08-.63.4.4,0,0,0-.25-.2h-.09a1.46,1.46,0,0,0-.79.45c-5.41,4.94-7.92,12.27-10.13,18.73l-.43,1.27-5.09-19.39a5,5,0,0,1-.25-2.09,5.48,5.48,0,0,1,.61-1.61l.12-.24a27.39,27.39,0,0,0,2.05-6.87c.08-.36.15-.73.23-1.1a89,89,0,0,1,5.18-16.35,11.82,11.82,0,0,0-2.54,4.38,179.93,179.93,0,0,0-5.91,18.55l-.78,0a136.46,136.46,0,0,1-3.58-26.38c0-.27,0-.59-.18-.68l-.09,0c-.18,0-.54.56-.57,1.15-.77,13.56,2.65,26.92,6,39.84l.23.88-.81-.43a85,85,0,0,0-10.5-4.7,2.26,2.26,0,0,0-.75-.15c-.35,0-.41.13-.43.18-.1.24.25.62.47.82a36.4,36.4,0,0,0,12.55,7.57l.21.08.05.21a143.14,143.14,0,0,1,3.57,27.11,7.53,7.53,0,0,1-.84,4.55c-.12.18-.25.35-.39.53a2.41,2.41,0,0,0-.65,1.25,1.46,1.46,0,0,0,1,1.27,3.56,3.56,0,0,0,1.29.25c2,0,3.4-1.9,4.78-3.74a19.48,19.48,0,0,1,1.62-2c1.37-1.4,2.9-2.67,4.37-3.91l1.56-1.31c1.18-1,2.44-2.07,3.75-3.13.38-.31.83-.6,1.29-.92a10,10,0,0,0,2.29-1.89l.65.48a.67.67,0,0,0-.16.51c.25,1.57,1.78,3.21,3,4.54.35.38.68.74,1,1.07a22.1,22.1,0,0,0,5.52,5,.67.67,0,0,0,.3.08.69.69,0,0,0,.58-.34.62.62,0,0,0,0-.64,19.67,19.67,0,0,0-3.79-4.57l-1.08-1.09c-.48-.48-.92-1-1.4-1.57a10.65,10.65,0,0,0-3.56-3.15l-.19,0a.31.31,0,0,0-.13,0l-.38-.71c2.42-1.88,4.88-3.76,7.27-5.57,4.13-3.14,8.39-6.39,12.54-9.77,19-15.51,32.47-35.75,42.54-63.7l.09-.23.24,0a21.54,21.54,0,0,0,5.94-1.92,29.25,29.25,0,0,1,4.77-1.73,45.69,45.69,0,0,1,10-1.35,52.94,52.94,0,0,0-6.46-.47,24.34,24.34,0,0,0-4,.29l-1,.16a27.17,27.17,0,0,0-7.74,2l-.88.44.32-.94a358.9,358.9,0,0,0,11-40.92h.79a.28.28,0,0,0,.14.22,20.43,20.43,0,0,0,4.52-2.92,34,34,0,0,1,2.93-2.11c1.07-.64,2.18-1.23,3.27-1.8,1.33-.7,2.69-1.42,4-2.24a24.94,24.94,0,0,0-8.66,3.57l-.34.2c-2.22,1.33-4.53,2.71-5.8,4.89l-.75-.29c1.5-6.93,2.95-14,4.35-20.89,1.16-5.66,2.35-11.53,3.56-17.24l0-.08.05-.07c2.49-3.57,5.3-7,8-10.25,1.1-1.33,2.23-2.7,3.33-4.07a.45.45,0,0,0,0-.36ZM82.75,470.83m3.32-.89h0C86.37,470,86.29,470,86.07,469.94Zm64.47,43.26c0-.13,0-.26-.07-.39C150.67,514.35,150.63,514,150.54,513.2Z"/><path class="cls-5" d="M1442.92,846c-3-4.67-6.35-9-9.36-13-2.34-3.35-5.34-6-7-9.69a32.93,32.93,0,0,0-3.68-5.68c-2-2.67-4.34-5-7.35-6-5-2-8.68-5.68-12.69-9a45.86,45.86,0,0,1-8.35-9.69,72.47,72.47,0,0,1-3.35-7.35c-2-4-2.33-8.35-3.67-12.69a93.76,93.76,0,0,0-8.68-20.71,52.61,52.61,0,0,1-5.68-16.37c-1-5.35-.34-10.36-.67-15.37,0-2,1.67-2,2.67-2.67s1.34.67,1.67,1.33c1.67,2.34,4,4.34,5.68,6.35,3.67,4,7,8,8.68,13.36s3.35,10.69,4.68,16a38.78,38.78,0,0,0,5.35,12,36,36,0,0,0,3,3.68c1,1.33,1.34,3.34,2,4.67,1.33,4,3.67,7,6.68,10.36a19.72,19.72,0,0,1,3.34-9.69c2-3.34,5-5.34,7.68-8,3-3,6.35-5.68,9.36-8.35.33-.33.66-.67,1-.67,1-.67,2-1.33,2-2.67-.33-2-.67-3.67-3-4.68a57.14,57.14,0,0,1-11.7-6.34,61,61,0,0,1-11.35-11.36,32.58,32.58,0,0,1-6-16.37c-.33-4,.34-8.35-.33-12.36a16.94,16.94,0,0,0-3-8.69,6.71,6.71,0,0,1-1.33-2.67c-1.67-3.34-5-5-7.68-7a3.91,3.91,0,0,1,.33-6.68c2.34-1.33,4.68-.66,6.68,1.34,2.67,2.67,5.35,5.68,8.68,7.68a17.85,17.85,0,0,1,4.68,5.35,93.56,93.56,0,0,1,5.35,10,49.72,49.72,0,0,1,2.67,10,43.1,43.1,0,0,0,4,12.7c1,2,2.67,2.67,4.67,3.34,5.35,2,10.36,4.68,13.7,9.69a37.59,37.59,0,0,1,3.68,8.35c1,2.34,1,2.34,2.67,1,2.34-1.67,4.34-3.68,6.68-5.35,2.67-1.67,3.67-5,4.34-8a25.8,25.8,0,0,0,.34-11.36,8.63,8.63,0,0,0-.67-2.34c-1.67-4.68-5-7.35-9.36-9.69-6-3.34-12-7-16.7-12-4.34-4.68-7.68-9.69-9-15.71a24.87,24.87,0,0,1-.67-7,2.53,2.53,0,0,0-1.33-2.34c-7.35-3.34-13-8.69-18.71-14.7-2.67-2.67-3.34-6.35-4.34-10a29.74,29.74,0,0,0-5.35-11.36c-2.34-2.67-5.68-4.34-8.35-6.35-3-2.34-6.35-4-8.69-7-2.34-2.68-1.67-4.68,0-6.69,2.34-3,6.35-3.67,10-1.67,3,1.67,6,3.68,9.35,4.68a42.76,42.76,0,0,1,6,2,9.78,9.78,0,0,1,3.68,3.68c1.67,3,3.67,6,5,9s2,6.35,3.34,9.35a26.11,26.11,0,0,1,2.34,8.69c.33,3,2.67,5,4.68,6.68a18.56,18.56,0,0,0,3,2.34c1,1,1.34.67,1.67-.67a22,22,0,0,1,2.34-7,68.55,68.55,0,0,0,3.68-8.68c1.67-5,4-9.69,5-14.7a66.55,66.55,0,0,0,1-8c0-3,4-7,7.35-7s7,0,10.35,1c2,.67,4,0,6-.34a75.36,75.36,0,0,0,8-2.67c.34,0,.67-.33,1-.67,2.34-2,5-3.67,7.35-5.34.67-.67,1.67-.67,2.68-1,3.67-.66,6-3,8-5.67.66-.67,3.67-.34,4,.33,1.34,2,.67,4.68-1,6.35-3,3-6,6-7.68,10.35-1,2.67-1,5.35-1.34,8-.67,4-3,7-5.68,10-5,5-11.35,6.35-18,7-4,.33-8.36.33-12.36,1.33-2,.34-3.35,1.67-4.68,2.68-2,1.33-3,3.34-3.68,6-1.33,5.68-3.67,11-5,17-1.68,5.69-1.34,10,2,14.37,4,4.68,8,9,14,11a23.47,23.47,0,0,1,8,4.35c1,.67,1.67,2,2.67,1.33.67-.33.33-2,.33-3.34.33-6.35,6.35-15,14.36-14.36a53.69,53.69,0,0,0,16.37-2,10.64,10.64,0,0,0,6-4.67c1-1.67,2.34-3,3.34-5a1.83,1.83,0,0,1,1.67-1,4.3,4.3,0,0,0,2.34-3c.67-3.34,1.67-4.34,5-4.34,2.34,0,2.67.33,2,2.67a35.56,35.56,0,0,0-1,8.35c0,5.35-.33,10.69-3,15.37-1.67,3-4.34,4.67-7,6.68-5.68,3.67-12.36,5.34-19,6.68-6.35,1.33-10,6-12,12a2.23,2.23,0,0,0,.33,2,21.94,21.94,0,0,1,1.67,11.36,42.21,42.21,0,0,1-2,9.35,10.27,10.27,0,0,1-1.67,3.34c-3.68,6.35-8.35,11.36-15,14.37-2.68,1.33-4.68,4-7,5.67-4.34,3.35-8.69,7-13,10.7a23.35,23.35,0,0,0-7.35,8.68c-1,3-1.67,6-2.67,9-1.34,5,0,9,2.34,13A113.09,113.09,0,0,0,1437.9,823a7.48,7.48,0,0,1,1,1.68c.33,2.34,2,3.67,3.67,5a15,15,0,0,1,2.67,3.67c.34,1,1.34,1.34,2,2,.67-4.67-1.67-8.68-1-13.36.67-4.34.67-8.68,2-12.69,1.67-5.35,5-9,9.35-12.36,3.68-3,8-5.35,11.36-9,.33-.34,1-1,1-1.67,1.67-4,3-8.35,4.35-12.36,1.67-5,2.34-10.36,4-15.37.34-1,1-2,1.34-3,.33-.33.67-1,.33-1.33-.67-1.34.34-2,1.34-2s2.34.34,2.67,1.34a47.17,47.17,0,0,1,3.67,11.69c1,6,2,12,0,18-1.67,5-2.67,10.36-5,15a28.72,28.72,0,0,1-5.34,7.69,44.64,44.64,0,0,0-6,9.35c-2,4.68-4.35,9-6.35,13.7a36.75,36.75,0,0,0-2.34,8,27.69,27.69,0,0,1-1.33,5c-1.34,3.35-1,7-1.34,10.7-.33,2.34,1.34,5,3.34,6.68.33.33.67.33.67.67,1,4,3.67,7.34,5.68,10.69,3.34,5.68,5.68,12,9,17.7,1,2,2.34,4,2.34,6.68a12.38,12.38,0,0,0,2.34,6.68c.67,1,1.33,2.34.33,3.68-.33.33-.33,1.33-.33,2a1.92,1.92,0,0,1-2.67,2c-1.34-.34-2.68-1.34-4-1-1,0-1-.66-1-1.33,0-2.67-.67-4.68-2.68-6.35-.67-.33-1-1.33-1.33-2.34-2-5-4.68-9.35-7.35-14-1-2-2.67-4-3-6.35a3.42,3.42,0,0,0-.33-1c-3.34-2.67-4.68-6.35-6.35-10a8.72,8.72,0,0,0-1.67-2c-.67-.66-1.67-1-1-2.33a23.91,23.91,0,0,0-2.67-3c-4.35.67-8.36-.67-12.36-1.34-3.68-.33-6.68,1.67-9.69,3.35s-5.68,3.67-8.35,5.34a13.57,13.57,0,0,1-12.36,1c-3-1.33-5-4-6.68-6.68-3.68-6-8.69-10.69-14-15.37a97.08,97.08,0,0,0-9.36-7c-1.33-.67-1.33-1.67-.33-2.68,2-2,3-4.34,4.68-6.34,4.67-5.35,12-5,16.7,0a36.71,36.71,0,0,1,4.68,7c1,2.34,3,4.35,5,6.35,1.67,1.67,4,1.67,6.34,1.34a29,29,0,0,0,5.68-1.67c6-2.34,12-1.34,17.71,1.33,2,.34,3.67,1.67,6,1.67Z"/><path class="cls-5" d="M386.45,559.91c-1.51,12.53,5.83,46.5,13.42,64.62,3.83,6.63,5.49,15.34,12.48,19.53,6.59-12.63,4.95-28.13,3.3-42.12-2-17.29-15.62-32.29-16.08-49.7-.18-6.76-1.53-19.14,5.21-19.6,6.49-.45,0,19,7.53,18,8.1-1.11,11.15-28.46,17.56-21.72,7.44,7.83-7,33.64-5.1,50.89-.11,12.27,8.34,38.58,21.08,17.67a267,267,0,0,1,32.9-34.71c4.29-3.75,23.86-16,17.1,0C487,575.93,475,586.62,464.44,598.26c-9.84,13.5-24.05,24.08-31.38,39.1-7.42,15.22-9.87,32.6-11.63,49.44-1.31,12.49-5.08,26.6.87,37.65,2.48,4.61,7.76,9.91,12.9,9,17.76-3.29,21.7-29,30.48-44.8,9.18-16.53,9-39.18,23-51.84,17.12-15.46,10.67-28.15,23.62-34.21,16.29-.32-4.66,23.2,13.74,18.51,9.81-5.86,26.63,5.53,9.58,10.34-15.11,2.89-32.34,8.06-39.49,21.18-2.76,5-16.48,30.9,1.38,17.21,10.66-7.74,22.74-13.83,34.77-19.5,12.06-7.68,15.06-16.3,23.77-23.23,7.72-8.63,16.49-40.36,29.64-24.32-6.42,9.83-18.36,31.28,3.73,28,7.72,0,34.69,7.68,22,14.31-9.36,1-41.25-7.43-59.82,5.87-10,13.72,18.12,4.77,24.41,1,7.14-5.4,23.62-4,20.24,4.71-2.2,5.68-33.13,3.3-3,18,14.87,5.51,32.56,20.57,13.09,20.68-24.25-8.36-46.77-30.17-74.19-22.49-20.92,7.51-60.06,11.79-57.52,33.91,1.26,11,20.77,8.19,31.71,10,15,2.43,30.46-3.06,45.57.78,18.05,4.76,36.3-4.23,49.46-16.27,15.42-9.73,14.85,7.36,2.47,15.07-4.55,6.53,17.8,12,28.75,17.28,7.09,3.43,11.35,15.44,6.78,15.93-17.73,1.92-31.09-25.7-60.89-20C575,743.21,605.83,743.37,612.85,756c2.17,3.9,5.8,13.29,1.34,13.31-8.8,0-29.31-28.64-22.05,3.49.47,17.58-11.57-2.58-12.8-7.35-5.91-22.8-21.38-27-37-31.12-4.14-1.09-28.58-6.77-12.63,2.36,14.58,7.64,37.14,7.29,44.28,24.2,2.87,8.75,10.7,31.62-.4,34.16-10.41,2.38-6.24-28.65-14.26-28.69-7.47-2.78-4.12,26.57-14.36,21.29-5.33.11-1.72-23.77-8.92-32.32-10.22-12.12-25.49-20.73-43-20.24-17.52-3.12-34.13,6.71-49.25,14.78-12.8,6.83-24.79,16.16-33.6,27.69-9.05,11.85-17,26-18.36,40.78-13,2.34-34.92-13.18-35.14-15.87,13.8-9.78,27-20.51,35.3-34.77,7.53-12.88,15-28.64,11.73-43.19-2.64-11.76-12.84-21.85-23.48-27.5-14.38-7.64-32.26-5.7-48.54-5.48a165.3,165.3,0,0,0-41.14,5.79c-10.05,2.75-14.35,11.64-28.86,12-22.22-6.13,21.64-21-2.63-17.62-18.51-3,0-20,11.29-12,12.46,1.85,31.92,10.91,37.71-.25,4.92-9.52-9-21.26-18.37-26.39-17.56-9.57-28.2-31.6-14.37-24.36,6.83,3.73,7.77,6.16,9.08-2.38,4.21-14.19,11.53,9.5,16.5,18.94,8.63,16.42,28.2,26.27,47.17,29.51,22,3.46-9.15-21.58-16.28-23.79-14.25-9.11-45.37-33.08-37.1-37.88,8.8-7.84,17.31,15.17,29.88,20.12,2.16.85,7.39.62,6.78-1.63-4.56-16.74-23.81-30.43-13.4-37.83,6.9-2,16.55,17,21.4,23.9,6.23,8.05,10.92,17.45,15.93,26.17,5.06,10.15,13.93,18.58,20.72,27.82,5,10.4,33.62,23.24,28.22,2-4.08-16.8-14.59-34.39-30-42.82-21-8.75-29.11-31.4-45.29-45.74-12.31-11.33-23.79-23.64-39.06-31-15.41-10.92,3.8-17.25,15.82-6,5.84,5.48-2.85-25.5,5.06-23.5,14.76,3.74,9.84,39.34,27.06,50.15,9.54-2.07,5-15.56,4.85-22.9-3.09-20.83-21.76-50.7-7.1-62.87,7.22-6,9.67,17.36,13.57,24.67,7.17-3.09,3.41-26.21,11.25-22.91,14.34,6-1.4,36.44-2.46,53.45-.8,16.29.95,32.54,2.23,48.72-.21,10.49,22.86,30.74,16.79,9.16-7.48-21.84-13.65-43-12-66.6,2.73-11.54,2.53-39.64,15.34-36.49,11.66,2.86-8.72,33.78-4,51.19,2.08-3.06,13.07-18.2,19.19-13.37,6.48,5.12-7.54,10.51-9.05,23Z"/><path class="cls-5" d="M1715.5,582.61c-19.42-1.33-43.78-9.66-43.78-9.66s38.39,34.59,70,25.62,46-23.52,68.72-11.28,56.41,21.38,56.41,21.38c7.39,3.82,14.34,4.4,16.06.54a5.49,5.49,0,0,0,2.06.6,3.14,3.14,0,0,0,2.51-1v.09s21.94-19.57,18.21-55.91a69,69,0,0,0-6-22.54c3.23-15.88,8.8-36.48,11.91-54.31,4.92-28.11-17-62.48-17-62.48a201.68,201.68,0,0,0,4.58,26c3.51,14.39-1.38,35.66-12.76,65.24-.49,1.28-.92,2.63-1.32,4-8.89-10.58-19.78-22-31.1-39.82a121.33,121.33,0,0,1-9.07-16.88c3.28-22.27,7-46.54,4.37-65.06-5.42-37.81-33-57.39-33-57.39s14.88,32.13,16.23,62.47a73.46,73.46,0,0,0-3-7c-14.36-28.9-34-21.07-34-21.07a54.56,54.56,0,0,1,25.06,25.33c5.45,11.11,5.66,23.1,6.16,37.07-6.81,23.18-11.08,47-4.74,68.46A178.46,178.46,0,0,1,1797,445.33c-17.64-56.47-9.22-72.07-21.12-109.08,0,0-14.2,106.44,30.53,161.35,28.66,35.17,44,52.93,53.21,65.16-19.22-14.94-56.19-46-68-72.4-16.19-36.2-23.05-75-47.86-100.5s-56.18-32.56-56.18-32.56,36.08,22.22,52,58,12.37,58,61.53,112c6,6.58,11.41,12.43,16.33,17.67-15.45-14.14-33.56-28-50.36-34.18-5.93-9.44-12.51-20.56-21.2-33.89-25.09-38.54-70.84-38.77-70.84-38.77,37.46,21.8,53.91,46,64.14,65.6-30.82-7.66-52.76-15.37-68.43-26.25a344.37,344.37,0,0,1-30.88-23.9s22.59,44.7,58,61.24c20.39,9.52,42.68,16.8,59.53,22.33,6.85,8.83,15.37,16.09,25.93,22.8-11.06-1-22.8-.66-29.27,3.5-14.57,9.35-19.1,20.46-38.53,19.13Zm168-28.68c-11.56-11.73-32.15-33.58-39.57-47.44-2.84-5.32-3.35-13.73-2.71-23.9,11.61,16.47,29,32.19,41,54.69.16,5.61.61,11.24,1.23,16.65Z"/><path class="cls-6" d="M588.7,923.7c-5.8-1.52-13.85-.51-12.11,10.52-.51,1.16-5.8,4.2-3.19,5.37-.58,1.52-.73,2.61,1,3.62s9.8,6.31,17.63,5.44c2.68,4.36,3.7,5,17.48,8.56-5.73-3.41-6.53-4.78-6.67-7.18a16.82,16.82,0,0,1,.43-4.64,41.79,41.79,0,0,0,7.48-2c1.16,2.39,7.83,9.36,20.09,10.66-5.08-1.3-6.75-4.42-7.47-7.91s-2.69-4.57-6.38-5.94c3.84-2.18,4.57-3.78,6.16-3.78s7.84,7.4,11.32,7c1.09-1.45,1.23-5.73.29-7.33s-.51-1.38-.22-4.06.73-5.73-.94-7.69c-3.19,1.45-7.91,8-10.52,8s-3.92-.94-4.86-2.47c4.35-2.46,2.39-8.49,10.3-10.52-4.86-.43-11,1.74-15.31-.58S587.54,913.47,588.7,923.7Z"/><path class="cls-6" d="M635.13,871c-5.8-1.52-13.86-.5-12.12,10.52-.5,1.16-5.8,4.21-3.19,5.37-.58,1.52-.72,2.61,1,3.63s9.79,6.31,17.63,5.44c2.68,4.35,3.7,5,17.48,8.56-5.73-3.41-6.53-4.79-6.68-7.18a17.09,17.09,0,0,1,.44-4.65,41.57,41.57,0,0,0,7.47-2c1.16,2.4,7.84,9.36,20.1,10.67-5.08-1.31-6.75-4.43-7.48-7.91s-2.68-4.57-6.38-5.95c3.85-2.17,4.57-3.77,6.17-3.77s7.83,7.4,11.31,7c1.09-1.45,1.24-5.73.29-7.32s-.5-1.38-.21-4.07.72-5.73-1-7.69c-3.19,1.46-7.9,8-10.52,8s-3.91-.94-4.86-2.46c4.36-2.47,2.4-8.49,10.3-10.52-4.86-.44-11,1.74-15.3-.58S634,860.79,635.13,871Z"/></g><g id="Layer_1" data-name="Layer 1"><path class="cls-6" d="M0,891.26C82.56,850.33,101.77,846.78,137.51,870c48,31.22,58.48,89.42,148.6,111.83,126.75,31.52,64.05,25.49,176.17-3.06,105.43-26.85,62.07,43.9,177.7,19.68s133.08,52,291.89,46.57c63.4-2.18,3.72,8.26,125.56-27.53,73-21.44,101.28-88.88,159.31-55.91,110.56,62.81,188.31-6.1,242.3,14.15,58,21.74,154.22-63,183.83-81.73,51.9-32.78,59.1-57.63,129.7-48,34.2,4.68,98.56,72,147.43,45.21V1080H0V891.26"/><path class="cls-6" d="M889.58,1043.21c0,.6-5,3-5.18,5.18,0,8.88,57.7,9.62,57.7,0,0-13.31-34-25.89-52.52-5.18Zm-13.32,4.44c0,6.66-40,6.66-40,0,0-8.88,22.93-17.75,36.25-3,.54.8,3.63,1.34,3.7,3Zm-27.37-27.37c-3.84,3.84-16.92,8.72-5.18,16.28a26.15,26.15,0,0,1,29.59,5.18h14.06c11.83-11.84,28.11-15.54,44.39-8.14a26.65,26.65,0,0,1,14.79-4.44c-20-34.77-74-41.43-97.65-8.88Zm63.24-21.12c3-6.66,6.3-10.7,10.74-15.87,29.59-33.29-9.62-31.08,3.7-71,3-9.61,6.65-20.71.74-34.77,6.65,12.58,4.44,22.2.73,35.51-12.57,36.25,27.38,37-2.95,72.51-3.7,4.44-8.08,8.72-10.31,14.64a31.79,31.79,0,0,1,3.69,1.48c.73-3,2.91-5,6.61-8,39.95-36.25-3-48.09,10.36-88,2.22-7.4,5.18-14.8.74-22.94-5.18-8.14-10.36-13.32-7.4-23.67-6.66,7.4-8.14,14.06-4.44,23.67,5.18,11.1,2.22,17.76-1.48,26.64-17.76,37,22.19,46.61-5.92,74.72-3.7,4.44-8.05,7.79-9.53,13.71a41,41,0,0,1,4.72,1.42Zm-19.59-31.41c-5.92,8.88-11.33,17.55-3.19,28.65,2.22,0,4.65,0,6.07.11-8.88-10.35-4.36-16.18,1.56-23.58,14.79-18.49,14.06-34.77-3-51-8.88-9.62-16.28-16.28,4.44-39.21,8.88-14.79-14.06-21.45-2.22-43.65,3-5.18,5.92-9.61-3-17,2.22,8.87-3,12.57-7.4,16.27-20,14.8,4.37,29.24-3.63,38.35-20.44,25.58-11.9,40.07-2.29,50.43,14.8,16.28,14.06,24.41,3.7,42.91-5.18,8.88-10.36,17.75-2.22,27.37,1.7-.31,3-.51,5.18-.74-8.14-11.83-3-20.71,3.7-30.33,26.63-45.13-35.51-37.73-3.7-82.86,16.28-22.93-9.62-20,.74-37.73-8.14,17.76,17,14.06.74,38.47-29.54,42.82,32.49,37.09,4.44,83.6ZM857,925.58c-12-21.55,10.8-22.43-6.66-41.43,4.35,21.75-16.35,19.31-5.92,43.65,14.44,23.34-23.67,42.17,11.1,68.06,3.7,2.22,7.34,4.16,8.08,7.86a25,25,0,0,1,2.9-1.39c-3.7-5.92-7.28-8.69-11-11.65-25.16-19.24,6.66-36.25-5.92-66.58-6.66-17,3-14.8,3.7-32.55,0,20-8.88,13.31-2.22,31.81,13.32,33.29-17.76,46.61,5.92,65.1a50.21,50.21,0,0,1,11.87,12.74,36.56,36.56,0,0,1,3.84-1.52c-1.48-4.45-5.17-8.1-8.86-11.06-28.36-21.28,6.81-27-6.85-63Zm-19.24,109.49c-5.92-8.87,4.84-11.9,9.25-16.62,1.78-2.11,2.47-3.29,4.6-4.91-11.84-4.44-39.74,3-39.74,15.61,0,7.4,25.89,5.69,25.89,5.92Zm96.92,0c4.44,3,11.09,8.14,10.36,14.06,4.44,0,25.15.74,25.15-5.18C962,1036.55,952.78,1026.35,934.71,1035.07Z"/><path class="cls-6" d="M369.13,878.11c-29,9.77-40.31-5.32-66.19-13.73-11.49-3.73-29.46.5-45.89,6.36,13.39-14.41,23.45-28.84,30.33-45,23.41-15.13,54.38-35.08,81.57-57.67,47.21-39.24,63.73-116.19,63.73-116.19S418.79,673,395.27,700.52c-19.48,22.79-49.74,43.25-93.54,67.18,7.74-33.87,23.09-77.22,71.33-125.28,0,0-69.44,18.6-92.21,87.17-7.88,23.72-13.45,43.24-18.7,59.95-23.08,16.09-45.08,44.39-62.93,72,5.4-9.92,11.31-21,17.79-33.36,53.19-101.67,39-134.14,48.85-194.82s55.85-108.84,55.85-108.84-44.88,23.2-72.42,71.87-22.5,110.36-32.67,171.84C209.22,813,165.42,875,142.15,905.39c9.13-22.26,25.37-55.37,54.9-120.24,46.1-101.29-17.92-257.4-17.92-257.4-3.33,61,15.69,81.35,11.38,174.2-1.45,31.45-8.59,59.88-18.11,85.41,1.09-35.1-14.89-69.64-34.49-102.14-4.81-21.44-9.27-39.76-5.41-58.81,6.47-32,28-48.49,28-48.49s-32.91-4.08-43.21,45.56a109.72,109.72,0,0,0-1.8,11.84c-10-46.65-.25-101.42-.25-101.42S81,574.66,87.88,634.3c3.34,29.2,18.72,64.59,32.59,97.13a190.94,190.94,0,0,1-7.07,29.27C103.31,792.29,91.31,814,82,833.63c-1.15-1.94-2.34-3.82-3.6-5.58-29.09-40.41-45-70.78-45.4-94a318.62,318.62,0,0,0-3.38-41.29s-19.65,61-1,101.75c11.84,25.85,28.51,54.94,39.75,77.78a108.56,108.56,0,0,0-.11,36.65c8.82,56.72,50,77.72,50,77.72l0-.14a5,5,0,0,0,4.21.53,8.83,8.83,0,0,0,2.9-1.74c4.15,5.18,14.48,1.53,24.18-7.23,0,0,47.61-27.31,77.23-55s57.37-11.3,108.94-10.25S431.83,846,431.83,846s-33.69,22.37-62.69,32.13ZM102.36,901.49c-1.22-8.47-2.78-17.21-4.77-25.8,9.41-39,29.51-69.83,40.59-99.48,5,15.19,7.61,28.18,5.4,37.4-5.74,24-28.33,65.44-41.22,87.88Z"/><path class="cls-6" d="M1731,890.53s-11.78-11.2-17-32.2c-4-16.22.82-37,3.74-43.4,3.85-8.4,9.8-17.85,32.54-19.25s46.14,8.55,49.35,9.8c10.5,4.08,21.12,8.37,38.74,4.32,17.26-4,19.32-9,18-12-.67-1.49-2.93-2.21-5-2.5a2,2,0,0,1-1.44-2.84c2.56-5.93-2.26-9.2-4.55-7-3.74,3.53-8,7.82-12.22,5.89-4.55-2.1-4.94-10-.35-11.63,10.33-3.59,13.28-10.71,7.79-13.39-4.11-2-5.34,1.48-8.06.34-2.36-.87-1-2.71-2.45-4.9s-7.09-3.23-8.49,2c-1.49,5.6-.17,13.73-4,17.59s-13.57,3.5-15.49-4.38c-1.42-5.79,4.54-13.12,11.9-15.92s18.66-4.92,19.07-10.33c.35-4.55-4.63-5.37-3.45-7.65,1-1.9-1.91-5.36-3.5-4.54-2.43.63-3.81-.16-2.45-3.15,1.08-2.48-4.26-5.18-5.6-2.8-.23.41-1.12,1.58-1.4,2-1.28,1.65-2.8.24-2.86-1.73-.07-2.37.33-4.92-.17-6.44-.75-2.25-7.17-3.28-7.94,3.73a29.81,29.81,0,0,1-1.6,7.61c-.57,1.45-3.42,3.71-5,.38-1.88-4-.17-8.05-2.63-9.45-4.43-2.53-7.54-1-9.14,3.59-.53,1.53-3.18,2.21-4.1,1.07-4-4.95-9.75-4.88-11.6-2-4.2,6.46,5.43,18.9-10,15.93-6.36-1.23,4.58-12.91.52-15.57-2.8-1.84-3.82,3.35-5.94.93-2.36-2.68-2.8-6.07-6.07-4.43-4.36,2.18.94,8.63-4,9.8-3.09.73-6.24-6.3-10.45-3.15-3.9,2.92,5.44,9.83-3.24,10.06-3.23.09-4.37,5.95,2.28,5.95,11,0,15.83,12.16,8,23.36s-12.42,5.94-27.35,23.27c-12.84,14.9-12,39.61-19.84,39.44-5.14-.12-8.16-25.2-8.16-34.31,0-12.36-3.26-45.81,30.33-73.5,21.24-17.5,49-15.78,65.11-14.69,34.76,2.33,50.29-.23,61.25-9.34,8.28-6.88,7.91-12.81,1.6-13.47-1.72-.18-2.4-2.43-.79-4,2.56-2.57,2.22-7.47-1.52-7.93-5.22-.66-19.6,13.41-24.74-1.52s21.3-20.62,29.17-24.62c6.65-3.38,3-13.18-1.4-12.6-4.18.54-13.23,3.22-9.22-7.47,3.15-8.4-10.85-12.72-13.18-6.88s-8.64,26-16,24.27-9.46-12.66-2.1-23.11c9.23-13.11,1.68-13.5-1.91-11.83-.68.33-1.75.23-1.75-.81,0-3-.81-4.64-4.35-4.16-4.41.59-2,9.8-7,8.41-3.63-1-1.28-10.16-1.26-13.81,0-4.39-4.51-6.58-7.32-3.78-2,2-.69,6.65-2.71,6.83-1.83.35-3-4.38-4.46-5.69-2.45-2.28-8.84.7-6.65,7.7,2.56,8.18,24.5,28.69,11,36.39-9.8,5.6-20.14-21.87-25.63-22.57-4-.51-6.19,2.66-5.81,7.11.18,2.11-.67,3.3-2.33,2.39-5.56-3-11.74-.37-9.71,6.59,1.64,5.6,22.66,12.42,22.31,29.34-.53,25.77-17.27,28-40.14,43.87-4.93,3.42-22,19.93-28,18.66-15.4-3.27,35.72-87.42,42.93-146.54a220.64,220.64,0,0,0,1.7-35.12c-.12-6.53-9.8-7.11-11.44-.23-1,3.5-3.73,2.1-4,.12-.53-3.68-2.64-5.72-5.9-4.9-3.8.94-6,3-4.32,10.26,1.26,5.56,1.68,10.5-2.22,10.86-6.41.58-8.11-11.75-8.86-20.19-.58-6.53-2.42-9.22-7.23-8s-.32,8.37-6,9c-3.11.14-3.72-7.05-9-6.3-4.08.58-10.5,7.34-4.9,12.25s39.85,27.47,27.72,40.05c-10.33,9.2-25.07-9.9-28.3-13.93-4-4.94-23.05-30.67-29.52-27.52-6.91,3.36,2.27,9.27-.7,14-3.26,5.17-12.08-2.1-13.3,5.94-.65,4.23,9.1,4.9,6.82,9.46-2.1,2.62-5.69,2.79-8.39,3.15-4,.52-6.13,8.39.34,11,5.67,2.3,26.53-7.43,35.35,6.13,4.9,7.52,3.33,15-3.33,14s-30.64-10.62-34.41-6.42c-4.2,4.66,3.87,6.26,2.21,10.15-.7,1.64-2,2.1-5,2.57-3.24.5-3.71,4.93.7,7.35,12.37,6.76,49.69-3.35,67.15,6.3,21.53,11.89-4.11,56.26-18.2,93.33-8.86,23.34-41.54,27.54-52.73,3.27-14.25-30.85-12-44.86-3.91-62.37,12.19-26.36,8.87-29.68,6.07-31.43-4.82-3-7.3-1.78-10.8,1.16-7,5.91-9.62,1.57-12.13-2.63-3-5-7-4.66-9.28-4.31-4.67.72-9.8,3.5-5.25,15.75s23.65,70.17,9.39,71.93c-38,4.66-35.44-78.9-39.66-84.7-2.11-5.84-11.9-2.57-11.67,1.86,0,4.66,3.5,13.42-4.2,18s-14.91-6.84-22.86-16.56c-6.3-7.7-13.83,1.34-9.39,7.41,3.6,4.93,1.7,7.31-1.4,6.83-5.6-.88-15.57-.35-14.65,9.8.68,7.37,56.65,34,42.13,50.8-10.68,7.7-38.83-13.73-43.75-26.72-2.57-6.77-6.54-9.1-11-5.14-8.55,7.66,1.87,10.39-.93,14.82-1.9,3-6.75,1.53-9.45,2-4.9.82-7.7,7.15-4.2,12.26,2.8,4.08,13.3-.94,21,2.56s19.94,10.74,14.34,18.44c-9.45,10.15-18.89.35-31.5-7.7s-16.31-10.9-18.54-5.95c-1.64,3.61,4.31,4.31,1.74,7.69-2,2.22-4.32.57-5.72.7-3.61.35-4.54,4.2-2,6.66,1.46,1.39,3.94,1.56,5.48,2.33,2.57,1.28,3.15,5.14,0,8.17-3.78,3.64-11.54,1.39-12.48,5.36-.52,3.17-.4,5.55,4.42,6.58,1.41.3,2.56,1.77,1.06,3.22-3.26,3.14-3.14,7.34,2,8.86,7.73,2.28,27.94-10.7,34.54-10.62,19.6.24,27.84,22.45,8.7,32.13-9.67,4.84-21.75-1.31-27,2.27s-3,6.64.58,9.67c1.92,1.93,1.11,3.14-1.76,6.68s-.5,9.1,4.71,7.58c5.06-1.47,6-3.84,9.55,0s2.36,4.9,1.4,9.81c-1,5.16.12,6.46,4.29,7.09,1.75.26,2.71-3.77,3.94-3.59,1.92.26.55,4.69,3.67,5.25,4.46.79,5.92-9.3,7.8-16.81,1.6-6.41,7.34-16.83,10.48-20.54,8.16-9.61,21-8.24,22.87,3.35,1.46,9.22-4.45,21-.2,23.15,8.52,4.31,8-9.72,13.3-7.7,4.31,1.64,2.26,7.53,6.42,8.75,4,1.16,8.52-1.75,8.52-10.5s0-26.92,9.21-36.75c10.15-10.85,35.35-21.35,64.06-3.15s28.35,14.7,45.5,44.45c6.69,11.61,17,40.53,23.45,50.06,10.15,15,28.35,26.94,30.1,26.94s6.66-4.89,6.66-4.89Z"/></g></svg>