<?xml version="1.0" encoding="utf-8"?>
<!-- Generator: Adobe Illustrator 26.5.0, SVG Export Plug-In . SVG Version: 6.00 Build 0)  -->
<svg version="1.1" xmlns="http://www.w3.org/2000/svg" xmlns:xlink="http://www.w3.org/1999/xlink" x="0px" y="0px"
	 viewBox="0 0 270 120" style="enable-background:new 0 0 270 120;" xml:space="preserve">
<style type="text/css">
	.st0{display:none;}
	.st1{display:inline;fill:#FFFFFF;stroke:#000000;stroke-miterlimit:10;}
	.st2{fill:#B9E0EA;}
</style>
<g id="Layer_1" class="st0">
	<rect class="st1" width="90" height="120"/>
	<rect x="90" class="st1" width="90" height="120"/>
	<rect x="180" class="st1" width="90" height="120"/>
</g>
<g id="Layer_2">
	<g>
		<g id="Layer_1-2_00000018195258112150836240000001765854883497435051_">
			<path class="st2" d="M25,10C13.9,10,5,19,5,30s8.9,20,20,20s20-9,20-20S36,10,25,10z"/>
			<path class="st2" d="M10,70C4.5,70,0,74.5,0,80s4.5,10,10,10s10-4.5,10-10S15.5,70,10,70z"/>
			<path class="st2" d="M40,90c-8.3,0-15,6.7-15,15s6.7,15,15,15s15-6.7,15-15S48.3,90,40,90z"/>
			<path class="st2" d="M65,0c-5.5,0-10,4.5-10,10s4.5,10,10,10s10-4.5,10-10S70.5,0,65,0z"/>
			<path class="st2" d="M70,45c-11,0-20,9-20,20s9,20,20,20s20-8.9,20-20S81,45,70,45z"/>
		</g>
	</g>
	<g>
		<g id="Layer_2_00000127732936905323521020000009594172252847000757_">
			<path class="st2" d="M118.7,18.2c-11.1,0-20,9-20,20s8.9,20,20,20s20-9,20-20S129.7,18.2,118.7,18.2z"/>
			<path class="st2" d="M106.6,63.9c-5.5,0-10,4.5-10,10s4.5,10,10,10s10-4.5,10-10S112.1,63.9,106.6,63.9z"/>
			<path class="st2" d="M135.6,84.4c-8.3,0-15,6.7-15,15s6.7,15,15,15c8.3,0,15-6.7,15-15S143.9,84.4,135.6,84.4z"/>
			<path class="st2" d="M147.8,0c-5.5,0-10,4.5-10,10s4.5,10,10,10s10-4.5,10-10S153.3,0,147.8,0z"/>
			<path class="st2" d="M160,35c-11,0-20,9-20,20s9,20,20,20s20-8.9,20-20S171,35,160,35z"/>
		</g>
	</g>
	<g>
		<g id="Layer_3_00000034769106913785704080000017964228407772870833_">
			<path class="st2" d="M205.6,4.2c-11.1,0-20,9-20,20s8.9,20,20,20c11.1,0,20-9,20-20S216.6,4.2,205.6,4.2z"/>
			<path class="st2" d="M201.7,61.3c-5.5,0-10,4.5-10,10s4.5,10,10,10s10-4.5,10-10S207.2,61.3,201.7,61.3z"/>
			<path class="st2" d="M215.2,84.4c-8.3,0-15,6.7-15,15s6.7,15,15,15s15-6.7,15-15S223.5,84.4,215.2,84.4z"/>
			<path class="st2" d="M242.5,11.7c-5.5,0-10,4.5-10,10s4.5,10,10,10s10-4.5,10-10S248,11.7,242.5,11.7z"/>
			<path class="st2" d="M246.8,45.2c-11,0-20,9-20,20s9,20,20,20c11,0,20-8.9,20-20S257.8,45.2,246.8,45.2z"/>
		</g>
	</g>
</g>
</svg>