<?xml version="1.0" encoding="UTF-8"?>
<svg id="Layer_2" data-name="Layer 2" xmlns="http://www.w3.org/2000/svg" viewBox="0 0 694.06 366.95">
  <defs>
    <style>
      .cls-1 {
        fill: #f0f8f5;
      }

      .cls-2 {
        fill: #fff;
      }

      .cls-3 {
        fill: #436b77;
      }

      .cls-4 {
        fill: #b8e0ea;
        opacity: .89;
      }

      .cls-5 {
        fill: #d26060;
      }

      .cls-6 {
        fill: #8bb5bc;
      }

      .cls-7, .cls-8 {
        fill: #33565a;
      }

      .cls-9 {
        fill: #4f7a83;
      }

      .cls-8 {
        opacity: .75;
      }

      .cls-10 {
        fill: #629ca4;
      }

      .cls-11 {
        fill: #010101;
      }

      .cls-12 {
        fill: #b6242c;
      }
    </style>
  </defs>
  <g id="Obstacles">
    <g>
      <path class="cls-3" d="M3.36,116.22c2.57,3.5,6.41,8.04,10.64,12.78,10.36,11.62,23.04,24.45,24.89,26.32,0,0,1.04,.39,2.72,1.04,7.27,2.77,26.62,10.19,27.47,11.04,1.06,1.06-14.5,1.96-15.4,3.92-.04,.1-.08,.21-.11,.36-.51,2.89,2.56,15.57,15.4,23.24,13.49,8.05,84.64,42.07,104.57,47.8,0,0-.05,.04-.14,.13-2.81,2.63-48.36,46.22-44.85,107.66,.62,10.84,2.3,15.75,4.99,16.36,13.07,2.98,50.09-95.08,106.42-107.85,0,0,6.56,.52,17.16,1.27,38.38,2.7,129.82,8.33,155.84,2.65,33.21-7.25,78.5-21.14,81.83-17.81s11.17,9.97,12.38,9.97,3.92-14.79,9.36-16.31c20.06-5.57,49.96-13.24,61.69-1.61,.21,.21,.56,.57,1.03,1.05,1.01,1.06,2.55,2.69,4.33,4.61h0c.92,1,1.9,2.08,2.9,3.19,5.08,5.66,8.6,9.95,9.43,10.96,19.85,23.97,41.4,36.15,41.4,36.15,15.85,8.96,35.06,14.26,37.06,10.72,1.47-2.59-7.12-8.36-15.02-18.12-14.48-17.89-17.43-37.79-19.48-51.63-7.53-50.88,24.97-96.68,29.44-102.81,0,0,12.38-21.14,17.21-23.55,4.83-2.42-2.41-10.26,6.64-16.91,9.06-6.64-53.74,8.3-92.69,76.24,0,0-5.44,10.11-12.08,22.79-6.64,12.68-19.93,20.84-55.86,10.87-35.93-9.96-54.35-12.08-55.86-31.7l-12.38,6.54s-40.46-13.03-65.82-35.68c-25.36-22.65-42.12-28.99-44.84-37.14l-2.72-8.15c-.24-4.64-.62-11.6-1.16-20.08-.5-7.81-.91-13.33-1-14.7-.62-8.64-.96-22.61,.2-46.1,.55-11.23-.22-12.79-1.51-13.48-4.43-2.37-19.23,10.57-28.48,26.17-6.1,10.29-3.68,11.42-14.49,33.62-1.41,2.89-4.77,9.69-10.87,17.31-5.5,6.87-8.43,10.43-13.69,12.08-6.52,2.04-15.17,.68-17.31,.2-.74-.16-3.9-.93-8.18-.85-.06,0-.07,0-.11,0-2.86,.06-7.4-.52-14.95-2.78-8.73-.37-17.58-.68-26.57-.91-8.73-.23-17.33-.37-25.82-.45-24.16-1.2-51.22-1.22-80.62,.91-33.47,2.41-63.71,7.14-90.18,12.76-3.36,.72-6.66,1.44-9.91,2.18-1.69,.77-5.1,2.63-6.04,6.04-1.02,3.7,1.41,7.33,3.12,9.66Z"/>
      <path class="cls-4" d="M7.34,113.31c2.23,3.05,5.71,7.22,10.34,12.41,9.05,10.14,19.86,21.21,23.96,25.38,.45,.17,1.03,.39,1.73,.66,27.5,10.47,28.25,11.22,29.2,12.16,1.36,1.36,1.84,3.34,1.25,5.16-1.08,3.3-3.81,3.72-9.8,4.65-1.39,.21-3.51,.54-5.18,.87,1,3.72,4.2,11.05,12.67,16.1,13.57,8.1,84.51,41.86,103.4,47.3l8.41,2.42-4.2,3.88-2.36,2.18c-5.42,3.75-8.58,7.61-10.46,10.45-2.19,3.3-2.44,4.88-5.44,9.36-3.14,4.68-4.75,5.77-7.15,8.96-3.36,4.48-4.23,7.72-7.45,16.71-5.61,15.64-5.48,12.75-7.75,20.23-2.41,7.91-6.32,21.22-5.04,38.06,.35,4.67,1.02,8.46,1.53,10.93,1.24-1.35,3.15-3.49,5.35-6.2,1.91-2.35,8.82-11.01,15.97-24.38,1.07-2,2.56-4.89,4.23-8.45,2.95-1.92,7.62-5.51,11.47-11.47,2.65-4.1,4.05-8,4.83-10.87,1.87-1.2,3.96-2.78,6.04-4.83,5.11-5.05,7.72-10.54,9.06-14.19,2.77-1.08,6.83-3.05,10.87-6.64,3.13-2.78,5.26-5.64,6.64-7.85,3.06-2.02,6.69-4.11,10.87-6.04,3.29-1.52,6.47-2.72,9.46-3.67,3.29-1.05,6.34-1.8,9.08-2.34,.25-.06,.49-.11,.74-.17l.75,.06c.8,.06,80.13,6.35,132.66,6.35,18.73,0,31.82-.79,38.91-2.33,11.69-2.55,24.71-5.88,37.3-9.11,22.57-5.78,36.73-9.32,43.23-9.32,1.67,0,4.08,.2,5.83,1.95,1.78,1.78,4.44,4.11,6.69,5.96,1.99-5.54,4.8-12.05,10.24-13.56,14.71-4.08,30.11-7.87,43.15-7.87,10.61,0,18.24,2.46,23.33,7.51,.22,.21,.6,.61,1.1,1.13,1.21,1.25,2.81,2.97,4.4,4.69l1.3,1.42h0c.51,.57,1.05,1.17,1.64,1.82,4.78,5.32,8.21,9.47,9.34,10.84l.22,.27c18.98,22.91,39.82,34.88,40.03,35,8.73,4.94,18.55,8.68,25.32,10.3-2.77-2.75-6.19-6.16-9.54-10.3-15.33-18.94-18.45-40.04-20.52-54-7.54-50.97,23.48-97,30.19-106.25,.63-1.07,3.46-5.82,6.81-10.88,6.23-9.41,9.37-12.54,11.46-13.88,0-.39-.03-.87-.05-1.26-.07-1.41-.18-3.3,.18-5.41-6.08,2.42-14.62,6.6-24.49,13.27-15.21,10.26-36.97,28.83-54.3,59.04-.46,.85-5.73,10.68-12.02,22.69-6.33,12.09-17.05,17.96-32.77,17.96-8.14,0-17.55-1.51-28.78-4.63-4.52-1.25-8.71-2.37-12.76-3.44-24.57-6.54-40.64-10.81-45.37-25.54l-8.33,4.4-1.98-.63c-1.69-.55-41.75-13.62-67.59-36.69-11.63-10.38-21.61-17.41-28.9-22.55-9.58-6.75-15.37-10.82-17.33-16.71l-2.93-8.79-.04-.67c-.35-6.8-.73-13.35-1.16-20.02-.4-6.32-.75-11.14-.92-13.45l-.09-1.22c-.83-11.61-.76-27.32,.2-46.68,.19-3.78,.2-6.19,.14-7.71-4.56,2.68-13.9,11.23-20.97,23.15-2.64,4.45-3.51,6.96-4.83,10.78-1.54,4.45-3.65,10.55-9.47,22.48-1.34,2.75-4.89,10.04-11.46,18.24-5.58,6.97-9.26,11.57-16.06,13.7-2.79,.87-6.08,1.31-9.79,1.31-5.38,0-9.6-.9-10.07-1l-.14-.03c-.78-.18-3.15-.71-6.36-.71-.14,0-.28,0-.43,0-.1,0-.15,0-.25,0-.14,0-.28,0-.42,0-3.9,0-8.94-.92-15.39-2.81-8.52-.36-17.23-.66-25.88-.87-8.44-.22-17.1-.37-25.74-.45h-.2c-10.82-.54-21.8-.81-32.63-.81-15.74,0-31.69,.57-47.39,1.7-29.97,2.16-60.08,6.43-89.52,12.67-3.06,.65-6.18,1.34-9.3,2.05-1.6,.81-2.68,1.78-2.92,2.66-.45,1.62,1.58,4.4,2.34,5.44Z"/>
      <path class="cls-6" d="M3.36,116.22c2.57,3.5,6.41,8.04,10.64,12.78,10.36,11.62,23.04,24.45,24.89,26.32,0,0,1.04,.39,2.72,1.04,7.27,2.77,26.62,10.19,27.47,11.04,1.06,1.06-14.5,1.96-15.4,3.92-.04,.1-.08,.21-.11,.36-.51,2.89,2.56,15.57,15.4,23.24,13.49,8.05,84.64,42.07,104.57,47.8,0,0-.05,.04-.14,.13l66.56,16.18s139.8,11.17,173.01,3.92c33.21-7.25,78.5-21.14,81.83-17.81s11.17,9.97,12.38,9.97,3.92-14.79,9.36-16.31c20.06-5.57,49.96-13.24,61.69-1.61,.21,.21,.56,.57,1.03,1.05l-1.43-15.14s-60.39,6.04-79.71,10.87c-19.32,4.83-148.55,28.68-252.72,12.38-104.17-16.31-177.24-67.33-168.18-71.56,9.06-4.23,83.33-8.45,83.33-8.45l-6.04-7.85c-12.68-17.51-83.33-14.49-106.88-18.12-17.12-2.63-27.22-28.25-31.46-42.04-3.36,.72-6.66,1.44-9.91,2.18-1.69,.77-5.1,2.63-6.04,6.04-1.02,3.7,1.41,7.33,3.12,9.66Z"/>
      <path class="cls-9" d="M3.36,116.22c2.57,3.5,6.41,8.04,10.64,12.78,7.71-1.93,20.89-4.54,29.42-2.51,12.68,3.02,18.12-10.87,33.82-3.02,15.7,7.85,32.61,6.04,40.46,10.87,7.85,4.83,47.1,16,52.54,19.62,5.44,3.62,19.93,4.53,68.84,17.21,14.94,3.87,24.56,10.88,30.71,18.73,9.32,11.91,17.67,31.34,10.05,40.14-2.53,2.92-6.32,4.11-9.96,4.53,73.03-3.25,108.53-.36,127.41,3.62,10.76,2.27,33.07,8.48,51.95-.92,3.06-1.52,7.47-4.17,14.48-5.88,13.32-3.25,23.79-.12,30.8,1.36,37.13,7.82,56.93-13.95,79.13,.59,5.03,3.29,8.25,7.18,9.96,9.5h0c.92,1,1.9,2.08,2.9,3.19,5.08,5.66,8.6,9.95,9.43,10.96,19.85,23.97,41.4,36.15,41.4,36.15,15.85,8.96,35.06,14.26,37.06,10.72,1.47-2.59-7.12-8.36-15.02-18.12-14.48-17.89-17.43-37.79-19.48-51.63-7.53-50.88,24.97-96.68,29.44-102.81,0,0,12.38-21.14,17.21-23.55,4.83-2.42-2.41-10.26,6.64-16.91,9.06-6.64-53.74,8.3-92.69,76.24,0,0-5.44,10.11-12.08,22.79-6.64,12.68-19.93,20.84-55.86,10.87-35.93-9.96-54.35-12.08-55.86-31.7l-12.38,6.54s-40.46-13.03-65.82-35.68c-16.59-14.81-29.5-22.65-37.2-28.58-4.08-3.14-6.7-5.74-7.64-8.56l-2.72-8.15c-.24-4.64-.62-11.6-1.16-20.08-.5-7.81-.91-13.33-1-14.7-.62-8.64-.96-22.61,.2-46.1,.55-11.23-.22-12.79-1.51-13.48-2.79-1.49-9.7,3.09-16.74,10.59-4.14,4.4-8.32,9.81-11.74,15.57-6.1,10.29-3.68,11.42-14.49,33.62-1.41,2.89-4.77,9.69-10.87,17.31-5.5,6.87-8.43,10.43-13.69,12.08-6.52,2.04-15.17,.68-17.31,.2-.74-.16-3.9-.93-8.18-.85-.06,0-.07,0-.11,0-2.86,.06-7.4-.52-14.95-2.78-8.73-.37-17.58-.68-26.57-.91-8.73-.23-17.33-.37-25.82-.45-24.16-1.2-51.22-1.22-80.62,.91-37.72,2.72-71.33,8.38-100.09,14.95-1.69,.77-5.1,2.63-6.04,6.04-1.02,3.7,1.41,7.33,3.12,9.66Z"/>
      <path class="cls-3" d="M3.36,116.22c2.57,3.5,6.41,8.04,10.64,12.78,7.71-1.93,20.89-4.54,29.42-2.51,.59,.14,1.16,.24,1.72,.31,3.24,.42,6.02-.27,8.68-1.29,6.74-2.6,12.68-7.41,23.42-2.04,15.7,7.85,32.61,6.04,40.46,10.87,7.85,4.83,47.1,16,52.54,19.62,5.44,3.62,19.93,4.53,68.84,17.21,14.94,3.87,24.56,10.88,30.71,18.73,9.32,11.91,17.67,31.34,10.05,40.14-2.53,2.92-6.32,4.11-9.96,4.53,73.03-3.25,108.53-.36,127.41,3.62,10.76,2.27,33.07,8.48,51.95-.92,3.06-1.52,7.47-4.17,14.48-5.88,13.32-3.25,23.79-.12,30.8,1.36,37.13,7.82,56.93-13.95,79.13,.59,5.03,3.29,8.25,7.18,9.96,9.5h0c.92,1,1.9,2.08,2.9,3.19,5.08,5.66,8.6,9.95,9.43,10.96,5.95,7.18,12.04,13.3,17.67,18.35,13.16,11.83,23.73,17.8,23.73,17.8,1.96,1.11,3.97,2.16,6,3.15,14.34,6.99,29.31,10.68,31.07,7.57,1.47-2.59-7.12-8.36-15.02-18.12-14.48-17.89-17.43-37.79-19.48-51.63-7.53-50.88,24.97-96.68,29.44-102.81,0,0,12.38-21.14,17.21-23.55,4.83-2.42-2.41-10.26,6.64-16.91,5.44-3.99-15.08-.19-40.78,18.25-5.82,4.17-11.9,9.09-18,14.84-11.79,11.1-23.68,25.3-33.92,43.15,0,0-5.44,10.11-12.08,22.79-6.64,12.68-19.93,20.84-55.86,10.87-35.93-9.96-54.35-12.08-55.86-31.7l-12.38,6.54s-40.46-13.03-65.82-35.68c-16.59-14.81-29.5-22.65-37.2-28.58-4.08-3.14-6.7-5.74-7.64-8.56l-2.72-8.15c-.24-4.64-.62-11.6-1.16-20.08-.5-7.81-.91-13.33-1-14.7-.62-8.64-.96-22.61,.2-46.1,.55-11.23-.22-12.79-1.51-13.48-2.79-1.49-9.7,3.09-16.74,10.59-4.14,4.4-8.32,9.81-11.74,15.57-6.1,10.29-3.68,11.42-14.49,33.62-1.41,2.89-4.77,9.69-10.87,17.31-5.5,6.87-8.43,10.43-13.69,12.08-6.52,2.04-15.17,.68-17.31,.2-.74-.16-3.9-.93-8.18-.85-.06,0-.07,0-.11,0-2.86,.06-7.4-.52-14.95-2.78-8.73-.37-17.58-.68-26.57-.91-8.73-.23-17.33-.37-25.82-.45-24.16-1.2-51.22-1.22-80.62,.91-37.72,2.72-71.33,8.38-100.09,14.95-1.69,.77-5.1,2.63-6.04,6.04-1.02,3.7,1.41,7.33,3.12,9.66Zm20.13-9.81c-.12-8.75,79.44-18.38,138.59-19.47,28.86-.54,55.14,.92,62.5,1.36,25.67,1.52,43.45,3.77,60.24,5.89,22.11,2.79,29.79,4.47,36.69,6.34,9.41,2.55,23.88,6.58,38.95,15.7,14.6,8.84,21.53,17.49,29.59,25.36,12.19,11.92,32.01,27.04,64.61,38.65-105.58,6.74-177.25-7.44-224.03-22.34-25.9-8.25-59.03-21.47-114.74-33.21-58.62-12.36-92.32-12.58-92.39-18.27Z"/>
      <path class="cls-11" d="M88.05,115.79c-.44,3.6,3.12,7.47,6.79,7.72,4.71,.32,7.41-5.46,8.35-7.5,.81-1.73,2.15-4.62,.91-6.34-1.69-2.32-6.99-.91-9.46,.1-2.17,.89-6.16,2.53-6.59,6.01Z"/>
      <ellipse class="cls-2" cx="94.39" cy="113.4" rx="1.66" ry="1.89"/>
      <path class="cls-5" d="M41.61,156.36c3.61,1.35,10.44,3.94,16.39,6.29,.19,.07,.38,.15,.56,.22,2.52,.99,4.85,1.94,6.68,2.71l.53-2.07,.89-3.5,3.21,5.38h0l1.98,3.33c.62-.08,1.25-.16,1.88-.24,2.57-.33,5.23-.65,7.95-.97,1.86-.21,3.76-.43,5.66-.63,1.9-.21,3.8-.41,5.72-.61,1.96-.2,3.93-.41,5.89-.6,1.59-.15,3.18-.31,4.75-.46,1.64-.16,3.27-.31,4.87-.45,1.55-.14,3.08-.28,4.59-.41,1.41-.13,2.78-.25,4.14-.36,1.42-.12,2.8-.24,4.15-.36,1.16-.1,2.29-.19,3.4-.28,1.42-.12,2.79-.23,4.1-.33,.92-.07,1.81-.14,2.67-.21,1.22-.09,2.37-.18,3.45-.26,.97-.08,1.88-.15,2.72-.21,.75-.06,1.44-.11,2.07-.15,2.99-.22,4.71-.34,4.71-.34-.75-.77-1.92-1.86-3.52-2.92-3.3-2.17-6.37-2.83-8.15-3.22-12.24-2.68-10.24-2.91-16.4-3.83-6.65-.98-11.5-1.05-19.22-1.2-4.04-.08-8.72,.05-17.92,.3-18.16,.5-22.11,.92-26.87,2.02-4.75,1.1-8.51,2.45-10.87,3.39Z"/>
      <path class="cls-5" d="M64.46,168.66c-.7,.11-1.45,.22-2.21,.34l.6,1c.43-.07,.87-.14,1.31-.2l.29-1.14Z"/>
      <path class="cls-5" d="M59.29,169.49c-.73,.13-1.43,.27-2.07,.41l.68,.94h0c.51-.1,1.04-.19,1.59-.28l-.2-1.07Z"/>
      <path class="cls-5" d="M53.58,171.69c.39-.08,.8-.17,1.22-.26l-.21-.77c-.48,.21-.8,.43-.91,.67-.04,.1-.08,.21-.11,.36Z"/>
      <path class="cls-12" d="M47.77,156.43c3.34,1.27,7.16,2.74,10.62,4.1,3.3,1.3,5.67,2.25,7.39,2.98l.89-3.5,3.21,5.38h0c.43,.25,.56,.39,.7,.52,.23,.23,.4,.49,.51,.77,1.03-.14,2.07-.27,3.12-.41l1.61-7.58,4.55,6.82c2.4-.28,4.84-.55,7.3-.82l1.13-7.81,3.34,7.34c2.42-.25,4.85-.5,7.26-.74l1.17-5.7,2.27,5.36c2.15-.2,4.27-.4,6.35-.59l1.35-4.87,1.81,4.59c2.01-.18,3.98-.35,5.89-.51l1.86-4.38,.89,4.14c1.7-.14,3.35-.28,4.93-.41h0c.88-1.78,1.78-3.53,1.92-3.53s.46,1.64,.75,3.31c1.49-.12,2.9-.23,4.22-.33l1.07-1.97,.55,1.85c1.51-.12,2.88-.22,4.1-.31l.08-.23c-2.46-1.35-4.7-1.84-6.13-2.15h-.05c-6.07-1.34-8.74-2.09-10.5-2.59-1.84-.51-2.75-.77-5.76-1.22-6.34-.94-11.1-1.03-18.32-1.17h-.63c-.8-.03-1.63-.04-2.52-.04-3.46,0-7.62,.11-15.29,.32-17.7,.49-21.74,.88-26.46,1.97-1.74,.4-3.47,.87-5.18,1.4Z"/>
      <path class="cls-7" d="M241.79,112.9s18.72,44.99-1.81,96.01c0,0,15.4-59.78,1.81-96.01Z"/>
      <path class="cls-7" d="M256.58,115.62s18.72,44.99-1.81,96.01c0,0,15.4-59.78,1.81-96.01Z"/>
      <path class="cls-7" d="M269.47,118.64s18.72,44.99-1.81,96.01c0,0,15.4-59.78,1.81-96.01Z"/>
      <path class="cls-7" d="M278.72,121.46s18.72,44.99-1.81,96.01c0,0,15.4-59.78,1.81-96.01Z"/>
      <path class="cls-1" d="M137.78,162.31c.75-.06,1.44-.11,2.07-.15l-1.03-2.86-.21,.6-.08,.23-.76,2.18Z"/>
      <path class="cls-1" d="M131.62,162.79c1.22-.09,2.37-.18,3.45-.26l-.62-2.08-.55-1.85-1.07,1.97-1.21,2.22Z"/>
      <path class="cls-1" d="M124.85,163.34c1.42-.12,2.79-.23,4.1-.33-.1-.62-.21-1.36-.34-2.1-.29-1.67-.6-3.31-.75-3.31s-1.05,1.75-1.92,3.53h0c-.39,.78-.77,1.57-1.08,2.22Z"/>
      <path class="cls-1" d="M117.31,163.97c1.42-.12,2.8-.24,4.15-.36l-.45-2.09-.89-4.14-1.86,4.38-.94,2.21Z"/>
      <path class="cls-1" d="M108.59,164.75c1.55-.14,3.08-.28,4.59-.41l-.81-2.06-1.81-4.59-1.35,4.87-.61,2.19Z"/>
      <path class="cls-1" d="M98.97,165.66c1.59-.15,3.18-.31,4.75-.46l-.87-2.05-2.27-5.36-1.17,5.7-.45,2.18Z"/>
      <path class="cls-1" d="M87.36,166.87c1.9-.21,3.8-.41,5.72-.61l-.93-2.04-3.34-7.34-1.13,7.81-.31,2.17Z"/>
      <path class="cls-1" d="M73.74,168.47c2.57-.33,5.23-.65,7.95-.97l-1.32-1.98-4.55-6.82-1.61,7.58-.47,2.19Z"/>
      <path class="cls-1" d="M64.17,169.8c2.42-.37,5-.73,7.69-1.09l-1.98-3.33h0l-3.21-5.38-.89,3.5-.53,2.07-.79,3.09-.29,1.14Z"/>
      <path class="cls-1" d="M57.81,161.61l.19,1.03,1.29,6.84,.2,1.07c1.08-.18,2.2-.37,3.36-.55l-.6-1-3.69-6.13-.75-1.25Z"/>
      <path class="cls-1" d="M52.68,163.63l1.91,7.03,.21,.77c.98-.2,2.02-.4,3.11-.6l-.68-.94-4.55-6.27Z"/>
      <path class="cls-3" d="M295.23,230.35c1.49,.96,3.71,2.41,6.34,4.23,22.35,15.44,35.2,30.26,46.8,42.88,22.74,24.72,51.03,52.25,77.3,57.07,2.63,.48,6.22,.91,7.65-.67,.07-.08,.14-.16,.2-.24,3.13-4.54-14.34-17.97-36.23-45.29-6.99-8.73-20.46-26.39-35.33-45.89-6.34-8.32-8.71-11.47-13.59-15.1-6.91-5.14-15.51-8.73-23.95-9.77-11.65-1.45-23,1.94-29.19,12.79Z"/>
      <path class="cls-9" d="M308.52,227.33c-2.21,.74-4.43,1.48-6.64,2.21,3.11,1.03,7.63,2.75,12.68,5.61,2.33,1.32,5.95,3.84,15.15,11.47,12.06,10.01,20.79,19.57,28.76,28.27,.93,1.02,1.86,2.03,2.77,3.03,20.62,22.42,47.03,48.47,72.08,55.92,.07-.08,.14-.16,.2-.24,3.13-4.54-14.34-17.97-36.23-45.29-26.05-32.52-35.33-45.89-35.33-45.89-1.69-2.47-5.75-8.47-13.38-12.88-7.15-4.13-14.32-5.07-19.12-5.23-4.49,.02-9.67,.43-15.3,1.61-1.99,.42-3.87,.89-5.64,1.41Z"/>
      <path class="cls-10" d="M325.57,115.93c-7.63-2.32-15.34-4.35-23.09-6.21-7.75-1.86-15.55-3.54-23.38-5.08-7.83-1.51-15.7-2.87-23.6-4.07-7.9-1.18-15.83-2.15-23.79-2.98-3.98-.43-7.96-.78-11.95-1.16-1.99-.18-3.99-.32-5.99-.49l-3-.24-3-.19-3-.16c-1-.05-2-.12-3-.14-2-.06-4.01-.1-6.01-.13-1-.02-2.01-.02-3.01,0l-3.01,.05-3.01,.07c-1,.03-2.01,.09-3.01,.14l-6.01,.35-6,.54c-1,.1-2,.18-3,.3l-2.99,.38c-1.99,.26-3.98,.49-5.96,.82-1.98,.33-3.96,.66-5.94,1.01-.99,.17-1.97,.37-2.95,.58l-2.94,.63-2.94,.65c-.98,.22-1.95,.49-2.92,.75l-2.9,.79c-.96,.28-1.93,.54-2.89,.84l.12,.69c4.02-.09,7.97-.43,11.94-.54l2.97-.14,1.48-.08c.49-.03,.99-.03,1.49-.05,1.98-.05,3.96-.12,5.93-.2,.99-.05,1.97-.06,2.96-.07l2.96-.06,2.96-.07c.98-.04,1.97-.02,2.96-.03l5.91-.07h5.91c7.88,.05,15.76,.04,23.65,.11h2.96s2.96,.05,2.96,.05c1.97,.04,3.95,.06,5.93,.12l5.93,.22c1.98,.08,3.95,.22,5.92,.33,7.89,.5,15.79,1.15,23.66,2.01,7.88,.81,15.75,1.78,23.6,2.9,7.86,1.1,15.69,2.37,23.51,3.77,3.91,.7,7.81,1.44,11.7,2.23,3.89,.78,7.79,1.59,11.65,2.5l.19-.68Z"/>
      <path class="cls-7" d="M287.08,90.86c9.11,.51,19.75,1.79,31.4,4.53,17.62,4.14,32.01,10.3,42.81,15.96-4.08-3.14-6.7-5.74-7.64-8.56l-2.72-8.15c-.24-4.64-.62-11.6-1.16-20.08-.5-7.81-.91-13.33-1-14.7-.62-8.64-.96-22.61,.2-46.1,.55-11.23-.22-12.79-1.51-13.48-2.79-1.49-9.7,3.09-16.74,10.59,1.87,2.76,4.34,6.92,6.18,12.35,4.11,12.13,2.35,22.38,1.51,29.89-1.11,9.93-1.6,23.99,1.21,41.97-7.21-2.37-16.97-4.77-28.69-5.43-9.29-.52-17.39,.18-23.85,1.21Z"/>
      <path class="cls-7" d="M619.81,206.21c1.4,28,15.4,61.6,14,70-.54,3.23-3.15,5.64-6.16,7.36,5.83,5.24,11.23,9.49,15.66,12.74,14.34,6.99,29.31,10.68,31.07,7.57,1.47-2.59-7.12-8.36-15.02-18.12-14.48-17.89-17.43-37.79-19.48-51.63-7.53-50.88,24.97-96.68,29.44-102.81,0,0,12.38-21.14,17.21-23.55,4.83-2.42-2.41-10.26,6.64-16.91,5.44-3.99-15.08-.19-40.78,18.25,1.81,3.11,3.21,6.17,3.81,8.9,2.8,12.6-37.8,60.2-36.4,88.2Z"/>
      <path class="cls-8" d="M45.14,126.8c.06,.15,.14,.3,.24,.44,1.12,1.65,3.89,2.25,5.78,1.45,1.27-.54,2.16-1.73,2.66-3.18-2.65,1.03-5.43,1.71-8.68,1.29Z"/>
      <path class="cls-6" d="M132.09,356.02c.27,3.62,.77,7.27,1.47,10.86,13.07,2.98,50.09-95.08,106.42-107.85,0,0,6.56,.52,17.16,1.27l-74.64-18.09-4.66,4.31c-4.85,3.42-8.83,7.44-11.83,11.97-1.2,1.81-1.92,3.19-2.61,4.52-.72,1.39-1.4,2.7-2.81,4.82-1.65,2.47-2.79,3.75-3.99,5.11-.91,1.03-1.84,2.08-2.94,3.55-3.53,4.69-4.84,8.4-7.21,15.14-.36,1.02-.75,2.12-1.18,3.34-2.88,8.04-4.17,10.96-5.11,13.09-.91,2.05-1.56,3.54-2.74,7.45-2.35,7.71-6.71,22.06-5.31,40.51Z"/>
      <path class="cls-6" d="M133.49,350.24c.35,4.67,1.02,8.46,1.53,10.93,1.24-1.35,3.15-3.49,5.35-6.2,1.91-2.35,8.82-11.01,15.97-24.38,1.07-2,2.56-4.89,4.23-8.45,2.95-1.92,7.62-5.51,11.47-11.47,2.65-4.1,4.05-8,4.83-10.87,1.87-1.2,3.96-2.78,6.04-4.83,5.11-5.05,7.72-10.54,9.06-14.19,2.77-1.08,6.83-3.05,10.87-6.64,3.13-2.78,5.26-5.64,6.64-7.85,3.06-2.02,6.69-4.11,10.87-6.04,3.29-1.52,6.47-2.72,9.46-3.67l-50.68-12.28-2.36,2.18c-5.42,3.75-8.58,7.61-10.46,10.45-2.19,3.3-2.44,4.88-5.44,9.36-3.14,4.68-4.75,5.77-7.15,8.96-3.36,4.48-4.23,7.72-7.45,16.71-5.61,15.64-5.48,12.75-7.75,20.23-2.41,7.91-6.32,21.22-5.04,38.06Z"/>
    </g>
  </g>
</svg>