<?xml version="1.0" encoding="UTF-8"?><svg id="Layer_2" xmlns="http://www.w3.org/2000/svg" viewBox="0 0 471.11 386.66"><defs><style>.cls-1{fill:#f39200;}.cls-2{fill:#e6332a;}.cls-3{fill:#be1622;}.cls-4{fill:#e94e1b;}.cls-5{fill:#faebd9;}.cls-6{fill:#efd6bb;}.cls-7{fill:#f8af42;}</style></defs><g id="Obstacles"><g><g><path class="cls-4" d="M300.41,83.61c10.21,4.1,9.15,19.64,5.33,27.33-6.12,12.23-21.04,8.75-27.33,10.83l22-38.16Z"/><path class="cls-1" d="M304.17,86.07c6.06,6,4.83,18.29,1.57,24.91-1.74,3.48-4.21,5.72-6.96,7.13-6.68-4.43-1.23-11.9,5.39-32.04Z"/><path class="cls-4" d="M170.57,83.61c-10.21,4.1-9.15,19.64-5.33,27.33,6.12,12.23,21.04,8.75,27.33,10.83l-22-38.16Z"/><path class="cls-1" d="M166.81,86.07c-6.06,6-4.83,18.29-1.57,24.91,1.74,3.48,4.21,5.72,6.96,7.13,6.68-4.43,1.23-11.9-5.39-32.04Z"/></g><g><g><path class="cls-7" d="M433.79,303.06c24.86-3.7,33.78-32.38,6.4-43.04-34.06-13.24-76.93,23.68-121.43-.51,34.96,34.96,34.56,127.09-24.46,127.09s-45.96-56.95-12.91-56.95c-28.62,22.33-9.15,39.61,9.43,39.61,27.66,0,27.38-48.48-2.86-84.39-22.11-26.26-45.23-26.88-52.41-51.34-7.18,24.46-30.24,25.08-52.41,51.34-30.24,35.91-30.52,84.39-2.86,84.39,18.52,0,37.99-17.23,9.43-39.61,33.05,0,43.65,56.95-12.91,56.95s-59.48-92.13-24.46-127.09c-44.5,24.18-87.31-12.74-121.42,.51-27.44,10.66-18.46,39.28,6.4,43.04-41.92,2.47-46.52-40.23-23.74-59.14,33.67-27.94,65.93-6.73,103.86-13.35-47.64-6-48.14-76.65-76.26-76.65-17.45,0-26.32,21.04-5.27,39.95-32.6-10.21-25.98-55.05,10.16-55.05,39.67,0,40.34,67.22,96.17,67.22-46.63-39.95,1.01-93.03-11.56-107.9-9.99-11.78-34.96-4.6-28.95,19.81-15.04-21.49,13.97-51.85,37.82-32.49,26.6,21.6-21.04,95.84,30.36,95.84,30.69,0,26.54-33.39,12.51-63.35C148.52,46.12,163.22,.06,235.49,.06s86.97,46.01,53.25,117.89c-14.08,29.96-18.18,63.35,12.51,63.35,51.34,0,3.76-74.24,30.36-95.84,23.85-19.36,52.86,11,37.82,32.49,6-24.41-18.97-31.59-28.95-19.81-12.57,14.81,35.07,67.95-11.56,107.9,55.83,0,56.5-67.22,96.17-67.22,36.14,0,42.76,44.83,10.16,55.05,21.1-18.91,12.23-39.95-5.27-39.95-28.17,0-28.62,70.7-76.26,76.65,37.93,6.62,70.2-14.65,103.86,13.35,22.73,18.91,18.12,61.61-23.79,59.14Z"/><path class="cls-3" d="M433.79,303.06c41.92-3.59,34.68-41.86,8.42-52.07-32.66-12.68-85.29,27.94-127.88,4.83,2.41,1.63,3.2,2.19,4.49,3.76,34.96,34.96,34.56,127.09-24.46,127.09s-45.96-56.95-12.91-56.95c-35.07,19.19-17.79,44.44,13.64,44.44,36.87,0,26.77-62.9-2.19-97.3-21.21-25.14-50.44-26.93-57.29-50.39-6.85,23.45-36.14,25.25-57.29,50.39-28.95,34.4-39.05,97.3-2.19,97.3,31.48,0,48.7-25.19,13.64-44.44,33.05,0,43.65,56.95-12.91,56.95s-59.48-92.13-24.46-127.09c1.23-1.51,2.08-2.13,4.49-3.76-42.59,23.12-95.28-17.51-127.88-4.83-26.26,10.21-33.5,48.48,8.42,52.07-41.92,2.47-46.52-40.23-23.74-59.14,33.67-27.94,65.93-6.73,103.86-13.35,2.19-.22,4.94-.51,7.18-.9-45.62-5.72-49.55-76.2-79.96-81.25-17.45-2.86-39.05,22.84-8.75,45.39-.51-.17-1.01-.34-1.52-.51-30.86-11.11-23.85-54.54,11.73-54.54,39.67,0,40.34,67.22,96.17,67.22,1.07-.17,2.08-.28,3.98-.56-44.66-38.27,.9-91.41-10.55-110.2-11.62-19.13-42.36-2.24-34,22.61-15.04-21.49,13.97-51.85,37.82-32.49,26.6,21.6-21.04,95.84,30.36,95.84,30.69,0,26.54-33.39,12.51-63.35C148.52,46.12,163.22,.06,235.49,.06s86.97,46.01,53.25,117.89c-14.08,29.96-18.18,63.35,12.51,63.35,51.34,0,3.76-74.24,30.36-95.84,23.85-19.36,52.86,11,37.82,32.49,8.36-24.86-22.39-41.75-34-22.61-11.39,18.8,34.12,71.93-10.55,110.2,1.91,.28,2.92,.34,3.98,.56,55.83,0,56.5-67.22,96.17-67.22,35.57,0,42.53,43.43,11.73,54.54-.51,.17-1.01,.34-1.51,.51,30.3-22.56,8.7-48.31-8.75-45.39-30.41,5.05-34.34,75.53-79.96,81.25,2.24,.39,4.99,.67,7.18,.9,37.93,6.62,70.2-14.65,103.86,13.35,22.73,18.8,18.12,61.5-23.79,59.03Z"/><path class="cls-2" d="M381.94,248.8c-23.4,9.03-52.18,9.26-76.54,1.63,6.68,3.87,24.13,23.62,25.59,48.03,1.46,24.46-13.58,18.35-18.4,6.06-21.55-54.99-77.1-58.75-77.1-94.04,0,35.29-55.55,39.05-77.1,94.04-4.83,12.29-19.86,18.4-18.4-6.06,1.46-24.46,18.91-44.22,25.59-48.03-24.41,7.69-53.14,7.41-76.54-1.63-13.64-5.27-12.06-10.94,23.4-12.23,35.41-1.23,32.21-15.49,32.21-15.49-34.73,6.96-47.86-18.35-51.06-26.88-3.2-8.53,42.14,35.97,76.7,.73-15.99,2.86-43.49-18.91-36.47-42.2,8.25-27.27-4.43,19.98,25.08,29.35,22.78,7.24,40.57-6.57,40.57-26.88,0-15.94-11.84-30.13-20.71-45C149.64,42.76,165.86,0,235.49,0s85.85,42.76,56.73,110.2c-8.81,14.87-20.71,29.01-20.71,45,0,20.31,17.84,34.12,40.57,26.88,29.57-9.43,16.83-56.67,25.08-29.35,7.01,23.29-20.48,45.06-36.47,42.2,34.56,35.24,79.9-9.26,76.7-.73-3.2,8.53-16.38,33.84-51.06,26.88,0,0-3.2,14.25,32.21,15.49,35.46,1.23,37.03,6.96,23.4,12.23Z"/><path class="cls-4" d="M235.49,192.57c-24.69,83.44-114.41,37.93-74.96,16.67,38.49-20.71,61.95-53.81,36.42-89.05-22.22-30.64-43.15-70.98-18.52-101.17C189.31,5.72,214.11,.11,235.49,.11s46.18,5.61,57.07,18.91c24.63,30.19,3.7,70.53-18.52,101.17-25.53,35.24-2.08,68.34,36.42,89.05,39.45,21.21-50.28,66.77-74.96-16.67Z"/><path class="cls-1" d="M235.49,90.73c-39.73,0-62.9-23.9-59.09-46.63,3.82-22.73,25.25-41.19,59.09-41.19s55.27,18.46,59.09,41.19c3.82,22.73-19.36,46.63-59.09,46.63Z"/><path class="cls-1" d="M245.59,195.1c1.8,9.99,6.23,19.64,13.13,26.88,11.5,12.01,27.94,15.71,45.67,6.57,.34-.17,.45-.56,.28-.84-.28-.51-.84-.28-.84-.28-17.17,7.41-32.04,3.2-41.75-8.42-5.72-6.9-9.15-15.77-10.1-24.8-.17-1.74-1.8-3.03-3.54-2.86s-3.03,1.8-2.86,3.54c0,.06,0,.17,0,.22h0Z"/><path class="cls-1" d="M225.39,195.1c-1.8,9.99-6.23,19.64-13.13,26.88-11.5,12.01-27.94,15.71-45.67,6.57-.34-.17-.45-.56-.28-.84,.28-.51,.84-.28,.84-.28,17.17,7.41,32.04,3.2,41.75-8.42,5.72-6.9,9.15-15.77,10.1-24.8,.17-1.74,1.8-3.03,3.54-2.86s3.03,1.8,2.86,3.54c0,.06,0,.17,0,.22h0Z"/></g><path class="cls-1" d="M451.97,173.89c2.75-16.67-15.6-40.29-38.32-21.04-6.17,5.22-16.83,.34-4.43-8.64,18.57-13.47,55.61,1.23,42.76,29.68Z"/><path class="cls-1" d="M454.1,253.23c-14.25-9.15-2.97-16.33,6.06-6.85,10.04,10.49,14.76,28.17,5.72,41.41,2.92-9.76-.28-27.16-11.78-34.56Z"/><path class="cls-1" d="M19.01,173.89c-2.75-16.67,15.6-40.29,38.32-21.04,6.17,5.22,16.83,.34,4.43-8.64-18.57-13.47-55.61,1.23-42.76,29.68Z"/><path class="cls-1" d="M16.88,253.23c14.25-9.15,2.97-16.33-6.06-6.85-10.04,10.49-14.76,28.17-5.72,41.41-2.92-9.76,.28-27.16,11.78-34.56Z"/></g><g><ellipse class="cls-5" cx="363.35" cy="95.72" rx="1.4" ry="2.64" transform="translate(64.79 323.87) rotate(-52.14)"/><ellipse class="cls-6" cx="363.35" cy="95.72" rx=".73" ry="1.35" transform="translate(64.79 323.87) rotate(-52.14)"/></g><g><ellipse class="cls-5" cx="352.85" cy="90.77" rx="2.36" ry="4.26" transform="translate(196.22 419.72) rotate(-78.97)"/><ellipse class="cls-6" cx="352.85" cy="90.77" rx="1.23" ry="2.19" transform="translate(196.22 419.72) rotate(-78.97)"/></g><g><ellipse class="cls-5" cx="339.94" cy="94.26" rx="4.04" ry="2.92" transform="translate(36.39 273.98) rotate(-46.13)"/><ellipse class="cls-6" cx="339.94" cy="94.26" rx="2.08" ry="1.52" transform="translate(36.39 273.98) rotate(-46.13)"/></g><g><ellipse class="cls-5" cx="336.42" cy="105.56" rx="2.75" ry="4.04" transform="translate(-9.5 37.3) rotate(-6.26)"/><ellipse class="cls-6" cx="336.42" cy="105.56" rx="1.4" ry="2.08" transform="translate(-9.5 37.3) rotate(-6.26)"/></g><g><ellipse class="cls-5" cx="338.62" cy="118.73" rx="2.36" ry="4.04" transform="translate(-20.03 107.21) rotate(-17.48)"/><ellipse class="cls-6" cx="338.62" cy="118.73" rx="1.23" ry="2.08" transform="translate(-20.03 107.21) rotate(-17.48)"/></g><g><ellipse class="cls-5" cx="343.39" cy="133.75" rx="2.81" ry="4.04" transform="translate(-24.32 109.33) rotate(-17.48)"/><ellipse class="cls-6" cx="343.39" cy="133.75" rx="1.46" ry="2.08" transform="translate(-24.32 109.33) rotate(-17.48)"/></g><g><ellipse class="cls-5" cx="347.15" cy="152.52" rx="3.42" ry="4.04" transform="translate(-16.4 44.77) rotate(-7.21)"/><ellipse class="cls-6" cx="347.15" cy="152.52" rx="1.8" ry="2.08" transform="translate(-16.4 44.77) rotate(-7.21)"/></g><g><ellipse class="cls-5" cx="347.13" cy="176.13" rx="4.04" ry="3.42" transform="translate(37.54 412.07) rotate(-64.21)"/><ellipse class="cls-6" cx="347.13" cy="176.13" rx="2.08" ry="1.8" transform="translate(37.54 412.07) rotate(-64.21)"/></g><g><ellipse class="cls-5" cx="375.58" cy="218.81" rx="6.23" ry="3.53" transform="translate(-55.27 276.34) rotate(-37.83)"/><ellipse class="cls-6" cx="375.58" cy="218.81" rx="3.25" ry="1.85" transform="translate(-55.27 276.34) rotate(-37.83)"/></g><g><ellipse class="cls-5" cx="350.58" cy="265.7" rx="5.33" ry="3.03" transform="translate(-12.15 16.84) rotate(-2.7)"/><ellipse class="cls-6" cx="350.58" cy="265.7" rx="2.81" ry="1.57" transform="translate(-12.15 16.84) rotate(-2.7)"/></g><g><ellipse class="cls-5" cx="372.28" cy="263.37" rx="6.51" ry="3.7" transform="translate(-42.45 73.75) rotate(-10.71)"/><ellipse class="cls-6" cx="372.28" cy="263.37" rx="3.42" ry="1.91" transform="translate(-42.45 73.75) rotate(-10.71)"/></g><g><ellipse class="cls-5" cx="399.85" cy="256.38" rx="6.51" ry="3.7" transform="translate(-14.73 24.57) rotate(-3.46)"/><ellipse class="cls-6" cx="399.85" cy="256.38" rx="3.42" ry="1.91" transform="translate(-14.73 24.57) rotate(-3.46)"/></g><g><ellipse class="cls-5" cx="428.91" cy="253.12" rx="4.38" ry="7.74" transform="translate(134.79 655.03) rotate(-84.35)"/><ellipse class="cls-6" cx="428.91" cy="253.12" rx="2.24" ry="4.04" transform="translate(134.79 655.03) rotate(-84.35)"/></g><g><ellipse class="cls-5" cx="252.01" cy="252.01" rx="4.38" ry="7.74" transform="translate(-99.51 310.75) rotate(-54.49)"/><ellipse class="cls-6" cx="252.01" cy="252.01" rx="2.24" ry="4.04" transform="translate(-99.51 310.75) rotate(-54.49)"/></g><g><ellipse class="cls-5" cx="277.81" cy="268.99" rx="4.77" ry="7.01" transform="translate(-102.52 338.87) rotate(-54.49)"/><ellipse class="cls-6" cx="277.81" cy="268.99" rx="2.47" ry="3.65" transform="translate(-102.52 338.87) rotate(-54.49)"/></g><g><ellipse class="cls-5" cx="299.55" cy="294.48" rx="4.94" ry="7.29" transform="translate(-115.16 227.68) rotate(-35.36)"/><ellipse class="cls-6" cx="299.55" cy="294.48" rx="2.58" ry="3.82" transform="translate(-115.16 227.68) rotate(-35.36)"/></g><g><ellipse class="cls-5" cx="312.73" cy="329.46" rx="4.99" ry="6" transform="translate(-20.88 21.16) rotate(-3.75)"/><ellipse class="cls-6" cx="312.73" cy="329.46" rx="2.58" ry="3.14" transform="translate(-20.88 21.16) rotate(-3.75)"/></g><g><ellipse class="cls-5" cx="310.69" cy="359.81" rx="7.13" ry="5.05" transform="translate(-147.35 487.06) rotate(-64.72)"/><ellipse class="cls-6" cx="310.69" cy="359.81" rx="3.7" ry="2.64" transform="translate(-147.35 487.06) rotate(-64.72)"/></g><g><ellipse class="cls-5" cx="283.5" cy="370.76" rx="2.97" ry="4.71" transform="translate(-142.37 561.74) rotate(-76.75)"/><ellipse class="cls-6" cx="283.5" cy="370.76" rx="1.57" ry="2.47" transform="translate(-142.37 561.74) rotate(-76.75)"/></g><g><ellipse class="cls-5" cx="265.19" cy="350.88" rx="4.71" ry="2.97" transform="translate(-163.14 450.78) rotate(-66.05)"/><ellipse class="cls-6" cx="265.19" cy="350.88" rx="2.47" ry="1.57" transform="translate(-163.14 450.78) rotate(-66.05)"/></g><g><ellipse class="cls-5" cx="452.65" cy="263.35" rx="3.31" ry="4.54" transform="translate(-71.02 266.59) rotate(-30.55)"/><ellipse class="cls-6" cx="452.65" cy="263.35" rx="1.74" ry="2.36" transform="translate(-71.02 266.59) rotate(-30.55)"/></g><g><ellipse class="cls-5" cx="459.15" cy="284.85" rx="4.54" ry="3.31" transform="translate(54.39 642.8) rotate(-73.3)"/><ellipse class="cls-6" cx="459.15" cy="284.85" rx="2.36" ry="1.74" transform="translate(54.39 642.8) rotate(-73.3)"/></g><g><ellipse class="cls-5" cx="387.99" cy="203.6" rx="5.44" ry="3.82" transform="translate(42.5 473.1) rotate(-65.64)"/><ellipse class="cls-6" cx="387.99" cy="203.6" rx="2.81" ry="1.96" transform="translate(42.5 473.1) rotate(-65.64)"/></g><g><ellipse class="cls-5" cx="396.22" cy="189.72" rx="5.11" ry="3.59" transform="translate(59.99 472.44) rotate(-65.64)"/><ellipse class="cls-6" cx="396.22" cy="189.72" rx="2.64" ry="1.85" transform="translate(59.99 472.44) rotate(-65.64)"/></g><g><ellipse class="cls-5" cx="405.7" cy="172" rx="5.11" ry="3.59" transform="translate(29.91 402.13) rotate(-54.46)"/><ellipse class="cls-6" cx="405.7" cy="172" rx="2.64" ry="1.85" transform="translate(29.91 402.13) rotate(-54.46)"/></g><g><ellipse class="cls-5" cx="416.54" cy="157.21" rx="4.83" ry="3.37" transform="translate(.53 315.81) rotate(-41.55)"/><ellipse class="cls-6" cx="416.54" cy="157.21" rx="2.52" ry="1.74" transform="translate(.53 315.81) rotate(-41.55)"/></g><g><ellipse class="cls-5" cx="432.31" cy="151.55" rx="2.86" ry="3.65" transform="translate(229.86 562.49) rotate(-83.09)"/><ellipse class="cls-6" cx="432.31" cy="151.55" rx="1.51" ry="1.91" transform="translate(229.86 562.49) rotate(-83.09)"/></g><g><ellipse class="cls-5" cx="446.44" cy="162.15" rx="2.19" ry="2.75" transform="translate(-11.93 286.63) rotate(-35.16)"/><ellipse class="cls-6" cx="446.44" cy="162.15" rx="1.12" ry="1.46" transform="translate(-11.93 286.63) rotate(-35.16)"/></g><g><ellipse class="cls-5" cx="445.9" cy="179.88" rx="2.13" ry="1.68" transform="translate(97.51 511.26) rotate(-65.54)"/><ellipse class="cls-6" cx="445.9" cy="179.88" rx="1.12" ry=".84" transform="translate(97.51 511.26) rotate(-65.54)"/></g><g><ellipse class="cls-5" cx="334.97" cy="199.23" rx="4.71" ry="3.03" transform="translate(9.86 414.18) rotate(-64.21)"/><ellipse class="cls-6" cx="334.97" cy="199.23" rx="2.47" ry="1.57" transform="translate(9.86 414.18) rotate(-64.21)"/></g><g><ellipse class="cls-5" cx="107.69" cy="95.72" rx="2.64" ry="1.4" transform="translate(-36.08 86.23) rotate(-37.86)"/><ellipse class="cls-6" cx="107.69" cy="95.72" rx="1.35" ry=".73" transform="translate(-36.08 86.23) rotate(-37.86)"/></g><g><ellipse class="cls-5" cx="118.16" cy="90.72" rx="4.26" ry="2.36" transform="translate(-15.18 24.29) rotate(-11.03)"/><ellipse class="cls-6" cx="118.16" cy="90.72" rx="2.19" ry="1.23" transform="translate(-15.18 24.29) rotate(-11.03)"/></g><g><ellipse class="cls-5" cx="131.09" cy="94.28" rx="2.92" ry="4.04" transform="translate(-28.75 117.17) rotate(-43.87)"/><ellipse class="cls-6" cx="131.09" cy="94.28" rx="1.52" ry="2.08" transform="translate(-28.75 117.17) rotate(-43.87)"/></g><g><ellipse class="cls-5" cx="134.53" cy="105.61" rx="4.04" ry="2.75" transform="translate(14.88 227.83) rotate(-83.74)"/><ellipse class="cls-6" cx="134.53" cy="105.61" rx="2.08" ry="1.4" transform="translate(14.88 227.83) rotate(-83.74)"/></g><g><ellipse class="cls-5" cx="132.33" cy="118.72" rx="4.04" ry="2.36" transform="translate(-20.66 209.28) rotate(-72.52)"/><ellipse class="cls-6" cx="132.33" cy="118.72" rx="2.08" ry="1.23" transform="translate(-20.66 209.28) rotate(-72.52)"/></g><g><ellipse class="cls-5" cx="127.6" cy="133.79" rx="4.04" ry="2.81" transform="translate(-38.34 215.3) rotate(-72.52)"/><ellipse class="cls-6" cx="127.6" cy="133.79" rx="2.08" ry="1.46" transform="translate(-38.34 215.3) rotate(-72.52)"/></g><g><ellipse class="cls-5" cx="123.83" cy="152.51" rx="4.04" ry="3.42" transform="translate(-43.02 256.22) rotate(-82.79)"/><ellipse class="cls-6" cx="123.83" cy="152.51" rx="2.08" ry="1.8" transform="translate(-43.02 256.22) rotate(-82.79)"/></g><g><ellipse class="cls-5" cx="123.82" cy="176.04" rx="3.42" ry="4.04" transform="translate(-64.25 71.39) rotate(-25.79)"/><ellipse class="cls-6" cx="123.82" cy="176.04" rx="1.8" ry="2.08" transform="translate(-64.25 71.39) rotate(-25.79)"/></g><g><ellipse class="cls-5" cx="95.39" cy="218.85" rx="3.53" ry="6.23" transform="translate(-135.97 159.96) rotate(-52.17)"/><ellipse class="cls-6" cx="95.39" cy="218.85" rx="1.85" ry="3.25" transform="translate(-135.97 159.96) rotate(-52.17)"/></g><g><ellipse class="cls-5" cx="120.39" cy="265.68" rx="3.03" ry="5.33" transform="translate(-150.68 373.4) rotate(-87.3)"/><ellipse class="cls-6" cx="120.39" cy="265.68" rx="1.57" ry="2.81" transform="translate(-150.68 373.4) rotate(-87.3)"/></g><g><ellipse class="cls-5" cx="98.68" cy="263.32" rx="3.7" ry="6.51" transform="translate(-178.39 311.36) rotate(-79.29)"/><ellipse class="cls-6" cx="98.68" cy="263.32" rx="1.91" ry="3.42" transform="translate(-178.39 311.36) rotate(-79.29)"/></g><g><ellipse class="cls-5" cx="71.15" cy="256.38" rx="3.7" ry="6.51" transform="translate(-189.06 311.95) rotate(-86.54)"/><ellipse class="cls-6" cx="71.15" cy="256.38" rx="1.91" ry="3.42" transform="translate(-189.06 311.95) rotate(-86.54)"/></g><g><ellipse class="cls-5" cx="42" cy="253.1" rx="7.74" ry="4.38" transform="translate(-24.71 5.36) rotate(-5.65)"/><ellipse class="cls-6" cx="42" cy="253.1" rx="4.04" ry="2.24" transform="translate(-24.71 5.36) rotate(-5.65)"/></g><g><ellipse class="cls-5" cx="219.01" cy="251.98" rx="7.74" ry="4.38" transform="translate(-105.63 174.09) rotate(-35.51)"/><ellipse class="cls-6" cx="219.01" cy="251.98" rx="4.04" ry="2.24" transform="translate(-105.63 174.09) rotate(-35.51)"/></g><g><ellipse class="cls-5" cx="193.21" cy="269" rx="7.01" ry="4.77" transform="translate(-120.32 162.27) rotate(-35.51)"/><ellipse class="cls-6" cx="193.21" cy="269" rx="3.65" ry="2.47" transform="translate(-120.32 162.27) rotate(-35.51)"/></g><g><ellipse class="cls-5" cx="171.41" cy="294.57" rx="7.29" ry="4.94" transform="translate(-168.02 263.88) rotate(-54.64)"/><ellipse class="cls-6" cx="171.41" cy="294.57" rx="3.82" ry="2.58" transform="translate(-168.02 263.88) rotate(-54.64)"/></g><g><ellipse class="cls-5" cx="158.32" cy="329.41" rx="6" ry="4.99" transform="translate(-180.74 465.84) rotate(-86.25)"/><ellipse class="cls-6" cx="158.32" cy="329.41" rx="3.14" ry="2.58" transform="translate(-180.74 465.84) rotate(-86.25)"/></g><g><ellipse class="cls-5" cx="160.32" cy="359.76" rx="5.05" ry="7.13" transform="translate(-138.29 102.94) rotate(-25.28)"/><ellipse class="cls-6" cx="160.32" cy="359.76" rx="2.64" ry="3.7" transform="translate(-138.29 102.94) rotate(-25.28)"/></g><g><ellipse class="cls-5" cx="187.52" cy="370.81" rx="4.71" ry="2.97" transform="translate(-80 52.85) rotate(-13.25)"/><ellipse class="cls-6" cx="187.52" cy="370.81" rx="2.47" ry="1.57" transform="translate(-80 52.85) rotate(-13.25)"/></g><g><ellipse class="cls-5" cx="205.84" cy="350.85" rx="2.97" ry="4.71" transform="translate(-124.71 113.79) rotate(-23.95)"/><ellipse class="cls-6" cx="205.84" cy="350.85" rx="1.57" ry="2.47" transform="translate(-124.71 113.79) rotate(-23.95)"/></g><g><ellipse class="cls-5" cx="18.26" cy="263.33" rx="4.54" ry="3.31" transform="translate(-217.81 145.22) rotate(-59.45)"/><ellipse class="cls-6" cx="18.26" cy="263.33" rx="2.36" ry="1.74" transform="translate(-217.81 145.22) rotate(-59.45)"/></g><g><ellipse class="cls-5" cx="11.74" cy="284.88" rx="3.31" ry="4.54" transform="translate(-81.35 15.38) rotate(-16.7)"/><ellipse class="cls-6" cx="11.74" cy="284.88" rx="1.74" ry="2.36" transform="translate(-81.35 15.38) rotate(-16.7)"/></g><g><ellipse class="cls-5" cx="82.99" cy="203.55" rx="3.82" ry="5.44" transform="translate(-76.56 52.34) rotate(-24.36)"/><ellipse class="cls-6" cx="82.99" cy="203.55" rx="1.96" ry="2.81" transform="translate(-76.56 52.34) rotate(-24.36)"/></g><g><ellipse class="cls-5" cx="74.8" cy="189.62" rx="3.59" ry="5.11" transform="translate(-71.54 47.72) rotate(-24.36)"/><ellipse class="cls-6" cx="74.8" cy="189.62" rx="1.85" ry="2.64" transform="translate(-71.54 47.72) rotate(-24.36)"/></g><g><ellipse class="cls-5" cx="65.24" cy="172.08" rx="3.59" ry="5.11" transform="translate(-87.87 69.98) rotate(-35.54)"/><ellipse class="cls-6" cx="65.24" cy="172.08" rx="1.85" ry="2.64" transform="translate(-87.87 69.98) rotate(-35.54)"/></g><g><ellipse class="cls-5" cx="54.41" cy="157.23" rx="3.37" ry="4.83" transform="translate(-99.35 93.67) rotate(-48.45)"/><ellipse class="cls-6" cx="54.41" cy="157.23" rx="1.74" ry="2.52" transform="translate(-99.35 93.67) rotate(-48.45)"/></g><g><ellipse class="cls-5" cx="38.64" cy="151.54" rx="3.65" ry="2.86" transform="translate(-17.95 5.75) rotate(-6.91)"/><ellipse class="cls-6" cx="38.64" cy="151.54" rx="1.91" ry="1.51" transform="translate(-17.95 5.75) rotate(-6.91)"/></g><g><ellipse class="cls-5" cx="24.58" cy="162.06" rx="2.75" ry="2.19" transform="translate(-122.07 88.84) rotate(-54.84)"/><ellipse class="cls-6" cx="24.58" cy="162.06" rx="1.46" ry="1.12" transform="translate(-122.07 88.84) rotate(-54.84)"/></g><g><ellipse class="cls-5" cx="24.98" cy="179.91" rx="1.68" ry="2.13" transform="translate(-72.26 26.5) rotate(-24.46)"/><ellipse class="cls-6" cx="24.98" cy="179.91" rx=".84" ry="1.12" transform="translate(-72.26 26.5) rotate(-24.46)"/></g><g><ellipse class="cls-5" cx="136.01" cy="199.16" rx="3.03" ry="4.71" transform="translate(-73.09 79) rotate(-25.79)"/><ellipse class="cls-6" cx="136.01" cy="199.16" rx="1.57" ry="2.47" transform="translate(-73.09 79) rotate(-25.79)"/></g></g></g></svg>