<svg xmlns="http://www.w3.org/2000/svg" xmlns:xlink="http://www.w3.org/1999/xlink" viewBox="0 0 249.18 161.47"><defs><style>.cls-1{isolation:isolate;}.cls-2{fill:url(#radial-gradient);}.cls-11,.cls-13,.cls-3,.cls-4,.cls-46,.cls-47,.cls-48,.cls-5,.cls-53,.cls-55,.cls-57,.cls-61,.cls-62,.cls-63,.cls-65,.cls-66,.cls-67,.cls-71,.cls-73,.cls-75,.cls-77,.cls-78,.cls-79,.cls-83,.cls-85,.cls-87,.cls-89,.cls-9,.cls-90,.cls-91,.cls-95,.cls-97,.cls-99{stroke:#f29288;}.cls-100,.cls-101,.cls-102,.cls-103,.cls-104,.cls-11,.cls-13,.cls-14,.cls-15,.cls-16,.cls-19,.cls-20,.cls-21,.cls-22,.cls-24,.cls-25,.cls-26,.cls-27,.cls-28,.cls-29,.cls-3,.cls-30,.cls-31,.cls-32,.cls-33,.cls-34,.cls-35,.cls-36,.cls-37,.cls-38,.cls-4,.cls-41,.cls-42,.cls-43,.cls-44,.cls-45,.cls-46,.cls-47,.cls-48,.cls-5,.cls-53,.cls-55,.cls-57,.cls-61,.cls-62,.cls-63,.cls-65,.cls-66,.cls-67,.cls-71,.cls-73,.cls-75,.cls-77,.cls-78,.cls-79,.cls-83,.cls-85,.cls-87,.cls-89,.cls-9,.cls-90,.cls-91,.cls-95,.cls-97,.cls-99{stroke-miterlimit:10;}.cls-11,.cls-13,.cls-3,.cls-53,.cls-55,.cls-57,.cls-65,.cls-73,.cls-75,.cls-77,.cls-85,.cls-87,.cls-89,.cls-97,.cls-99{stroke-width:0.66px;}.cls-3{fill:url(#radial-gradient-2);}.cls-4,.cls-46,.cls-47,.cls-48,.cls-5,.cls-61,.cls-62,.cls-63,.cls-66,.cls-67,.cls-71,.cls-78,.cls-79,.cls-83,.cls-9,.cls-90,.cls-91,.cls-95{stroke-width:1.17px;}.cls-4{fill:url(#radial-gradient-3);}.cls-5{fill:url(#radial-gradient-4);}.cls-6{fill:url(#radial-gradient-5);}.cls-7{fill:url(#radial-gradient-6);}.cls-8{fill:url(#linear-gradient);}.cls-9{fill:url(#linear-gradient-2);}.cls-10{fill:url(#radial-gradient-7);}.cls-11{fill:url(#radial-gradient-8);}.cls-12{fill:url(#radial-gradient-9);}.cls-13{fill:url(#radial-gradient-10);}.cls-104,.cls-14,.cls-15,.cls-16,.cls-27{stroke:#fff;}.cls-100,.cls-101,.cls-102,.cls-103,.cls-104,.cls-14,.cls-15,.cls-16,.cls-19,.cls-20,.cls-21,.cls-22,.cls-24,.cls-25,.cls-26,.cls-27,.cls-28,.cls-29,.cls-30,.cls-31,.cls-32,.cls-33,.cls-34,.cls-35,.cls-36,.cls-37,.cls-38,.cls-41,.cls-42,.cls-43,.cls-44{stroke-width:0.22px;}.cls-14{fill:url(#linear-gradient-3);}.cls-15{fill:url(#linear-gradient-4);}.cls-16{fill:#fcbd1f;}.cls-17{fill:#947475;}.cls-18{fill:#71363a;}.cls-100,.cls-101,.cls-102,.cls-103,.cls-19,.cls-20,.cls-21,.cls-22,.cls-24,.cls-25,.cls-26,.cls-34,.cls-35,.cls-36,.cls-37,.cls-38,.cls-41,.cls-42,.cls-43,.cls-45{stroke:#a96428;}.cls-19{fill:url(#linear-gradient-5);}.cls-20{fill:url(#linear-gradient-6);}.cls-21{fill:url(#linear-gradient-7);}.cls-22{fill:url(#linear-gradient-8);}.cls-23{fill:#94793c;}.cls-24{fill:url(#linear-gradient-9);}.cls-25{fill:url(#linear-gradient-10);}.cls-26{fill:url(#linear-gradient-11);}.cls-27{fill:#ab9595;mix-blend-mode:multiply;}.cls-28,.cls-29,.cls-30,.cls-31,.cls-32,.cls-33,.cls-44{stroke:#66797d;}.cls-28{fill:url(#linear-gradient-12);}.cls-29{fill:url(#linear-gradient-13);}.cls-30{fill:url(#linear-gradient-14);}.cls-31{fill:url(#linear-gradient-15);}.cls-32{fill:url(#linear-gradient-16);}.cls-33{fill:url(#linear-gradient-17);}.cls-34{fill:url(#linear-gradient-18);}.cls-35{fill:url(#linear-gradient-19);}.cls-36{fill:url(#linear-gradient-20);}.cls-37{fill:url(#linear-gradient-21);}.cls-38{fill:url(#linear-gradient-22);}.cls-39{fill:url(#linear-gradient-23);}.cls-40{fill:url(#linear-gradient-24);}.cls-41{fill:url(#linear-gradient-25);}.cls-42{fill:url(#linear-gradient-26);}.cls-43{fill:url(#linear-gradient-27);}.cls-44{fill:url(#linear-gradient-28);}.cls-45{stroke-width:0.17px;fill:url(#linear-gradient-29);}.cls-46{fill:url(#radial-gradient-11);}.cls-47{fill:url(#radial-gradient-12);}.cls-48{fill:url(#linear-gradient-30);}.cls-49{fill:url(#radial-gradient-13);}.cls-50{fill:url(#radial-gradient-14);}.cls-51{fill:url(#linear-gradient-31);}.cls-52{fill:url(#radial-gradient-15);}.cls-53{fill:url(#radial-gradient-16);}.cls-54{fill:url(#radial-gradient-17);}.cls-55{fill:url(#radial-gradient-18);}.cls-56{fill:url(#radial-gradient-19);}.cls-57{fill:url(#radial-gradient-20);}.cls-58{fill:url(#radial-gradient-21);}.cls-59{fill:url(#radial-gradient-22);}.cls-60{fill:url(#linear-gradient-32);}.cls-61{fill:url(#radial-gradient-23);}.cls-62{fill:url(#radial-gradient-24);}.cls-63{fill:url(#linear-gradient-33);}.cls-64{fill:url(#radial-gradient-25);}.cls-65{fill:url(#radial-gradient-26);}.cls-66{fill:url(#radial-gradient-27);}.cls-67{fill:url(#radial-gradient-28);}.cls-68{fill:url(#radial-gradient-29);}.cls-69{fill:url(#radial-gradient-30);}.cls-70{fill:url(#linear-gradient-34);}.cls-71{fill:url(#linear-gradient-35);}.cls-72{fill:url(#radial-gradient-31);}.cls-73{fill:url(#radial-gradient-32);}.cls-74{fill:url(#radial-gradient-33);}.cls-75{fill:url(#radial-gradient-34);}.cls-76{fill:url(#radial-gradient-35);}.cls-77{fill:url(#radial-gradient-36);}.cls-78{fill:url(#radial-gradient-37);}.cls-79{fill:url(#radial-gradient-38);}.cls-80{fill:url(#radial-gradient-39);}.cls-81{fill:url(#radial-gradient-40);}.cls-82{fill:url(#linear-gradient-36);}.cls-83{fill:url(#linear-gradient-37);}.cls-84{fill:url(#radial-gradient-41);}.cls-85{fill:url(#radial-gradient-42);}.cls-86{fill:url(#radial-gradient-43);}.cls-87{fill:url(#radial-gradient-44);}.cls-88{fill:url(#radial-gradient-45);}.cls-89{fill:url(#radial-gradient-46);}.cls-90{fill:url(#radial-gradient-47);}.cls-91{fill:url(#radial-gradient-48);}.cls-92{fill:url(#radial-gradient-49);}.cls-93{fill:url(#radial-gradient-50);}.cls-94{fill:url(#linear-gradient-38);}.cls-95{fill:url(#linear-gradient-39);}.cls-96{fill:url(#radial-gradient-51);}.cls-97{fill:url(#radial-gradient-52);}.cls-98{fill:url(#radial-gradient-53);}.cls-99{fill:url(#radial-gradient-54);}.cls-100{fill:url(#linear-gradient-40);}.cls-101{fill:url(#linear-gradient-41);}.cls-102{fill:url(#linear-gradient-42);}.cls-103{fill:url(#linear-gradient-43);}.cls-104{fill:url(#linear-gradient-44);}.cls-105{fill:#1a1f2f;}</style><radialGradient id="radial-gradient" cx="165.42" cy="335.53" r="6.2" gradientTransform="matrix(-1, 0, 0, 1.16, 248.66, -309.17)" gradientUnits="userSpaceOnUse"><stop offset="0.05" stop-color="#e5251d"/><stop offset="0.89" stop-color="#e94b37"/></radialGradient><radialGradient id="radial-gradient-2" cx="165.04" cy="335.84" r="4.01" gradientTransform="matrix(-1, 0, 0, 1.16, 248.66, -309.17)" gradientUnits="userSpaceOnUse"><stop offset="0.11" stop-color="#e94b37"/><stop offset="0.95" stop-color="#e5251d"/></radialGradient><radialGradient id="radial-gradient-3" cx="103.12" cy="92.6" r="7.26" gradientTransform="matrix(-1, 0, 0, 1, 248.66, 0)" gradientUnits="userSpaceOnUse"><stop offset="0.11" stop-color="#5bc2d8"/><stop offset="0.94" stop-color="#26a0a0"/></radialGradient><radialGradient id="radial-gradient-4" cx="108.72" cy="99.87" r="7.26" gradientTransform="matrix(-1, 0, 0, 1, 248.66, 0)" gradientUnits="userSpaceOnUse"><stop offset="0.04" stop-color="#a0d7e8"/><stop offset="0.62" stop-color="#5bc2d8"/><stop offset="0.94" stop-color="#26a0a0"/></radialGradient><radialGradient id="radial-gradient-5" cx="87.94" cy="78.97" r="5.91" gradientTransform="matrix(-1, 0, 0, 1, 248.66, 0)" gradientUnits="userSpaceOnUse"><stop offset="0.08" stop-color="#79bc67"/><stop offset="0.31" stop-color="#4fae32"/><stop offset="0.94" stop-color="#0d682f"/></radialGradient><radialGradient id="radial-gradient-6" cx="93.46" cy="84.32" r="5.91" xlink:href="#radial-gradient-5"/><linearGradient id="linear-gradient" x1="161.09" y1="75.4" x2="173.59" y2="75.4" gradientTransform="matrix(-1, 0, 0, 1, 248.66, 0)" gradientUnits="userSpaceOnUse"><stop offset="0.08" stop-color="#5bc2d8"/><stop offset="0.6" stop-color="#4fae32"/><stop offset="0.94" stop-color="#0d682f"/></linearGradient><linearGradient id="linear-gradient-2" x1="90.54" y1="94.94" x2="101.74" y2="94.94" gradientTransform="matrix(-1, 0, 0, 1, 248.66, 0)" gradientUnits="userSpaceOnUse"><stop offset="0.02" stop-color="#79bc67"/><stop offset="0.5" stop-color="#a0d7e8"/><stop offset="0.62" stop-color="#5bc2d8"/><stop offset="0.94" stop-color="#26a0a0"/></linearGradient><radialGradient id="radial-gradient-7" cx="158.1" cy="331.92" r="6.2" xlink:href="#radial-gradient"/><radialGradient id="radial-gradient-8" cx="157.72" cy="332.23" r="4.01" xlink:href="#radial-gradient-2"/><radialGradient id="radial-gradient-9" cx="159.04" cy="340.5" r="6.2" xlink:href="#radial-gradient"/><radialGradient id="radial-gradient-10" cx="158.66" cy="340.82" r="4.01" xlink:href="#radial-gradient-2"/><linearGradient id="linear-gradient-3" x1="66.45" y1="111.71" x2="66.33" y2="201.69" gradientTransform="matrix(-1, 0, 0, 1, 248.66, 0)" gradientUnits="userSpaceOnUse"><stop offset="0" stop-color="#66797d"/><stop offset="0.17" stop-color="#aaafaf"/><stop offset="0.25" stop-color="#c8cbc8"/><stop offset="0.38" stop-color="#66797d"/><stop offset="0.78" stop-color="#66797d"/><stop offset="0.98" stop-color="#2d333a"/></linearGradient><linearGradient id="linear-gradient-4" x1="124.88" y1="121.44" x2="193.81" y2="121.44" gradientTransform="matrix(-1, 0, 0, 1, 248.66, 0)" gradientUnits="userSpaceOnUse"><stop offset="0" stop-color="#66797d"/><stop offset="0.11" stop-color="#5f6d6f"/><stop offset="0.16" stop-color="#5f6d6f"/><stop offset="0.25" stop-color="#66797d"/><stop offset="0.39" stop-color="#66797d"/><stop offset="0.56" stop-color="#66797d"/><stop offset="0.81" stop-color="#2d333a"/></linearGradient><linearGradient id="linear-gradient-5" x1="134.62" y1="142.69" x2="183.26" y2="142.69" gradientTransform="matrix(-1, 0, 0, 1, 248.66, 0)" gradientUnits="userSpaceOnUse"><stop offset="0.11" stop-color="#cda34d"/><stop offset="0.46" stop-color="#dcae5a"/><stop offset="0.75" stop-color="#fef4a8"/><stop offset="0.99" stop-color="#a78145"/></linearGradient><linearGradient id="linear-gradient-6" x1="126.85" y1="101.6" x2="193.52" y2="101.6" xlink:href="#linear-gradient-5"/><linearGradient id="linear-gradient-7" x1="176.11" y1="110.52" x2="193.81" y2="110.52" xlink:href="#linear-gradient-5"/><linearGradient id="linear-gradient-8" x1="1.08" y1="131.28" x2="142.68" y2="131.28" xlink:href="#linear-gradient-5"/><linearGradient id="linear-gradient-9" x1="0.55" y1="124.78" x2="28.68" y2="124.78" xlink:href="#linear-gradient-5"/><linearGradient id="linear-gradient-10" x1="11.69" y1="149.6" x2="133.75" y2="149.6" xlink:href="#linear-gradient-5"/><linearGradient id="linear-gradient-11" x1="112.09" y1="134.81" x2="134.62" y2="134.81" xlink:href="#linear-gradient-5"/><linearGradient id="linear-gradient-12" x1="5.24" y1="90.83" x2="193.81" y2="90.83" xlink:href="#linear-gradient-4"/><linearGradient id="linear-gradient-13" x1="2.6" y1="89.52" x2="86.63" y2="89.52" xlink:href="#linear-gradient-4"/><linearGradient id="linear-gradient-14" x1="158.42" y1="11.77" x2="157.15" y2="119.07" gradientTransform="matrix(-1, 0, 0, 1, 248.66, 0)" gradientUnits="userSpaceOnUse"><stop offset="0" stop-color="#2d333a"/><stop offset="0.11" stop-color="#5f6d6f"/><stop offset="0.19" stop-color="#5f6d6f"/><stop offset="0.35" stop-color="#3b4349"/><stop offset="0.45" stop-color="#2d333a"/><stop offset="0.72" stop-color="#66797d"/><stop offset="0.81" stop-color="#2d333a"/></linearGradient><linearGradient id="linear-gradient-15" x1="71.82" y1="20.78" x2="112.95" y2="45.95" xlink:href="#linear-gradient-4"/><linearGradient id="linear-gradient-16" x1="193.81" y1="44.63" x2="248.55" y2="44.63" xlink:href="#linear-gradient-4"/><linearGradient id="linear-gradient-17" x1="193.81" y1="44.58" x2="234.5" y2="44.58" xlink:href="#linear-gradient-5"/><linearGradient id="linear-gradient-18" x1="156.51" y1="102.95" x2="180.84" y2="102.95" xlink:href="#linear-gradient-5"/><linearGradient id="linear-gradient-19" x1="156.51" y1="109.65" x2="163.04" y2="109.65" xlink:href="#linear-gradient-5"/><linearGradient id="linear-gradient-20" x1="162.66" y1="106.79" x2="180.84" y2="106.79" xlink:href="#linear-gradient-5"/><linearGradient id="linear-gradient-21" x1="163.63" y1="123.35" x2="183.15" y2="123.35" xlink:href="#linear-gradient-5"/><linearGradient id="linear-gradient-22" x1="171.75" y1="107.71" x2="181.29" y2="107.71" xlink:href="#linear-gradient-5"/><linearGradient id="linear-gradient-23" x1="171.75" y1="106.6" x2="175.04" y2="106.6" gradientTransform="matrix(-1, 0, 0, 1, 248.66, 0)" gradientUnits="userSpaceOnUse"><stop offset="0.01" stop-color="#a78145"/><stop offset="0.14" stop-color="#fef4a8"/><stop offset="0.21" stop-color="#dcae5a"/><stop offset="0.89" stop-color="#4a2712"/></linearGradient><linearGradient id="linear-gradient-24" x1="171.7" y1="106.6" x2="175.1" y2="106.6" gradientTransform="matrix(-1, 0, 0, 1, 248.66, 0)" gradientUnits="userSpaceOnUse"><stop offset="0.11" stop-color="#4a2712"/><stop offset="0.46" stop-color="#dcae5a"/><stop offset="0.75" stop-color="#fef4a8"/><stop offset="0.99" stop-color="#a78145"/></linearGradient><linearGradient id="linear-gradient-25" x1="109.04" y1="41.73" x2="231.4" y2="41.73" xlink:href="#linear-gradient-5"/><linearGradient id="linear-gradient-26" x1="84.79" y1="44.29" x2="200.69" y2="44.29" xlink:href="#linear-gradient-5"/><linearGradient id="linear-gradient-27" x1="0.55" y1="85.18" x2="193.81" y2="85.18" xlink:href="#linear-gradient-5"/><linearGradient id="linear-gradient-28" x1="201.46" y1="47.02" x2="248.55" y2="47.02" xlink:href="#linear-gradient-5"/><linearGradient id="linear-gradient-29" x1="2869.3" y1="2041.65" x2="2910.83" y2="2041.65" gradientTransform="matrix(0.4, 0.85, 0.58, -0.27, -2310.44, -1861.03)" xlink:href="#linear-gradient-5"/><radialGradient id="radial-gradient-11" cx="82.62" cy="74.97" r="7.26" xlink:href="#radial-gradient-3"/><radialGradient id="radial-gradient-12" cx="84.79" cy="82.78" r="7.26" xlink:href="#radial-gradient-4"/><linearGradient id="linear-gradient-30" x1="70.04" y1="77.31" x2="81.24" y2="77.31" xlink:href="#linear-gradient-2"/><radialGradient id="radial-gradient-13" cx="66.37" cy="80.27" r="5.91" xlink:href="#radial-gradient-5"/><radialGradient id="radial-gradient-14" cx="56.62" cy="86.34" r="5.91" xlink:href="#radial-gradient-5"/><linearGradient id="linear-gradient-31" x1="43.44" y1="90.94" x2="55.95" y2="90.94" xlink:href="#linear-gradient"/><radialGradient id="radial-gradient-15" cx="103.12" cy="332.02" r="6.2" xlink:href="#radial-gradient"/><radialGradient id="radial-gradient-16" cx="102.74" cy="332.34" r="4.01" xlink:href="#radial-gradient-2"/><radialGradient id="radial-gradient-17" cx="94.19" cy="332.23" r="6.2" xlink:href="#radial-gradient"/><radialGradient id="radial-gradient-18" cx="93.8" cy="332.55" r="4.01" xlink:href="#radial-gradient-2"/><radialGradient id="radial-gradient-19" cx="97.52" cy="339.56" r="6.2" xlink:href="#radial-gradient"/><radialGradient id="radial-gradient-20" cx="97.13" cy="339.88" r="4.01" xlink:href="#radial-gradient-2"/><radialGradient id="radial-gradient-21" cx="69.78" cy="88.03" r="5.91" xlink:href="#radial-gradient-5"/><radialGradient id="radial-gradient-22" cx="75.3" cy="96.44" r="5.91" xlink:href="#radial-gradient-5"/><linearGradient id="linear-gradient-32" x1="58.83" y1="94.29" x2="71.34" y2="94.29" xlink:href="#linear-gradient"/><radialGradient id="radial-gradient-23" cx="40.59" cy="89.56" r="7.26" xlink:href="#radial-gradient-3"/><radialGradient id="radial-gradient-24" cx="42.64" cy="97.2" r="7.26" xlink:href="#radial-gradient-4"/><linearGradient id="linear-gradient-33" x1="23.66" y1="94.29" x2="34.86" y2="94.29" xlink:href="#linear-gradient-2"/><radialGradient id="radial-gradient-25" cx="125.13" cy="340.6" r="6.2" xlink:href="#radial-gradient"/><radialGradient id="radial-gradient-26" cx="124.74" cy="340.92" r="4.01" xlink:href="#radial-gradient-2"/><radialGradient id="radial-gradient-27" cx="145.64" cy="88.6" r="7.26" xlink:href="#radial-gradient-3"/><radialGradient id="radial-gradient-28" cx="105.49" cy="84" r="7.26" xlink:href="#radial-gradient-4"/><radialGradient id="radial-gradient-29" cx="130.46" cy="74.97" r="5.91" xlink:href="#radial-gradient-5"/><radialGradient id="radial-gradient-30" cx="135.98" cy="80.32" r="5.91" xlink:href="#radial-gradient-5"/><linearGradient id="linear-gradient-34" x1="120.8" y1="81.31" x2="133.3" y2="81.31" xlink:href="#linear-gradient"/><linearGradient id="linear-gradient-35" x1="133.06" y1="90.94" x2="144.27" y2="90.94" xlink:href="#linear-gradient-2"/><radialGradient id="radial-gradient-31" cx="119.31" cy="334.79" r="6.2" xlink:href="#radial-gradient"/><radialGradient id="radial-gradient-32" cx="118.93" cy="335.11" r="4.01" xlink:href="#radial-gradient-2"/><radialGradient id="radial-gradient-33" cx="118.75" cy="345.57" r="6.2" xlink:href="#radial-gradient"/><radialGradient id="radial-gradient-34" cx="118.36" cy="345.89" r="4.01" xlink:href="#radial-gradient-2"/><radialGradient id="radial-gradient-35" cx="126.64" cy="350.18" r="6.2" xlink:href="#radial-gradient"/><radialGradient id="radial-gradient-36" cx="126.25" cy="350.5" r="4.01" xlink:href="#radial-gradient-2"/><radialGradient id="radial-gradient-37" cx="94.29" cy="94.1" r="7.26" xlink:href="#radial-gradient-3"/><radialGradient id="radial-gradient-38" cx="99.89" cy="101.36" r="7.26" xlink:href="#radial-gradient-4"/><radialGradient id="radial-gradient-39" cx="131.97" cy="86.12" r="5.91" xlink:href="#radial-gradient-5"/><radialGradient id="radial-gradient-40" cx="78.37" cy="88.16" r="5.91" xlink:href="#radial-gradient-5"/><linearGradient id="linear-gradient-36" x1="122.3" y1="92.46" x2="134.81" y2="92.46" xlink:href="#linear-gradient"/><linearGradient id="linear-gradient-37" x1="81.71" y1="96.44" x2="92.91" y2="96.44" xlink:href="#linear-gradient-2"/><radialGradient id="radial-gradient-41" cx="119.31" cy="346.57" r="6.2" xlink:href="#radial-gradient"/><radialGradient id="radial-gradient-42" cx="118.93" cy="346.89" r="4.01" xlink:href="#radial-gradient-2"/><radialGradient id="radial-gradient-43" cx="56.08" cy="347.97" r="6.2" xlink:href="#radial-gradient"/><radialGradient id="radial-gradient-44" cx="55.7" cy="348.28" r="4.01" xlink:href="#radial-gradient-2"/><radialGradient id="radial-gradient-45" cx="156.51" cy="333.28" r="6.2" xlink:href="#radial-gradient"/><radialGradient id="radial-gradient-46" cx="156.13" cy="333.59" r="4.01" xlink:href="#radial-gradient-2"/><radialGradient id="radial-gradient-47" cx="112.93" cy="86.87" r="7.26" xlink:href="#radial-gradient-3"/><radialGradient id="radial-gradient-48" cx="154.57" cy="86.91" r="7.26" xlink:href="#radial-gradient-4"/><radialGradient id="radial-gradient-49" cx="109.5" cy="77.19" r="5.91" xlink:href="#radial-gradient-5"/><radialGradient id="radial-gradient-50" cx="102.74" cy="90.88" r="5.91" xlink:href="#radial-gradient-5"/><linearGradient id="linear-gradient-38" x1="103.25" y1="98.02" x2="115.76" y2="98.02" xlink:href="#linear-gradient"/><linearGradient id="linear-gradient-39" x1="159.82" y1="83.29" x2="171.03" y2="83.29" xlink:href="#linear-gradient-2"/><radialGradient id="radial-gradient-51" cx="118.93" cy="351.58" r="6.2" xlink:href="#radial-gradient"/><radialGradient id="radial-gradient-52" cx="118.54" cy="351.9" r="4.01" xlink:href="#radial-gradient-2"/><radialGradient id="radial-gradient-53" cx="135.98" cy="347.65" r="6.2" xlink:href="#radial-gradient"/><radialGradient id="radial-gradient-54" cx="135.59" cy="347.97" r="4.01" xlink:href="#radial-gradient-2"/><linearGradient id="linear-gradient-40" x1="0.11" y1="96.21" x2="190.47" y2="96.21" xlink:href="#linear-gradient-5"/><linearGradient id="linear-gradient-41" x1="2.6" y1="109.8" x2="127.57" y2="109.8" xlink:href="#linear-gradient-5"/><linearGradient id="linear-gradient-42" x1="56.62" y1="120.37" x2="80.61" y2="120.37" gradientTransform="matrix(-1, 0, 0, 1, 248.66, 0)" gradientUnits="userSpaceOnUse"><stop offset="0" stop-color="#cda34d"/><stop offset="0.99" stop-color="#4a2712"/></linearGradient><linearGradient id="linear-gradient-43" x1="52.24" y1="122.5" x2="76.22" y2="122.5" xlink:href="#linear-gradient-5"/><linearGradient id="linear-gradient-44" x1="59.7" y1="122.5" x2="67.14" y2="122.5" xlink:href="#linear-gradient-42"/></defs><title>obstacle-treasure</title><g class="cls-1"><g id="Layer_2" data-name="Layer 2"><g id="Obstacles"><path class="cls-2" d="M86.82,74.47c-2.43-.93-10.52,6.67-9.94,9.28s10.35,5.72,12,4.26S89.26,75.39,86.82,74.47Z"/><path class="cls-3" d="M85.92,77.27c1.14.67,2.55,7.46,1.29,8.55s-6.62.5-7.57-2.69S84.77,76.6,85.92,77.27Z"/><polygon class="cls-4" points="145.5 84 151.14 90.43 151.14 96.97 143.83 101.2 139.94 95.77 141.28 88.8 145.5 84"/><polygon class="cls-5" points="139.9 91.27 145.54 97.7 145.54 104.24 138.22 108.46 134.34 103.04 135.68 96.06 139.9 91.27"/><polygon class="cls-6" points="166.98 77.46 161.5 73.41 155.21 77.46 154.47 81.95 158.77 84.53 166.28 82.13 166.98 77.46"/><polygon class="cls-7" points="161.46 82.82 155.99 78.77 149.69 82.82 148.95 87.31 153.25 89.88 160.76 87.48 161.46 82.82"/><polygon class="cls-8" points="87.57 73.9 82.1 69.85 75.8 73.9 75.07 78.39 79.37 80.96 86.88 78.56 87.57 73.9"/><polygon class="cls-9" points="152.48 86.34 158.12 92.77 158.12 99.31 150.81 103.53 146.92 98.11 148.26 91.14 152.48 86.34"/><path class="cls-10" d="M94.15,70.27c-2.44-.93-10.52,6.67-9.94,9.28s10.35,5.72,12,4.26S96.58,71.19,94.15,70.27Z"/><path class="cls-11" d="M93.24,73.07c1.15.67,2.55,7.46,1.3,8.55s-6.62.5-7.58-2.69S92.1,72.4,93.24,73.07Z"/><path class="cls-12" d="M93.21,80.26c-2.44-.93-10.52,6.67-9.94,9.28s10.35,5.71,12,4.26S95.64,81.18,93.21,80.26Z"/><path class="cls-13" d="M92.3,83.06c1.15.67,2.55,7.46,1.3,8.55S87,92.11,86,88.92,91.16,82.39,92.3,83.06Z"/><polygon class="cls-14" points="248.55 99.55 231.97 149.6 115.93 161.34 124.22 107.46 248.55 99.55"/><polygon class="cls-15" points="54.85 83.89 66.45 134.81 115.5 158.99 123.78 107.87 54.85 83.89"/><polygon class="cls-16" points="55.22 84.63 66.94 134.73 66.45 134.81 55.14 84.59 55.22 84.63"/><polygon class="cls-17" points="111.11 145.57 111.19 155.41 111.16 155.4 111.11 148.97 62.55 122.28 62.55 118.88 111.11 145.57"/><polygon class="cls-18" points="65.24 86.48 58.2 84.59 58.09 83.89 67.76 86.48 75.79 137.15 73.1 136.04 65.24 86.48"/><polygon class="cls-19" points="113.97 151.11 65.4 124.42 65.4 133.05 114.05 160.95 113.97 151.11"/><path class="cls-20" d="M118.88,118.62c-1.16-2.32-61-22.77-61-22.77l-2.7-11.26,66.67,23.28Z"/><polygon class="cls-21" points="67.76 86.48 54.85 83.89 62.58 133.05 72.55 137.15 67.76 86.48"/><path class="cls-22" d="M247.58,101.6l-47.08,5.19L121.81,109,114,105.14l-8,51.38,8.07,4.43s5-27,7-41c.72-4.92,1.08-8.24.72-8.24"/><path class="cls-17" d="M177.19,148.64c-20.89,1.31-59,0-59,0l-2.3,7.48-1,0,3.27-10.63s38.12,1.31,59,0,56.86-10.64,56.86-10.64l-1.42,3.55C225.76,140.09,195.61,147.48,177.19,148.64Z"/><polygon class="cls-23" points="230.88 101.29 234.05 100.8 220.26 147.34 229.26 147.34 228.8 148.76 216.81 148.76 230.88 101.29"/><polygon class="cls-24" points="248.12 99.95 234.05 148.76 219.98 149.6 234.05 102.13 248.12 99.95"/><path class="cls-25" d="M237,138.61l-2.93,10.15s-38.68,9.54-58,11.12-61.12,0-61.12,0l3.27-10.63s38.12,1.31,59,0S237,138.61,237,138.61Z"/><polygon class="cls-26" points="136.58 108.29 126.91 159.36 114.05 161.33 123.28 109.34 136.58 108.29"/><path class="cls-27" d="M187.6,127.46l-2.9,8s0,3-5.8,2.44a14.88,14.88,0,0,1-9.39-5.23l-2.8-3.1,3.1-9.18Z"/><polygon class="cls-28" points="243.42 99.95 168.32 71.97 54.85 83.89 120.64 109.7 243.42 99.95"/><polygon class="cls-29" points="167.34 73.98 162.04 105.06 246.06 99.22 167.34 73.98"/><polygon class="cls-30" points="163.88 73.98 136.58 0.17 17.27 5.28 54.85 83.89 163.88 73.98"/><path class="cls-31" d="M163.88,74A79.55,79.55,0,0,1,136.58,63c-13.84-8.82-13.84-8.82-18.63-21s-1.1-14.18,2.07-23.9,16.56-18,16.56-18l12.8,32.47Z"/><path class="cls-32" d="M54.85,83.89S36.05,84.83,26.4,81,4.66,65.43,4.66,65.43s-3.84-10-4.51-19S9,22.27,9,22.27l8.32-17Z"/><polyline class="cls-33" points="20.16 20.57 26.3 36.65 31.75 50.56 36.41 60.51 40.33 69.45 47.2 82.78 54.85 83.89 48.94 64.56 43.67 54.24 35.07 33.79 17.27 5.28 14.16 11.62"/><path class="cls-27" d="M70.43,119.22V131A9.76,9.76,0,0,0,90,131V119.22a9.77,9.77,0,0,0-1.57-5.32l4.83,1.61,4.89-1.17,1.25-7L78.73,100,75,101.62v5.73a8,8,0,0,0-.37,3.83A9.75,9.75,0,0,0,70.43,119.22Zm5.63.11a4.06,4.06,0,1,1,8.12,0v11.6a4.06,4.06,0,0,1-8.12,0Z"/><polygon class="cls-34" points="92.15 105.57 85.62 107.69 67.83 99.85 71.53 98.22 92.15 105.57"/><polygon class="cls-35" points="92.15 105.57 90.9 112.56 86.01 113.73 85.62 107.69 92.15 105.57"/><polygon class="cls-36" points="67.83 99.85 67.83 107.69 86.01 113.73 85.62 107.69 67.83 99.85"/><path class="cls-37" d="M65.51,117.45v11.81a9.76,9.76,0,0,0,19.52,0V117.45a9.76,9.76,0,1,0-19.52,0Zm5.63.1a4.07,4.07,0,0,1,8.13,0v11.6a4.07,4.07,0,0,1-8.13,0Z"/><path class="cls-38" d="M72.92,113.49a8.36,8.36,0,0,1,.07-5.81,5.52,5.52,0,0,1,3.93-3.83L73,102.12s-3.51-1.44-5.16,3.45a7.56,7.56,0,0,0,1.71,7.92Z"/><polygon class="cls-39" points="76.92 108.51 76.92 104.7 74.17 105.57 73.62 107.71 76.92 108.51"/><path class="cls-40" d="M73.61,107.75h0l.57-2.18v0l2.84-.9v3.94Zm.6-2.14-.53,2.06,3.19.78v-3.69Z"/><polygon class="cls-41" points="133.69 5.05 29.41 11.39 61.35 83.3 50.84 83.3 17.27 5.28 136.58 0.17 139.62 5.28 133.69 5.05"/><polygon class="cls-42" points="155.44 68.32 47.98 76.65 50.84 83.3 163.88 73.98 139.62 5.28 131.92 5.28 155.44 68.32"/><polygon class="cls-43" points="234.81 98.78 169.83 75.06 73.62 85.81 54.85 83.89 167.01 70.4 248.12 99.95 234.81 98.78"/><path class="cls-44" d="M17.53,18.86h0A59.59,59.59,0,0,0,11,29.23C7.49,36,6.82,47.52,6.82,47.52s-1,9.88,0,14.88,8.8,11.22,8.8,11.22S14.41,72.24,22,76.39s7.17,1,14,1,7.6-1.7,7.6-1.7l3.64,7.06A67.78,67.78,0,0,1,36,84.33c-5.31.18-7.18.78-13-.82s-6.8-2.69-12.52-7.12S3.65,72.77,1.57,66,.25,47.52.25,47.52,1,34.69,4.75,28.19L12,15.73l3.62-6.28Z"/><polygon class="cls-45" points="10.39 60.66 15.69 53.3 10.32 38.12 17.42 50.54 17.63 40.15 22.76 28.11 20.12 40.46 20.57 53 25.83 53.5 32.99 50.18 26.22 57.24 20.05 57.65 20.2 65.92 16.57 73.98 17.7 64.14 17.46 56.4 10.39 60.66"/><polygon class="cls-46" points="166.01 66.38 171.65 72.8 171.65 79.35 164.33 83.57 160.45 78.14 161.78 71.17 166.01 66.38"/><polygon class="cls-47" points="163.84 74.18 169.48 80.61 169.48 87.15 162.16 91.37 158.28 85.95 159.61 78.98 163.84 74.18"/><polygon class="cls-48" points="172.99 68.71 178.63 75.14 178.63 81.68 171.31 85.91 167.43 80.48 168.76 73.51 172.99 68.71"/><polygon class="cls-49" points="188.54 78.76 183.07 74.71 176.77 78.76 176.04 83.25 180.34 85.82 187.85 83.43 188.54 78.76"/><polygon class="cls-50" points="198.29 84.83 192.82 80.78 186.52 84.83 185.79 89.32 190.09 91.9 197.6 89.5 198.29 84.83"/><polygon class="cls-51" points="205.22 89.43 199.75 85.38 193.45 89.43 192.72 93.92 197.02 96.49 204.53 94.1 205.22 89.43"/><path class="cls-52" d="M149.13,70.39c-2.44-.92-10.52,6.67-9.94,9.29s10.35,5.71,12,4.25S151.56,71.31,149.13,70.39Z"/><path class="cls-53" d="M148.22,73.2c1.15.66,2.55,7.45,1.3,8.54s-6.62.51-7.57-2.68S147.08,72.53,148.22,73.2Z"/><path class="cls-54" d="M158.06,70.64c-2.44-.93-10.52,6.67-9.94,9.28s10.35,5.72,12,4.26S160.5,71.56,158.06,70.64Z"/><path class="cls-55" d="M157.15,73.44c1.15.67,2.55,7.46,1.3,8.55s-6.62.5-7.57-2.69S156,72.77,157.15,73.44Z"/><path class="cls-56" d="M154.73,79.17c-2.44-.92-10.52,6.67-9.94,9.28s10.35,5.72,12,4.26S157.17,80.09,154.73,79.17Z"/><path class="cls-57" d="M153.82,82c1.15.67,2.55,7.46,1.3,8.55s-6.62.5-7.57-2.68S152.68,81.3,153.82,82Z"/><polygon class="cls-58" points="185.13 86.53 179.66 82.48 173.36 86.53 172.63 91.02 176.93 93.59 184.44 91.19 185.13 86.53"/><polygon class="cls-59" points="179.61 94.93 174.14 90.88 167.84 94.93 167.11 99.42 171.41 101.99 178.92 99.59 179.61 94.93"/><polygon class="cls-60" points="189.83 92.78 184.36 88.73 178.06 92.78 177.33 97.27 181.63 99.84 189.14 97.45 189.83 92.78"/><polygon class="cls-61" points="208.03 80.96 213.68 87.39 213.68 93.93 206.36 98.15 202.47 92.73 203.81 85.76 208.03 80.96"/><polygon class="cls-62" points="205.98 88.6 211.62 95.03 211.62 101.57 204.31 105.79 200.42 100.37 201.76 93.4 205.98 88.6"/><polygon class="cls-63" points="219.36 85.69 225 92.12 225 98.66 217.69 102.89 213.8 97.46 215.14 90.49 219.36 85.69"/><path class="cls-64" d="M127.12,80.38c-2.44-.93-10.52,6.67-9.94,9.28s10.35,5.71,12,4.26S129.56,81.3,127.12,80.38Z"/><path class="cls-65" d="M126.21,83.18c1.15.67,2.55,7.46,1.3,8.55s-6.62.5-7.57-2.69S125.07,82.51,126.21,83.18Z"/><polygon class="cls-66" points="102.98 80 108.62 86.43 108.62 92.98 101.3 97.2 97.42 91.77 98.76 84.8 102.98 80"/><polygon class="cls-67" points="143.13 75.41 148.78 81.83 148.78 88.38 141.46 92.6 137.57 87.18 138.91 80.2 143.13 75.41"/><polygon class="cls-68" points="124.45 73.46 118.98 69.42 112.68 73.46 111.95 77.95 116.25 80.53 123.76 78.13 124.45 73.46"/><polygon class="cls-69" points="118.94 78.82 113.46 74.77 107.16 78.82 106.43 83.31 110.73 85.88 118.24 83.48 118.94 78.82"/><polygon class="cls-70" points="127.87 79.81 122.4 75.76 116.1 79.81 115.36 84.29 119.67 86.87 127.18 84.47 127.87 79.81"/><polygon class="cls-71" points="109.96 82.34 115.6 88.77 115.6 95.31 108.28 99.53 104.4 94.11 105.73 87.14 109.96 82.34"/><path class="cls-72" d="M132.93,73.61c-2.43-.92-10.52,6.67-9.94,9.28s10.35,5.72,12,4.26S135.37,74.53,132.93,73.61Z"/><path class="cls-73" d="M132,76.41c1.14.67,2.55,7.46,1.3,8.55s-6.62.5-7.58-2.68S130.88,75.75,132,76.41Z"/><path class="cls-74" d="M133.5,86.16c-2.43-.92-10.52,6.67-9.94,9.29s10.35,5.71,12,4.25S135.94,87.09,133.5,86.16Z"/><path class="cls-75" d="M132.6,89c1.14.67,2.55,7.45,1.29,8.55s-6.62.5-7.57-2.69S131.45,88.3,132.6,89Z"/><path class="cls-76" d="M125.61,91.53c-2.44-.93-10.52,6.67-9.94,9.28s10.35,5.72,12,4.26S128.05,92.45,125.61,91.53Z"/><path class="cls-77" d="M124.7,94.33c1.15.67,2.55,7.46,1.3,8.55s-6.62.5-7.57-2.69S123.56,93.66,124.7,94.33Z"/><polygon class="cls-78" points="154.34 85.5 159.98 91.93 159.98 98.47 152.66 102.69 148.78 97.27 150.11 90.3 154.34 85.5"/><polygon class="cls-79" points="148.73 92.77 154.38 99.2 154.38 105.74 147.06 109.96 143.17 104.54 144.51 97.56 148.73 92.77"/><polygon class="cls-80" points="122.94 84.62 117.47 80.57 111.17 84.62 110.44 89.11 114.74 91.68 122.25 89.28 122.94 84.62"/><polygon class="cls-81" points="176.54 86.65 171.07 82.6 164.77 86.65 164.04 91.14 168.34 93.71 175.85 91.32 176.54 86.65"/><polygon class="cls-82" points="126.36 90.96 120.89 86.91 114.59 90.96 113.86 95.44 118.16 98.02 125.67 95.62 126.36 90.96"/><polygon class="cls-83" points="161.31 87.84 166.96 94.27 166.96 100.81 159.64 105.03 155.75 99.61 157.09 92.63 161.31 87.84"/><path class="cls-84" d="M132.93,87.33C130.5,86.4,122.41,94,123,96.61s10.35,5.72,12,4.26S135.37,88.25,132.93,87.33Z"/><path class="cls-85" d="M132,90.13c1.14.67,2.55,7.46,1.3,8.55s-6.62.5-7.58-2.69S130.88,89.46,132,90.13Z"/><path class="cls-86" d="M196.17,89c-2.44-.92-10.52,6.67-9.94,9.28s10.35,5.72,12,4.26S198.61,89.87,196.17,89Z"/><path class="cls-87" d="M195.26,91.75c1.15.67,2.55,7.46,1.3,8.55s-6.62.5-7.57-2.68S194.12,91.08,195.26,91.75Z"/><path class="cls-88" d="M95.74,71.85c-2.44-.92-10.53,6.67-9.94,9.28s10.34,5.72,12,4.26S98.17,72.77,95.74,71.85Z"/><path class="cls-89" d="M94.83,74.65c1.14.67,2.55,7.46,1.3,8.55s-6.62.5-7.58-2.68S93.68,74,94.83,74.65Z"/><polygon class="cls-90" points="135.69 78.27 141.33 84.7 141.33 91.24 134.02 95.47 130.13 90.04 131.47 83.07 135.69 78.27"/><polygon class="cls-91" points="94.05 78.31 99.69 84.74 99.69 91.28 92.37 95.5 88.49 90.08 89.83 83.11 94.05 78.31"/><polygon class="cls-92" points="145.41 75.68 139.94 71.63 133.64 75.68 132.91 80.17 137.21 82.74 144.72 80.34 145.41 75.68"/><polygon class="cls-93" points="152.18 89.37 146.71 85.32 140.41 89.37 139.68 93.86 143.98 96.44 151.49 94.04 152.18 89.37"/><polygon class="cls-94" points="145.41 96.51 139.94 92.46 133.64 96.51 132.91 101 137.21 103.58 144.72 101.18 145.41 96.51"/><polygon class="cls-95" points="83.2 74.7 88.84 81.13 88.84 87.67 81.52 91.89 77.64 86.47 78.97 79.49 83.2 74.7"/><path class="cls-96" d="M133.32,93.16c-2.44-.92-10.52,6.67-9.94,9.28s10.35,5.72,12,4.26S135.76,94.08,133.32,93.16Z"/><path class="cls-97" d="M132.41,96c1.15.67,2.55,7.46,1.3,8.55s-6.62.5-7.57-2.68S131.27,95.3,132.41,96Z"/><path class="cls-98" d="M116.27,88.59c-2.44-.93-10.52,6.67-9.94,9.28s10.35,5.71,12,4.26S118.71,89.51,116.27,88.59Z"/><path class="cls-99" d="M115.36,91.39c1.15.67,2.55,7.46,1.3,8.55s-6.62.5-7.57-2.69S114.22,90.72,115.36,91.39Z"/><polygon class="cls-100" points="248.55 99.55 120.33 109.65 58.2 84.59 65.4 82.78 123.26 104.12 236.12 96.03 248.55 99.55"/><path class="cls-101" d="M246.06,99.22l-2.64,10.43s-31.76,6-56.93,9-65.4,1.29-65.4,1.29l.72-11s40.67-5.56,65.79-7S246.06,99.22,246.06,99.22Z"/><path class="cls-102" d="M192,116l-3.6,15.47a18.75,18.75,0,0,1-12.16,0l-8.22-3.1,4.64-16.63a11.56,11.56,0,0,1,11.6-3.09C191.65,110.6,192,116,192,116Z"/><path class="cls-103" d="M196.42,118.14l-3.59,15.48a18.78,18.78,0,0,1-12.17,0l-8.22-3.1,4.64-16.63a11.6,11.6,0,0,1,11.61-3.1C196,112.73,196.42,118.14,196.42,118.14Z"/><polygon class="cls-104" points="186.98 116.11 188.96 118.81 186.89 126.24 183.35 128.89 181.53 127 184.12 118.33 186.98 116.11"/><polygon class="cls-105" points="184.12 118.33 184.43 122.5 181.53 127 184.12 118.33"/></g></g></g></svg>