<svg xmlns="http://www.w3.org/2000/svg" viewBox="0 0 205.44 203.36"><defs><style>.cls-1,.cls-6{fill:#dc603d;}.cls-2{fill:#973a4a;}.cls-3{fill:#fdd141;}.cls-4,.cls-7{fill:#fff;}.cls-5{fill:#2a2b3d;}.cls-6{opacity:0.43;}.cls-7{opacity:0.28;}</style></defs><title>obstacle-fish</title><g id="Layer_2" data-name="Layer 2"><g id="Obstacles"><path class="cls-1" d="M205.44,67c0,.09-.32,1.2-1,3-4.24,11.84-23.51,53.93-81,46.2l-1.77-.25q-2.79-.42-5.72-1l1.4-11.22s9.73-30.7,47-29.92c21.84.46,32.18-2,37-4.06C204.67,68.4,205.39,67.13,205.44,67Z"/><path class="cls-1" d="M203.9,164.36a4.92,4.92,0,0,0-1.58-1.64c-3.19-2.38-12.53-6.64-39-7.69-37.28-1.48-45.14-32.7-45.14-32.7L117.49,111c1.52-.21,3-.38,4.47-.53l1.79-.16c54.37-4.6,73,32.29,78.29,47.58A51.31,51.31,0,0,1,203.9,164.36Z"/><path class="cls-2" d="M123.45,116.28l-.06,1.12a142.13,142.13,0,0,1,34,6.57,93.49,93.49,0,0,1,27.5,13.93,59.62,59.62,0,0,1,17.19,20,51.31,51.31,0,0,1,1.86,6.43,4.92,4.92,0,0,0-1.58-1.64,24.48,24.48,0,0,0-5.3-7.11c-4.47-4.21-13-9.41-28.46-10.21-15.95-.84-27-5.68-33.51-9.6-7.07-4.27-10.31-8.32-10.44-8.49l1.39-1.1a40.37,40.37,0,0,0,10.05,8.12c6.3,3.79,17.07,8.48,32.61,9.3a57.13,57.13,0,0,1,18.68,3.84,35.75,35.75,0,0,1,10,6c-10.22-15.1-27-23.38-40.49-27.83a138.44,138.44,0,0,0-34.4-6.54l-.91,0,.15-3.07.28-5.52.19-3.8H123c.07,0,8.14-.1,36.19-6.2,14.56-3.16,26.18-12.24,33.36-19.31A99.84,99.84,0,0,0,200,73c-.77.49-1.63,1-2.58,1.52-6.06,3.3-17.33,7.56-36.56,9.13-18.66,1.53-27.69,6.47-32,10.35-4.56,4.13-4.83,7.94-4.83,8l-1.77-.08c0-.18.25-4.46,5.25-9.07A34.59,34.59,0,0,1,139,86.18a83.42,83.42,0,0,1,21.69-4.32c18.76-1.53,29.75-5.64,35.66-8.82a36,36,0,0,0,5-3.21c3.28-1.43,4-2.7,4.05-2.79,0,.09-.32,1.2-1,3a98.22,98.22,0,0,1-10.67,12.39,85.73,85.73,0,0,1-14.67,11.67,62.4,62.4,0,0,1-19.55,8.11c-23.64,5.14-33.06,6-35.73,6.2l-.09,1.9Z"/><path class="cls-1" d="M186,.72h0c-5.38,4.35-72.78,28.21-91.61,68.9C67.5,127.82,25.68,89.88,25.68,89.88S51.85,24.65,149.74,6.16c8.69-1.65,15.61-2.95,21-3.94,9-1.64,13.71-2.36,15.16-2.2C186.5.1,186.52.33,186,.72Z"/><path class="cls-2" d="M186,.72h0A206.87,206.87,0,0,0,152.4,13.39C134.79,21.68,109.48,36.32,88.87,59l-1.32-1.2A184.8,184.8,0,0,1,119.88,29.9a227.31,227.31,0,0,1,31.8-18.13c6.33-3,12.16-5.38,17.13-7.25C121.85,16,92.24,32.93,75.16,45.76,54.57,61.24,47.35,74.17,47.28,74.3l-1.56-.85c.3-.54,7.48-13.4,28.38-29.11A213.36,213.36,0,0,1,117,19.82a319.92,319.92,0,0,1,53.75-17.6c9-1.64,13.71-2.36,15.16-2.2Z"/><path class="cls-1" d="M136.38,202.73h-.06c-1.68.24-6.54.24-15.85.59C76.94,205,21.84,138.17,21.84,138.17S67.16,116,88.7,161.83c9.73,20.7,26,30.83,37,35.87,5.34,2.46,9.4,3.71,10.8,4.38C137.19,202.42,137.22,202.61,136.38,202.73Z"/><path class="cls-2" d="M136.48,202.08l-.1.65v0h-.05A134.87,134.87,0,0,1,95.5,192.35a119.92,119.92,0,0,1-27.73-16.8C53.56,164,47.24,153.39,47,153l1.53-.9c.06.11,6.45,10.84,20.45,22.17,11.34,9.2,29.87,20.45,56.25,25.2A127.46,127.46,0,0,1,108.26,192a97,97,0,0,1-22.34-16,66.92,66.92,0,0,1-16.65-25.48l1.67-.6c7.33,20.62,24.77,33.41,38.11,40.51a125.23,125.23,0,0,0,16.63,7.3C131,200.16,135.08,201.41,136.48,202.08Z"/><path class="cls-3" d="M123.53,144.39c-5,16.22-14.9,27.59-30.12,26.16-23.07-2.17-54.86-15.22-73.06-29.35C11.53,134.35,5.9,127.25,6,121,6.17,109,20.92,87.39,43.4,71.29A119.8,119.8,0,0,1,67.1,58a100.66,100.66,0,0,1,14.54-4.81q3.9-1,7.9-1.6c13.47-2.11,23.62,7.46,30,22C128.42,93.64,130.12,123.17,123.53,144.39Z"/><circle class="cls-4" cx="31.66" cy="108.93" r="15.54" transform="translate(-81.7 113.01) rotate(-75.85)"/><circle class="cls-5" cx="28.21" cy="110.85" r="9.5"/><path class="cls-6" d="M99.23,104.48A65.81,65.81,0,0,0,81.64,53.19q3.9-1,7.9-1.6c13.47-2.11,23.62,7.46,30,22C121.89,106.31,96.62,132.13,99.23,104.48Z"/><path class="cls-6" d="M57.25,118.18A65.27,65.27,0,0,0,43.4,71.29,119.8,119.8,0,0,1,67.1,58C97,100.38,53.88,153.9,57.25,118.18Z"/><path class="cls-7" d="M123.53,144.39c-5,16.22-14.9,27.59-30.12,26.16-23.07-2.17-54.86-15.22-73.06-29.35,2.75-4.38,8.32-8.1,19.4-2.45,19.81,10.11,43.53,24,69.92,9.77A35.48,35.48,0,0,1,123.53,144.39Z"/><path class="cls-3" d="M11.67,127.89s-9.36-3.54-11.38.61,7.2,5.42,7.2,5.42-2.55,10.21,2.39,7.68S19,131.93,11.67,127.89Z"/></g></g></svg>