<svg xmlns="http://www.w3.org/2000/svg" xmlns:xlink="http://www.w3.org/1999/xlink" viewBox="0 0 628.56 442.62"><defs><style>.cls-1{isolation:isolate;}.cls-2{fill:#c2a8a8;opacity:0.7;mix-blend-mode:multiply;}.cls-3{fill:url(#linear-gradient);}.cls-4{fill:url(#linear-gradient-2);}.cls-5{fill:url(#linear-gradient-3);}.cls-6{fill:url(#linear-gradient-4);}.cls-7{fill:url(#linear-gradient-5);}.cls-8{fill:url(#linear-gradient-6);}.cls-9{fill:#5e392c;}.cls-10{fill:url(#linear-gradient-7);}.cls-11{fill:url(#linear-gradient-8);}.cls-12{fill:url(#linear-gradient-9);}.cls-13{fill:url(#linear-gradient-10);}.cls-14{fill:#ae8a80;}.cls-15{fill:url(#linear-gradient-11);}.cls-16{fill:url(#linear-gradient-12);}.cls-17{fill:url(#linear-gradient-13);}.cls-18{fill:url(#linear-gradient-14);}.cls-19{fill:url(#linear-gradient-15);}.cls-20{fill:url(#linear-gradient-16);}.cls-21{fill:url(#linear-gradient-17);}</style><linearGradient id="linear-gradient" x1="165.22" y1="109.79" x2="336.07" y2="109.79" gradientUnits="userSpaceOnUse"><stop offset="0" stop-color="#ae8a80"/><stop offset="0.74" stop-color="#8f5a4e"/></linearGradient><linearGradient id="linear-gradient-2" x1="289.91" y1="121.24" x2="467.57" y2="121.24" xlink:href="#linear-gradient"/><linearGradient id="linear-gradient-3" x1="165.22" y1="57.01" x2="251.63" y2="57.01" xlink:href="#linear-gradient"/><linearGradient id="linear-gradient-4" x1="226.74" y1="128.91" x2="315.19" y2="128.91" xlink:href="#linear-gradient"/><linearGradient id="linear-gradient-5" x1="350.51" y1="128.56" x2="483.57" y2="128.56" xlink:href="#linear-gradient"/><linearGradient id="linear-gradient-6" x1="288.65" y1="36.9" x2="339.65" y2="36.9" xlink:href="#linear-gradient"/><linearGradient id="linear-gradient-7" x1="336.61" y1="161.06" x2="349.83" y2="360.17" xlink:href="#linear-gradient"/><linearGradient id="linear-gradient-8" x1="167.5" y1="106.68" x2="194.92" y2="299.35" xlink:href="#linear-gradient"/><linearGradient id="linear-gradient-9" y1="197.58" x2="312.42" y2="197.58" gradientUnits="userSpaceOnUse"><stop offset="0" stop-color="#c1aca7"/><stop offset="0.74" stop-color="#8f5a4e"/></linearGradient><linearGradient id="linear-gradient-10" x1="516.12" y1="173.35" x2="518" y2="240.94" xlink:href="#linear-gradient"/><linearGradient id="linear-gradient-11" x1="139.96" y1="256.04" x2="584" y2="256.04" xlink:href="#linear-gradient-9"/><linearGradient id="linear-gradient-12" x1="147.25" y1="282.56" x2="584" y2="282.56" xlink:href="#linear-gradient-9"/><linearGradient id="linear-gradient-13" x1="153.64" y1="305.96" x2="584" y2="305.96" xlink:href="#linear-gradient-9"/><linearGradient id="linear-gradient-14" x1="116.73" y1="217.74" x2="584" y2="217.74" xlink:href="#linear-gradient-9"/><linearGradient id="linear-gradient-15" x1="122.48" y1="292.05" x2="153.64" y2="292.05" xlink:href="#linear-gradient-9"/><linearGradient id="linear-gradient-16" x1="139.96" y1="309.28" x2="190.35" y2="309.28" xlink:href="#linear-gradient-9"/><linearGradient id="linear-gradient-17" x1="163.94" y1="330.24" x2="219.03" y2="330.24" xlink:href="#linear-gradient-9"/></defs><title>obstacle-ship-wreck</title><g class="cls-1"><g id="Layer_2" data-name="Layer 2"><g id="Obstacles"><path class="cls-2" d="M141,353.27C124.06,368.2,90.15,392.76,104.49,418s79,23.54,102.42,24.37c87.5,3.1,173.09-19.5,260.48-19.88,28.17-.12,184.45,16.68,158.22-45.61-24.33-57.79-160.82-41.78-208.1-41.58-95.33.4-189.31-5.42-282.11,20.8"/><polygon class="cls-3" points="165.22 0 233.19 100.34 322.18 218.79 336.07 219.59 165.22 0"/><polygon class="cls-4" points="446.36 237.6 289.91 0 467.57 242.48 446.36 237.6"/><polyline class="cls-5" points="165.22 79.44 172.37 75.17 245.82 31.36 251.63 39.72 174.43 82.66"/><polygon class="cls-6" points="226.74 148.42 312.88 109.4 315.19 118.41 226.74 148.42"/><polygon class="cls-7" points="350.51 156.78 483.57 100.34 483.57 106.84 350.51 156.78"/><polyline class="cls-8" points="302.43 31.36 330.31 14.63 339.65 41.81 312.42 59.17 288.65 36.9"/><path class="cls-9" d="M584,236.21s-5.64-8.36-112.25-14.63-169.32,0-169.32,0,14.49,29.49,100.27,41.92S584,236.21,584,236.21Z"/><path class="cls-10" d="M95.3,167.11s67,125.42,115.12,169.32,83.9,48.08,129.64,41.8L584,344.79V246.54S533.38,268,467.57,252.81Z"/><path class="cls-11" d="M100.87,156.78V265.91S100.55,319,129.38,347,170.1,378.56,206,382.54s89.52-12.32,89.52-12.32-78.33-37.8-97.31-50.39S176.56,298.43,157,270,100.87,156.78,100.87,156.78Z"/><polyline class="cls-12" points="0 14.63 94.86 173.5 151.41 269.97 226.74 355.37 269.69 375.49 312.42 380.53 219.03 327.55 165.22 263.5 110.44 160.27 12.91 14.63"/><rect class="cls-13" x="483.57" y="195.06" width="67.61" height="47.29"/><path class="cls-14" d="M120.77,188.8s178.94,65.29,225.1,70.3,87.56,21.1,131.68,18S584,265.91,584,265.91V270s-72.23,9-107.48,9.9-82-8.38-129.6-16.5-222.57-68.31-222.57-68.31Z"/><path class="cls-15" d="M140,213.33s170.21,61.59,216.37,66.6,84.81,17.2,128.93,14.1S584,279.93,584,279.93v3.85s-62.3,14-97.55,14.89S404.62,291.89,357,283.78,140,216.83,140,216.83Z"/><path class="cls-16" d="M147.25,237.58S325.85,303,372,308s86.55,17,130.67,13.94S584,313.24,584,313.24v6.36s-45.37,7-80.62,7.89-85-7.58-132.62-15.69S157.54,246,157.54,246Z"/><path class="cls-17" d="M153.64,263.37s168,67.83,214.17,72.84,85.18,11.8,129.3,8.7S584,334.51,584,334.51l-2.73,4.87s-49.61,8.15-84.86,9-81-2-128.6-10.1-214.17-71.42-214.17-71.42Z"/><path class="cls-18" d="M118.89,176.18s74.36,16.69,121.75,30.27,77.63,26.09,114.07,31.13,102.2,26.12,150.83,25.79S584,253.25,584,253.25v-6.71s-31.75,15.09-78.46,12.56-105.63-23-147.21-31.44S293,213.06,240.15,200.45s-123.42-28.34-123.42-28.34Z"/><path class="cls-14" d="M203.69,309.28s74.84,35.23,101.76,39.26S426.7,366.36,426.7,366.36h0s-98.64-8.81-131.21-17.82-89-29.42-89-29.42L212.71,306"/><path class="cls-14" d="M116.73,210.81s-9.21,35.84-7.12,63S131,348.54,131,348.54l4.68,4.41s-18.12-55.28-21.85-79.12,7.73-60.5,7.73-60.5Z"/><path class="cls-19" d="M129.9,217.74s-9.21,35.84-7.12,63,28.12,82.45,28.12,82.45l2.74,3.15S130.7,304.61,127,280.76s7.73-60.5,7.73-60.5Z"/><path class="cls-20" d="M140.26,238s-2.16,36.94,5.1,63.21,40.71,78.61,40.71,78.61l4.28.71s-32.65-57.43-40.89-80.12-4-60.86-4-60.86Z"/><polygon class="cls-21" points="163.94 279.93 212.71 380.55 219.03 380.55 186.97 315.02 171.64 287.06 163.94 279.93"/></g></g></g></svg>