<?xml version="1.0" encoding="UTF-8"?><svg id="Background" xmlns="http://www.w3.org/2000/svg" viewBox="0 0 1920 1080"><defs><style>.cls-1{fill:#2481a2;}</style></defs><g id="Layer_3"><path class="cls-1" d="M0,661.3c82.56-40.93,131.73-22.96,169.68-42.38,52.96-27.11,87.61-71.19,179.23-86.3,145.53-24,96.14,69.99,236.94,89.87,173.6,24.51,82.5,131.45,198.13,107.23,115.63-24.22,118.47,184.19,277.28,178.72,63.4-2.18,42.1-123,163.77-122.7,61.42,.15,135.77-109.28,177.84-131.59,101.11-53.62,180.85,16.39,228.26,41.36,85.79,45.19,134.81,71.23,288.87-34.21v418.7H0v-418.7"/><path class="cls-1" d="M833.29,752.01s2.45,2.45,3.33,2.45c.88,0,9.97-5.94,15.04-13.46,3.21-4.76,8.37-19.21,11.72-25.01,8.57-14.87,8.39-13.12,22.73-22.21,14.34-9.09,26.93-3.85,32,1.57,4.6,4.91,4.61,13.99,4.61,18.36s2.28,5.83,4.26,5.25c2.08-.61,1.05-3.55,3.21-4.37,2.66-1.01,2.39,6,6.65,3.85,2.12-1.08-.83-6.96-.1-11.57,.92-5.79,7.35-6.48,11.43-1.67,1.57,1.85,4.44,7.06,5.24,10.26,.94,3.75,1.66,8.79,3.9,8.4,1.56-.28,.87-2.49,1.83-2.62,.61-.09,1.09,1.92,1.97,1.79,2.08-.31,2.65-.96,2.14-3.54-.48-2.45-1.05-2.97,.7-4.9,1.75-1.92,2.25-.74,4.77,0,2.61,.76,3.75-2.07,2.36-3.79-1.43-1.77-1.84-2.37-.88-3.34,1.77-1.52,2.9-3.06,.29-4.83-2.64-1.79-8.68,1.28-13.51-1.13-9.56-4.84-5.45-15.94,4.35-16.05,3.3-.04,13.4,6.44,17.25,5.3,2.56-.76,2.62-2.86,.99-4.43-.75-.72-.17-1.46,.53-1.61,2.41-.51,2.47-1.7,2.21-3.29-.47-1.98-4.35-.86-6.24-2.68-1.57-1.51-1.28-3.44,0-4.08,.77-.39,2.01-.47,2.74-1.17,1.28-1.23,.82-3.15-.99-3.32-.7-.07-1.87,.76-2.86-.35-1.28-1.69,1.69-2.04,.87-3.85-1.12-2.47-2.97-1.05-9.27,2.97-6.3,4.02-11.02,8.92-15.74,3.85-2.8-3.85,3.32-7.46,7.17-9.21s9.09,.76,10.49-1.28c1.75-2.55,.35-5.71-2.1-6.12-1.35-.22-3.77,.52-4.72-.99-1.4-2.21,3.81-3.58-.47-7.4-2.21-1.98-4.2-.81-5.48,2.57-2.46,6.49-16.52,17.2-21.86,13.35-7.26-8.39,20.71-21.7,21.04-25.38,.46-5.07-4.52-5.33-7.32-4.9-1.55,.24-2.5-.95-.7-3.41,2.22-3.03-1.54-7.55-4.69-3.7-3.97,4.86-7.58,10.55-11.42,8.28-3.85-2.27-2.1-6.65-2.1-8.98,.12-2.21-4.78-3.85-5.83-.93-2.11,2.9-.81,44.65-19.82,42.32-7.13-.88,2.42-29.82,4.69-35.94,2.27-6.12-.29-7.51-2.62-7.87-1.14-.18-3.15-.34-4.63,2.15-1.26,2.1-2.55,4.27-6.06,1.32-1.75-1.47-2.99-2.08-5.39-.58-1.4,.87-3.06,2.54,3.03,15.71,4.05,8.75,5.16,15.74-1.95,31.16-5.6,12.13-21.92,10.03-26.35-1.63-7.04-18.52-19.85-40.69-9.09-46.63,8.72-4.82,27.37,.23,33.55-3.15,2.21-1.21,1.97-3.42,.35-3.67-1.52-.23-2.16-.46-2.51-1.28-.83-1.94,3.21-2.74,1.11-5.07-1.89-2.1-13.87,2.68-17.2,3.21-3.33,.53-4.11-3.23-1.66-6.99,4.41-6.77,14.83-1.91,17.66-3.06,3.23-1.31,2.19-5.25,.17-5.51-1.35-.18-3.15-.26-4.2-1.57-1.14-2.28,3.73-2.61,3.41-4.72-.61-4.02-5.02-.38-6.65-2.97-1.49-2.36,3.1-5.32-.35-6.99-3.23-1.57-12.77,11.28-14.75,13.75-1.62,2.01-8.98,11.56-14.14,6.96-6.06-6.28,11.05-17.56,13.85-20.01,2.8-2.45-.41-5.83-2.45-6.12-2.63-.37-2.93,3.22-4.49,3.15-2.81-.3-.58-3.91-2.97-4.49-2.41-.58-3.32,.76-3.61,4.02-.37,4.21-1.22,10.38-4.43,10.08-1.95-.18-1.74-2.65-1.11-5.42,.81-3.61-.26-4.66-2.16-5.13-1.63-.41-2.68,.61-2.95,2.45-.14,.99-1.48,1.69-2.01-.06-.82-3.44-5.65-3.15-5.71,.12-.04,1.96-.32,7.98,.85,17.55,3.6,29.54,29.14,71.58,21.45,73.21-2.99,.64-11.53-7.62-13.99-9.32-11.43-7.93-19.79-9.04-20.05-21.91-.18-8.45,10.33-11.86,11.14-14.66,1.02-3.48-2.07-4.8-4.85-3.29-.83,.45-1.26-.14-1.17-1.19,.19-2.23-.92-3.81-2.9-3.55-2.74,.35-7.91,14.08-12.81,11.28-6.73-3.85,4.23-14.09,5.51-18.19,1.09-3.5-2.1-4.98-3.32-3.85-.71,.66-1.31,3.02-2.23,2.84-1.01-.09-.34-2.4-1.35-3.41-1.4-1.4-3.67-.31-3.66,1.89,.01,1.83,1.19,6.39-.63,6.9-2.51,.7-1.31-3.9-3.52-4.2-1.77-.24-2.16,.56-2.17,2.08,0,.52-.53,.57-.88,.41-1.79-.84-5.57-.64-.95,5.91,3.67,5.22,2.54,10.69-1.05,11.54-3.67,.88-6.82-9.22-7.98-12.12-1.17-2.92-8.16-.76-6.59,3.44,2,5.34-2.52,4-4.61,3.73-2.22-.29-4.02,4.61-.7,6.3,3.93,2,17.15,4.8,14.57,12.3-2.56,7.46-9.75,.43-12.36,.76-1.87,.23-2.04,2.68-.76,3.96,.8,.8,.46,1.92-.4,2.01-3.15,.33-3.34,3.29,.8,6.73,5.48,4.55,13.23,5.83,30.6,4.66,8.04-.54,21.92-1.4,32.53,7.34,16.78,13.83,15.16,30.55,15.16,36.72,0,4.55-1.51,17.08-4.08,17.14-3.9,.09-3.5-12.26-9.91-19.7-7.46-8.66-9.75-6.06-13.67-11.63-3.93-5.6-1.54-11.67,3.98-11.67,3.32,0,2.75-2.93,1.14-2.97-4.34-.12,.33-3.57-1.62-5.03-2.1-1.58-3.68,1.94-5.22,1.57-2.45-.58,.2-3.81-1.98-4.9-1.63-.82-1.85,.87-3.03,2.22-1.06,1.21-1.57-1.38-2.97-.47-2.03,1.33,3.44,7.17,.26,7.78-7.69,1.48-2.88-4.73-4.98-7.96-.92-1.42-3.81-1.46-5.8,1.02-.46,.57-1.78,.23-2.05-.53-.8-2.28-2.36-3.06-4.57-1.8-1.23,.7-.37,2.74-1.31,4.72-.79,1.66-2.21,.53-2.5-.19-.34-.86-.6-2.02-.8-3.8-.38-3.5-3.59-2.99-3.96-1.87-.25,.76-.05,2.03-.09,3.22-.03,.98-.79,1.69-1.43,.86-.14-.2-.58-.78-.7-.99-.67-1.19-3.34,.16-2.8,1.4,.68,1.49-.01,1.89-1.23,1.57-.79-.41-2.24,1.32-1.75,2.27,.59,1.14-1.9,1.55-1.72,3.82,.21,2.7,5.86,3.76,9.53,5.16,3.67,1.4,6.65,5.06,5.94,7.96-.96,3.93-5.81,4.11-7.74,2.19-1.93-1.92-1.26-5.99-2.01-8.79-.7-2.62-3.54-2.03-4.24-1.01-.74,1.09-.04,2.01-1.23,2.45-1.36,.57-1.97-1.18-4.02-.17-2.74,1.34-1.27,4.9,3.89,6.69,2.29,.8,2.1,4.76-.17,5.81-2.08,.96-4.24-1.18-6.1-2.94-1.15-1.09-3.55,.55-2.28,3.51,.28,.64-.03,1.32-.72,1.42-1.02,.14-2.15,.5-2.48,1.25-.68,1.48,.35,4.02,8.98,6.01,8.8,2.02,14.11-.12,19.35-2.16,1.6-.62,13.29-5.6,24.66-4.9,11.36,.7,14.34,5.42,16.26,9.62,1.46,3.18,3.89,13.58,1.87,21.68-2.63,10.49-8.51,16.09-8.51,16.09h0Z"/><path class="cls-1" d="M1579.03,697.1s-3.58-10.96,.22-25.83c2.93-11.48,12.99-22.83,16.95-25.82,5.23-3.94,12.13-7.84,26.79-1.05,14.66,6.79,25.9,20.88,27.49,22.74,5.18,6.08,10.35,12.33,22.71,15.74,12.11,3.34,15.1,.86,15.26-1.45,.08-1.16-1.09-2.37-2.26-3.23-.8-.59-.71-1.65,.06-2.26,3.59-2.83,1.69-6.5-.47-5.92-3.52,.94-7.65,2.17-9.61-.44-2.13-2.84,.3-7.93,3.7-7.38,7.65,1.24,11.89-2.2,9.37-5.73-1.89-2.64-3.83-.87-5.14-2.5-1.18-1.34,.31-2.02,.12-3.88-.18-1.74-3.33-4.41-5.97-1.6-2.82,2.99-4.74,8.51-8.44,9.62-3.7,1.11-9.64-2.39-8.19-7.95,1.07-4.09,7.26-6.66,12.79-5.93,5.53,.73,13.3,3.22,15.38-.02,1.75-2.72-1.08-4.9,.43-5.93,1.26-.85,.62-3.99-.65-4.02-1.73-.42-2.33-1.38-.47-2.79,1.5-1.18-.91-4.66-2.55-3.63-.28,.18-1.23,.61-1.54,.76-1.36,.6-1.83-.79-1.2-2.04,.76-1.5,1.87-2.96,2.06-4.08,.29-1.66-3.37-4.46-6.21-.34-1.45,2.09-2.55,3.36-3.56,4.21-.85,.72-3.39,1.16-3.25-1.44,.17-3.11,2.61-5.08,1.55-6.78-1.91-3.07-4.38-3.15-6.92-.84-.84,.77-2.73,.31-2.92-.71-.81-4.43-4.44-6.33-6.55-5.18-4.8,2.62-2.98,13.62-11.59,6.58-3.55-2.91,7.21-6.51,5.58-9.54-1.13-2.09-3.51,.81-4.02-1.42-.57-2.47,.3-4.73-2.29-4.81-3.46-.11-2.33,5.7-5.78,4.78-2.17-.58-1.77-6.03-5.46-5.48-3.42,.51,.08,7.96-5.41,5.19-2.05-1.04-4.73,2.24-.58,4.48,6.89,3.72,5.78,12.92-2.9,17.26-8.64,4.31-9.76-.48-24.91,5.3-13.03,4.97-20.85,20.66-25.66,17.92-3.17-1.8,3.4-18.47,6.46-24.15,4.17-7.71,13.4-29.68,43.69-35.63,19.14-3.76,35.89,6.66,45.57,12.76,20.9,13.17,31.45,16.8,41.36,14.81,7.49-1.5,9.25-5.33,5.54-7.86-1.02-.69-.68-2.32,.86-2.78,2.47-.74,3.9-3.91,1.73-5.46-3.03-2.17-16.75,1.77-14.92-9.28,1.84-11.1,20.23-5.69,26.49-5.53,5.29,.13,6.34-7.2,3.37-8.33-2.79-1.07-9.34-2.44-3.24-7.76,4.79-4.18-2.48-11.59-5.91-8.74-3.41,2.84-14.16,13.32-18.15,9.76-3.91-3.49-1.64-11.08,6.47-15.12,10.18-5.07,5.6-7.86,2.8-8.02-.54-.03-1.17-.45-.82-1.1,1.01-1.9,1.06-3.16-1.31-4.06-2.95-1.12-4.57,5.43-7.23,2.87-1.92-1.85,2.62-6.77,3.87-9.04,1.5-2.73-.6-5.63-3.29-4.83-1.95,.58-2.68,3.91-3.99,3.35-1.26-.4-.43-3.76-.87-5.06-.76-2.24-5.75-2.54-6.74,2.56-1.16,5.97,5.62,26.16-5.38,26.42-8,.19-5.2-20.44-8.39-22.72-2.3-1.65-4.76-.43-6.02,2.48-.6,1.37-1.53,1.83-2.26,.7-2.45-3.76-7.2-4.19-8.27,.84-.87,4.05,9.95,15.38,4.03,25.82-9.01,15.9-20.21,11.65-39.82,13.84-4.23,.47-20.45,5.02-23.76,2.21-8.51-7.23,51.74-42.5,76.16-76.96,7.91-11.15,11.61-18.87,12.89-21.34,2.13-4.12-3.72-7.74-7.05-4-1.84,1.83-3.04,.05-2.55-1.27,.91-2.47,.29-4.46-2.03-5.05-2.69-.69-4.73-.11-6.15,4.95-1.09,3.89-2.49,7.11-5.04,6.02-4.2-1.8-1.1-10.06,1.27-15.58,1.84-4.27,1.6-6.57-1.8-7.46-3.38-.88-3.02,5.11-6.73,3.6-1.99-.96,.05-5.65-3.48-6.96-2.74-1.01-9.03,1.05-7.18,5.99,1.84,4.95,15.61,30.56,3.8,34.32-9.55,2.26-12.3-14.62-12.96-18.22-.81-4.42-4.05-26.9-9.15-27.12-5.44-.23-1.71,6.55-5.15,8.5-3.78,2.13-6.82-5.38-10.3-.77-1.82,2.42,4.03,6.12,1.07,8.2-2.2,.93-4.49-.18-6.3-.87-2.69-1.03-6.65,3.18-3.5,7,2.76,3.34,19.05,4.3,19.99,15.73,.52,6.35-3,10.51-6.79,7.61-3.79-2.9-15.54-16.95-19.31-15.6-4.19,1.5,.31,5.21-2.04,7.08-.99,.79-1.94,.64-4-.09-2.19-.78-3.98,1.83-2.04,4.82,5.43,8.39,32.13,14.65,39.77,26.55,9.42,14.68-21.52,33.72-42.8,52.1-13.39,11.57-35.19,3.18-34-15.73,1.51-24.05,7.62-32.03,18.57-40.22,16.49-12.34,15.54-15.53,14.38-17.57-1.99-3.5-3.95-3.57-7.13-2.91-6.37,1.32-6.54-2.26-6.68-5.73-.18-4.11-2.8-5.27-4.34-5.81-3.16-1.13-7.29-1.12-8.58,8.05-1.29,9.17-8.88,51.75-18.38,48.04-25.3-9.91,4.47-61.16,3.79-66.21,.66-4.35-6.56-5.61-7.9-2.77-1.57,2.91-2.34,9.55-8.67,9.79-6.34,.24-7-9.3-8.68-18.04-1.34-6.93-9.08-3.82-8.36,1.46,.59,4.29-1.4,5.13-3.17,3.79-3.2-2.43-9.6-5.46-12.44,1.18-2.06,4.83,23.89,40.3,9.16,45.89-9.25,1.21-19.6-21.64-18.29-31.41,.68-5.09-1.01-7.88-5.11-6.9-7.92,1.89-2.34,7.11-5.57,8.93-2.2,1.24-4.73-1.32-6.56-1.95-3.34-1.14-7.22,1.87-6.75,6.23,.37,3.49,8.61,3.9,12.24,8.68s8.83,13.42,2.74,16.33c-9.32,3.15-11.91-6.15-17.06-15.42s-6.5-12.3-9.57-9.96c-2.24,1.71,1.24,4.15-1.5,5.39-1.98,.72-2.89-1.1-3.8-1.49-2.37-1-4.25,1.09-3.48,3.48,.44,1.36,1.93,2.3,2.63,3.3,1.17,1.66,.23,4.27-2.75,5.09-3.59,1-7.68-3.02-9.59-.86-1.4,1.8-2.12,3.33,.54,5.59,.78,.66,1,1.97-.42,2.37-3.1,.86-4.44,3.52-1.75,6.2,4.05,4.02,21.03,2.74,25.12,5.01,12.15,6.75,9.8,23.38-5.4,22.98-7.67-.24-13.13-8.15-17.64-7.7-4.45,.45-4.08,3.14-2.9,6.23,.55,1.85-.36,2.33-3.35,3.57-2.89,1.21-3.38,5.51,.39,6.32,3.65,.79,5.07-.36,5.95,3.22,.89,3.58-.18,3.85-2.43,6.59-2.37,2.88-2.1,4.07,.29,5.87,1,.75,2.96-1.43,3.67-.91,1.11,.81-1.24,3.12,.52,4.51,2.52,2,6.82-3.81,10.53-7.86,3.16-3.46,10.25-8.03,13.46-9.28,8.33-3.25,15.9,1.95,13.14,9.79-2.2,6.24-9.85,11.6-7.93,14.37,3.86,5.56,8.24-3.38,10.89-.32,2.14,2.48-1.13,5.46,1.06,7.62,2.08,2.06,5.9,1.78,8.85-3.68,2.95-5.46,9.08-16.79,18.13-19.82,9.99-3.35,29.25-1.41,41.02,19.62,11.78,21.03,12.73,18.72,13.41,43.06,.26,9.5-3.03,31.02-2.23,39.13,1.26,12.81,8.61,26.36,9.7,26.95,1.09,.59,5.8-.81,5.8-.81h0Z"/><path class="cls-1" d="M147.65,651.37c.1,.28-2.02,2.07-1.81,3.16,1.16,4.26,28.96-2.93,27.7-7.54-1.74-6.39-19.72-7.98-25.89,4.38h0Zm-5.81,3.87c.87,3.2-18.31,8.42-19.18,5.22-1.16-4.26,8.69-11.52,17.01-6.16,.37,.31,1.92,.17,2.16,.94h0Zm-16.72-9.56c-1.34,2.34-6.98,6.4-.36,8.49,4.04-3.39,9.91-4.22,14.88-1.38l6.75-1.84c4.13-7.23,11.46-11.13,20.24-9.71,1.74-2,4.04-3.39,6.52-4.07-14.13-14.08-40.93-10.22-48.04,8.5h0Zm27.6-18.4c.55-3.58,1.62-5.96,3.08-9.02,9.85-19.85-8.68-13.66-7.51-34.57,.16-5,.49-10.81-4.19-16.79,4.84,5.17,5.03,10.07,5,16.95-1.3,19.04,17.97,14.18,8.06,35.19-1.19,2.61-2.74,5.24-3.03,8.37,.57,.03,1.19,.1,1.96,.23-.03-1.52,.74-2.79,2.13-4.7,14.44-22.62-7.71-22.7-6.53-43.61,.1-3.84,.55-7.78-2.64-11.11-3.55-3.23-6.71-5.04-6.65-10.4-2.23,4.42-2.07,7.81,.96,11.94,3.94,4.65,3.39,8.23,2.77,12.98-3.69,20.08,16.75,19.47,6.92,36.64-1.19,2.61-2.84,4.79-2.78,7.83,.38-.01,2.16-.02,2.45,.06h0Zm-13.51-12.52c-1.68,5.03-3.14,9.91,2.21,14.17,1.07-.29,2.24-.59,2.93-.74-5.62-3.81-4.21-7.2-2.33-11.52,4.69-10.81,2.2-18.53-8.09-24.12-5.52-3.46-9.94-5.69-2.99-19.4,2.33-8.26-9.55-8.46-6.77-20.66,.74-2.87,1.58-5.39-3.64-7.78,2.23,3.97,.22,6.42-1.42,8.78-7.65,9.71,5.92,13.46,3.27,18.88-6.46,14.95-.47,20.79,5.5,24.51,9.23,5.88,9.94,9.88,7.38,20.11-1.33,4.94-2.65,9.88,2.51,13.43,.78-.37,1.38-.64,2.39-1.03-5.45-4.62-4.13-9.56-2.19-15.04,6.89-25.14-21.98-13.47-12.6-39.29,4.82-13.14-7.23-8.33-4.58-18.21-1.59,9.59,10.01,4.52,5.38,18.37-8.58,24.41,20.44,13.56,13.06,39.55h0Zm-22.56-15.6c-8.56-8.78,2.25-12.18-8.61-19.02,4.93,9.87-5.32,11.41,2.86,21.73,9.98,9.32-5.85,23.33,14.22,31.22,2.07,.58,4.07,1.04,4.9,2.72,.45-.44,.79-.73,1.21-1.05-2.55-2.36-4.63-3.22-6.79-4.16-14.59-5.95-1.54-18.27-11.54-31.19-5.42-7.3-.51-7.49-2.48-16.11,2.61,9.59-2.52,7.55,3.09,15.56,10.74,14.24-2.43,24.69,11.35,30.48,2.16,.94,4.81,2.2,7.36,4.56,.37-.33,1.18-.93,1.64-1.23-1.29-1.94-3.54-3.21-5.7-4.15-16.39-6.51-.26-13.87-11.53-29.37h0Zm5.08,55.07c-4-3.49,.77-6.34,2.27-9.19,.58-1.25,.76-1.91,1.56-2.96-6.26-.58-18.68,6.65-17.04,12.69,.97,3.55,13.17-.65,13.2-.54h0Zm46.52-12.67c2.52,.84,6.39,2.46,6.81,5.39,2.13-.58,12.17-2.93,11.4-5.77-4.93-2.47-10.67-6.17-18.21,.38Z"/><path class="cls-1" d="M95.61,656.26c.1,.28-2.02,2.07-1.81,3.16,1.16,4.26,28.96-2.93,27.7-7.54-1.74-6.39-19.72-7.98-25.89,4.38h0Zm-5.81,3.87c.87,3.2-18.31,8.42-19.18,5.22-1.16-4.26,8.69-11.52,17.01-6.16,.37,.31,1.92,.17,2.16,.94h0Zm-16.72-9.56c-1.34,2.34-6.98,6.4-.36,8.49,4.04-3.39,9.91-4.22,14.88-1.38l6.75-1.84c4.13-7.23,11.46-11.13,20.24-9.71,1.74-2,4.04-3.39,6.52-4.07-14.13-14.08-40.93-10.22-48.04,8.5h0Zm27.6-18.4c.55-3.58,1.62-5.96,3.08-9.02,9.85-19.85-8.68-13.66-7.51-34.57,.16-5,.49-10.81-4.19-16.79,4.84,5.17,5.03,10.07,5,16.95-1.3,19.04,17.97,14.18,8.06,35.19-1.19,2.61-2.74,5.24-3.03,8.37,.57,.03,1.19,.1,1.96,.23-.03-1.52,.74-2.79,2.13-4.7,14.44-22.62-7.71-22.7-6.53-43.61,.1-3.84,.55-7.78-2.64-11.11-3.55-3.23-6.71-5.04-6.65-10.4-2.23,4.42-2.07,7.81,.96,11.94,3.94,4.65,3.39,8.23,2.77,12.98-3.69,20.08,16.75,19.47,6.92,36.64-1.19,2.61-2.84,4.79-2.78,7.83,.38-.01,2.16-.02,2.45,.06h0Zm-13.51-12.52c-1.68,5.03-3.14,9.91,2.21,14.17,1.07-.29,2.24-.59,2.93-.74-5.62-3.81-4.21-7.2-2.33-11.52,4.69-10.81,2.2-18.53-8.09-24.12-5.52-3.46-9.94-5.69-2.99-19.4,2.33-8.26-9.55-8.46-6.77-20.66,.74-2.87,1.58-5.39-3.64-7.78,2.23,3.97,.22,6.42-1.42,8.78-7.65,9.71,5.92,13.46,3.27,18.88-6.46,14.95-.47,20.79,5.5,24.51,9.23,5.88,9.94,9.88,7.38,20.11-1.33,4.94-2.65,9.88,2.51,13.43,.78-.37,1.38-.64,2.39-1.03-5.45-4.62-4.13-9.56-2.19-15.04,6.89-25.14-21.98-13.47-12.6-39.29,4.82-13.14-7.23-8.33-4.58-18.21-1.59,9.59,10.01,4.52,5.38,18.37-8.58,24.41,20.44,13.56,13.06,39.55h0Zm-22.56-15.6c-8.56-8.78,2.25-12.18-8.61-19.02,4.93,9.87-5.32,11.41,2.86,21.73,9.98,9.32-5.85,23.33,14.22,31.22,2.07,.58,4.07,1.04,4.9,2.72,.45-.44,.79-.73,1.21-1.05-2.55-2.36-4.63-3.22-6.79-4.16-14.59-5.95-1.54-18.27-11.54-31.19-5.42-7.3-.51-7.49-2.48-16.11,2.61,9.59-2.52,7.55,3.09,15.56,10.74,14.24-2.43,24.69,11.35,30.48,2.16,.94,4.81,2.2,7.36,4.56,.37-.33,1.18-.93,1.64-1.23-1.29-1.94-3.54-3.21-5.7-4.15-16.39-6.51-.26-13.87-11.53-29.37h0Zm5.08,55.07c-4-3.49,.77-6.34,2.27-9.19,.58-1.25,.76-1.91,1.56-2.96-6.26-.58-18.68,6.65-17.04,12.69,.97,3.55,13.17-.65,13.2-.54h0Zm46.52-12.67c2.52,.84,6.39,2.46,6.81,5.39,2.13-.58,12.17-2.93,11.4-5.77-4.93-2.47-10.67-6.17-18.21,.38Z"/><path class="cls-1" d="M1202.03,689.92c5.24-3.3,9.63-4.9,16.13-7.26-6.08-.42-23.81,10.98-34.62,15.45-10.23,4.24-12.52,8.47-14.95,10.63-12.31,3.57-10.5,14.62-21.44,14.62-2.96,0-3.29,3.55,.84,3.55,6.94,0,6.28,9.06,15.11,12.3,2.12,3.35,6.45,7.37,9.88,8.73-.84-1.21-1.8-2.79-2.67-4.32,1.26,.67,2.52,1.18,3.63,1.42-1.24-1.27-2.76-3.13-4-4.7,.14,0,.28,0,.42,0,.82,0,1.6-.02,2.35-.06,4.49,1.32,14.51,6.45,15.63,5.63,1.21-.89-2.96-5.78-.53-12.08,1.16-1.95,1.55-4.08,1.73-6.01,4.38,.43,7.63,4.92,8.77,4.92,1.27,0-.72-4.3-.59-7.35,.08-1.82,1.94-4.7,3.04-7.18,.72-1.63-7.48,4.12-11.73,3.66-1.19-3.48-3.88-7.77-7.59-10.64-4.63-10.88,10.91-15.22,20.59-21.31Z"/><path class="cls-1" d="M534,654.69c1.68-2.61,3.54-5.03,5.21-7.26,1.3-1.86,2.98-3.35,3.91-5.4,.56-1.12,1.3-2.23,2.05-3.17,1.12-1.49,2.42-2.79,4.1-3.35,2.79-1.12,4.84-3.17,7.08-5.03,1.86-1.68,3.35-3.35,4.66-5.4,.74-1.3,1.3-2.79,1.86-4.1,1.12-2.23,1.3-4.66,2.05-7.08,1.12-4.1,2.79-7.82,4.84-11.55,1.49-2.79,2.61-5.77,3.17-9.12,.56-2.98,.19-5.77,.37-8.57,0-1.12-.93-1.12-1.49-1.49s-.74,.37-.93,.74c-.93,1.3-2.23,2.42-3.17,3.54-2.05,2.23-3.91,4.47-4.84,7.45-.93,2.98-1.86,5.96-2.61,8.94-.56,2.42-1.68,4.66-2.98,6.7-.56,.74-1.12,1.49-1.68,2.05-.56,.74-.74,1.86-1.12,2.61-.74,2.23-2.05,3.91-3.72,5.77-.19-2.05-.74-3.72-1.86-5.4-1.12-1.86-2.79-2.98-4.28-4.47-1.68-1.68-3.54-3.17-5.21-4.66-.19-.19-.37-.37-.56-.37-.56-.37-1.12-.74-1.12-1.49,.19-1.12,.37-2.05,1.68-2.61,2.23-.93,4.47-2.05,6.52-3.54,2.42-1.86,4.47-3.91,6.33-6.33,2.05-2.79,2.98-5.77,3.35-9.12,.19-2.23-.19-4.66,.19-6.89,.19-1.68,.56-3.35,1.68-4.84,.37-.37,.56-.93,.74-1.49,.93-1.86,2.79-2.79,4.28-3.91,1.3-.93,1.3-2.98-.19-3.72-1.3-.74-2.61-.37-3.72,.74-1.49,1.49-2.98,3.17-4.84,4.28-1.12,.74-1.86,1.86-2.61,2.98-1.12,1.68-2.05,3.72-2.98,5.59-.74,1.86-1.12,3.54-1.49,5.59-.37,2.42-1.12,4.84-2.23,7.08-.56,1.12-1.49,1.49-2.61,1.86-2.98,1.12-5.77,2.61-7.64,5.4-.93,1.49-1.49,2.98-2.05,4.66q-.56,1.3-1.49,.56c-1.3-.93-2.42-2.05-3.72-2.98-1.49-.93-2.05-2.79-2.42-4.47-.56-2.05-.56-4.1-.19-6.33,0-.37,.19-.74,.37-1.3,.93-2.61,2.79-4.1,5.21-5.4,3.35-1.86,6.7-3.91,9.31-6.7,2.42-2.61,4.28-5.4,5.03-8.75,.37-1.3,.37-2.61,.37-3.91,0-.56,.19-.93,.74-1.3,4.1-1.86,7.26-4.84,10.43-8.19,1.49-1.49,1.86-3.54,2.42-5.59,.56-2.23,1.49-4.47,2.98-6.33,1.3-1.49,3.17-2.42,4.66-3.54,1.68-1.3,3.54-2.23,4.84-3.91,1.3-1.49,.93-2.61,0-3.72-1.3-1.68-3.54-2.05-5.59-.93-1.68,.93-3.35,2.05-5.21,2.61-1.12,.37-2.23,.56-3.35,1.12-.93,.56-1.49,1.12-2.05,2.05-.93,1.68-2.05,3.35-2.79,5.03-.74,1.68-1.12,3.54-1.86,5.21-.74,1.49-1.12,3.17-1.3,4.84-.19,1.68-1.49,2.79-2.61,3.72-.56,.56-1.12,.93-1.68,1.3-.56,.56-.74,.37-.93-.37-.19-1.49-.74-2.79-1.3-3.91-.74-1.49-1.49-3.17-2.05-4.84-.93-2.79-2.23-5.4-2.79-8.19-.19-1.49-.56-2.98-.56-4.47,0-1.68-2.23-3.91-4.1-3.91s-3.91,0-5.77,.56c-1.12,.37-2.23,0-3.35-.19-1.49-.37-2.98-.93-4.47-1.49-.19,0-.37-.19-.56-.37-1.3-1.12-2.79-2.05-4.1-2.98-.37-.37-.93-.37-1.49-.56-2.05-.37-3.35-1.68-4.47-3.17-.37-.37-2.05-.19-2.23,.19-.74,1.12-.37,2.61,.56,3.54,1.68,1.68,3.35,3.35,4.28,5.77,.56,1.49,.56,2.98,.74,4.47,.37,2.23,1.68,3.91,3.17,5.59,2.79,2.79,6.33,3.54,10.06,3.91,2.23,.19,4.66,.19,6.89,.74,1.12,.19,1.86,.93,2.61,1.49,1.12,.74,1.68,1.86,2.05,3.35,.74,3.17,2.05,6.15,2.79,9.5,.93,3.17,.75,5.59-1.12,8.01-2.23,2.61-4.47,5.03-7.82,6.15-1.68,.56-3.17,1.3-4.47,2.42-.56,.37-.93,1.12-1.49,.74-.37-.19-.19-1.12-.19-1.86-.19-3.54-3.54-8.38-8.01-8.01-3.17,.19-6.15-.37-9.12-1.12-1.49-.37-2.61-1.49-3.35-2.61-.56-.93-1.3-1.68-1.86-2.79-.19-.37-.56-.56-.93-.56-.74-.37-1.12-.93-1.3-1.68-.37-1.86-.93-2.42-2.79-2.42-1.3,0-1.49,.19-1.12,1.49,.37,1.49,.56,3.17,.56,4.66,0,2.98,.19,5.96,1.68,8.57,.93,1.68,2.42,2.61,3.91,3.72,3.17,2.05,6.89,2.98,10.62,3.72,3.54,.74,5.59,3.35,6.7,6.7,.19,.37,0,.74-.19,1.12-.93,2.05-1.12,4.1-.93,6.33,.19,1.86,.56,3.54,1.12,5.21,.19,.74,.56,1.3,.93,1.86,2.05,3.54,4.66,6.33,8.38,8.01,1.49,.74,2.61,2.23,3.91,3.17,2.42,1.86,4.84,3.91,7.26,5.96,1.68,1.3,3.17,2.79,4.1,4.84,.56,1.68,.93,3.35,1.49,5.03,.74,2.79,0,5.03-1.3,7.26-2.05,3.54-4.47,6.89-7.08,9.87-.19,.19-.37,.56-.56,.93-.19,1.3-1.12,2.05-2.05,2.79-.56,.56-1.12,1.3-1.49,2.05-.19,.56-.74,.74-1.12,1.12-.37-2.61,.93-4.84,.56-7.45-.37-2.42-.37-4.84-1.12-7.08-.93-2.98-2.79-5.03-5.21-6.89-2.05-1.68-4.47-2.98-6.33-5.03-.19-.19-.56-.56-.56-.93-.93-2.23-1.68-4.66-2.42-6.89-.93-2.79-1.3-5.77-2.23-8.57-.19-.56-.56-1.12-.74-1.68-.19-.19-.37-.56-.19-.74,.37-.74-.19-1.12-.74-1.12s-1.3,.19-1.49,.74c-.93,2.05-1.68,4.28-2.05,6.52-.56,3.35-1.12,6.7,0,10.06,.93,2.79,1.49,5.77,2.79,8.38,.74,1.49,1.68,2.98,2.98,4.28,1.3,1.49,2.42,3.35,3.35,5.21,1.12,2.61,2.42,5.03,3.54,7.64,.56,1.49,1.12,2.98,1.3,4.47,.19,.93,.37,1.86,.74,2.79,.74,1.86,.56,3.91,.74,5.96,.19,1.3-.74,2.79-1.86,3.72-.19,.19-.37,.19-.37,.37-.56,2.23-2.05,4.1-3.17,5.96-1.86,3.17-3.17,6.7-5.03,9.87-.56,1.12-1.3,2.23-1.3,3.72,0,1.3-.56,2.61-1.3,3.72-.37,.56-.74,1.3-.19,2.05,.19,.19,.19,.74,.19,1.12-.19,.74,.74,1.49,1.49,1.12,.74-.19,1.49-.74,2.23-.56,.56,0,.56-.37,.56-.74,0-1.49,.37-2.61,1.49-3.54,.37-.19,.56-.74,.74-1.3,1.12-2.79,2.61-5.21,4.1-7.82,.56-1.12,1.49-2.23,1.68-3.54,0-.19,.19-.56,.19-.56,1.86-1.49,2.61-3.54,3.54-5.59,.19-.37,.56-.74,.93-1.12,.37-.37,.93-.56,.56-1.3,0-.19,1.49-1.68,1.49-1.68,2.42,.37,4.66-.37,6.89-.74,2.05-.19,3.72,.93,5.4,1.86,1.68,.93,3.17,2.05,4.66,2.98,2.23,1.3,4.66,1.49,6.89,.56,1.68-.74,2.79-2.23,3.72-3.72,2.05-3.35,4.84-5.96,7.82-8.57,1.68-1.3,3.35-2.79,5.21-3.91,.74-.37,.74-.93,.19-1.49-1.12-1.12-1.68-2.42-2.61-3.54-2.61-2.98-6.7-2.79-9.31,0-.93,1.12-1.86,2.42-2.61,3.91-.56,1.3-1.68,2.42-2.79,3.54-.93,.93-2.23,.93-3.54,.74-1.12-.19-2.23-.56-3.17-.93-3.35-1.3-6.7-.74-9.87,.74-1.11,.19-2.04,.93-3.35,.93h0Z"/></g></svg>