<?xml version="1.0" encoding="UTF-8"?><svg id="Background" xmlns="http://www.w3.org/2000/svg" viewBox="0 0 1920 1080"><defs><style>.cls-1{fill:#0a3147;}</style></defs><g id="Layer_1"><path class="cls-1" d="M0,891.26c82.56-40.93,101.77-44.48,137.51-21.24,48,31.22,58.48,89.42,148.6,111.83,126.75,31.52,64.05,25.49,176.17-3.06,105.43-26.85,62.07,43.9,177.7,19.68,115.63-24.22,133.09,52.04,291.89,46.57,63.4-2.18,3.72,8.25,125.55-27.53,73.02-21.45,101.28-88.89,159.32-55.91,110.55,62.81,188.31-6.1,242.3,14.15,57.99,21.75,154.21-63.02,183.83-81.73,51.9-32.78,59.1-57.64,129.7-47.97,34.19,4.68,98.55,72,147.43,45.21v188.74H0v-188.74"/><path class="cls-1" d="M472.59,860.41c-20.37,14.98-33.07,5.96-55.55,5.85-9.99-.05-23.06,7.81-34.52,16.55,6.91-14.71,11.2-28.59,12.55-43.04,14.62-17.8,33.98-41.29,49.69-65.92,27.28-42.77,20.92-107.48,20.92-107.48,0,0-5.62,20.12-17.2,47.69-9.6,22.84-28.27,46.56-56.72,76.41-2.43-28.6-1.25-66.58,24.62-116.55,0,0-49.98,32.11-50.64,91.81-.23,20.66,.29,37.43,.36,51.9-14.12,18.47-24.31,46.27-31.4,72.52,1.75-9.16,3.62-19.36,5.6-30.73,16.28-93.4-3.07-115.39-10.58-165.63-7.51-50.25,16.57-99.72,16.57-99.72,0,0-29.48,29.55-38.91,74.79-9.43,45.24,10.06,92.52,17.52,143.47,5.44,37.11-13.44,96.91-24.1,126.68,1.58-19.82,6.03-49.97,12.95-108.46,10.8-91.32-78.87-198.08-78.87-198.08,12.72,48.85,32.81,60.08,52.79,134.24,6.77,25.12,8.31,49.3,7.24,71.79-7.98-27.9-29.25-51.07-52.85-71.71-9.18-15.66-17.3-28.96-19.06-44.92-2.97-26.84,9.83-45.22,9.83-45.22,0,0-26.94,5.07-22.55,46.74,.36,3.49,.91,6.72,1.56,9.77-19.65-34.19-25.72-79.76-25.72-79.76,0,0-16.65,40.69,3.74,85.91,9.98,22.14,30.98,46.13,50.09,68.25,1.14,7.18,1.81,15.34,1.81,24.81,0,27.4-3.98,47.52-6.36,65.3-1.39-1.24-2.8-2.42-4.24-3.48-33.06-24.49-53.22-44.4-59.4-62.61-6.18-18.21-13.05-31.64-13.05-31.64,0,0-.12,52.93,24.85,80.33,15.82,17.37,36.26,36.06,50.86,51.22,1.2,9.1,3.94,18.46,9.14,28.87,21.21,42.43,58.87,48.6,58.87,48.6l-.05-.11c1.31,.26,2.49,.09,3.45-.64,.8-.61,1.38-1.33,1.84-2.1,4.57,3.03,11.78-2.44,17.21-11.78,0,0,30.6-33.48,46.95-62.7,16.35-29.22,42.31-23.33,83.16-35.49,40.86-12.16,58.85-76.79,58.85-76.79,0,0-20.89,26.08-41.26,41.07h0Zm-204.08,85.54c-3.09-6.36-6.52-12.85-10.25-19.1-2.41-33.08,5.65-62.38,6.91-88.51,7.79,10.69,13.08,20.27,13.67,28.07,1.52,20.35-5.83,58.64-10.33,79.55h0Z"/><path class="cls-1" d="M689.17,917.25c-.52-2.23-1.13-5.17-1.4-7.67,.28-2.5,.88-5.44,1.4-7.67,.45-1.95-.25-2.34-1.87-1.16-2.44,1.77-6.53,4.12-12.38,5.49-1.28,.3-2.44,.39-3.53,.32,1.06-.46,2.19-1.26,2.21-2.59,.04-2.29-31.82-23.87-59.15-11.35-.15,.06-.3,.13-.45,.19-.61,.28-1.19,.59-1.76,.9-.08,.04-.16,.08-.24,.12h.01c-6.06,3.45-9.9,8.93-12.16,14.42-.23,.56-.14,1.07,.18,1.14l.58,.13s-.25,.12-.58,.13c-1.27,.05,.5,1.82,.78,2.35,1.62,3.02,5.36,8.32,11.85,12.06h0c25.98,16.63,49.46-3.09,58-7.73,3.37-1.83,1.56-3.4-.05-4.25,1.41-.24,2.83-.24,4.3,.1,5.98,1.4,10.12,4.07,12.54,6.06,1.55,1.27,2.17,.95,1.72-1Z"/><path class="cls-1" d="M1189.28,1000.54c.05,.51-4.36,2.56-4.5,4.5,0,7.72,50.16,8.36,50.16,0,0-11.58-29.58-22.51-45.66-4.5h0Zm-11.58,3.86c0,5.79-34.72,5.79-34.72,0,0-7.72,19.93-15.43,31.51-2.57,.47,.69,3.15,1.16,3.22,2.57h0Zm-23.79-23.79c-3.34,3.34-14.7,7.58-4.5,14.15,8.36-3.86,18.65-2.57,25.72,4.5h12.22c10.29-10.29,24.44-13.5,38.58-7.07,3.86-2.57,8.36-3.86,12.86-3.86-17.36-30.22-64.3-36.01-84.88-7.72h0Zm54.97-18.36c2.57-5.79,5.47-9.3,9.33-13.8,25.72-28.93-8.36-27.01,3.21-61.73,2.57-8.36,5.79-18,.64-30.22,5.79,10.93,3.86,19.29,.64,30.86-10.93,31.51,23.79,32.15-2.57,63.02-3.21,3.86-7.02,7.58-8.95,12.73,.94,.3,1.97,.72,3.2,1.29,.64-2.57,2.54-4.37,5.75-6.94,34.72-31.51-2.57-41.8,9-76.52,1.93-6.43,4.5-12.86,.64-19.93-4.5-7.07-9-11.58-6.43-20.58-5.79,6.43-7.07,12.22-3.86,20.58,4.5,9.65,1.93,15.43-1.29,23.15-15.43,32.15,19.29,40.51-5.14,64.95-3.21,3.86-7,6.78-8.28,11.92,.65,.15,3.64,.96,4.1,1.23h0Zm-17.03-27.3c-5.14,7.72-9.85,15.26-2.77,24.9,1.93,0,4.04,.03,5.28,.1-7.72-9-3.79-14.07,1.36-20.5,12.86-16.07,12.22-30.22-2.57-44.37-7.72-8.36-14.15-14.15,3.86-34.08,7.72-12.86-12.22-18.65-1.93-37.94,2.57-4.5,5.14-8.36-2.57-14.79,1.93,7.72-2.57,10.93-6.43,14.15-17.36,12.86,3.8,25.41-3.16,33.33-17.76,22.24-10.34,34.83-1.99,43.84,12.86,14.15,12.22,21.22,3.21,37.3-4.5,7.72-9,15.43-1.93,23.79,1.48-.27,2.62-.45,4.5-.64-7.07-10.29-2.57-18,3.21-26.36,23.15-39.22-30.86-32.79-3.21-72.02,14.15-19.93-8.36-17.36,.64-32.79-7.07,15.43,14.79,12.22,.64,33.44-25.67,37.22,28.24,32.24,3.86,72.66h0Zm-30.86-36.65c-10.41-18.73,9.39-19.5-5.79-36.01,3.78,18.9-14.21,16.78-5.14,37.94,12.55,20.29-20.58,36.65,9.65,59.16,3.21,1.93,6.38,3.62,7.02,6.83,.96-.53,1.67-.86,2.52-1.21-3.21-5.14-6.33-7.55-9.54-10.13-21.86-16.72,5.79-31.51-5.14-57.87-5.79-14.79,2.57-12.86,3.21-28.29,0,17.36-7.72,11.58-1.93,27.65,11.58,28.93-15.43,40.51,5.14,56.59,3.21,2.57,7.1,5.93,10.32,11.07,.78-.39,2.42-1.02,3.34-1.32-1.29-3.86-4.49-7.04-7.7-9.61-24.65-18.49,5.92-23.49-5.95-54.79h0Zm-16.72,95.17c-5.14-7.72,4.2-10.34,8.04-14.45,1.55-1.83,2.15-2.86,4-4.27-10.29-3.86-34.54,2.64-34.54,13.57,0,6.43,22.51,4.94,22.51,5.15h0Zm84.24,0c3.86,2.57,9.65,7.07,9,12.22,3.86,0,21.86,.64,21.86-4.5-7.18-6.43-15.15-15.3-30.87-7.72Z"/></g></svg>