<?xml version="1.0" encoding="UTF-8"?><svg id="Background" xmlns="http://www.w3.org/2000/svg" viewBox="0 0 1920 1080"><defs><style>.cls-1{fill:#59c1d7;}</style></defs><g id="Layer_5"><path class="cls-1" d="M0,461.23c134.47,3.46,175.07,123.53,325.43,187.68s230.81-13.28,372.77-21.45,192.65,24.22,308.29,0,176.31-91.04,335.12-96.51c111.32-3.83,79.28,57.25,321.61,57.25,120.51,0,159.41-122.36,256.79-126.97v618.77H0V461.23"/><path class="cls-1" d="M715.75,538.67c1.58,4.99,10.19,16.54,16.16,22.07,2.58,1.84,4.71,4.84,8.07,5.22,.31-5.9-2.97-11.46-6-16.45-3.74-6.17-11.44-9.5-14.6-15.98-1.23-2.52-3.87-6.96-1.4-8.29,2.37-1.28,3.26,7.18,5.93,5.49,2.86-1.81-.69-12.65,2.89-11.21,4.15,1.67,3.15,13.89,6.82,20.07,2.07,4.65,9.77,13.12,10.99,3.04,1.58-6.39,3.8-12.89,6.45-18.74,.97-2.15,6.25-10.13,6.46-2.92-1.07,6.46-3.78,12.57-5.75,18.77-1.39,6.78-4.94,13.21-5.12,20.14-.18,7.02,1.88,13.99,4.11,20.65,1.65,4.93,2.66,10.9,6.8,14.05,1.73,1.31,4.63,2.41,6.41,1.16,6.13-4.29,3.2-14.67,3.8-22.14,.63-7.81-3.35-16.32-.24-23.5,3.8-8.77-.81-12.45,3.03-16.96,6.09-2.92,2.23,9.55,8.36,4.62,2.69-3.9,11-2.49,5.39,2.25-5.2,3.69-10.81,8.6-11.25,14.77-.17,2.38-.91,14.49,3.48,6.26,2.69-4.75,6.2-9.12,9.77-13.33,3.23-4.97,2.88-8.74,4.97-12.85,1.43-4.58-.72-18.06,7-14.27-.73,4.81-1.55,14.95,6.22,9.93,2.92-1.32,14.41-3.06,10.77,1.61-3.35,1.99-16.83,4.28-21.55,12.49-1.42,6.9,7.65-1.31,9.37-3.83,1.77-3.27,8.22-5.57,8.44-1.7,.15,2.52-11.93,6.94,1.95,7.32,6.56-.48,15.82,2.16,8.49,5.55-10.58,1.01-22.83-3.34-31.85,4.26-6.6,6.43-20.63,14.77-15.87,22.68,2.37,3.93,9.24-.48,13.67-1.69,6.07-1.66,10.96-6.39,17.33-7.54,7.63-1.31,12.96-7.83,15.86-14.64,4.14-6.32,6.87,.23,3.52,5.26-.59,3.25,8.78,1.47,13.81,1.58,3.26,.07,6.93,3.87,5.3,4.84-6.36,3.77-16.14-4.35-26.41,2.91,1.06,5.77,12.7,.54,17.53,4.1,1.49,1.1,4.47,4.02,2.79,4.79-3.31,1.52-15.98-5.76-7.72,5.11,3.2,6.55-4.81,1.01-6.09-.57-6.15-7.59-12.71-6.52-19.29-5.39-1.75,.3-11.94,2.36-4.36,3.06,6.81,.38,15.26-3.63,20.86,1.52,2.59,2.81,9.47,10.09,5.72,12.95-3.52,2.69-7.28-9.73-10.31-8.37-3.29,.24,3.01,10.73-1.76,10.5-1.99,.96-4.73-8.67-8.92-10.66-5.93-2.82-13.18-3.44-19.7-.24-7.15,1.83-11.72,8.39-16.04,14.04-3.66,4.78-6.58,10.36-7.92,16.22-1.38,6.02-1.95,12.74,.08,18.53-4.5,3.12-15.43,1.03-15.98,.05,3.52-6.06,6.65-12.37,7.34-19.18,.63-6.15,.74-13.38-3-18.31-3.02-3.98-8.6-6.03-13.58-6.34-6.74-.41-13.15,3.39-19.25,6.27-5.19,2.45-10.11,5.58-14.52,9.25-3.32,2.76-3.41,6.86-8.83,9.48-9.43,1.5,4.56-11.63-4.02-6.19-7.49,2.06-3.44-7.53,2.19-6.47,5.02-1.45,13.92-1.37,14.18-6.58,.22-4.44-7.03-6.48-11.46-6.8-8.27-.59-16.07-7.07-9.6-6.72,3.21,.24,3.99,.99,3.01-2.46-.85-6.07,5.98,1.6,9.48,4.31,6.08,4.71,15.15,5.06,22.87,3.02,8.9-2.48-7.16-6.57-10.23-6.18-6.94-.99-22.8-4.68-20.5-7.91,1.97-4.47,9.13,2.75,14.72,2.45,.96-.05,2.89-1.04,2.28-1.78-4.6-5.53-14.21-7.39-11.56-11.97,2.25-1.96,9.15,3.55,12.18,5.34,3.73,1.96,7.12,4.7,10.51,7.13,3.65,2.96,8.44,4.61,12.59,6.93,3.69,3.06,16.68,2.99,10.99-4.09-4.43-5.63-11.42-10.46-18.67-10.99-9.43,.31-16.37-6.84-24.94-9.47-6.59-2.16-13.04-4.83-20.06-4.97-7.69-1.47-1.53-7.16,4.94-4.97,3.15,1.06-5.46-9.13-2.13-9.73,6.21-1.13,10.47,13.15,18.82,14.27,3.24-2.42-.8-6.72-2.11-9.47-4.75-7.33-16.92-15.39-13.48-22.5,1.69-3.5,6.63,4.89,9.36,6.97,2.17-2.4-3.22-10.47,.31-10.57,6.45-.19,5.73,13.98,8.26,20.58,2.5,6.28,5.95,12.11,9.21,17.99,1.72,3.99,13.9,7.67,7.9,.57-6.57-6.95-12.53-13.86-15.98-23.05-.95-4.82-5.86-15.39-.48-16.4,4.89-.92,2.51,14.24,7.3,19.99,.26-1.51,1.8-9.11,4.94-8.34,3.32,.82-1.04,5.26,.54,10.25h0Z"/><path class="cls-1" d="M1579.58,365.01c0-1.7,6.61-7.59,4.64-8.13-6.11-1.66-12.5,5.36-16.07,5.36-1.48,0-3.97-.26-7.11-.67,2.78-2.65-5.39-2.63-14.7-2.23l.22,.06c-2.16-.34-4.38-.69-6.62-1.03,1.4-.83,2.75-1.88,2.44-2.74-.61-1.69-2.45-7.51-3.98-10.88-1.46-3.21-10.82,5.65-15.68,11.14-8.28-1.03-15-1.51-17.26-.62-6.79,2.68-20.92,9.29-20.92,9.29,0,3.04,15.92,13.58,26.82,13.58,5.92,0,14.27,0,21.69-.35,1.91,2.02,6.07,5.78,11.27,6.67-2.05-4.75-4.1-6.84-4.1-6.84,0,0-.17-.11-.45-.28,3.38-.31,6.21-.75,8.03-1.35,.11-.04,.23-.08,.34-.12,4.08,2.62,11.83,6.69,12.18,4.35,.37-2.44,.48-6.49,.57-7.68,.05-.66-1.23-1.12-2.37-1.39,3.11-1.39,6.27-2.48,9.46-2.48,1.44,0,12.28,6.27,16.25,4.29,2.15-1.07-4.64-4.82-4.64-7.95Z"/><path class="cls-1" d="M1738.54,563.47c-.79-1.22-1.66-2.36-2.45-3.41-.61-.88-1.4-1.57-1.84-2.54-.26-.52-.61-1.05-.96-1.49-.52-.7-1.14-1.31-1.92-1.57-1.31-.52-2.27-1.49-3.32-2.36-.88-.79-1.57-1.57-2.19-2.54-.35-.61-.61-1.31-.88-1.92-.52-1.05-.61-2.19-.96-3.32-.52-1.92-1.31-3.67-2.27-5.42-.7-1.31-1.22-2.71-1.49-4.29-.26-1.4-.09-2.71-.18-4.03,0-.52,.44-.52,.7-.7s.35,.18,.44,.35c.44,.61,1.05,1.14,1.49,1.66,.96,1.05,1.84,2.1,2.27,3.5,.44,1.4,.88,2.8,1.22,4.2,.26,1.14,.79,2.19,1.4,3.15,.26,.35,.52,.7,.79,.96,.26,.35,.35,.88,.52,1.22,.35,1.05,.96,1.84,1.75,2.71,.09-.96,.35-1.75,.88-2.54,.52-.88,1.31-1.4,2.01-2.1,.79-.79,1.66-1.49,2.45-2.19,.09-.09,.18-.18,.26-.18,.26-.18,.52-.35,.52-.7-.09-.52-.18-.96-.79-1.22-1.05-.44-2.1-.96-3.06-1.66-1.14-.88-2.1-1.84-2.97-2.97-.96-1.31-1.4-2.71-1.57-4.29-.09-1.05,.09-2.19-.09-3.24-.09-.79-.26-1.57-.79-2.27-.18-.18-.26-.44-.35-.7-.44-.88-1.31-1.31-2.01-1.84-.61-.44-.61-1.4,.09-1.75,.61-.35,1.22-.18,1.75,.35,.7,.7,1.4,1.49,2.27,2.01,.52,.35,.88,.88,1.22,1.4,.52,.79,.96,1.75,1.4,2.63,.35,.88,.52,1.66,.7,2.63,.18,1.14,.52,2.27,1.05,3.32,.26,.52,.7,.7,1.22,.88,1.4,.52,2.71,1.22,3.59,2.54,.44,.7,.7,1.4,.96,2.19q.26,.61,.7,.26c.61-.44,1.14-.96,1.75-1.4,.7-.44,.96-1.31,1.14-2.1,.26-.96,.26-1.92,.09-2.97,0-.18-.09-.35-.18-.61-.44-1.22-1.31-1.92-2.45-2.54-1.57-.88-3.15-1.84-4.37-3.15-1.14-1.22-2.01-2.54-2.36-4.11-.18-.61-.18-1.22-.18-1.84,0-.26-.09-.44-.35-.61-1.92-.88-3.41-2.27-4.9-3.85-.7-.7-.88-1.66-1.14-2.63-.26-1.05-.7-2.1-1.4-2.97-.61-.7-1.49-1.14-2.19-1.66-.79-.61-1.66-1.05-2.27-1.84-.61-.7-.44-1.22,0-1.75,.61-.79,1.66-.96,2.63-.44,.79,.44,1.57,.96,2.45,1.22,.52,.18,1.05,.26,1.57,.52,.44,.26,.7,.52,.96,.96,.44,.79,.96,1.57,1.31,2.36,.35,.79,.52,1.66,.88,2.45,.35,.7,.52,1.49,.61,2.27,.09,.79,.7,1.31,1.22,1.75,.26,.26,.52,.44,.79,.61,.26,.26,.35,.18,.44-.18,.09-.7,.35-1.31,.61-1.84,.35-.7,.7-1.49,.96-2.27,.44-1.31,1.05-2.54,1.31-3.85,.09-.7,.26-1.4,.26-2.1,0-.79,1.05-1.84,1.92-1.84s1.84,0,2.71,.26c.52,.18,1.05,0,1.57-.09,.7-.18,1.4-.44,2.1-.7,.09,0,.18-.09,.26-.18,.61-.52,1.31-.96,1.92-1.4,.18-.18,.44-.18,.7-.26,.96-.18,1.57-.79,2.1-1.49,.18-.18,.96-.09,1.05,.09,.35,.52,.18,1.22-.26,1.66-.79,.79-1.57,1.57-2.01,2.71-.26,.7-.26,1.4-.35,2.1-.18,1.05-.79,1.84-1.49,2.63-1.31,1.31-2.97,1.66-4.72,1.84-1.05,.09-2.19,.09-3.24,.35-.52,.09-.88,.44-1.22,.7-.52,.35-.79,.88-.96,1.57-.35,1.49-.96,2.89-1.31,4.46-.44,1.49-.35,2.63,.52,3.77,1.05,1.22,2.1,2.36,3.67,2.89,.79,.26,1.49,.61,2.1,1.14,.26,.18,.44,.52,.7,.35,.18-.09,.09-.52,.09-.88,.09-1.66,1.66-3.94,3.76-3.76,1.49,.09,2.89-.18,4.29-.52,.7-.18,1.22-.7,1.57-1.22,.26-.44,.61-.79,.88-1.31,.09-.18,.26-.26,.44-.26,.35-.18,.52-.44,.61-.79,.18-.88,.44-1.14,1.31-1.14,.61,0,.7,.09,.52,.7-.18,.7-.26,1.49-.26,2.19,0,1.4-.09,2.8-.79,4.03-.44,.79-1.14,1.22-1.84,1.75-1.49,.96-3.24,1.4-4.99,1.75-1.66,.35-2.63,1.57-3.15,3.15-.09,.18,0,.35,.09,.52,.44,.96,.52,1.92,.44,2.97-.09,.88-.26,1.66-.52,2.45-.09,.35-.26,.61-.44,.88-.96,1.66-2.19,2.97-3.94,3.76-.7,.35-1.22,1.05-1.84,1.49-1.14,.88-2.27,1.84-3.41,2.8-.79,.61-1.49,1.31-1.92,2.27-.26,.79-.44,1.57-.7,2.36-.35,1.31,0,2.36,.61,3.41,.96,1.66,2.1,3.24,3.32,4.64,.09,.09,.18,.26,.26,.44,.09,.61,.52,.96,.96,1.31,.26,.26,.52,.61,.7,.96,.09,.26,.35,.35,.52,.52,.18-1.22-.44-2.27-.26-3.5,.18-1.14,.18-2.27,.52-3.32,.44-1.4,1.31-2.36,2.45-3.24,.96-.79,2.1-1.4,2.97-2.36,.09-.09,.26-.26,.26-.44,.44-1.05,.79-2.19,1.14-3.24,.44-1.31,.61-2.71,1.05-4.03,.09-.26,.26-.52,.35-.79,.09-.09,.18-.26,.09-.35-.18-.35,.09-.52,.35-.52s.61,.09,.7,.35c.44,.96,.79,2.01,.96,3.06,.26,1.57,.52,3.15,0,4.72-.44,1.31-.7,2.71-1.31,3.94-.35,.7-.79,1.4-1.4,2.01-.61,.7-1.14,1.57-1.57,2.45-.52,1.22-1.14,2.36-1.66,3.59-.26,.7-.52,1.4-.61,2.1-.09,.44-.18,.88-.35,1.31-.35,.88-.26,1.84-.35,2.8-.09,.61,.35,1.31,.88,1.75,.09,.09,.18,.09,.18,.18,.26,1.05,.96,1.92,1.49,2.8,.88,1.49,1.49,3.15,2.36,4.64,.26,.52,.61,1.05,.61,1.75,0,.61,.26,1.22,.61,1.75,.18,.26,.35,.61,.09,.96-.09,.09-.09,.35-.09,.52,.09,.35-.35,.7-.7,.52-.35-.09-.7-.35-1.05-.26-.26,0-.26-.18-.26-.35,0-.7-.18-1.22-.7-1.66-.18-.09-.26-.35-.35-.61-.52-1.31-1.22-2.45-1.92-3.67-.26-.52-.7-1.05-.79-1.66,0-.09-.09-.26-.09-.26-.88-.7-1.22-1.66-1.66-2.63-.09-.18-.26-.35-.44-.52-.18-.18-.44-.26-.26-.61,0-.09-.7-.79-.7-.79-1.14,.18-2.19-.18-3.24-.35-.96-.09-1.75,.44-2.54,.88-.79,.44-1.49,.96-2.19,1.4-1.05,.61-2.19,.7-3.24,.26-.79-.35-1.31-1.05-1.75-1.75-.96-1.57-2.27-2.8-3.67-4.03-.79-.61-1.57-1.31-2.45-1.84-.35-.18-.35-.44-.09-.7,.52-.52,.79-1.14,1.22-1.66,1.22-1.4,3.15-1.31,4.37,0,.44,.52,.88,1.14,1.22,1.84,.26,.61,.79,1.14,1.31,1.66,.44,.44,1.05,.44,1.66,.35,.52-.09,1.05-.26,1.49-.44,1.57-.61,3.15-.35,4.64,.35,.52,.09,.96,.44,1.57,.44h0Z"/><path class="cls-1" d="M1701.62,590.85c.79-1.22,1.66-2.36,2.45-3.41,.61-.88,1.4-1.57,1.84-2.54,.26-.52,.61-1.05,.96-1.49,.52-.7,1.14-1.31,1.92-1.57,1.31-.52,2.27-1.49,3.32-2.36,.88-.79,1.57-1.57,2.19-2.54,.35-.61,.61-1.31,.88-1.92,.52-1.05,.61-2.19,.96-3.32,.52-1.92,1.31-3.67,2.27-5.42,.7-1.31,1.22-2.71,1.49-4.29,.26-1.4,.09-2.71,.18-4.03,0-.52-.44-.52-.7-.7s-.35,.18-.44,.35c-.44,.61-1.05,1.14-1.49,1.66-.96,1.05-1.84,2.1-2.27,3.5-.44,1.4-.88,2.8-1.22,4.2-.26,1.14-.79,2.19-1.4,3.15-.26,.35-.52,.7-.79,.96-.26,.35-.35,.88-.52,1.22-.35,1.05-.96,1.84-1.75,2.71-.09-.96-.35-1.75-.88-2.54-.52-.88-1.31-1.4-2.01-2.1-.79-.79-1.66-1.49-2.45-2.19-.09-.09-.18-.18-.26-.18-.26-.18-.52-.35-.52-.7,.09-.52,.18-.96,.79-1.22,1.05-.44,2.1-.96,3.06-1.66,1.14-.88,2.1-1.84,2.97-2.97,.96-1.31,1.4-2.71,1.57-4.29,.09-1.05-.09-2.19,.09-3.24,.09-.79,.26-1.57,.79-2.27,.18-.18,.26-.44,.35-.7,.44-.88,1.31-1.31,2.01-1.84,.61-.44,.61-1.4-.09-1.75-.61-.35-1.22-.18-1.75,.35-.7,.7-1.4,1.49-2.27,2.01-.52,.35-.88,.88-1.22,1.4-.52,.79-.96,1.75-1.4,2.63-.35,.88-.52,1.66-.7,2.63-.18,1.14-.52,2.27-1.05,3.32-.26,.52-.7,.7-1.22,.88-1.4,.52-2.71,1.22-3.59,2.54-.44,.7-.7,1.4-.96,2.19q-.26,.61-.7,.26c-.61-.44-1.14-.96-1.75-1.4-.7-.44-.96-1.31-1.14-2.1-.26-.96-.26-1.92-.09-2.97,0-.18,.09-.35,.18-.61,.44-1.22,1.31-1.92,2.45-2.54,1.57-.88,3.15-1.84,4.37-3.15,1.14-1.22,2.01-2.54,2.36-4.11,.18-.61,.18-1.22,.18-1.84,0-.26,.09-.44,.35-.61,1.92-.88,3.41-2.27,4.9-3.85,.7-.7,.88-1.66,1.14-2.63,.26-1.05,.7-2.1,1.4-2.97,.61-.7,1.49-1.14,2.19-1.66,.79-.61,1.66-1.05,2.27-1.84,.61-.7,.44-1.22,0-1.75-.61-.79-1.66-.96-2.63-.44-.79,.44-1.57,.96-2.45,1.22-.52,.18-1.05,.26-1.57,.52-.44,.26-.7,.52-.96,.96-.44,.79-.96,1.57-1.31,2.36-.35,.79-.52,1.66-.88,2.45-.35,.7-.52,1.49-.61,2.27-.09,.79-.7,1.31-1.22,1.75-.26,.26-.52,.44-.79,.61-.26,.26-.35,.18-.44-.18-.09-.7-.35-1.31-.61-1.84-.35-.7-.7-1.49-.96-2.27-.44-1.31-1.05-2.54-1.31-3.85-.09-.7-.26-1.4-.26-2.1,0-.79-1.05-1.84-1.92-1.84s-1.84,0-2.71,.26c-.52,.18-1.05,0-1.57-.09-.7-.18-1.4-.44-2.1-.7-.09,0-.18-.09-.26-.18-.61-.52-1.31-.96-1.92-1.4-.18-.18-.44-.18-.7-.26-.96-.18-1.57-.79-2.1-1.49-.18-.18-.96-.09-1.05,.09-.35,.52-.18,1.22,.26,1.66,.79,.79,1.57,1.57,2.01,2.71,.26,.7,.26,1.4,.35,2.1,.18,1.05,.79,1.84,1.49,2.63,1.31,1.31,2.97,1.66,4.72,1.84,1.05,.09,2.19,.09,3.24,.35,.52,.09,.88,.44,1.22,.7,.52,.35,.79,.88,.96,1.57,.35,1.49,.96,2.89,1.31,4.46,.44,1.49,.35,2.63-.52,3.77-1.05,1.22-2.1,2.36-3.67,2.89-.79,.26-1.49,.61-2.1,1.14-.26,.18-.44,.52-.7,.35-.18-.09-.09-.52-.09-.88-.09-1.66-1.66-3.94-3.76-3.76-1.49,.09-2.89-.18-4.29-.52-.7-.18-1.22-.7-1.57-1.22-.26-.44-.61-.79-.88-1.31-.09-.18-.26-.26-.44-.26-.35-.18-.52-.44-.61-.79-.18-.88-.44-1.14-1.31-1.14-.61,0-.7,.09-.52,.7,.18,.7,.26,1.49,.26,2.19,0,1.4,.09,2.8,.79,4.03,.44,.79,1.14,1.22,1.84,1.75,1.49,.96,3.24,1.4,4.99,1.75,1.66,.35,2.63,1.57,3.15,3.15,.09,.18,0,.35-.09,.52-.44,.96-.52,1.92-.44,2.97,.09,.88,.26,1.66,.52,2.45,.09,.35,.26,.61,.44,.88,.96,1.66,2.19,2.97,3.94,3.76,.7,.35,1.22,1.05,1.84,1.49,1.14,.88,2.27,1.84,3.41,2.8,.79,.61,1.49,1.31,1.92,2.27,.26,.79,.44,1.57,.7,2.36,.35,1.31,0,2.36-.61,3.41-.96,1.66-2.1,3.24-3.32,4.64-.09,.09-.18,.26-.26,.44-.09,.61-.52,.96-.96,1.31-.26,.26-.52,.61-.7,.96-.09,.26-.35,.35-.52,.52-.18-1.22,.44-2.27,.26-3.5-.18-1.14-.18-2.27-.52-3.32-.44-1.4-1.31-2.36-2.45-3.24-.96-.79-2.1-1.4-2.97-2.36-.09-.09-.26-.26-.26-.44-.44-1.05-.79-2.19-1.14-3.24-.44-1.31-.61-2.71-1.05-4.03-.09-.26-.26-.52-.35-.79-.09-.09-.18-.26-.09-.35,.18-.35-.09-.52-.35-.52s-.61,.09-.7,.35c-.44,.96-.79,2.01-.96,3.06-.26,1.57-.52,3.15,0,4.72,.44,1.31,.7,2.71,1.31,3.94,.35,.7,.79,1.4,1.4,2.01,.61,.7,1.14,1.57,1.57,2.45,.52,1.22,1.14,2.36,1.66,3.59,.26,.7,.52,1.4,.61,2.1,.09,.44,.18,.88,.35,1.31,.35,.88,.26,1.84,.35,2.8,.09,.61-.35,1.31-.88,1.75-.09,.09-.18,.09-.18,.18-.26,1.05-.96,1.92-1.49,2.8-.88,1.49-1.49,3.15-2.36,4.64-.26,.52-.61,1.05-.61,1.75,0,.61-.26,1.22-.61,1.75-.18,.26-.35,.61-.09,.96,.09,.09,.09,.35,.09,.52-.09,.35,.35,.7,.7,.52,.35-.09,.7-.35,1.05-.26,.26,0,.26-.18,.26-.35,0-.7,.18-1.22,.7-1.66,.18-.09,.26-.35,.35-.61,.52-1.31,1.22-2.45,1.92-3.67,.26-.52,.7-1.05,.79-1.66,0-.09,.09-.26,.09-.26,.88-.7,1.22-1.66,1.66-2.63,.09-.18,.26-.35,.44-.52,.18-.18,.44-.26,.26-.61,0-.09,.7-.79,.7-.79,1.14,.18,2.19-.18,3.24-.35,.96-.09,1.75,.44,2.54,.88,.79,.44,1.49,.96,2.19,1.4,1.05,.61,2.19,.7,3.24,.26,.79-.35,1.31-1.05,1.75-1.75,.96-1.57,2.27-2.8,3.67-4.03,.79-.61,1.57-1.31,2.45-1.84,.35-.18,.35-.44,.09-.7-.52-.52-.79-1.14-1.22-1.66-1.22-1.4-3.15-1.31-4.37,0-.44,.52-.88,1.14-1.22,1.84-.26,.61-.79,1.14-1.31,1.66-.44,.44-1.05,.44-1.66,.35-.52-.09-1.05-.26-1.49-.44-1.57-.61-3.15-.35-4.64,.35-.52,.09-.96,.44-1.57,.44h0Z"/><path class="cls-1" d="M1142.25,585.72s-2.23-2.12-3.23-6.11c-.77-3.08,.15-7.02,.71-8.23,.73-1.59,1.86-3.39,6.17-3.65,4.31-.27,8.75,1.62,9.36,1.86,1.99,.77,4,1.59,7.35,.82,3.27-.75,3.66-1.72,3.41-2.28-.13-.28-.56-.42-.94-.47-.26-.04-.38-.3-.27-.54,.49-1.12-.43-1.74-.86-1.33-.71,.67-1.53,1.48-2.32,1.12-.86-.4-.94-1.9-.07-2.21,1.96-.68,2.52-2.03,1.48-2.54-.78-.38-1.01,.28-1.53,.07-.45-.17-.18-.51-.47-.93-.26-.39-1.34-.61-1.61,.38-.28,1.06-.03,2.61-.76,3.34-.73,.73-2.57,.66-2.94-.83-.27-1.1,.86-2.49,2.26-3.02,1.39-.53,3.54-.93,3.62-1.96,.07-.86-.88-1.02-.65-1.45,.19-.36-.36-1.02-.66-.86-.46,.12-.72-.03-.47-.6,.2-.47-.81-.98-1.06-.53-.04,.08-.21,.3-.27,.38-.24,.31-.53,.05-.54-.33-.01-.45,.06-.93-.03-1.22-.14-.43-1.36-.62-1.5,.71-.07,.68-.17,1.11-.3,1.44-.11,.28-.65,.7-.95,.07-.36-.75-.03-1.53-.5-1.79-.84-.48-1.43-.18-1.73,.68-.1,.29-.6,.42-.78,.2-.75-.94-1.85-.93-2.2-.39-.8,1.23,1.03,3.58-1.89,3.02-1.21-.23,.87-2.45,.1-2.95-.53-.35-.72,.64-1.13,.18-.45-.51-.53-1.15-1.15-.84-.83,.41,.18,1.64-.75,1.86-.59,.14-1.18-1.19-1.98-.6-.74,.55,1.03,1.86-.61,1.91-.61,.02-.83,1.13,.43,1.13,2.09,0,3,2.31,1.51,4.43-1.49,2.11-2.36,1.13-5.19,4.41-2.43,2.82-2.28,7.51-3.76,7.48-.97-.02-1.55-4.78-1.55-6.5,0-2.34-.62-8.69,5.75-13.94,4.03-3.32,9.29-2.99,12.35-2.79,6.59,.44,9.54-.04,11.62-1.77,1.57-1.31,1.5-2.43,.3-2.55-.33-.03-.46-.46-.15-.76,.49-.49,.42-1.42-.29-1.5-.99-.12-3.72,2.54-4.69-.29-.98-2.85,4.04-3.91,5.53-4.67,1.26-.64,.58-2.5-.27-2.39-.79,.1-2.51,.61-1.75-1.42,.6-1.59-2.06-2.41-2.5-1.31-.44,1.1-1.64,4.93-3.03,4.6-1.36-.33-1.79-2.4-.4-4.38,1.75-2.49,.32-2.56-.36-2.24-.13,.06-.33,.04-.33-.15,0-.58-.15-.88-.82-.79-.84,.11-.38,1.86-1.34,1.59-.69-.19-.24-1.93-.24-2.62,0-.83-.86-1.25-1.39-.72-.38,.38-.13,1.26-.51,1.29-.35,.07-.58-.83-.85-1.08-.47-.43-1.68,.13-1.26,1.46,.49,1.55,4.65,5.44,2.09,6.9-1.86,1.06-3.82-4.15-4.86-4.28-.75-.1-1.17,.5-1.1,1.35,.03,.4-.13,.63-.44,.45-1.05-.57-2.23-.07-1.84,1.25,.31,1.06,4.3,2.36,4.23,5.56-.1,4.89-3.27,5.31-7.61,8.32-.93,.65-4.17,3.78-5.31,3.54-2.92-.62,6.77-16.58,8.14-27.79,.44-3.63,.33-5.92,.32-6.66-.02-1.24-1.86-1.35-2.17-.04-.2,.66-.71,.4-.76,.02-.1-.7-.5-1.09-1.12-.93-.72,.18-1.13,.58-.82,1.95,.24,1.05,.32,1.99-.42,2.06-1.22,.11-1.54-2.23-1.68-3.83-.11-1.24-.46-1.75-1.37-1.53-.91,.22-.06,1.59-1.13,1.7-.59,.03-.71-1.34-1.7-1.19-.77,.11-1.99,1.39-.93,2.32,1.06,.93,7.56,5.21,5.26,7.59-1.96,1.75-4.75-1.88-5.37-2.64-.75-.94-4.37-5.82-5.6-5.22-1.31,.64,.43,1.76-.13,2.65-.62,.98-2.29-.4-2.52,1.13-.12,.8,1.73,.93,1.29,1.79-.4,.5-1.08,.53-1.59,.6-.76,.1-1.16,1.59,.07,2.09,1.07,.44,5.03-1.41,6.7,1.16,.93,1.43,.63,2.85-.63,2.65-1.26-.2-5.81-2.01-6.53-1.22-.8,.88,.74,1.19,.42,1.93-.13,.31-.38,.4-.95,.49-.62,.09-.71,.94,.13,1.39,2.34,1.28,9.42-.63,12.73,1.19,4.08,2.26-.78,10.67-3.45,17.7-1.68,4.43-7.88,5.22-10,.62-2.7-5.85-2.28-8.51-.74-11.83,2.31-5,1.68-5.63,1.15-5.96-.91-.57-1.38-.34-2.05,.22-1.33,1.12-1.83,.3-2.3-.5-.56-.95-1.33-.88-1.76-.82-.89,.14-1.86,.66-1,2.99,.86,2.32,4.49,13.31,1.78,13.64-7.21,.88-6.72-14.96-7.52-16.06-.4-1.11-2.26-.49-2.21,.35,0,.88,.66,2.54-.8,3.41-1.46,.86-2.83-1.3-4.34-3.14-1.19-1.46-2.62,.25-1.78,1.41,.68,.94,.32,1.39-.27,1.29-1.06-.17-2.95-.07-2.78,1.86,.13,1.4,10.74,6.45,7.99,9.63-2.02,1.46-7.36-2.6-8.3-5.07-.49-1.28-1.24-1.73-2.08-.97-1.62,1.45,.35,1.97-.18,2.81-.36,.57-1.28,.29-1.79,.38-.93,.16-1.46,1.36-.8,2.32,.53,.77,2.52-.18,3.98,.49s3.78,2.04,2.72,3.5c-1.79,1.92-3.58,.07-5.97-1.46s-3.09-2.07-3.52-1.13c-.31,.69,.82,.82,.33,1.46-.38,.42-.82,.11-1.08,.13-.69,.07-.86,.8-.38,1.26,.28,.26,.75,.3,1.04,.44,.49,.24,.6,.97,0,1.55-.72,.69-2.19,.27-2.37,1.02-.1,.6-.08,1.05,.84,1.25,.27,.06,.49,.34,.2,.61-.62,.6-.6,1.39,.38,1.68,1.46,.43,5.3-2.03,6.55-2.01,3.72,.04,5.28,4.26,1.65,6.09-1.83,.92-4.12-.25-5.13,.43-.99,.67-.56,1.26,.11,1.83,.37,.37,.21,.59-.33,1.27-.53,.65-.1,1.73,.89,1.44,.96-.28,1.15-.73,1.81,0,.66,.73,.45,.93,.27,1.86-.19,.98,.02,1.23,.81,1.34,.33,.05,.51-.71,.75-.68,.37,.05,.11,.89,.7,1,.85,.15,1.12-1.76,1.48-3.19,.3-1.22,1.39-3.19,1.99-3.89,1.55-1.82,3.99-1.56,4.34,.63,.28,1.75-.84,3.98-.04,4.39,1.62,.82,1.51-1.84,2.52-1.46,.82,.31,.43,1.43,1.22,1.66,.75,.22,1.62-.33,1.62-1.99s0-5.1,1.75-6.97c1.92-2.06,6.7-4.05,12.15-.6,5.44,3.45,5.38,2.79,8.63,8.43,1.27,2.2,3.23,7.69,4.45,9.49,1.92,2.85,5.38,5.11,5.71,5.11,.33,0,1.26-.93,1.26-.93h0Z"/><path class="cls-1" d="M347.74,620.61c-5.66,2.52-8.23-.3-13.6-1.5-2.39-.53-5.93,.67-9.13,2.16,2.42-3.16,4.17-6.26,5.25-9.65,4.43-3.5,10.29-8.11,15.34-13.19,8.76-8.82,10.62-24.64,10.62-24.64,0,0-2.39,4.52-6.61,10.52-3.49,4.97-9.2,9.67-17.57,15.33,.91-6.97,3.18-16.01,11.98-26.62,0,0-13.64,5.08-16.92,19.34-1.13,4.93-1.88,8.98-2.62,12.44-4.34,3.69-8.23,9.81-11.3,15.72,.9-2.1,1.88-4.45,2.95-7.06,8.77-21.51,5.29-27.79,6.11-40.2,.82-12.42,9.17-23.01,9.17-23.01,0,0-8.6,5.54-13.22,15.87-4.62,10.34-2.42,22.67-3.29,35.26-.63,9.17-8.27,22.5-12.38,29.07,1.41-4.66,4.05-11.65,8.76-25.29,7.35-21.3-8.54-51.54-8.54-51.54,.5,12.36,4.72,16.1,5.63,34.89,.31,6.37-.58,12.24-2.01,17.56-.45-7.1-4.34-13.75-8.91-19.93-1.38-4.23-2.63-7.84-2.22-11.75,.69-6.58,4.71-10.31,4.71-10.31,0,0-6.71-.19-7.84,10.01-.09,.85-.13,1.66-.14,2.42-2.92-9.21-1.99-20.44-1.99-20.44,0,0-6.11,8.87-3.59,20.76,1.23,5.82,5.01,12.66,8.43,18.95-.1,1.78-.37,3.77-.86,6.03-1.43,6.56-3.43,11.17-4.93,15.3-.27-.37-.54-.73-.83-1.05-6.64-7.59-10.42-13.41-10.95-18.09-.53-4.68-1.47-8.26-1.47-8.26,0,0-2.79,12.67,1.76,20.53,2.88,4.98,6.8,10.53,9.5,14.92-.19,2.24-.02,4.62,.68,7.39,2.86,11.27,11.56,14.71,11.56,14.71v-.03c.29,.13,.59,.15,.85,.03,.22-.1,.4-.25,.55-.41,.94,.96,2.95,.03,4.74-1.92,0,0,9.07-6.42,14.51-12.56,5.44-6.14,11.35-3.38,21.76-4.16,10.42-.78,18.1-15.31,18.1-15.31,0,0-6.36,5.15-12.02,7.68h0Zm-53.32,9.83c-.41-1.68-.89-3.42-1.46-5.11,1.15-8.05,4.61-14.64,6.27-20.83,1.31,2.97,2.07,5.53,1.81,7.43-.7,4.95-4.46,13.73-6.62,18.5h0Z"/><path class="cls-1" d="M386.83,657.62c-6.19-.12-7.32-3.77-11.67-7.14-1.93-1.5-5.65-1.92-9.18-1.93,3.54-1.83,6.44-3.89,8.86-6.5,5.5-1.28,12.76-2.96,19.49-5.41,11.68-4.25,20.09-17.78,20.09-17.78,0,0-4.09,3.07-10.46,6.71-5.27,3.01-12.44,4.84-22.42,6.4,3.79-5.92,9.68-13.13,22.17-18.99,0,0-14.51-1.21-23.54,10.3-3.13,3.98-5.52,7.32-7.67,10.15-5.5,1.49-11.63,5.37-16.92,9.42,1.71-1.52,3.59-3.22,5.67-5.14,17.09-15.73,16.61-22.89,22.64-33.78,6.03-10.89,18.09-16.92,18.09-16.92,0,0-10.14,1.35-18.72,8.74-8.58,7.39-11.84,19.49-17.98,30.51-4.47,8.03-17.06,16.84-23.57,21.04,3.26-3.62,8.62-8.82,18.69-19.16,15.72-16.15,14.2-50.28,14.2-50.28-4.81,11.39-2.58,16.58-9.75,33.97-2.43,5.89-5.74,10.82-9.3,15.04,2.61-6.62,1.93-14.29,.42-21.83,.55-4.41,.95-8.21,2.99-11.58,3.43-5.66,8.65-7.33,8.65-7.33,0,0-5.99-3.03-11.35,5.73-.45,.73-.83,1.44-1.15,2.13,1.28-9.58,6.89-19.34,6.89-19.34,0,0-9.3,5.43-12.08,17.26-1.36,5.79-.85,13.59-.44,20.74-.85,1.57-1.94,3.25-3.35,5.09-4.09,5.33-7.86,8.65-10.97,11.75-.09-.45-.18-.89-.31-1.31-2.78-9.69-3.73-16.57-2.22-21.03,1.51-4.46,2.18-8.1,2.18-8.1,0,0-7.91,10.28-7.15,19.32,.49,5.74,1.67,12.42,2.25,17.54-1.12,1.95-1.99,4.18-2.53,6.98-2.2,11.41,4.2,18.23,4.2,18.23v-.03c.22,.25,.48,.39,.77,.39,.25,0,.47-.05,.67-.13,.44,1.27,2.65,1.28,5.1,.28,0,0,10.94-1.95,18.48-5.19,7.54-3.24,11.71,1.77,21.46,5.5,9.76,3.73,22.89-6.16,22.89-6.16,0,0-7.95,1.96-14.15,1.83h0Zm-52.44-13.8c.35-1.7,.65-3.47,.86-5.24,4.46-6.79,10.4-11.29,14.54-16.18-.08,3.24-.48,5.89-1.53,7.5-2.74,4.18-9.88,10.53-13.87,13.93h0Z"/></g></svg>