<?xml version="1.0" encoding="UTF-8"?><svg id="Background" xmlns="http://www.w3.org/2000/svg" viewBox="0 0 1920 1080"><defs><style>.cls-1{fill:#0a3147;}</style></defs><g id="Layer_1"><path class="cls-1" d="M0,891.26c82.56-40.93,101.77-44.48,137.51-21.24,48,31.22,58.48,89.42,148.6,111.83,126.75,31.52,64.05,25.49,176.17-3.06,105.43-26.85,62.07,43.9,177.7,19.68,115.63-24.22,133.09,52.04,291.89,46.57,63.4-2.18,3.72,8.25,125.55-27.53,73.02-21.45,101.28-88.89,159.32-55.91,110.55,62.81,188.31-6.1,242.3,14.15,57.99,21.75,154.21-63.02,183.83-81.73,51.9-32.78,59.1-57.64,129.7-47.97,34.19,4.68,98.55,72,147.43,45.21v188.74H0v-188.74"/><path class="cls-1" d="M472.59,860.41c-20.37,14.98-33.07,5.96-55.55,5.85-9.99-.05-23.06,7.81-34.52,16.55,6.91-14.71,11.2-28.59,12.55-43.04,14.62-17.8,33.98-41.29,49.69-65.92,27.28-42.77,20.92-107.48,20.92-107.48,0,0-5.62,20.12-17.2,47.69-9.6,22.84-28.27,46.56-56.72,76.41-2.43-28.6-1.25-66.58,24.62-116.55,0,0-49.98,32.11-50.64,91.81-.23,20.66,.29,37.43,.36,51.9-14.12,18.47-24.31,46.27-31.4,72.52,1.75-9.16,3.62-19.36,5.6-30.73,16.28-93.4-3.07-115.39-10.58-165.63-7.51-50.25,16.57-99.72,16.57-99.72,0,0-29.48,29.55-38.91,74.79-9.43,45.24,10.06,92.52,17.52,143.47,5.44,37.11-13.44,96.91-24.1,126.68,1.58-19.82,6.03-49.97,12.95-108.46,10.8-91.32-78.87-198.08-78.87-198.08,12.72,48.85,32.81,60.08,52.79,134.24,6.77,25.12,8.31,49.3,7.24,71.79-7.98-27.9-29.25-51.07-52.85-71.71-9.18-15.66-17.3-28.96-19.06-44.92-2.97-26.84,9.83-45.22,9.83-45.22,0,0-26.94,5.07-22.55,46.74,.36,3.49,.91,6.72,1.56,9.77-19.65-34.19-25.72-79.76-25.72-79.76,0,0-16.65,40.69,3.74,85.91,9.98,22.14,30.98,46.13,50.09,68.25,1.14,7.18,1.81,15.34,1.81,24.81,0,27.4-3.98,47.52-6.36,65.3-1.39-1.24-2.8-2.42-4.24-3.48-33.06-24.49-53.22-44.4-59.4-62.61-6.18-18.21-13.05-31.64-13.05-31.64,0,0-.12,52.93,24.85,80.33,15.82,17.37,36.26,36.06,50.86,51.22,1.2,9.1,3.94,18.46,9.14,28.87,21.21,42.43,58.87,48.6,58.87,48.6l-.05-.11c1.31,.26,2.49,.09,3.45-.64,.8-.61,1.38-1.33,1.84-2.1,4.57,3.03,11.78-2.44,17.21-11.78,0,0,30.6-33.48,46.95-62.7,16.35-29.22,42.31-23.33,83.16-35.49,40.86-12.16,58.85-76.79,58.85-76.79,0,0-20.89,26.08-41.26,41.07h0Zm-204.08,85.54c-3.09-6.36-6.52-12.85-10.25-19.1-2.41-33.08,5.65-62.38,6.91-88.51,7.79,10.69,13.08,20.27,13.67,28.07,1.52,20.35-5.83,58.64-10.33,79.55h0Z"/><path class="cls-1" d="M689.17,917.25c-.52-2.23-1.13-5.17-1.4-7.67,.28-2.5,.88-5.44,1.4-7.67,.45-1.95-.25-2.34-1.87-1.16-2.44,1.77-6.53,4.12-12.38,5.49-1.28,.3-2.44,.39-3.53,.32,1.06-.46,2.19-1.26,2.21-2.59,.04-2.29-31.82-23.87-59.15-11.35-.15,.06-.3,.13-.45,.19-.61,.28-1.19,.59-1.76,.9-.08,.04-.16,.08-.24,.12h.01c-6.06,3.45-9.9,8.93-12.16,14.42-.23,.56-.14,1.07,.18,1.14l.58,.13s-.25,.12-.58,.13c-1.27,.05,.5,1.82,.78,2.35,1.62,3.02,5.36,8.32,11.85,12.06h0c25.98,16.63,49.46-3.09,58-7.73,3.37-1.83,1.56-3.4-.05-4.25,1.41-.24,2.83-.24,4.3,.1,5.98,1.4,10.12,4.07,12.54,6.06,1.55,1.27,2.17,.95,1.72-1Z"/></g></svg>