<svg id="Background" xmlns="http://www.w3.org/2000/svg" viewBox="0 0 1920 1080"><defs><style>.cls-1{fill:#59c1d7;}</style></defs><title>layer-5</title><g id="Layer_5" data-name="Layer 5"><path class="cls-1" d="M0,461.23c134.47,3.47,175.07,123.53,325.43,187.68,153.19,65.37,230.8-13.27,372.76-21.44s192.66,24.22,308.29,0,176.31-91,335.12-96.51c111.31-3.84,79.27,57.25,321.61,57.25,120.51,0,159.41-122.36,256.79-127V1080H0V461.23"/><path class="cls-1" d="M715.75,538.67c1.58,5,10.19,16.54,16.16,22.07,2.58,1.84,4.71,4.84,8.07,5.22.31-5.9-3-11.46-6-16.45-3.74-6.18-11.44-9.5-14.6-16-1.23-2.52-3.87-6.95-1.41-8.29s3.26,7.18,5.94,5.5c2.86-1.81-.69-12.65,2.89-11.21,4.15,1.67,3.15,13.89,6.82,20.07,2.07,4.65,9.77,13.12,11,3a109.58,109.58,0,0,1,6.44-18.74c1-2.16,6.25-10.14,6.46-2.92-1.07,6.46-3.79,12.56-5.76,18.77-1.39,6.78-4.93,13.21-5.11,20.13s1.87,14,4.1,20.65c1.66,4.93,2.66,10.91,6.8,14.05,1.73,1.32,4.63,2.41,6.41,1.16,6.13-4.29,3.2-14.67,3.8-22.13.62-7.81-3.36-16.32-.24-23.51,3.8-8.77-.81-12.45,3-17,6.09-2.91,2.23,9.55,8.36,4.63,2.7-3.9,11-2.49,5.39,2.25-5.2,3.68-10.81,8.6-11.25,14.77-.17,2.38-.91,14.49,3.47,6.26a88.86,88.86,0,0,1,9.77-13.33c3.23-5,2.88-8.74,5-12.85,1.43-4.58-.71-18.05,7-14.27-.73,4.81-1.55,15,6.23,9.94,2.91-1.33,14.4-3.07,10.77,1.61-3.36,2-16.83,4.28-21.55,12.49-1.43,6.9,7.65-1.32,9.37-3.83,1.77-3.26,8.22-5.57,8.44-1.7.15,2.52-11.93,6.94,2,7.32,6.56-.48,15.82,2.16,8.49,5.55-10.58,1-22.82-3.34-31.84,4.26-6.61,6.43-20.63,14.77-15.87,22.68,2.36,3.93,9.24-.48,13.67-1.69,6.07-1.66,11-6.39,17.32-7.54,7.63-1.3,13-7.83,15.86-14.64,4.14-6.31,6.86.23,3.52,5.26-.59,3.25,8.78,1.47,13.81,1.59,3.27.07,6.94,3.86,5.3,4.84-6.36,3.77-16.14-4.35-26.41,2.91,1.06,5.76,12.71.53,17.53,4.1,1.49,1.09,4.47,4,2.79,4.79-3.31,1.52-16-5.77-7.71,5.1,3.19,6.55-4.81,1-6.1-.57-6.14-7.59-12.7-6.52-19.28-5.39-1.75.3-11.94,2.36-4.36,3.06,6.81.38,15.26-3.63,20.86,1.52,2.59,2.81,9.47,10.09,5.72,13-3.52,2.69-7.28-9.73-10.31-8.37-3.29.24,3,10.73-1.76,10.5-2,1-4.73-8.67-8.92-10.66a22.62,22.62,0,0,0-19.7-.24c-7.14,1.84-11.72,8.39-16,14a43,43,0,0,0-7.91,16.22c-1.38,6-2,12.73.08,18.53-4.5,3.12-15.43,1-16,0,3.53-6,6.65-12.37,7.34-19.18.63-6.15.74-13.37-3-18.3-3-4-8.59-6-13.58-6.34-6.74-.41-13.15,3.39-19.25,6.28A68.5,68.5,0,0,0,703.21,607c-3.32,2.76-3.41,6.86-8.83,9.48-9.43,1.5,4.56-11.63-4-6.19-7.49,2.06-3.44-7.53,2.2-6.47,5-1.45,13.91-1.38,14.18-6.58.22-4.44-7-6.48-11.46-6.79-8.27-.6-16.07-7.08-9.61-6.73,3.22.24,4,1,3-2.45-.85-6.08,6,1.6,9.48,4.31,6.08,4.71,15.16,5.06,22.87,3,8.9-2.48-7.17-6.57-10.23-6.18-6.94-1-22.8-4.68-20.5-7.91,2-4.47,9.13,2.75,14.72,2.46,1-.05,2.9-1,2.28-1.78-4.6-5.53-14.21-7.39-11.56-12,2.26-2,9.16,3.55,12.18,5.34,3.73,2,7.12,4.71,10.51,7.13,3.65,3,8.44,4.61,12.59,6.93,3.69,3.06,16.68,3,11-4.09-4.43-5.63-11.42-10.46-18.68-11-9.43.3-16.37-6.84-24.94-9.47-6.59-2.16-13-4.83-20.06-5-7.68-1.47-1.53-7.16,4.94-5,3.15,1.06-5.45-9.13-2.12-9.73,6.2-1.13,10.47,13.14,18.82,14.26,3.24-2.42-.8-6.72-2.1-9.47-4.75-7.33-16.93-15.38-13.49-22.49,1.69-3.51,6.63,4.88,9.36,7,2.17-2.4-3.22-10.47.31-10.58,6.44-.18,5.73,14,8.25,20.59,2.5,6.28,6,12.11,9.22,18,1.72,4,13.9,7.67,7.9.57-6.57-7-12.53-13.86-16-23.05-1-4.82-5.86-15.39-.49-16.4,4.89-.92,2.52,14.24,7.3,20,.26-1.51,1.81-9.11,4.94-8.34,3.33.82-1,5.26.55,10.25Z"/><path class="cls-1" d="M1579.58,365c0-1.7,6.6-7.6,4.64-8.13-6.11-1.67-12.5,5.35-16.08,5.35a63,63,0,0,1-7.11-.67c2.78-2.64-5.39-2.63-14.7-2.23l.22.07-6.62-1c1.41-.83,2.75-1.88,2.44-2.74-.61-1.68-2.45-7.5-4-10.87-1.46-3.21-10.82,5.65-15.68,11.14-8.28-1-15-1.52-17.27-.62-6.78,2.68-20.92,9.29-20.92,9.29,0,3,15.92,13.57,26.82,13.57,5.92,0,14.27,0,21.69-.34,1.91,2,6.07,5.78,11.27,6.66a23.74,23.74,0,0,0-4.1-6.83s-.16-.11-.45-.28a39.22,39.22,0,0,0,8-1.35l.34-.12c4.08,2.62,11.83,6.69,12.19,4.35s.48-6.5.56-7.69c.05-.66-1.23-1.11-2.37-1.38a23.62,23.62,0,0,1,9.46-2.49c1.44,0,12.29,6.27,16.26,4.29C1586.36,371.88,1579.58,368.13,1579.58,365Z"/></g></svg>