<svg id="Background" xmlns="http://www.w3.org/2000/svg" viewBox="0 0 1920 1080"><defs><style>.cls-1{fill:#0a3147;}</style></defs><title>layer-1</title><g id="Layer_1" data-name="Layer 1"><path class="cls-1" d="M0,891.26C82.56,850.33,101.77,846.78,137.51,870c48,31.22,58.48,89.42,148.6,111.83,126.75,31.52,64.05,25.49,176.17-3.06,105.43-26.85,62.07,43.9,177.7,19.68s133.08,52,291.89,46.57c63.4-2.18,3.72,8.26,125.56-27.53,73-21.44,101.28-88.88,159.31-55.91,110.56,62.81,188.31-6.1,242.3,14.15,58,21.74,154.22-63,183.83-81.73,51.9-32.78,59.1-57.63,129.7-48,34.2,4.68,98.56,72,147.43,45.21V1080H0V891.26"/><path class="cls-1" d="M889.58,1043.21c0,.6-5,3-5.18,5.18,0,8.88,57.7,9.62,57.7,0,0-13.31-34-25.89-52.52-5.18Zm-13.32,4.44c0,6.66-40,6.66-40,0,0-8.88,22.93-17.75,36.25-3,.54.8,3.63,1.34,3.7,3Zm-27.37-27.37c-3.84,3.84-16.92,8.72-5.18,16.28a26.15,26.15,0,0,1,29.59,5.18h14.06c11.83-11.84,28.11-15.54,44.39-8.14a26.65,26.65,0,0,1,14.79-4.44c-20-34.77-74-41.43-97.65-8.88Zm63.24-21.12c3-6.66,6.3-10.7,10.74-15.87,29.59-33.29-9.62-31.08,3.7-71,3-9.61,6.65-20.71.74-34.77,6.65,12.58,4.44,22.2.73,35.51-12.57,36.25,27.38,37-2.95,72.51-3.7,4.44-8.08,8.72-10.31,14.64a31.79,31.79,0,0,1,3.69,1.48c.73-3,2.91-5,6.61-8,39.95-36.25-3-48.09,10.36-88,2.22-7.4,5.18-14.8.74-22.94-5.18-8.14-10.36-13.32-7.4-23.67-6.66,7.4-8.14,14.06-4.44,23.67,5.18,11.1,2.22,17.76-1.48,26.64-17.76,37,22.19,46.61-5.92,74.72-3.7,4.44-8.05,7.79-9.53,13.71a41,41,0,0,1,4.72,1.42Zm-19.59-31.41c-5.92,8.88-11.33,17.55-3.19,28.65,2.22,0,4.65,0,6.07.11-8.88-10.35-4.36-16.18,1.56-23.58,14.79-18.49,14.06-34.77-3-51-8.88-9.62-16.28-16.28,4.44-39.21,8.88-14.79-14.06-21.45-2.22-43.65,3-5.18,5.92-9.61-3-17,2.22,8.87-3,12.57-7.4,16.27-20,14.8,4.37,29.24-3.63,38.35-20.44,25.58-11.9,40.07-2.29,50.43,14.8,16.28,14.06,24.41,3.7,42.91-5.18,8.88-10.36,17.75-2.22,27.37,1.7-.31,3-.51,5.18-.74-8.14-11.83-3-20.71,3.7-30.33,26.63-45.13-35.51-37.73-3.7-82.86,16.28-22.93-9.62-20,.74-37.73-8.14,17.76,17,14.06.74,38.47-29.54,42.82,32.49,37.09,4.44,83.6ZM857,925.58c-12-21.55,10.8-22.43-6.66-41.43,4.35,21.75-16.35,19.31-5.92,43.65,14.44,23.34-23.67,42.17,11.1,68.06,3.7,2.22,7.34,4.16,8.08,7.86a25,25,0,0,1,2.9-1.39c-3.7-5.92-7.28-8.69-11-11.65-25.16-19.24,6.66-36.25-5.92-66.58-6.66-17,3-14.8,3.7-32.55,0,20-8.88,13.31-2.22,31.81,13.32,33.29-17.76,46.61,5.92,65.1a50.21,50.21,0,0,1,11.87,12.74,36.56,36.56,0,0,1,3.84-1.52c-1.48-4.45-5.17-8.1-8.86-11.06-28.36-21.28,6.81-27-6.85-63Zm-19.24,109.49c-5.92-8.87,4.84-11.9,9.25-16.62,1.78-2.11,2.47-3.29,4.6-4.91-11.84-4.44-39.74,3-39.74,15.61,0,7.4,25.89,5.69,25.89,5.92Zm96.92,0c4.44,3,11.09,8.14,10.36,14.06,4.44,0,25.15.74,25.15-5.18C962,1036.55,952.78,1026.35,934.71,1035.07Z"/><path class="cls-1" d="M369.13,878.11c-29,9.77-40.31-5.32-66.19-13.73-11.49-3.73-29.46.5-45.89,6.36,13.39-14.41,23.45-28.84,30.33-45,23.41-15.13,54.38-35.08,81.57-57.67,47.21-39.24,63.73-116.19,63.73-116.19S418.79,673,395.27,700.52c-19.48,22.79-49.74,43.25-93.54,67.18,7.74-33.87,23.09-77.22,71.33-125.28,0,0-69.44,18.6-92.21,87.17-7.88,23.72-13.45,43.24-18.7,59.95-23.08,16.09-45.08,44.39-62.93,72,5.4-9.92,11.31-21,17.79-33.36,53.19-101.67,39-134.14,48.85-194.82s55.85-108.84,55.85-108.84-44.88,23.2-72.42,71.87-22.5,110.36-32.67,171.84C209.22,813,165.42,875,142.15,905.39c9.13-22.26,25.37-55.37,54.9-120.24,46.1-101.29-17.92-257.4-17.92-257.4-3.33,61,15.69,81.35,11.38,174.2-1.45,31.45-8.59,59.88-18.11,85.41,1.09-35.1-14.89-69.64-34.49-102.14-4.81-21.44-9.27-39.76-5.41-58.81,6.47-32,28-48.49,28-48.49s-32.91-4.08-43.21,45.56a109.72,109.72,0,0,0-1.8,11.84c-10-46.65-.25-101.42-.25-101.42S81,574.66,87.88,634.3c3.34,29.2,18.72,64.59,32.59,97.13a190.94,190.94,0,0,1-7.07,29.27C103.31,792.29,91.31,814,82,833.63c-1.15-1.94-2.34-3.82-3.6-5.58-29.09-40.41-45-70.78-45.4-94a318.62,318.62,0,0,0-3.38-41.29s-19.65,61-1,101.75c11.84,25.85,28.51,54.94,39.75,77.78a108.56,108.56,0,0,0-.11,36.65c8.82,56.72,50,77.72,50,77.72l0-.14a5,5,0,0,0,4.21.53,8.83,8.83,0,0,0,2.9-1.74c4.15,5.18,14.48,1.53,24.18-7.23,0,0,47.61-27.31,77.23-55s57.37-11.3,108.94-10.25S431.83,846,431.83,846s-33.69,22.37-62.69,32.13ZM102.36,901.49c-1.22-8.47-2.78-17.21-4.77-25.8,9.41-39,29.51-69.83,40.59-99.48,5,15.19,7.61,28.18,5.4,37.4-5.74,24-28.33,65.44-41.22,87.88Z"/><path class="cls-1" d="M1731,890.53s-11.78-11.2-17-32.2c-4-16.22.82-37,3.74-43.4,3.85-8.4,9.8-17.85,32.54-19.25s46.14,8.55,49.35,9.8c10.5,4.08,21.12,8.37,38.74,4.32,17.26-4,19.32-9,18-12-.67-1.49-2.93-2.21-5-2.5a2,2,0,0,1-1.44-2.84c2.56-5.93-2.26-9.2-4.55-7-3.74,3.53-8,7.82-12.22,5.89-4.55-2.1-4.94-10-.35-11.63,10.33-3.59,13.28-10.71,7.79-13.39-4.11-2-5.34,1.48-8.06.34-2.36-.87-1-2.71-2.45-4.9s-7.09-3.23-8.49,2c-1.49,5.6-.17,13.73-4,17.59s-13.57,3.5-15.49-4.38c-1.42-5.79,4.54-13.12,11.9-15.92s18.66-4.92,19.07-10.33c.35-4.55-4.63-5.37-3.45-7.65,1-1.9-1.91-5.36-3.5-4.54-2.43.63-3.81-.16-2.45-3.15,1.08-2.48-4.26-5.18-5.6-2.8-.23.41-1.12,1.58-1.4,2-1.28,1.65-2.8.24-2.86-1.73-.07-2.37.33-4.92-.17-6.44-.75-2.25-7.17-3.28-7.94,3.73a29.81,29.81,0,0,1-1.6,7.61c-.57,1.45-3.42,3.71-5,.38-1.88-4-.17-8.05-2.63-9.45-4.43-2.53-7.54-1-9.14,3.59-.53,1.53-3.18,2.21-4.1,1.07-4-4.95-9.75-4.88-11.6-2-4.2,6.46,5.43,18.9-10,15.93-6.36-1.23,4.58-12.91.52-15.57-2.8-1.84-3.82,3.35-5.94.93-2.36-2.68-2.8-6.07-6.07-4.43-4.36,2.18.94,8.63-4,9.8-3.09.73-6.24-6.3-10.45-3.15-3.9,2.92,5.44,9.83-3.24,10.06-3.23.09-4.37,5.95,2.28,5.95,11,0,15.83,12.16,8,23.36s-12.42,5.94-27.35,23.27c-12.84,14.9-12,39.61-19.84,39.44-5.14-.12-8.16-25.2-8.16-34.31,0-12.36-3.26-45.81,30.33-73.5,21.24-17.5,49-15.78,65.11-14.69,34.76,2.33,50.29-.23,61.25-9.34,8.28-6.88,7.91-12.81,1.6-13.47-1.72-.18-2.4-2.43-.79-4,2.56-2.57,2.22-7.47-1.52-7.93-5.22-.66-19.6,13.41-24.74-1.52s21.3-20.62,29.17-24.62c6.65-3.38,3-13.18-1.4-12.6-4.18.54-13.23,3.22-9.22-7.47,3.15-8.4-10.85-12.72-13.18-6.88s-8.64,26-16,24.27-9.46-12.66-2.1-23.11c9.23-13.11,1.68-13.5-1.91-11.83-.68.33-1.75.23-1.75-.81,0-3-.81-4.64-4.35-4.16-4.41.59-2,9.8-7,8.41-3.63-1-1.28-10.16-1.26-13.81,0-4.39-4.51-6.58-7.32-3.78-2,2-.69,6.65-2.71,6.83-1.83.35-3-4.38-4.46-5.69-2.45-2.28-8.84.7-6.65,7.7,2.56,8.18,24.5,28.69,11,36.39-9.8,5.6-20.14-21.87-25.63-22.57-4-.51-6.19,2.66-5.81,7.11.18,2.11-.67,3.3-2.33,2.39-5.56-3-11.74-.37-9.71,6.59,1.64,5.6,22.66,12.42,22.31,29.34-.53,25.77-17.27,28-40.14,43.87-4.93,3.42-22,19.93-28,18.66-15.4-3.27,35.72-87.42,42.93-146.54a220.64,220.64,0,0,0,1.7-35.12c-.12-6.53-9.8-7.11-11.44-.23-1,3.5-3.73,2.1-4,.12-.53-3.68-2.64-5.72-5.9-4.9-3.8.94-6,3-4.32,10.26,1.26,5.56,1.68,10.5-2.22,10.86-6.41.58-8.11-11.75-8.86-20.19-.58-6.53-2.42-9.22-7.23-8s-.32,8.37-6,9c-3.11.14-3.72-7.05-9-6.3-4.08.58-10.5,7.34-4.9,12.25s39.85,27.47,27.72,40.05c-10.33,9.2-25.07-9.9-28.3-13.93-4-4.94-23.05-30.67-29.52-27.52-6.91,3.36,2.27,9.27-.7,14-3.26,5.17-12.08-2.1-13.3,5.94-.65,4.23,9.1,4.9,6.82,9.46-2.1,2.62-5.69,2.79-8.39,3.15-4,.52-6.13,8.39.34,11,5.67,2.3,26.53-7.43,35.35,6.13,4.9,7.52,3.33,15-3.33,14s-30.64-10.62-34.41-6.42c-4.2,4.66,3.87,6.26,2.21,10.15-.7,1.64-2,2.1-5,2.57-3.24.5-3.71,4.93.7,7.35,12.37,6.76,49.69-3.35,67.15,6.3,21.53,11.89-4.11,56.26-18.2,93.33-8.86,23.34-41.54,27.54-52.73,3.27-14.25-30.85-12-44.86-3.91-62.37,12.19-26.36,8.87-29.68,6.07-31.43-4.82-3-7.3-1.78-10.8,1.16-7,5.91-9.62,1.57-12.13-2.63-3-5-7-4.66-9.28-4.31-4.67.72-9.8,3.5-5.25,15.75s23.65,70.17,9.39,71.93c-38,4.66-35.44-78.9-39.66-84.7-2.11-5.84-11.9-2.57-11.67,1.86,0,4.66,3.5,13.42-4.2,18s-14.91-6.84-22.86-16.56c-6.3-7.7-13.83,1.34-9.39,7.41,3.6,4.93,1.7,7.31-1.4,6.83-5.6-.88-15.57-.35-14.65,9.8.68,7.37,56.65,34,42.13,50.8-10.68,7.7-38.83-13.73-43.75-26.72-2.57-6.77-6.54-9.1-11-5.14-8.55,7.66,1.87,10.39-.93,14.82-1.9,3-6.75,1.53-9.45,2-4.9.82-7.7,7.15-4.2,12.26,2.8,4.08,13.3-.94,21,2.56s19.94,10.74,14.34,18.44c-9.45,10.15-18.89.35-31.5-7.7s-16.31-10.9-18.54-5.95c-1.64,3.61,4.31,4.31,1.74,7.69-2,2.22-4.32.57-5.72.7-3.61.35-4.54,4.2-2,6.66,1.46,1.39,3.94,1.56,5.48,2.33,2.57,1.28,3.15,5.14,0,8.17-3.78,3.64-11.54,1.39-12.48,5.36-.52,3.17-.4,5.55,4.42,6.58,1.41.3,2.56,1.77,1.06,3.22-3.26,3.14-3.14,7.34,2,8.86,7.73,2.28,27.94-10.7,34.54-10.62,19.6.24,27.84,22.45,8.7,32.13-9.67,4.84-21.75-1.31-27,2.27s-3,6.64.58,9.67c1.92,1.93,1.11,3.14-1.76,6.68s-.5,9.1,4.71,7.58c5.06-1.47,6-3.84,9.55,0s2.36,4.9,1.4,9.81c-1,5.16.12,6.46,4.29,7.09,1.75.26,2.71-3.77,3.94-3.59,1.92.26.55,4.69,3.67,5.25,4.46.79,5.92-9.3,7.8-16.81,1.6-6.41,7.34-16.83,10.48-20.54,8.16-9.61,21-8.24,22.87,3.35,1.46,9.22-4.45,21-.2,23.15,8.52,4.31,8-9.72,13.3-7.7,4.31,1.64,2.26,7.53,6.42,8.75,4,1.16,8.52-1.75,8.52-10.5s0-26.92,9.21-36.75c10.15-10.85,35.35-21.35,64.06-3.15s28.35,14.7,45.5,44.45c6.69,11.61,17,40.53,23.45,50.06,10.15,15,28.35,26.94,30.1,26.94s6.66-4.89,6.66-4.89Z"/><path class="cls-1" d="M588.7,923.7c-5.8-1.52-13.85-.51-12.11,10.52-.51,1.16-5.8,4.2-3.19,5.37-.58,1.52-.73,2.61,1,3.62s9.8,6.31,17.63,5.44c2.68,4.36,3.7,5,17.48,8.56-5.73-3.41-6.53-4.78-6.67-7.18a16.82,16.82,0,0,1,.43-4.64,41.79,41.79,0,0,0,7.48-2c1.16,2.39,7.83,9.36,20.09,10.66-5.08-1.3-6.75-4.42-7.47-7.91s-2.69-4.57-6.38-5.94c3.84-2.18,4.57-3.78,6.16-3.78s7.84,7.4,11.32,7c1.09-1.45,1.23-5.73.29-7.33s-.51-1.38-.22-4.06.73-5.73-.94-7.69c-3.19,1.45-7.91,8-10.52,8s-3.92-.94-4.86-2.47c4.35-2.46,2.39-8.49,10.3-10.52-4.86-.43-11,1.74-15.31-.58S587.54,913.47,588.7,923.7Z"/><path class="cls-1" d="M635.13,871c-5.8-1.52-13.86-.5-12.12,10.52-.5,1.16-5.8,4.21-3.19,5.37-.58,1.52-.72,2.61,1,3.63s9.79,6.31,17.63,5.44c2.68,4.35,3.7,5,17.48,8.56-5.73-3.41-6.53-4.79-6.68-7.18a17.09,17.09,0,0,1,.44-4.65,41.57,41.57,0,0,0,7.47-2c1.16,2.4,7.84,9.36,20.1,10.67-5.08-1.31-6.75-4.43-7.48-7.91s-2.68-4.57-6.38-5.95c3.85-2.17,4.57-3.77,6.17-3.77s7.83,7.4,11.31,7c1.09-1.45,1.24-5.73.29-7.32s-.5-1.38-.21-4.07.72-5.73-1-7.69c-3.19,1.46-7.9,8-10.52,8s-3.91-.94-4.86-2.46c4.36-2.47,2.4-8.49,10.3-10.52-4.86-.44-11,1.74-15.3-.58S634,860.79,635.13,871Z"/></g></svg>