<svg id="Background" xmlns="http://www.w3.org/2000/svg" viewBox="0 0 1920 1080"><defs><style>.cls-1{fill:#45b4ca;}</style></defs><title>layer-4</title><g id="Layer_4" data-name="Layer 4"><path class="cls-1" d="M0,784.68C144.38,675.4,318.29,812.94,459.68,828c188,20,263.82-3.23,379.45-27.45,127.15-49,208.85-127.8,367.66-133.27S1611.21,939.21,1920,784.68V1080H0V784.68"/><path class="cls-1" d="M1289.13,502.38c-1.25,10.39,4.83,38.55,11.12,53.57,3.18,5.5,4.56,12.72,10.35,16.19,5.46-10.47,4.1-23.32,2.73-34.91-1.69-14.34-12.94-26.77-13.33-41.2-.14-5.61-1.27-15.87,4.33-16.25,5.37-.37,0,15.77,6.24,14.91,6.71-.92,9.24-23.59,14.55-18,6.17,6.49-5.78,27.89-4.22,42.18-.09,10.18,6.9,32,17.47,14.65a221.64,221.64,0,0,1,27.27-28.77c3.56-3.11,19.78-13.26,14.17,0-7.29,10.87-17.3,19.74-26,29.39-8.16,11.18-19.94,20-26,32.41-6.15,12.61-8.19,27-9.64,41-1.09,10.35-4.21,22,.72,31.21,2.05,3.83,6.43,8.22,10.69,7.43,14.73-2.73,18-24.05,25.27-37.14,7.61-13.7,7.42-32.48,19.06-43,14.19-12.81,8.84-23.34,19.57-28.36,13.51-.26-3.86,19.23,11.39,15.35,8.13-4.86,22.08,4.58,7.94,8.56-12.52,2.4-26.8,6.69-32.73,17.56-2.28,4.19-13.66,25.62,1.14,14.27C1390,587.06,1400,582,1410,577.32c10-6.37,12.48-13.52,19.7-19.26,6.4-7.16,13.67-33.46,24.57-20.17-5.32,8.15-15.21,25.94,3.09,23.24,6.41,0,28.76,6.37,18.27,11.87-7.75.83-34.19-6.16-49.58,4.86-8.31,11.38,15,3.95,20.23.81,5.92-4.48,19.58-3.32,16.78,3.9-1.83,4.71-27.47,2.74-2.52,14.94,12.32,4.57,27,17,10.85,17.14-20.1-6.93-38.77-25-61.5-18.64-17.34,6.22-49.78,9.78-47.68,28.11,1,9.12,17.22,6.78,26.28,8.25,12.44,2,25.25-2.54,37.78.65,15,4,30.09-3.51,41-13.49,12.78-8.06,12.31,6.1,2,12.49-3.77,5.42,14.75,10,23.83,14.33,5.88,2.84,9.41,12.8,5.62,13.21-14.7,1.59-25.77-21.31-50.47-16.6-2.85,11.37,22.67,11.5,28.5,22,1.79,3.23,4.81,11,1.11,11-7.3,0-24.3-23.73-18.28,2.9.39,14.57-9.59-2.14-10.61-6.09-4.9-18.91-17.73-22.4-30.64-25.8-3.43-.91-23.68-5.62-10.46,2,12.08,6.34,30.78,6,36.71,20.07,2.38,7.25,8.86,26.21-.34,28.31-8.63,2-5.17-23.75-11.82-23.78-6.19-2.3-3.41,22-11.91,17.65-4.41.09-1.42-19.71-7.39-26.79-8.47-10-21.13-17.19-35.66-16.78-14.52-2.58-28.29,5.56-40.82,12.25-10.62,5.67-20.56,13.39-27.86,23-7.5,9.82-14.12,21.56-15.22,33.8-10.77,1.94-28.94-10.92-29.13-13.16,11.44-8.1,22.36-17,29.27-28.82,6.24-10.68,12.43-23.74,9.72-35.8-2.19-9.75-10.64-18.11-19.47-22.8-11.92-6.33-26.74-4.73-40.24-4.54a137,137,0,0,0-34.1,4.8c-8.33,2.28-11.9,9.65-23.92,9.94-18.42-5.09,17.93-17.38-2.18-14.61-15.35-2.45,0-16.55,9.36-9.95,10.33,1.53,26.46,9,31.25-.21,4.09-7.89-7.42-17.62-15.22-21.87-14.56-7.94-23.38-26.2-11.91-20.2,5.66,3.09,6.44,5.11,7.52-2,3.49-11.76,9.56,7.88,13.68,15.71,7.16,13.61,23.38,21.78,39.11,24.46,18.26,2.87-7.59-17.89-13.5-19.72-11.81-7.56-37.61-27.43-30.75-31.4,7.29-6.5,14.35,12.58,24.76,16.68,1.8.7,6.13.51,5.63-1.35-3.79-13.88-19.74-25.23-11.11-31.37,5.72-1.69,13.71,14,17.73,19.82,5.17,6.67,9.05,14.47,13.22,21.69,4.19,8.41,11.54,15.4,17.17,23.06,4.18,8.63,27.87,19.27,23.4,1.67-3.39-13.92-12.1-28.51-24.88-35.49-17.41-7.26-24.12-26-37.54-37.92-10.21-9.4-19.72-19.6-32.38-25.68-12.77-9,3.15-14.3,13.11-4.94,4.85,4.54-2.36-21.14,4.2-19.48,12.23,3.09,8.15,32.6,22.43,41.57,7.91-1.72,4.11-12.9,4-19-2.56-17.28-18-42-5.89-52.13,6-5,8,14.4,11.25,20.45,6-2.56,2.83-21.72,9.33-19,11.89,5-1.16,30.21-2,44.31-.66,13.5.79,27,1.85,40.39-.18,8.7,19,25.48,13.92,7.59-6.21-18.1-11.32-35.62-10-55.2,2.26-9.57,2.09-32.87,12.71-30.26,9.67,2.38-7.23,28-3.29,42.44,1.73-2.54,10.84-15.09,15.91-11.08,5.37,4.24-6.25,8.71-7.51,19.1Z"/><path class="cls-1" d="M979,678.76c-5.89-.18-12.9.66-17.81,3.7-.38.32.37,1.54.37,1.54s-.79-1.36-1.21-.84-1.92,5.14,9.77,6.54c2.29,2.25,7.24,3.18,8.32-.79l.89-.28s2.94,6.78,9,3.88c1.87-1.08,1.5-4.86-1-5.89.89-.28,2.1-.28,2.57.42s-.09,4.53,4.35,4.25,6.87-9.91,2.85-10-5.42,1.88-6.54,1.69c1.63-1.54,4.62-1.92,4-3.09S986.48,672.4,979,678.76Z"/></g></svg>