<?xml version="1.0" encoding="UTF-8"?><svg id="Layer_2" xmlns="http://www.w3.org/2000/svg" viewBox="0 0 3690 3669.79"><defs><style>.cls-1{fill:#fff;opacity:.1;}</style></defs><g id="Background"><g id="Layer_0"><g><polyline class="cls-1" points="1845 1822.39 1771.1 3669.79 1918.9 3669.79"/><polyline class="cls-1" points="1845 1822.39 2528.9 3540.13 2663.91 3480.01"/><polyline class="cls-1" points="1845 1822.39 3168.44 3113.45 3267.33 3003.62"/><polyline class="cls-1" points="1845 1822.39 3579.14 2463.55 3624.81 2322.99"/><polyline class="cls-1" points="1845 1822.39 3690 1702.78 3674.55 1555.79"/><polyline class="cls-1" points="1845 1822.39 3481.84 962.69 3407.94 834.7"/><polyline class="cls-1" points="1845 1822.39 2990.66 371.25 2871.09 284.38"/><polyline class="cls-1" points="1845 1822.39 2301.38 30.73 2156.81 0"/><polyline class="cls-1" points="1845 1822.39 1533.19 0 1388.62 30.73"/><polyline class="cls-1" points="1845 1822.39 818.91 284.38 699.34 371.25"/><polyline class="cls-1" points="1845 1822.39 282.06 834.7 208.16 962.69"/><polyline class="cls-1" points="1845 1822.39 15.45 1555.79 0 1702.78"/><polyline class="cls-1" points="1845 1822.39 65.19 2322.99 110.86 2463.55"/><polyline class="cls-1" points="1845 1822.39 422.67 3003.62 521.56 3113.45"/><polyline class="cls-1" points="1845 1822.39 1026.09 3480.01 1161.1 3540.13"/></g></g></g></svg>