<?xml version="1.0" encoding="UTF-8"?><svg id="Background" xmlns="http://www.w3.org/2000/svg" viewBox="0 0 1920 1080"><defs><style>.cls-1{fill:#45b4ca;}</style></defs><g id="Layer_4"><path class="cls-1" d="M0,784.68c144.38-109.28,318.29,28.26,459.68,43.34,187.96,20.04,263.82-3.23,379.45-27.45,127.15-49.02,208.85-127.81,367.66-133.28,158.81-5.47,404.43,271.91,713.21,117.38v295.32H0v-295.32"/><path class="cls-1" d="M1256.97,551.18c-.84,6.99,3.25,25.95,7.48,36.06,2.14,3.7,3.07,8.56,6.97,10.9,3.68-7.05,2.76-15.7,1.84-23.5-1.14-9.65-8.71-18.02-8.97-27.73-.1-3.77-.86-10.68,2.91-10.94,3.62-.25-.02,10.61,4.2,10.04,4.52-.62,6.22-15.88,9.8-12.12,4.15,4.37-3.89,18.77-2.85,28.39-.06,6.85,4.65,21.53,11.76,9.86,5.5-6.95,11.85-13.67,18.36-19.36,2.39-2.09,13.31-8.93,9.54,.02-4.91,7.32-11.65,13.29-17.52,19.79-5.49,7.53-13.42,13.43-17.51,21.81-4.14,8.49-5.51,18.19-6.49,27.59-.73,6.97-2.83,14.84,.49,21.01,1.38,2.57,4.33,5.53,7.2,5,9.91-1.84,12.11-16.19,17.01-25,5.12-9.22,5-21.86,12.83-28.93,9.55-8.62,5.95-15.71,13.18-19.09,9.09-.18-2.6,12.94,7.67,10.33,5.47-3.27,14.86,3.09,5.35,5.76-8.43,1.61-18.04,4.5-22.03,11.82-1.54,2.82-9.19,17.24,.77,9.61,5.95-4.32,12.69-7.72,19.4-10.88,6.73-4.29,8.4-9.1,13.26-12.96,4.31-4.82,9.2-22.52,16.54-13.57-3.58,5.48-10.24,17.45,2.08,15.64,4.31,0,19.36,4.29,12.3,7.99-5.22,.56-23.01-4.15-33.37,3.27-5.6,7.66,10.11,2.66,13.62,.54,3.99-3.02,13.18-2.24,11.29,2.63-1.23,3.17-18.49,1.84-1.7,10.05,8.3,3.08,18.17,11.48,7.31,11.54-13.53-4.66-26.1-16.84-41.39-12.55-11.68,4.19-33.51,6.58-32.1,18.92,.7,6.14,11.59,4.57,17.69,5.56,8.37,1.36,17-1.71,25.43,.44,10.07,2.66,20.25-2.36,27.59-9.08,8.6-5.43,8.28,4.11,1.38,8.41-2.54,3.65,9.93,6.7,16.04,9.65,3.95,1.91,6.34,8.61,3.79,8.89-9.89,1.07-17.35-14.34-33.97-11.17-1.92,7.66,15.26,7.75,19.18,14.81,1.21,2.17,3.24,7.42,.75,7.42-4.91,.02-16.36-15.98-12.3,1.95,.26,9.81-6.46-1.44-7.14-4.1-3.3-12.73-11.93-15.08-20.62-17.37-2.31-.61-15.94-3.78-7.04,1.31,8.13,4.26,20.72,4.07,24.71,13.51,1.6,4.88,5.97,17.64-.23,19.06-5.81,1.33-3.48-15.99-7.95-16.01-4.17-1.55-2.3,14.82-8.02,11.88-2.97,.06-.96-13.26-4.98-18.03-5.7-6.76-14.22-11.57-24-11.29-9.78-1.74-19.04,3.74-27.48,8.24-7.14,3.81-13.83,9.02-18.75,15.45-5.05,6.61-9.5,14.51-10.24,22.75-7.25,1.31-19.48-7.35-19.61-8.85,7.7-5.46,15.05-11.45,19.7-19.4,4.2-7.19,8.37-15.98,6.54-24.1-1.47-6.56-7.16-12.19-13.1-15.34-8.02-4.26-18-3.18-27.08-3.06-7.73,.11-15.5,1.19-22.95,3.23-5.61,1.53-8.01,6.5-16.1,6.69-12.4-3.42,12.07-11.7-1.47-9.83-10.33-1.65-.01-11.14,6.3-6.7,6.96,1.03,17.81,6.08,21.04-.14,2.75-5.31-5-11.86-10.25-14.72-9.8-5.34-15.74-17.63-8.02-13.59,3.81,2.08,4.34,3.44,5.06-1.33,2.35-7.91,6.44,5.3,9.21,10.57,4.82,9.16,15.74,14.66,26.32,16.47,12.29,1.93-5.11-12.04-9.08-13.27-7.95-5.09-25.32-18.46-20.7-21.14,4.91-4.38,9.66,8.46,16.67,11.22,1.21,.48,4.12,.34,3.78-.91-2.55-9.34-13.29-16.98-7.48-21.11,3.85-1.14,9.23,9.46,11.94,13.34,3.48,4.49,6.09,9.74,8.89,14.6,2.82,5.66,7.77,10.37,11.56,15.52,2.81,5.81,18.76,12.97,15.75,1.12-2.28-9.37-8.14-19.19-16.74-23.89-11.72-4.89-16.24-17.52-25.27-25.52-6.87-6.33-13.27-13.19-21.8-17.28-8.6-6.09,2.12-9.62,8.83-3.33,3.26,3.06-1.59-14.23,2.83-13.11,8.23,2.09,5.49,21.95,15.1,27.98,5.32-1.16,2.77-8.68,2.71-12.78-1.72-11.63-12.14-28.29-3.96-35.08,4.03-3.35,5.4,9.69,7.57,13.76,4-1.72,1.9-14.62,6.28-12.78,8,3.37-.78,20.33-1.37,29.83-.45,9.09,.53,18.16,1.25,27.18-.12,5.85,12.75,17.15,9.37,5.11-4.17-12.19-7.62-23.98-6.72-37.16,1.52-6.44,1.41-22.12,8.56-20.37,6.5,1.6-4.87,18.85-2.22,28.56,1.16-1.71,7.3-10.16,10.71-7.46,3.62,2.86-4.21,5.86-5.05,12.86h0Z"/><path class="cls-1" d="M171.89,727.36c1.34-2.09,2.84-4.03,4.18-5.83,1.05-1.49,2.39-2.69,3.14-4.33,.45-.9,1.05-1.79,1.64-2.54,.9-1.2,1.94-2.24,3.29-2.69,2.24-.9,3.88-2.54,5.68-4.03,1.49-1.34,2.69-2.69,3.74-4.33,.6-1.05,1.05-2.24,1.49-3.29,.9-1.79,1.05-3.74,1.64-5.68,.9-3.29,2.24-6.28,3.88-9.26,1.2-2.24,2.09-4.63,2.54-7.32,.45-2.39,.15-4.63,.3-6.87,0-.9-.75-.9-1.2-1.2s-.6,.3-.75,.6c-.75,1.05-1.79,1.94-2.54,2.84-1.64,1.79-3.14,3.59-3.88,5.98-.75,2.39-1.49,4.78-2.09,7.17-.45,1.94-1.34,3.74-2.39,5.38-.45,.6-.9,1.2-1.34,1.64-.45,.6-.6,1.49-.9,2.09-.6,1.79-1.64,3.14-2.99,4.63-.15-1.64-.6-2.99-1.49-4.33-.9-1.49-2.24-2.39-3.44-3.59-1.34-1.34-2.84-2.54-4.18-3.74-.15-.15-.3-.3-.45-.3-.45-.3-.9-.6-.9-1.2,.15-.9,.3-1.64,1.34-2.09,1.79-.75,3.59-1.64,5.23-2.84,1.94-1.49,3.59-3.14,5.08-5.08,1.64-2.24,2.39-4.63,2.69-7.32,.15-1.79-.15-3.74,.15-5.53,.15-1.34,.45-2.69,1.34-3.88,.3-.3,.45-.75,.6-1.2,.75-1.49,2.24-2.24,3.44-3.14,1.05-.75,1.05-2.39-.15-2.99-1.05-.6-2.09-.3-2.99,.6-1.2,1.2-2.39,2.54-3.88,3.44-.9,.6-1.49,1.49-2.09,2.39-.9,1.34-1.64,2.99-2.39,4.48-.6,1.49-.9,2.84-1.2,4.48-.3,1.94-.9,3.88-1.79,5.68-.45,.9-1.2,1.2-2.09,1.49-2.39,.9-4.63,2.09-6.13,4.33-.75,1.2-1.2,2.39-1.64,3.74q-.45,1.05-1.2,.45c-1.05-.75-1.94-1.64-2.99-2.39-1.2-.75-1.64-2.24-1.94-3.59-.45-1.64-.45-3.29-.15-5.08,0-.3,.15-.6,.3-1.05,.75-2.09,2.24-3.29,4.18-4.33,2.69-1.49,5.38-3.14,7.47-5.38,1.94-2.09,3.44-4.33,4.03-7.02,.3-1.05,.3-2.09,.3-3.14,0-.45,.15-.75,.6-1.05,3.29-1.49,5.83-3.88,8.37-6.57,1.2-1.2,1.49-2.84,1.94-4.48,.45-1.79,1.2-3.59,2.39-5.08,1.05-1.2,2.54-1.94,3.74-2.84,1.34-1.05,2.84-1.79,3.88-3.14,1.05-1.2,.75-2.09,0-2.99-1.05-1.34-2.84-1.64-4.48-.75-1.34,.75-2.69,1.64-4.18,2.09-.9,.3-1.79,.45-2.69,.9-.75,.45-1.2,.9-1.64,1.64-.75,1.34-1.64,2.69-2.24,4.03-.6,1.34-.9,2.84-1.49,4.18-.6,1.2-.9,2.54-1.05,3.88-.15,1.34-1.2,2.24-2.09,2.99-.45,.45-.9,.75-1.34,1.05-.45,.45-.6,.3-.75-.3-.15-1.2-.6-2.24-1.05-3.14-.6-1.2-1.2-2.54-1.64-3.88-.75-2.24-1.79-4.33-2.24-6.57-.15-1.2-.45-2.39-.45-3.59,0-1.34-1.79-3.14-3.29-3.14s-3.14,0-4.63,.45c-.9,.3-1.79,0-2.69-.15-1.2-.3-2.39-.75-3.59-1.2-.15,0-.3-.15-.45-.3-1.05-.9-2.24-1.64-3.29-2.39-.3-.3-.75-.3-1.2-.45-1.64-.3-2.69-1.34-3.59-2.54-.3-.3-1.64-.15-1.79,.15-.6,.9-.3,2.09,.45,2.84,1.34,1.34,2.69,2.69,3.44,4.63,.45,1.2,.45,2.39,.6,3.59,.3,1.79,1.34,3.14,2.54,4.48,2.24,2.24,5.08,2.84,8.07,3.14,1.79,.15,3.74,.15,5.53,.6,.9,.15,1.49,.75,2.09,1.2,.9,.6,1.34,1.49,1.64,2.69,.6,2.54,1.64,4.93,2.24,7.62,.75,2.55,.6,4.49-.9,6.43-1.79,2.09-3.59,4.03-6.28,4.93-1.34,.45-2.54,1.05-3.59,1.94-.45,.3-.75,.9-1.2,.6-.3-.15-.15-.9-.15-1.49-.15-2.84-2.84-6.72-6.42-6.42-2.54,.15-4.93-.3-7.32-.9-1.2-.3-2.09-1.2-2.69-2.09-.45-.75-1.05-1.34-1.49-2.24-.15-.3-.45-.45-.75-.45-.6-.3-.9-.75-1.05-1.34-.3-1.49-.75-1.94-2.24-1.94-1.05,0-1.2,.15-.9,1.2,.3,1.2,.45,2.54,.45,3.74,0,2.39,.15,4.78,1.34,6.87,.75,1.34,1.94,2.09,3.14,2.99,2.54,1.64,5.53,2.39,8.52,2.99,2.84,.6,4.48,2.69,5.38,5.38,.15,.3,0,.6-.15,.9-.75,1.64-.9,3.29-.75,5.08,.15,1.49,.45,2.84,.9,4.18,.15,.6,.45,1.05,.75,1.49,1.64,2.84,3.74,5.08,6.72,6.42,1.2,.6,2.09,1.79,3.14,2.54,1.94,1.49,3.88,3.14,5.83,4.78,1.34,1.05,2.54,2.24,3.29,3.88,.45,1.34,.75,2.69,1.2,4.03,.6,2.24,0,4.03-1.05,5.83-1.64,2.84-3.59,5.53-5.68,7.92-.15,.15-.3,.45-.45,.75-.15,1.05-.9,1.64-1.64,2.24-.45,.45-.9,1.05-1.2,1.64-.15,.45-.6,.6-.9,.9-.3-2.09,.75-3.88,.45-5.98-.3-1.94-.3-3.88-.9-5.68-.75-2.39-2.24-4.03-4.18-5.53-1.64-1.34-3.59-2.39-5.08-4.03-.15-.15-.45-.45-.45-.75-.75-1.79-1.34-3.74-1.94-5.53-.75-2.24-1.05-4.63-1.79-6.87-.15-.45-.45-.9-.6-1.34-.15-.15-.3-.45-.15-.6,.3-.6-.15-.9-.6-.9s-1.05,.15-1.2,.6c-.75,1.64-1.34,3.44-1.64,5.23-.45,2.69-.9,5.38,0,8.07,.75,2.24,1.2,4.63,2.24,6.72,.6,1.2,1.34,2.39,2.39,3.44,1.05,1.2,1.94,2.69,2.69,4.18,.9,2.09,1.94,4.03,2.84,6.13,.45,1.2,.9,2.39,1.05,3.59,.15,.75,.3,1.49,.6,2.24,.6,1.49,.45,3.14,.6,4.78,.15,1.05-.6,2.24-1.49,2.99-.15,.15-.3,.15-.3,.3-.45,1.79-1.64,3.29-2.54,4.78-1.49,2.54-2.54,5.38-4.03,7.92-.45,.9-1.05,1.79-1.05,2.99,0,1.05-.45,2.09-1.05,2.99-.3,.45-.6,1.05-.15,1.64,.15,.15,.15,.6,.15,.9-.15,.6,.6,1.2,1.2,.9,.6-.15,1.2-.6,1.79-.45,.45,0,.45-.3,.45-.6,0-1.2,.3-2.09,1.2-2.84,.3-.15,.45-.6,.6-1.05,.9-2.24,2.09-4.18,3.29-6.28,.45-.9,1.2-1.79,1.34-2.84,0-.15,.15-.45,.15-.45,1.49-1.2,2.09-2.84,2.84-4.48,.15-.3,.45-.6,.75-.9,.3-.3,.75-.45,.45-1.05,0-.15,1.2-1.34,1.2-1.34,1.94,.3,3.74-.3,5.53-.6,1.64-.15,2.99,.75,4.33,1.49,1.34,.75,2.54,1.64,3.74,2.39,1.79,1.05,3.74,1.2,5.53,.45,1.34-.6,2.24-1.79,2.99-2.99,1.64-2.69,3.88-4.78,6.28-6.87,1.34-1.05,2.69-2.24,4.18-3.14,.6-.3,.6-.75,.15-1.2-.9-.9-1.34-1.94-2.09-2.84-2.09-2.39-5.38-2.24-7.47,0-.75,.9-1.49,1.94-2.09,3.14-.45,1.05-1.34,1.94-2.24,2.84-.75,.75-1.79,.75-2.84,.6-.9-.15-1.79-.45-2.54-.75-2.69-1.05-5.38-.6-7.92,.6-.89,.15-1.64,.75-2.69,.75h0Z"/><path class="cls-1" d="M678.71,837.49c.05,.24-1.9,1.39-1.87,2.29,.36,3.57,23.58,1.55,23.19-2.31-.53-5.35-14.72-9.04-21.32,.03h0Zm-5.17,2.32c.27,2.68-15.79,4.28-16.06,1.6-.36-3.57,8.51-8.06,14.45-2.64,.25,.3,1.51,.39,1.61,1.04h0Zm-12.1-9.9c-1.39,1.7-6.45,4.18-1.43,6.75,3.69-2.17,8.5-2.05,12.1,.89l5.65-.56c4.28-5.23,10.68-7.37,17.51-5.05,1.67-1.37,3.69-2.17,5.77-2.38-9.42-13.17-31.4-13.68-39.61,.35h0Zm24.57-11.03c.92-2.79,2.1-4.55,3.68-6.81,10.56-14.57-5.11-12.1-1.36-28.69,.8-3.98,1.84-8.59-1.1-14.01,3.18,4.79,2.68,8.74,1.72,14.24-3.6,15.07,12.49,13.77,1.72,29.26-1.31,1.93-2.9,3.83-3.55,6.3,.45,.1,.94,.24,1.54,.45,.18-1.22,.97-2.14,2.34-3.47,14.6-16.17-3.12-19.21,.63-35.8,.6-3.06,1.49-6.15-.62-9.25-2.41-3.06-4.7-4.94-3.92-9.22-2.38,3.24-2.71,5.98-.84,9.69,2.53,4.25,1.6,7.05,.47,10.76-5.65,15.58,10.79,17.84,.62,30.27-1.31,1.93-2.92,3.46-3.28,5.89,.31,.04,1.73,.28,1.95,.38h0Zm-9.14-11.84c-2.02,3.81-3.85,7.51-.13,11.64,.89-.09,1.87-.17,2.44-.2-3.98-3.81-2.4-6.33-.32-9.54,5.21-8.03,4.26-14.54-3.24-20.4-3.95-3.51-7.2-5.89,.21-15.94,2.97-6.3-6.51-8.06-2.64-17.45,.98-2.2,1.99-4.1-1.87-6.72,1.25,3.48-.68,5.17-2.32,6.84-7.44,6.75,2.93,11.58,.08,15.56-7.19,11.1-3.18,16.58,1.1,20.36,6.6,5.95,6.63,9.25,3.21,17.1-1.73,3.78-3.45,7.55,.21,11.09,.67-.19,1.19-.33,2.05-.5-3.75-4.43-2.02-8.21,.27-12.34,8.89-19.21-15.79-13.74-4.81-33.16,5.62-9.87-4.67-7.64-1.22-15.19-2.56,7.46,7.4,4.97,1.84,15.43-10.15,18.4,14.55,13.6,5.14,33.42h0Zm-15.96-15.52c-5.68-8.18,3.44-9.45-4.34-16.38,2.62,8.57-5.8,8.42-.63,17.78,6.74,8.8-7.82,17.9,7.19,26.91,1.58,.74,3.12,1.38,3.56,2.84,.42-.29,.73-.48,1.11-.68-1.72-2.23-3.28-3.2-4.88-4.24-10.88-6.72,1.22-14.84-5.05-26.52-3.36-6.57,.6-6.07,.18-13.23,.8,8.03-3.03,5.71,.38,12.88,6.69,12.85-5.27,19.45,4.99,25.93,1.61,1.04,3.56,2.41,5.28,4.64,.34-.22,1.07-.58,1.48-.77-.77-1.73-2.4-3.05-4-4.09-12.25-7.41,1.65-11.14-5.28-25.06h0Zm-3.34,44.78c-2.73-3.33,1.47-4.98,3.05-7.05,.63-.92,.86-1.42,1.65-2.16-4.94-1.31-15.85,2.81-15.35,7.87,.3,2.97,10.64,1.25,10.64,1.34h0Zm38.95-3.89c1.9,1.01,4.79,2.83,4.73,5.23,1.78-.18,10.14-.71,9.9-3.09-3.62-2.64-7.71-6.37-14.63-2.14Z"/><path class="cls-1" d="M543.67,786.5c-2.53-.66-6.04-.22-5.28,4.59-.22,.51-2.53,1.84-1.39,2.34-.25,.66-.32,1.14,.44,1.58,.76,.44,4.27,2.75,7.69,2.37,1.17,1.9,1.61,2.18,7.63,3.73-2.5-1.49-2.85-2.09-2.91-3.13-.06-1.04,.19-2.03,.19-2.03,0,0,1.74-.28,3.26-.89,.51,1.04,3.42,4.08,8.76,4.65-2.21-.57-2.94-1.93-3.26-3.45-.32-1.52-1.17-1.99-2.78-2.59,1.68-.95,1.99-1.65,2.69-1.65s3.42,3.23,4.94,3.04c.47-.63,.54-2.5,.13-3.2-.41-.7-.22-.6-.09-1.77,.13-1.17,.32-2.5-.41-3.35-1.39,.63-3.45,3.48-4.59,3.48s-1.71-.41-2.12-1.08c1.9-1.08,1.04-3.7,4.49-4.59-2.12-.19-4.81,.76-6.68-.25-1.87-1.01-11.2-2.28-10.69,2.18Z"/><path class="cls-1" d="M563.92,763.52c-2.53-.66-6.04-.22-5.28,4.59-.22,.51-2.53,1.84-1.39,2.34-.25,.66-.32,1.14,.44,1.58,.76,.44,4.27,2.75,7.69,2.37,1.17,1.9,1.61,2.18,7.63,3.73-2.5-1.49-2.85-2.09-2.91-3.13-.06-1.04,.19-2.03,.19-2.03,0,0,1.74-.28,3.26-.89,.51,1.04,3.42,4.08,8.76,4.65-2.21-.57-2.94-1.93-3.26-3.45-.32-1.52-1.17-1.99-2.78-2.59,1.68-.95,1.99-1.65,2.69-1.65s3.42,3.23,4.94,3.04c.47-.63,.54-2.5,.13-3.2-.41-.7-.22-.6-.09-1.77,.13-1.17,.32-2.5-.41-3.35-1.39,.63-3.45,3.48-4.59,3.48s-1.71-.41-2.12-1.08c1.9-1.08,1.04-3.7,4.49-4.59-2.12-.19-4.81,.76-6.68-.25-1.87-1.01-11.2-2.28-10.69,2.18Z"/></g></svg>