<?xml version="1.0" encoding="UTF-8"?><svg id="Background" xmlns="http://www.w3.org/2000/svg" viewBox="0 0 480 270"><defs><style>.cls-1{fill:#87ceda;}.cls-2{fill:#0a3147;}.cls-3{fill:#1a658b;}.cls-4{fill:#45b4ca;}.cls-5{fill:#59c1d7;}.cls-6{fill:#2481a2;}</style></defs><g id="Layer_6"><rect id="back" class="cls-1" width="480" height="270"/></g><g id="Layer_5"><path class="cls-5" d="M0,115.31c33.62,.87,43.77,30.88,81.36,46.92,38.3,16.34,57.7-3.32,93.19-5.36,35.49-2.04,48.16,6.05,77.07,0,28.91-6.05,44.08-22.76,83.78-24.13,27.83-.96,19.82,14.31,80.4,14.31,30.13,0,39.85-30.59,64.2-31.74v154.69H0V115.31"/><path class="cls-5" d="M178.94,134.67c.4,1.25,2.55,4.13,4.04,5.52,.65,.46,1.18,1.21,2.02,1.31,.08-1.47-.74-2.87-1.5-4.11-.94-1.54-2.86-2.37-3.65-4-.31-.63-.97-1.74-.35-2.07,.59-.32,.81,1.8,1.48,1.37,.72-.45-.17-3.16,.72-2.8,1.04,.42,.79,3.47,1.7,5.02,.52,1.16,2.44,3.28,2.75,.76,.39-1.6,.95-3.22,1.61-4.69,.24-.54,1.56-2.53,1.61-.73-.27,1.62-.95,3.14-1.44,4.69-.35,1.69-1.23,3.3-1.28,5.03-.05,1.75,.47,3.5,1.03,5.16,.41,1.23,.66,2.73,1.7,3.51,.43,.33,1.16,.6,1.6,.29,1.53-1.07,.8-3.67,.95-5.53,.16-1.95-.84-4.08-.06-5.88,.95-2.19-.2-3.11,.76-4.24,1.52-.73,.56,2.39,2.09,1.16,.67-.97,2.75-.62,1.35,.56-1.3,.92-2.7,2.15-2.81,3.69-.04,.59-.23,3.62,.87,1.56,.67-1.19,1.55-2.28,2.44-3.33,.81-1.24,.72-2.18,1.24-3.21,.36-1.15-.18-4.51,1.75-3.57-.18,1.2-.39,3.74,1.56,2.48,.73-.33,3.6-.77,2.69,.4-.84,.5-4.21,1.07-5.39,3.12-.36,1.73,1.91-.33,2.34-.96,.44-.82,2.06-1.39,2.11-.43,.04,.63-2.98,1.73,.49,1.83,1.64-.12,3.95,.54,2.12,1.39-2.65,.25-5.71-.84-7.96,1.07-1.65,1.61-5.16,3.69-3.97,5.67,.59,.98,2.31-.12,3.42-.42,1.52-.41,2.74-1.6,4.33-1.88,1.91-.33,3.24-1.96,3.96-3.66,1.04-1.58,1.72,.06,.88,1.31-.15,.81,2.19,.37,3.45,.4,.82,.02,1.73,.97,1.32,1.21-1.59,.94-4.04-1.09-6.6,.73,.27,1.44,3.18,.13,4.38,1.03,.37,.27,1.12,1,.7,1.2-.83,.38-3.99-1.44-1.93,1.28,.8,1.64-1.2,.25-1.52-.14-1.54-1.9-3.18-1.63-4.82-1.35-.44,.07-2.99,.59-1.09,.76,1.7,.09,3.82-.91,5.22,.38,.65,.7,2.37,2.52,1.43,3.24-.88,.67-1.82-2.43-2.58-2.09-.82,.06,.75,2.68-.44,2.63-.5,.24-1.18-2.17-2.23-2.66-1.48-.7-3.29-.86-4.93-.06-1.79,.46-2.93,2.1-4.01,3.51-.91,1.19-1.64,2.59-1.98,4.06-.34,1.51-.49,3.18,.02,4.63-1.12,.78-3.86,.26-3.99,.01,.88-1.51,1.66-3.09,1.84-4.8,.16-1.54,.18-3.34-.75-4.58-.75-1-2.15-1.51-3.4-1.58-1.68-.1-3.29,.85-4.81,1.57-1.3,.61-2.53,1.4-3.63,2.31-.83,.69-.85,1.71-2.21,2.37-2.36,.38,1.14-2.91-1-1.55-1.87,.52-.86-1.88,.55-1.62,1.25-.36,3.48-.34,3.54-1.64,.06-1.11-1.76-1.62-2.87-1.7-2.07-.15-4.02-1.77-2.4-1.68,.8,.06,1,.25,.75-.61-.21-1.52,1.5,.4,2.37,1.08,1.52,1.18,3.79,1.27,5.72,.76,2.23-.62-1.79-1.64-2.56-1.54-1.74-.25-5.7-1.17-5.13-1.98,.49-1.12,2.28,.69,3.68,.61,.24-.01,.72-.26,.57-.44-1.15-1.38-3.55-1.85-2.89-2.99,.56-.49,2.29,.89,3.04,1.34,.93,.49,1.78,1.18,2.63,1.78,.91,.74,2.11,1.15,3.15,1.73,.92,.76,4.17,.75,2.75-1.02-1.11-1.41-2.85-2.62-4.67-2.75-2.36,.08-4.09-1.71-6.24-2.37-1.65-.54-3.26-1.21-5.01-1.24-1.92-.37-.38-1.79,1.24-1.24,.79,.27-1.36-2.28-.53-2.43,1.55-.28,2.62,3.29,4.71,3.57,.81-.61-.2-1.68-.53-2.37-1.19-1.83-4.23-3.85-3.37-5.62,.42-.88,1.66,1.22,2.34,1.74,.54-.6-.8-2.62,.08-2.64,1.61-.05,1.43,3.5,2.06,5.15,.62,1.57,1.49,3.03,2.3,4.5,.43,1,3.48,1.92,1.98,.14-1.64-1.74-3.13-3.47-4-5.76-.24-1.21-1.46-3.85-.12-4.1,1.22-.23,.63,3.56,1.82,5,.06-.38,.45-2.28,1.24-2.08,.83,.2-.26,1.32,.14,2.56h0Z"/><path class="cls-5" d="M394.89,91.25c0-.42,1.65-1.9,1.16-2.03-1.53-.42-3.12,1.34-4.02,1.34-.37,0-.99-.06-1.78-.17,.7-.66-1.35-.66-3.67-.56l.05,.02c-.54-.08-1.09-.17-1.65-.26,.35-.21,.69-.47,.61-.68-.15-.42-.61-1.88-1-2.72-.36-.8-2.7,1.41-3.92,2.78-2.07-.26-3.75-.38-4.32-.15-1.7,.67-5.23,2.32-5.23,2.32,0,.76,3.98,3.39,6.7,3.39,1.48,0,3.57,0,5.42-.09,.48,.51,1.52,1.45,2.82,1.67-.51-1.19-1.02-1.71-1.02-1.71,0,0-.04-.03-.11-.07,.84-.08,1.55-.19,2.01-.34,.03,0,.06-.02,.09-.03,1.02,.66,2.96,1.67,3.05,1.09,.09-.61,.12-1.62,.14-1.92,.01-.17-.31-.28-.59-.35,.78-.35,1.57-.62,2.37-.62,.36,0,3.07,1.57,4.06,1.07,.54-.27-1.16-1.2-1.16-1.99Z"/><path class="cls-5" d="M434.64,140.87c-.2-.31-.42-.59-.61-.85-.15-.22-.35-.39-.46-.63-.07-.13-.15-.26-.24-.37-.13-.18-.28-.33-.48-.39-.33-.13-.57-.37-.83-.59-.22-.2-.39-.39-.55-.63-.09-.15-.15-.33-.22-.48-.13-.26-.15-.55-.24-.83-.13-.48-.33-.92-.57-1.36-.18-.33-.31-.68-.37-1.07-.07-.35-.02-.68-.04-1.01,0-.13,.11-.13,.18-.18s.09,.04,.11,.09c.11,.15,.26,.28,.37,.42,.24,.26,.46,.53,.57,.87,.11,.35,.22,.7,.31,1.05,.07,.28,.2,.55,.35,.79,.07,.09,.13,.18,.2,.24,.07,.09,.09,.22,.13,.31,.09,.26,.24,.46,.44,.68,.02-.24,.09-.44,.22-.63,.13-.22,.33-.35,.5-.53,.2-.2,.42-.37,.61-.55,.02-.02,.04-.04,.07-.04,.07-.04,.13-.09,.13-.18-.02-.13-.04-.24-.2-.31-.26-.11-.53-.24-.77-.42-.28-.22-.53-.46-.74-.74-.24-.33-.35-.68-.39-1.07-.02-.26,.02-.55-.02-.81-.02-.2-.07-.39-.2-.57-.04-.04-.07-.11-.09-.18-.11-.22-.33-.33-.5-.46-.15-.11-.15-.35,.02-.44,.15-.09,.31-.04,.44,.09,.18,.18,.35,.37,.57,.5,.13,.09,.22,.22,.31,.35,.13,.2,.24,.44,.35,.66,.09,.22,.13,.42,.18,.66,.04,.28,.13,.57,.26,.83,.07,.13,.18,.18,.31,.22,.35,.13,.68,.31,.9,.63,.11,.18,.18,.35,.24,.55q.07,.15,.18,.07c.15-.11,.28-.24,.44-.35,.18-.11,.24-.33,.28-.53,.07-.24,.07-.48,.02-.74,0-.04-.02-.09-.04-.15-.11-.31-.33-.48-.61-.63-.39-.22-.79-.46-1.09-.79-.28-.31-.5-.63-.59-1.03-.04-.15-.04-.31-.04-.46,0-.07-.02-.11-.09-.15-.48-.22-.85-.57-1.22-.96-.18-.18-.22-.42-.28-.66-.07-.26-.18-.53-.35-.74-.15-.18-.37-.28-.55-.42-.2-.15-.42-.26-.57-.46-.15-.18-.11-.31,0-.44,.15-.2,.42-.24,.66-.11,.2,.11,.39,.24,.61,.31,.13,.04,.26,.07,.39,.13,.11,.07,.18,.13,.24,.24,.11,.2,.24,.39,.33,.59,.09,.2,.13,.42,.22,.61,.09,.18,.13,.37,.15,.57,.02,.2,.18,.33,.31,.44,.07,.07,.13,.11,.2,.15,.07,.07,.09,.04,.11-.04,.02-.18,.09-.33,.15-.46,.09-.18,.18-.37,.24-.57,.11-.33,.26-.63,.33-.96,.02-.18,.07-.35,.07-.53,0-.2,.26-.46,.48-.46s.46,0,.68,.07c.13,.04,.26,0,.39-.02,.18-.04,.35-.11,.53-.18,.02,0,.04-.02,.07-.04,.15-.13,.33-.24,.48-.35,.04-.04,.11-.04,.18-.07,.24-.04,.39-.2,.53-.37,.04-.04,.24-.02,.26,.02,.09,.13,.04,.31-.07,.42-.2,.2-.39,.39-.5,.68-.07,.18-.07,.35-.09,.53-.04,.26-.2,.46-.37,.66-.33,.33-.74,.42-1.18,.46-.26,.02-.55,.02-.81,.09-.13,.02-.22,.11-.31,.18-.13,.09-.2,.22-.24,.39-.09,.37-.24,.72-.33,1.12-.11,.37-.09,.66,.13,.94,.26,.31,.53,.59,.92,.72,.2,.07,.37,.15,.53,.28,.07,.04,.11,.13,.18,.09,.04-.02,.02-.13,.02-.22,.02-.42,.42-.98,.94-.94,.37,.02,.72-.04,1.07-.13,.18-.04,.31-.18,.39-.31,.07-.11,.15-.2,.22-.33,.02-.04,.07-.07,.11-.07,.09-.04,.13-.11,.15-.2,.04-.22,.11-.28,.33-.28,.15,0,.18,.02,.13,.18-.04,.18-.07,.37-.07,.55,0,.35-.02,.7-.2,1.01-.11,.2-.28,.31-.46,.44-.37,.24-.81,.35-1.25,.44-.42,.09-.66,.39-.79,.79-.02,.04,0,.09,.02,.13,.11,.24,.13,.48,.11,.74-.02,.22-.07,.42-.13,.61-.02,.09-.07,.15-.11,.22-.24,.42-.55,.74-.98,.94-.18,.09-.31,.26-.46,.37-.28,.22-.57,.46-.85,.7-.2,.15-.37,.33-.48,.57-.07,.2-.11,.39-.18,.59-.09,.33,0,.59,.15,.85,.24,.42,.53,.81,.83,1.16,.02,.02,.04,.07,.07,.11,.02,.15,.13,.24,.24,.33,.07,.07,.13,.15,.18,.24,.02,.07,.09,.09,.13,.13,.04-.31-.11-.57-.07-.87,.04-.28,.04-.57,.13-.83,.11-.35,.33-.59,.61-.81,.24-.2,.53-.35,.74-.59,.02-.02,.07-.07,.07-.11,.11-.26,.2-.55,.28-.81,.11-.33,.15-.68,.26-1.01,.02-.07,.07-.13,.09-.2,.02-.02,.04-.07,.02-.09-.04-.09,.02-.13,.09-.13s.15,.02,.18,.09c.11,.24,.2,.5,.24,.77,.07,.39,.13,.79,0,1.18-.11,.33-.18,.68-.33,.98-.09,.18-.2,.35-.35,.5-.15,.18-.28,.39-.39,.61-.13,.31-.28,.59-.42,.9-.07,.18-.13,.35-.15,.53-.02,.11-.04,.22-.09,.33-.09,.22-.07,.46-.09,.7-.02,.15,.09,.33,.22,.44,.02,.02,.04,.02,.04,.04,.07,.26,.24,.48,.37,.7,.22,.37,.37,.79,.59,1.16,.07,.13,.15,.26,.15,.44,0,.15,.07,.31,.15,.44,.04,.07,.09,.15,.02,.24-.02,.02-.02,.09-.02,.13,.02,.09-.09,.18-.18,.13-.09-.02-.18-.09-.26-.07-.07,0-.07-.04-.07-.09,0-.18-.04-.31-.18-.42-.04-.02-.07-.09-.09-.15-.13-.33-.31-.61-.48-.92-.07-.13-.18-.26-.2-.42,0-.02-.02-.07-.02-.07-.22-.18-.31-.42-.42-.66-.02-.04-.07-.09-.11-.13-.04-.04-.11-.07-.07-.15,0-.02-.18-.2-.18-.2-.28,.04-.55-.04-.81-.09-.24-.02-.44,.11-.63,.22-.2,.11-.37,.24-.55,.35-.26,.15-.55,.18-.81,.07-.2-.09-.33-.26-.44-.44-.24-.39-.57-.7-.92-1.01-.2-.15-.39-.33-.61-.46-.09-.04-.09-.11-.02-.18,.13-.13,.2-.28,.31-.42,.31-.35,.79-.33,1.09,0,.11,.13,.22,.28,.31,.46,.07,.15,.2,.28,.33,.42,.11,.11,.26,.11,.42,.09,.13-.02,.26-.07,.37-.11,.39-.15,.79-.09,1.16,.09,.13,.02,.24,.11,.39,.11h0Z"/><path class="cls-5" d="M425.4,147.71c.2-.31,.42-.59,.61-.85,.15-.22,.35-.39,.46-.63,.07-.13,.15-.26,.24-.37,.13-.18,.28-.33,.48-.39,.33-.13,.57-.37,.83-.59,.22-.2,.39-.39,.55-.63,.09-.15,.15-.33,.22-.48,.13-.26,.15-.55,.24-.83,.13-.48,.33-.92,.57-1.36,.18-.33,.31-.68,.37-1.07,.07-.35,.02-.68,.04-1.01,0-.13-.11-.13-.18-.18s-.09,.04-.11,.09c-.11,.15-.26,.28-.37,.42-.24,.26-.46,.53-.57,.87-.11,.35-.22,.7-.31,1.05-.07,.28-.2,.55-.35,.79-.07,.09-.13,.18-.2,.24-.07,.09-.09,.22-.13,.31-.09,.26-.24,.46-.44,.68-.02-.24-.09-.44-.22-.63-.13-.22-.33-.35-.5-.53-.2-.2-.42-.37-.61-.55-.02-.02-.04-.04-.07-.04-.07-.04-.13-.09-.13-.18,.02-.13,.04-.24,.2-.31,.26-.11,.53-.24,.77-.42,.28-.22,.53-.46,.74-.74,.24-.33,.35-.68,.39-1.07,.02-.26-.02-.55,.02-.81,.02-.2,.07-.39,.2-.57,.04-.04,.07-.11,.09-.18,.11-.22,.33-.33,.5-.46,.15-.11,.15-.35-.02-.44-.15-.09-.31-.04-.44,.09-.18,.18-.35,.37-.57,.5-.13,.09-.22,.22-.31,.35-.13,.2-.24,.44-.35,.66-.09,.22-.13,.42-.18,.66-.04,.28-.13,.57-.26,.83-.07,.13-.18,.18-.31,.22-.35,.13-.68,.31-.9,.63-.11,.18-.18,.35-.24,.55q-.07,.15-.18,.07c-.15-.11-.28-.24-.44-.35-.18-.11-.24-.33-.28-.53-.07-.24-.07-.48-.02-.74,0-.04,.02-.09,.04-.15,.11-.31,.33-.48,.61-.63,.39-.22,.79-.46,1.09-.79,.28-.31,.5-.63,.59-1.03,.04-.15,.04-.31,.04-.46,0-.07,.02-.11,.09-.15,.48-.22,.85-.57,1.22-.96,.18-.18,.22-.42,.28-.66,.07-.26,.18-.53,.35-.74,.15-.18,.37-.28,.55-.42,.2-.15,.42-.26,.57-.46,.15-.18,.11-.31,0-.44-.15-.2-.42-.24-.66-.11-.2,.11-.39,.24-.61,.31-.13,.04-.26,.07-.39,.13-.11,.07-.18,.13-.24,.24-.11,.2-.24,.39-.33,.59-.09,.2-.13,.42-.22,.61-.09,.18-.13,.37-.15,.57-.02,.2-.18,.33-.31,.44-.07,.07-.13,.11-.2,.15-.07,.07-.09,.04-.11-.04-.02-.18-.09-.33-.15-.46-.09-.18-.18-.37-.24-.57-.11-.33-.26-.63-.33-.96-.02-.18-.07-.35-.07-.53,0-.2-.26-.46-.48-.46s-.46,0-.68,.07c-.13,.04-.26,0-.39-.02-.18-.04-.35-.11-.53-.18-.02,0-.04-.02-.07-.04-.15-.13-.33-.24-.48-.35-.04-.04-.11-.04-.18-.07-.24-.04-.39-.2-.53-.37-.04-.04-.24-.02-.26,.02-.09,.13-.04,.31,.07,.42,.2,.2,.39,.39,.5,.68,.07,.18,.07,.35,.09,.53,.04,.26,.2,.46,.37,.66,.33,.33,.74,.42,1.18,.46,.26,.02,.55,.02,.81,.09,.13,.02,.22,.11,.31,.18,.13,.09,.2,.22,.24,.39,.09,.37,.24,.72,.33,1.12,.11,.37,.09,.66-.13,.94-.26,.31-.53,.59-.92,.72-.2,.07-.37,.15-.53,.28-.07,.04-.11,.13-.18,.09-.04-.02-.02-.13-.02-.22-.02-.42-.42-.98-.94-.94-.37,.02-.72-.04-1.07-.13-.18-.04-.31-.18-.39-.31-.07-.11-.15-.2-.22-.33-.02-.04-.07-.07-.11-.07-.09-.04-.13-.11-.15-.2-.04-.22-.11-.28-.33-.28-.15,0-.18,.02-.13,.18,.04,.18,.07,.37,.07,.55,0,.35,.02,.7,.2,1.01,.11,.2,.28,.31,.46,.44,.37,.24,.81,.35,1.25,.44,.42,.09,.66,.39,.79,.79,.02,.04,0,.09-.02,.13-.11,.24-.13,.48-.11,.74,.02,.22,.07,.42,.13,.61,.02,.09,.07,.15,.11,.22,.24,.42,.55,.74,.98,.94,.18,.09,.31,.26,.46,.37,.28,.22,.57,.46,.85,.7,.2,.15,.37,.33,.48,.57,.07,.2,.11,.39,.18,.59,.09,.33,0,.59-.15,.85-.24,.42-.53,.81-.83,1.16-.02,.02-.04,.07-.07,.11-.02,.15-.13,.24-.24,.33-.07,.07-.13,.15-.18,.24-.02,.07-.09,.09-.13,.13-.04-.31,.11-.57,.07-.87-.04-.28-.04-.57-.13-.83-.11-.35-.33-.59-.61-.81-.24-.2-.53-.35-.74-.59-.02-.02-.07-.07-.07-.11-.11-.26-.2-.55-.28-.81-.11-.33-.15-.68-.26-1.01-.02-.07-.07-.13-.09-.2-.02-.02-.04-.07-.02-.09,.04-.09-.02-.13-.09-.13s-.15,.02-.18,.09c-.11,.24-.2,.5-.24,.77-.07,.39-.13,.79,0,1.18,.11,.33,.18,.68,.33,.98,.09,.18,.2,.35,.35,.5,.15,.18,.28,.39,.39,.61,.13,.31,.28,.59,.42,.9,.07,.18,.13,.35,.15,.53,.02,.11,.04,.22,.09,.33,.09,.22,.07,.46,.09,.7,.02,.15-.09,.33-.22,.44-.02,.02-.04,.02-.04,.04-.07,.26-.24,.48-.37,.7-.22,.37-.37,.79-.59,1.16-.07,.13-.15,.26-.15,.44,0,.15-.07,.31-.15,.44-.04,.07-.09,.15-.02,.24,.02,.02,.02,.09,.02,.13-.02,.09,.09,.18,.18,.13,.09-.02,.18-.09,.26-.07,.07,0,.07-.04,.07-.09,0-.18,.04-.31,.18-.42,.04-.02,.07-.09,.09-.15,.13-.33,.31-.61,.48-.92,.07-.13,.18-.26,.2-.42,0-.02,.02-.07,.02-.07,.22-.18,.31-.42,.42-.66,.02-.04,.07-.09,.11-.13,.04-.04,.11-.07,.07-.15,0-.02,.18-.2,.18-.2,.28,.04,.55-.04,.81-.09,.24-.02,.44,.11,.63,.22,.2,.11,.37,.24,.55,.35,.26,.15,.55,.18,.81,.07,.2-.09,.33-.26,.44-.44,.24-.39,.57-.7,.92-1.01,.2-.15,.39-.33,.61-.46,.09-.04,.09-.11,.02-.18-.13-.13-.2-.28-.31-.42-.31-.35-.79-.33-1.09,0-.11,.13-.22,.28-.31,.46-.07,.15-.2,.28-.33,.42-.11,.11-.26,.11-.42,.09-.13-.02-.26-.07-.37-.11-.39-.15-.79-.09-1.16,.09-.13,.02-.24,.11-.39,.11h0Z"/><path class="cls-5" d="M285.56,146.43s-.56-.53-.81-1.53c-.19-.77,.04-1.76,.18-2.06,.18-.4,.46-.85,1.54-.91,1.08-.07,2.19,.41,2.34,.46,.5,.19,1,.4,1.84,.2,.82-.19,.92-.43,.85-.57-.03-.07-.14-.1-.24-.12-.07,0-.09-.07-.07-.13,.12-.28-.11-.44-.22-.33-.18,.17-.38,.37-.58,.28-.22-.1-.23-.48-.02-.55,.49-.17,.63-.51,.37-.63-.19-.1-.25,.07-.38,.02-.11-.04-.05-.13-.12-.23-.07-.1-.34-.15-.4,.1-.07,.27,0,.65-.19,.83-.18,.18-.64,.17-.73-.21-.07-.27,.22-.62,.56-.76,.35-.13,.88-.23,.9-.49,.02-.22-.22-.25-.16-.36,.05-.09-.09-.25-.17-.22-.12,.03-.18,0-.12-.15,.05-.12-.2-.25-.27-.13-.01,.02-.05,.08-.07,.09-.06,.08-.13,.01-.14-.08,0-.11,.02-.23,0-.31-.04-.11-.34-.16-.38,.18-.02,.17-.04,.28-.08,.36-.03,.07-.16,.18-.24,.02-.09-.19,0-.38-.12-.45-.21-.12-.36-.05-.43,.17-.03,.07-.15,.1-.19,.05-.19-.24-.46-.23-.55-.1-.2,.31,.26,.9-.47,.76-.3-.06,.22-.61,.03-.74-.13-.09-.18,.16-.28,.04-.11-.13-.13-.29-.29-.21-.21,.1,.04,.41-.19,.46-.15,.03-.3-.3-.5-.15-.18,.14,.26,.47-.15,.48-.15,0-.21,.28,.11,.28,.52,0,.75,.58,.38,1.11-.37,.53-.59,.28-1.3,1.1-.61,.71-.57,1.88-.94,1.87-.24,0-.39-1.19-.39-1.63,0-.59-.15-2.17,1.44-3.48,1.01-.83,2.32-.75,3.09-.7,1.65,.11,2.38-.01,2.9-.44,.39-.33,.37-.61,.08-.64-.08,0-.11-.12-.04-.19,.12-.12,.11-.35-.07-.38-.25-.03-.93,.64-1.17-.07-.24-.71,1.01-.98,1.38-1.17,.32-.16,.14-.63-.07-.6-.2,.03-.63,.15-.44-.35,.15-.4-.51-.6-.63-.33-.11,.28-.41,1.23-.76,1.15-.34-.08-.45-.6-.1-1.1,.44-.62,.08-.64-.09-.56-.03,.02-.08,.01-.08-.04,0-.14-.04-.22-.21-.2-.21,.03-.1,.46-.33,.4-.17-.05-.06-.48-.06-.65,0-.21-.21-.31-.35-.18-.1,.1-.03,.32-.13,.32-.09,.02-.14-.21-.21-.27-.12-.11-.42,.03-.32,.37,.12,.39,1.16,1.36,.52,1.73-.46,.27-.96-1.04-1.22-1.07-.19-.02-.29,.13-.28,.34,0,.1-.03,.16-.11,.11-.26-.14-.56-.02-.46,.31,.08,.27,1.07,.59,1.06,1.39-.03,1.22-.82,1.33-1.9,2.08-.23,.16-1.04,.95-1.33,.88-.73-.15,1.69-4.14,2.04-6.95,.11-.91,.08-1.48,.08-1.66,0-.31-.46-.34-.54-.01-.05,.17-.18,.1-.19,0-.03-.17-.12-.27-.28-.23-.18,.04-.28,.14-.2,.49,.06,.26,.08,.5-.11,.51-.3,.03-.38-.56-.42-.96-.03-.31-.11-.44-.34-.38-.23,.06-.02,.4-.28,.43-.15,0-.18-.33-.43-.3-.19,.03-.5,.35-.23,.58,.27,.23,1.89,1.3,1.31,1.9-.49,.44-1.19-.47-1.34-.66-.19-.23-1.09-1.45-1.4-1.3-.33,.16,.11,.44-.03,.66-.15,.25-.57-.1-.63,.28-.03,.2,.43,.23,.32,.45-.1,.12-.27,.13-.4,.15-.19,.03-.29,.4,.02,.52,.27,.11,1.26-.35,1.68,.29,.23,.36,.16,.71-.16,.66-.32-.05-1.45-.5-1.63-.3-.2,.22,.18,.3,.11,.48-.03,.08-.09,.1-.24,.12-.15,.02-.18,.23,.03,.35,.59,.32,2.36-.16,3.18,.3,1.02,.56-.19,2.67-.86,4.42-.42,1.11-1.97,1.31-2.5,.15-.68-1.46-.57-2.13-.19-2.96,.58-1.25,.42-1.41,.29-1.49-.23-.14-.35-.08-.51,.06-.33,.28-.46,.07-.58-.12-.14-.24-.33-.22-.44-.2-.22,.03-.46,.17-.25,.75s1.12,3.33,.45,3.41c-1.8,.22-1.68-3.74-1.88-4.02-.1-.28-.56-.12-.55,.09,0,.22,.17,.64-.2,.85-.37,.22-.71-.32-1.08-.79-.3-.37-.66,.06-.45,.35,.17,.23,.08,.35-.07,.32-.27-.04-.74-.02-.69,.46,.03,.35,2.69,1.61,2,2.41-.51,.37-1.84-.65-2.07-1.27-.12-.32-.31-.43-.52-.24-.41,.36,.09,.49-.04,.7-.09,.14-.32,.07-.45,.09-.23,.04-.37,.34-.2,.58,.13,.19,.63-.04,1,.12s.95,.51,.68,.87c-.45,.48-.9,.02-1.49-.37s-.77-.52-.88-.28c-.08,.17,.2,.2,.08,.37-.09,.11-.21,.03-.27,.03-.17,.02-.22,.2-.09,.32,.07,.07,.19,.07,.26,.11,.12,.06,.15,.24,0,.39-.18,.17-.55,.07-.59,.25-.03,.15-.02,.26,.21,.31,.07,.01,.12,.08,.05,.15-.15,.15-.15,.35,.09,.42,.37,.11,1.32-.51,1.64-.5,.93,.01,1.32,1.06,.41,1.52-.46,.23-1.03-.06-1.28,.11-.25,.17-.14,.31,.03,.46,.09,.09,.05,.15-.08,.32-.13,.16-.02,.43,.22,.36,.24-.07,.29-.18,.45,0,.17,.18,.11,.23,.07,.46-.05,.24,0,.31,.2,.34,.08,.01,.13-.18,.19-.17,.09,.01,.03,.22,.17,.25,.21,.04,.28-.44,.37-.8,.08-.3,.35-.8,.5-.97,.39-.46,1-.39,1.08,.16,.07,.44-.21,1,0,1.1,.4,.2,.38-.46,.63-.37,.2,.08,.11,.36,.3,.41,.19,.06,.4-.08,.4-.5s0-1.28,.44-1.74c.48-.51,1.68-1.01,3.04-.15,1.36,.86,1.34,.7,2.16,2.11,.32,.55,.81,1.92,1.11,2.37,.48,.71,1.34,1.28,1.43,1.28,.08,0,.32-.23,.32-.23h0Z"/><path class="cls-5" d="M86.94,155.15c-1.41,.63-2.06-.07-3.4-.37-.6-.13-1.48,.17-2.28,.54,.61-.79,1.04-1.57,1.31-2.41,1.11-.87,2.57-2.03,3.83-3.3,2.19-2.2,2.65-6.16,2.65-6.16,0,0-.6,1.13-1.65,2.63-.87,1.24-2.3,2.42-4.39,3.83,.23-1.74,.79-4,2.99-6.65,0,0-3.41,1.27-4.23,4.83-.28,1.23-.47,2.24-.66,3.11-1.09,.92-2.06,2.45-2.83,3.93,.22-.53,.47-1.11,.74-1.77,2.19-5.38,1.32-6.95,1.53-10.05,.21-3.11,2.29-5.75,2.29-5.75,0,0-2.15,1.38-3.3,3.97-1.15,2.58-.61,5.67-.82,8.82-.16,2.29-2.07,5.63-3.1,7.27,.35-1.17,1.01-2.91,2.19-6.32,1.84-5.32-2.14-12.88-2.14-12.88,.12,3.09,1.18,4.02,1.41,8.72,.08,1.59-.15,3.06-.5,4.39-.11-1.77-1.08-3.44-2.23-4.98-.35-1.06-.66-1.96-.55-2.94,.17-1.65,1.18-2.58,1.18-2.58,0,0-1.68-.05-1.96,2.5-.02,.21-.03,.41-.03,.61-.73-2.3-.5-5.11-.5-5.11,0,0-1.53,2.22-.9,5.19,.31,1.46,1.25,3.17,2.11,4.74-.03,.44-.09,.94-.22,1.51-.36,1.64-.86,2.79-1.23,3.83-.07-.09-.14-.18-.21-.26-1.66-1.9-2.61-3.35-2.74-4.52-.13-1.17-.37-2.06-.37-2.06,0,0-.7,3.17,.44,5.13,.72,1.25,1.7,2.63,2.38,3.73-.05,.56,0,1.16,.17,1.85,.72,2.82,2.89,3.68,2.89,3.68h0c.08,.03,.15,.03,.21,0,.06-.03,.1-.06,.14-.1,.23,.24,.74,0,1.18-.48,0,0,2.27-1.6,3.63-3.14,1.36-1.54,2.84-.84,5.44-1.04,2.6-.19,4.52-3.83,4.52-3.83,0,0-1.59,1.29-3.01,1.92h0Zm-13.33,2.46c-.1-.42-.22-.85-.36-1.28,.29-2.01,1.15-3.66,1.57-5.21,.33,.74,.52,1.38,.45,1.86-.17,1.24-1.11,3.43-1.66,4.63h0Z"/><path class="cls-5" d="M96.71,164.4c-1.55-.03-1.83-.94-2.92-1.79-.48-.37-1.41-.48-2.29-.48,.88-.46,1.61-.97,2.21-1.62,1.37-.32,3.19-.74,4.87-1.35,2.92-1.06,5.02-4.45,5.02-4.45,0,0-1.02,.77-2.61,1.68-1.32,.75-3.11,1.21-5.61,1.6,.95-1.48,2.42-3.28,5.54-4.75,0,0-3.63-.3-5.88,2.58-.78,1-1.38,1.83-1.92,2.54-1.37,.37-2.91,1.34-4.23,2.35,.43-.38,.9-.81,1.42-1.29,4.27-3.93,4.15-5.72,5.66-8.45,1.51-2.72,4.52-4.23,4.52-4.23,0,0-2.53,.34-4.68,2.19-2.14,1.85-2.96,4.87-4.5,7.63-1.12,2.01-4.27,4.21-5.89,5.26,.82-.9,2.16-2.2,4.67-4.79,3.93-4.04,3.55-12.57,3.55-12.57-1.2,2.85-.64,4.14-2.44,8.49-.61,1.47-1.43,2.71-2.32,3.76,.65-1.65,.48-3.57,.1-5.46,.14-1.1,.24-2.05,.75-2.89,.86-1.42,2.16-1.83,2.16-1.83,0,0-1.5-.76-2.84,1.43-.11,.18-.21,.36-.29,.53,.32-2.39,1.72-4.84,1.72-4.84,0,0-2.33,1.36-3.02,4.32-.34,1.45-.21,3.4-.11,5.18-.21,.39-.48,.81-.84,1.27-1.02,1.33-1.96,2.16-2.74,2.94-.02-.11-.05-.22-.08-.33-.69-2.42-.93-4.14-.55-5.26,.38-1.12,.55-2.02,.55-2.02,0,0-1.98,2.57-1.79,4.83,.12,1.43,.42,3.1,.56,4.39-.28,.49-.5,1.04-.63,1.74-.55,2.85,1.05,4.56,1.05,4.56h0c.05,.05,.12,.09,.19,.09,.06,0,.12-.01,.17-.03,.11,.32,.66,.32,1.28,.07,0,0,2.74-.49,4.62-1.3,1.88-.81,2.93,.44,5.37,1.37,2.44,.93,5.72-1.54,5.72-1.54,0,0-1.99,.49-3.54,.46h0Zm-13.11-3.45c.09-.42,.16-.87,.21-1.31,1.12-1.7,2.6-2.82,3.64-4.05-.02,.81-.12,1.47-.38,1.87-.68,1.05-2.47,2.63-3.47,3.48h0Z"/></g><g id="Layer_4"><path class="cls-4" d="M0,196.17c36.1-27.32,79.57,7.07,114.92,10.84,46.99,5.01,65.95-.81,94.86-6.86,31.79-12.26,52.21-31.95,91.91-33.32,39.7-1.37,101.11,67.98,178.3,29.35v73.83H0v-73.83"/><path class="cls-4" d="M314.24,137.8c-.21,1.75,.81,6.49,1.87,9.01,.53,.93,.77,2.14,1.74,2.73,.92-1.76,.69-3.92,.46-5.88-.28-2.41-2.18-4.5-2.24-6.93-.02-.94-.21-2.67,.73-2.73,.9-.06,0,2.65,1.05,2.51,1.13-.15,1.55-3.97,2.45-3.03,1.04,1.09-.97,4.69-.71,7.1-.02,1.71,1.16,5.38,2.94,2.47,1.38-1.74,2.96-3.42,4.59-4.84,.6-.52,3.33-2.23,2.38,0-1.23,1.83-2.91,3.32-4.38,4.95-1.37,1.88-3.36,3.36-4.38,5.45-1.04,2.12-1.38,4.55-1.62,6.9-.18,1.74-.71,3.71,.12,5.25,.35,.64,1.08,1.38,1.8,1.25,2.48-.46,3.03-4.05,4.25-6.25,1.28-2.3,1.25-5.46,3.21-7.23,2.39-2.16,1.49-3.93,3.29-4.77,2.27-.04-.65,3.24,1.92,2.58,1.37-.82,3.72,.77,1.34,1.44-2.11,.4-4.51,1.13-5.51,2.95-.38,.7-2.3,4.31,.19,2.4,1.49-1.08,3.17-1.93,4.85-2.72,1.68-1.07,2.1-2.27,3.32-3.24,1.08-1.2,2.3-5.63,4.13-3.39-.9,1.37-2.56,4.36,.52,3.91,1.08,0,4.84,1.07,3.07,2-1.3,.14-5.75-1.04-8.34,.82-1.4,1.91,2.53,.67,3.4,.14,1-.75,3.3-.56,2.82,.66-.31,.79-4.62,.46-.42,2.51,2.07,.77,4.54,2.87,1.83,2.88-3.38-1.17-6.52-4.21-10.35-3.14-2.92,1.05-8.38,1.65-8.02,4.73,.18,1.54,2.9,1.14,4.42,1.39,2.09,.34,4.25-.43,6.36,.11,2.52,.66,5.06-.59,6.9-2.27,2.15-1.36,2.07,1.03,.34,2.1-.63,.91,2.48,1.67,4.01,2.41,.99,.48,1.58,2.15,.95,2.22-2.47,.27-4.34-3.58-8.49-2.79-.48,1.91,3.82,1.94,4.8,3.7,.3,.54,.81,1.85,.19,1.86-1.23,0-4.09-3.99-3.08,.49,.07,2.45-1.61-.36-1.79-1.03-.82-3.18-2.98-3.77-5.15-4.34-.58-.15-3.99-.94-1.76,.33,2.03,1.07,5.18,1.02,6.18,3.38,.4,1.22,1.49,4.41-.06,4.76-1.45,.33-.87-4-1.99-4-1.04-.39-.57,3.71-2,2.97-.74,.02-.24-3.32-1.24-4.51-1.42-1.69-3.56-2.89-6-2.82-2.44-.44-4.76,.93-6.87,2.06-1.79,.95-3.46,2.25-4.69,3.86-1.26,1.65-2.38,3.63-2.56,5.69-1.81,.33-4.87-1.84-4.9-2.21,1.92-1.36,3.76-2.86,4.92-4.85,1.05-1.8,2.09-3.99,1.64-6.02-.37-1.64-1.79-3.05-3.28-3.84-2.01-1.07-4.5-.8-6.77-.76-1.93,.03-3.88,.3-5.74,.81-1.4,.38-2,1.62-4.03,1.67-3.1-.86,3.02-2.92-.37-2.46-2.58-.41,0-2.78,1.57-1.68,1.74,.26,4.45,1.52,5.26-.04,.69-1.33-1.25-2.96-2.56-3.68-2.45-1.34-3.93-4.41-2-3.4,.95,.52,1.08,.86,1.27-.33,.59-1.98,1.61,1.33,2.3,2.64,1.2,2.29,3.93,3.66,6.58,4.12,3.07,.48-1.28-3.01-2.27-3.32-1.99-1.27-6.33-4.62-5.18-5.28,1.23-1.09,2.41,2.12,4.17,2.81,.3,.12,1.03,.09,.95-.23-.64-2.34-3.32-4.25-1.87-5.28,.96-.28,2.31,2.36,2.98,3.33,.87,1.12,1.52,2.43,2.22,3.65,.71,1.42,1.94,2.59,2.89,3.88,.7,1.45,4.69,3.24,3.94,.28-.57-2.34-2.04-4.8-4.19-5.97-2.93-1.22-4.06-4.38-6.32-6.38-1.72-1.58-3.32-3.3-5.45-4.32-2.15-1.52,.53-2.41,2.21-.83,.81,.76-.4-3.56,.71-3.28,2.06,.52,1.37,5.49,3.77,7,1.33-.29,.69-2.17,.68-3.19-.43-2.91-3.04-7.07-.99-8.77,1.01-.84,1.35,2.42,1.89,3.44,1-.43,.48-3.66,1.57-3.2,2,.84-.19,5.08-.34,7.46-.11,2.27,.13,4.54,.31,6.8-.03,1.46,3.19,4.29,2.34,1.28-1.04-3.05-1.9-5.99-1.68-9.29,.38-1.61,.35-5.53,2.14-5.09,1.63,.4-1.22,4.71-.55,7.14,.29-.43,1.82-2.54,2.68-1.86,.9,.71-1.05,1.47-1.26,3.21h0Z"/><path class="cls-4" d="M42.97,181.84c.34-.52,.71-1.01,1.05-1.46,.26-.37,.6-.67,.78-1.08,.11-.22,.26-.45,.41-.64,.22-.3,.49-.56,.82-.67,.56-.22,.97-.64,1.42-1.01,.37-.34,.67-.67,.93-1.08,.15-.26,.26-.56,.37-.82,.22-.45,.26-.93,.41-1.42,.22-.82,.56-1.57,.97-2.32,.3-.56,.52-1.16,.64-1.83,.11-.6,.04-1.16,.07-1.72,0-.22-.19-.22-.3-.3s-.15,.07-.19,.15c-.19,.26-.45,.49-.64,.71-.41,.45-.78,.9-.97,1.49-.19,.6-.37,1.2-.52,1.79-.11,.49-.34,.93-.6,1.34-.11,.15-.22,.3-.34,.41-.11,.15-.15,.37-.22,.52-.15,.45-.41,.78-.75,1.16-.04-.41-.15-.75-.37-1.08-.22-.37-.56-.6-.86-.9-.34-.34-.71-.64-1.05-.93-.04-.04-.07-.07-.11-.07-.11-.07-.22-.15-.22-.3,.04-.22,.07-.41,.34-.52,.45-.19,.9-.41,1.31-.71,.49-.37,.9-.78,1.27-1.27,.41-.56,.6-1.16,.67-1.83,.04-.45-.04-.93,.04-1.38,.04-.34,.11-.67,.34-.97,.07-.07,.11-.19,.15-.3,.19-.37,.56-.56,.86-.78,.26-.19,.26-.6-.04-.75-.26-.15-.52-.07-.75,.15-.3,.3-.6,.64-.97,.86-.22,.15-.37,.37-.52,.6-.22,.34-.41,.75-.6,1.12-.15,.37-.22,.71-.3,1.12-.07,.49-.22,.97-.45,1.42-.11,.22-.3,.3-.52,.37-.6,.22-1.16,.52-1.53,1.08-.19,.3-.3,.6-.41,.93q-.11,.26-.3,.11c-.26-.19-.49-.41-.75-.6-.3-.19-.41-.56-.49-.9-.11-.41-.11-.82-.04-1.27,0-.07,.04-.15,.07-.26,.19-.52,.56-.82,1.05-1.08,.67-.37,1.34-.78,1.87-1.34,.49-.52,.86-1.08,1.01-1.76,.07-.26,.07-.52,.07-.78,0-.11,.04-.19,.15-.26,.82-.37,1.46-.97,2.09-1.64,.3-.3,.37-.71,.49-1.12,.11-.45,.3-.9,.6-1.27,.26-.3,.64-.49,.93-.71,.34-.26,.71-.45,.97-.78,.26-.3,.19-.52,0-.75-.26-.34-.71-.41-1.12-.19-.34,.19-.67,.41-1.05,.52-.22,.07-.45,.11-.67,.22-.19,.11-.3,.22-.41,.41-.19,.34-.41,.67-.56,1.01-.15,.34-.22,.71-.37,1.05-.15,.3-.22,.64-.26,.97-.04,.34-.3,.56-.52,.75-.11,.11-.22,.19-.34,.26-.11,.11-.15,.07-.19-.07-.04-.3-.15-.56-.26-.78-.15-.3-.3-.64-.41-.97-.19-.56-.45-1.08-.56-1.64-.04-.3-.11-.6-.11-.9,0-.34-.45-.78-.82-.78s-.78,0-1.16,.11c-.22,.07-.45,0-.67-.04-.3-.07-.6-.19-.9-.3-.04,0-.07-.04-.11-.07-.26-.22-.56-.41-.82-.6-.07-.07-.19-.07-.3-.11-.41-.07-.67-.34-.9-.64-.07-.07-.41-.04-.45,.04-.15,.22-.07,.52,.11,.71,.34,.34,.67,.67,.86,1.16,.11,.3,.11,.6,.15,.9,.07,.45,.34,.78,.64,1.12,.56,.56,1.27,.71,2.02,.78,.45,.04,.93,.04,1.38,.15,.22,.04,.37,.19,.52,.3,.22,.15,.34,.37,.41,.67,.15,.64,.41,1.23,.56,1.91,.19,.64,.15,1.12-.22,1.61-.45,.52-.9,1.01-1.57,1.23-.34,.11-.64,.26-.9,.49-.11,.07-.19,.22-.3,.15-.07-.04-.04-.22-.04-.37-.04-.71-.71-1.68-1.61-1.61-.64,.04-1.23-.07-1.83-.22-.3-.07-.52-.3-.67-.52-.11-.19-.26-.34-.37-.56-.04-.07-.11-.11-.19-.11-.15-.07-.22-.19-.26-.34-.07-.37-.19-.49-.56-.49-.26,0-.3,.04-.22,.3,.07,.3,.11,.64,.11,.93,0,.6,.04,1.2,.34,1.72,.19,.34,.49,.52,.78,.75,.64,.41,1.38,.6,2.13,.75,.71,.15,1.12,.67,1.34,1.34,.04,.07,0,.15-.04,.22-.19,.41-.22,.82-.19,1.27,.04,.37,.11,.71,.22,1.05,.04,.15,.11,.26,.19,.37,.41,.71,.93,1.27,1.68,1.61,.3,.15,.52,.45,.78,.64,.49,.37,.97,.78,1.46,1.2,.34,.26,.64,.56,.82,.97,.11,.34,.19,.67,.3,1.01,.15,.56,0,1.01-.26,1.46-.41,.71-.9,1.38-1.42,1.98-.04,.04-.07,.11-.11,.19-.04,.26-.22,.41-.41,.56-.11,.11-.22,.26-.3,.41-.04,.11-.15,.15-.22,.22-.07-.52,.19-.97,.11-1.49-.07-.49-.07-.97-.22-1.42-.19-.6-.56-1.01-1.05-1.38-.41-.34-.9-.6-1.27-1.01-.04-.04-.11-.11-.11-.19-.19-.45-.34-.93-.49-1.38-.19-.56-.26-1.16-.45-1.72-.04-.11-.11-.22-.15-.34-.04-.04-.07-.11-.04-.15,.07-.15-.04-.22-.15-.22s-.26,.04-.3,.15c-.19,.41-.34,.86-.41,1.31-.11,.67-.22,1.34,0,2.02,.19,.56,.3,1.16,.56,1.68,.15,.3,.34,.6,.6,.86,.26,.3,.49,.67,.67,1.05,.22,.52,.49,1.01,.71,1.53,.11,.3,.22,.6,.26,.9,.04,.19,.07,.37,.15,.56,.15,.37,.11,.78,.15,1.2,.04,.26-.15,.56-.37,.75-.04,.04-.07,.04-.07,.07-.11,.45-.41,.82-.64,1.2-.37,.64-.64,1.34-1.01,1.98-.11,.22-.26,.45-.26,.75,0,.26-.11,.52-.26,.75-.07,.11-.15,.26-.04,.41,.04,.04,.04,.15,.04,.22-.04,.15,.15,.3,.3,.22,.15-.04,.3-.15,.45-.11,.11,0,.11-.07,.11-.15,0-.3,.07-.52,.3-.71,.07-.04,.11-.15,.15-.26,.22-.56,.52-1.05,.82-1.57,.11-.22,.3-.45,.34-.71,0-.04,.04-.11,.04-.11,.37-.3,.52-.71,.71-1.12,.04-.07,.11-.15,.19-.22,.07-.07,.19-.11,.11-.26,0-.04,.3-.34,.3-.34,.49,.07,.93-.07,1.38-.15,.41-.04,.75,.19,1.08,.37,.34,.19,.64,.41,.93,.6,.45,.26,.93,.3,1.38,.11,.34-.15,.56-.45,.75-.75,.41-.67,.97-1.2,1.57-1.72,.34-.26,.67-.56,1.05-.78,.15-.07,.15-.19,.04-.3-.22-.22-.34-.49-.52-.71-.52-.6-1.34-.56-1.87,0-.19,.22-.37,.49-.52,.78-.11,.26-.34,.49-.56,.71-.19,.19-.45,.19-.71,.15-.22-.04-.45-.11-.64-.19-.67-.26-1.34-.15-1.98,.15-.22,.04-.41,.19-.67,.19h0Z"/><path class="cls-4" d="M169.68,209.37c.01,.06-.47,.35-.47,.57,.09,.89,5.89,.39,5.8-.58-.13-1.34-3.68-2.26-5.33,0h0Zm-1.29,.58c.07,.67-3.95,1.07-4.01,.4-.09-.89,2.13-2.01,3.61-.66,.06,.07,.38,.1,.4,.26h0Zm-3.02-2.48c-.35,.42-1.61,1.05-.36,1.69,.92-.54,2.13-.51,3.03,.22l1.41-.14c1.07-1.31,2.67-1.84,4.38-1.26,.42-.34,.92-.54,1.44-.59-2.36-3.29-7.85-3.42-9.9,.09h0Zm6.14-2.76c.23-.7,.53-1.14,.92-1.7,2.64-3.64-1.28-3.03-.34-7.17,.2-1,.46-2.15-.27-3.5,.8,1.2,.67,2.19,.43,3.56-.9,3.77,3.12,3.44,.43,7.31-.33,.48-.72,.96-.89,1.57,.11,.02,.24,.06,.38,.11,.04-.3,.24-.53,.58-.87,3.65-4.04-.78-4.8,.16-8.95,.15-.77,.37-1.54-.16-2.31-.6-.77-1.17-1.23-.98-2.3-.59,.81-.68,1.49-.21,2.42,.63,1.06,.4,1.76,.12,2.69-1.41,3.89,2.7,4.46,.15,7.57-.33,.48-.73,.86-.82,1.47,.08,0,.43,.07,.49,.1h0Zm-2.28-2.96c-.51,.95-.96,1.88-.03,2.91,.22-.02,.47-.04,.61-.05-1-.95-.6-1.58-.08-2.39,1.3-2.01,1.06-3.63-.81-5.1-.99-.88-1.8-1.47,.05-3.98,.74-1.58-1.63-2.01-.66-4.36,.25-.55,.5-1.03-.47-1.68,.31,.87-.17,1.29-.58,1.71-1.86,1.69,.73,2.89,.02,3.89-1.8,2.78-.79,4.15,.28,5.09,1.65,1.49,1.66,2.31,.8,4.27-.43,.94-.86,1.89,.05,2.77,.17-.05,.3-.08,.51-.13-.94-1.11-.51-2.05,.07-3.08,2.22-4.8-3.95-3.44-1.2-8.29,1.41-2.47-1.17-1.91-.3-3.8-.64,1.87,1.85,1.24,.46,3.86-2.54,4.6,3.64,3.4,1.28,8.36h0Zm-3.99-3.88c-1.42-2.05,.86-2.36-1.08-4.1,.65,2.14-1.45,2.1-.16,4.45,1.69,2.2-1.96,4.47,1.8,6.73,.39,.19,.78,.34,.89,.71,.11-.07,.18-.12,.28-.17-.43-.56-.82-.8-1.22-1.06-2.72-1.68,.31-3.71-1.26-6.63-.84-1.64,.15-1.52,.05-3.31,.2,2.01-.76,1.43,.1,3.22,1.67,3.21-1.32,4.86,1.25,6.48,.4,.26,.89,.6,1.32,1.16,.09-.05,.27-.15,.37-.19-.19-.43-.6-.76-1-1.02-3.06-1.85,.41-2.78-1.32-6.27h0Zm-.83,11.19c-.68-.83,.37-1.24,.76-1.76,.16-.23,.22-.36,.41-.54-1.23-.33-3.96,.7-3.84,1.97,.07,.74,2.66,.31,2.66,.34h0Zm9.74-.97c.48,.25,1.2,.71,1.18,1.31,.45-.04,2.54-.18,2.48-.77-.9-.66-1.93-1.59-3.66-.54Z"/><path class="cls-4" d="M135.92,196.63c-.63-.17-1.51-.06-1.32,1.15-.06,.13-.63,.46-.35,.59-.06,.17-.08,.28,.11,.4,.19,.11,1.07,.69,1.92,.59,.29,.47,.4,.55,1.91,.93-.62-.37-.71-.52-.73-.78-.02-.26,.05-.51,.05-.51,0,0,.44-.07,.81-.22,.13,.26,.85,1.02,2.19,1.16-.55-.14-.74-.48-.81-.86-.08-.38-.29-.5-.7-.65,.42-.24,.5-.41,.67-.41s.85,.81,1.23,.76c.12-.16,.13-.62,.03-.8-.1-.17-.06-.15-.02-.44,.03-.29,.08-.62-.1-.84-.35,.16-.86,.87-1.15,.87s-.43-.1-.53-.27c.47-.27,.26-.93,1.12-1.15-.53-.05-1.2,.19-1.67-.06-.47-.25-2.8-.57-2.67,.55Z"/><path class="cls-4" d="M140.98,190.88c-.63-.17-1.51-.06-1.32,1.15-.06,.13-.63,.46-.35,.59-.06,.17-.08,.28,.11,.4,.19,.11,1.07,.69,1.92,.59,.29,.47,.4,.55,1.91,.93-.62-.37-.71-.52-.73-.78-.02-.26,.05-.51,.05-.51,0,0,.44-.07,.81-.22,.13,.26,.85,1.02,2.19,1.16-.55-.14-.74-.48-.81-.86-.08-.38-.29-.5-.7-.65,.42-.24,.5-.41,.67-.41s.85,.81,1.23,.76c.12-.16,.13-.62,.03-.8-.1-.17-.06-.15-.02-.44,.03-.29,.08-.62-.1-.84-.35,.16-.86,.87-1.15,.87s-.43-.1-.53-.27c.47-.27,.26-.93,1.12-1.15-.53-.05-1.2,.19-1.67-.06-.47-.25-2.8-.57-2.67,.55Z"/></g><g id="Layer_3"><path class="cls-6" d="M0,165.33c20.64-10.23,32.93-5.74,42.42-10.6,13.24-6.78,21.9-17.8,44.81-21.57,36.38-6,24.04,17.5,59.23,22.47,43.4,6.13,20.62,32.86,49.53,26.81,28.91-6.05,29.62,46.05,69.32,44.68,15.85-.55,10.53-30.75,40.94-30.68,15.35,.04,33.94-27.32,44.46-32.9,25.28-13.4,45.21,4.1,57.06,10.34,21.45,11.3,33.7,17.81,72.22-8.55v104.67H0v-104.67"/><path class="cls-6" d="M208.32,188s.61,.61,.83,.61c.22,0,2.49-1.49,3.76-3.37,.8-1.19,2.09-4.8,2.93-6.25,2.14-3.72,2.1-3.28,5.68-5.55,3.59-2.27,6.73-.96,8,.39,1.15,1.23,1.15,3.5,1.15,4.59s.57,1.46,1.06,1.31c.52-.15,.26-.89,.8-1.09,.67-.25,.6,1.5,1.66,.96,.53-.27-.21-1.74-.03-2.89,.23-1.45,1.84-1.62,2.86-.42,.39,.46,1.11,1.76,1.31,2.57,.23,.94,.42,2.2,.97,2.1,.39-.07,.22-.62,.46-.66,.15-.02,.27,.48,.49,.45,.52-.08,.66-.24,.54-.89-.12-.61-.26-.74,.17-1.22,.44-.48,.56-.18,1.19,0,.65,.19,.94-.52,.59-.95-.36-.44-.46-.59-.22-.83,.44-.38,.73-.77,.07-1.21-.66-.45-2.17,.32-3.38-.28-2.39-1.21-1.36-3.98,1.09-4.01,.82,0,3.35,1.61,4.31,1.33,.64-.19,.66-.71,.25-1.11-.19-.18-.04-.36,.13-.4,.6-.13,.62-.43,.55-.82-.12-.5-1.09-.22-1.56-.67-.39-.38-.32-.86,0-1.02,.19-.1,.5-.12,.68-.29,.32-.31,.2-.79-.25-.83-.17-.02-.47,.19-.71-.09-.32-.42,.42-.51,.22-.96-.28-.62-.74-.26-2.32,.74s-2.75,2.23-3.93,.96c-.7-.96,.83-1.87,1.79-2.3s2.27,.19,2.62-.32c.44-.64,.09-1.43-.52-1.53-.34-.06-.94,.13-1.18-.25-.35-.55,.95-.89-.12-1.85-.55-.5-1.05-.2-1.37,.64-.61,1.62-4.13,4.3-5.46,3.34-1.81-2.1,5.18-5.42,5.26-6.35,.12-1.27-1.13-1.33-1.83-1.22-.39,.06-.63-.24-.17-.85,.55-.76-.39-1.89-1.17-.93-.99,1.21-1.89,2.64-2.86,2.07-.96-.57-.52-1.66-.52-2.24,.03-.55-1.19-.96-1.46-.23-.53,.72-.2,11.16-4.95,10.58-1.78-.22,.61-7.45,1.17-8.98s-.07-1.88-.66-1.97c-.28-.04-.79-.08-1.16,.54-.31,.53-.64,1.07-1.52,.33-.44-.37-.75-.52-1.35-.15-.35,.22-.76,.63,.76,3.93,1.01,2.19,1.29,3.94-.49,7.79-1.4,3.03-5.48,2.51-6.59-.41-1.76-4.63-4.96-10.17-2.27-11.66,2.18-1.21,6.84,.06,8.39-.79,.55-.3,.49-.86,.09-.92-.38-.06-.54-.12-.63-.32-.21-.49,.8-.69,.28-1.27-.47-.52-3.47,.67-4.3,.8-.83,.13-1.03-.81-.42-1.75,1.1-1.69,3.71-.48,4.42-.77,.81-.33,.55-1.31,.04-1.38-.34-.04-.79-.07-1.05-.39-.28-.57,.93-.65,.85-1.18-.15-1.01-1.25-.1-1.66-.74-.37-.59,.78-1.33-.09-1.75-.81-.39-3.19,2.82-3.69,3.44-.4,.5-2.24,2.89-3.53,1.74-1.51-1.57,2.76-4.39,3.46-5,.7-.61-.1-1.46-.61-1.53-.66-.09-.73,.8-1.12,.79-.7-.08-.15-.98-.74-1.12-.6-.15-.83,.19-.9,1.01-.09,1.05-.31,2.59-1.11,2.52-.49-.04-.43-.66-.28-1.36,.2-.9-.06-1.16-.54-1.28-.41-.1-.67,.15-.74,.61-.04,.25-.37,.42-.5-.02-.2-.86-1.41-.79-1.43,.03,0,.49-.08,2,.21,4.39,.9,7.38,7.29,17.9,5.36,18.3-.75,.16-2.88-1.9-3.5-2.33-2.86-1.98-4.95-2.26-5.01-5.48-.04-2.11,2.58-2.97,2.79-3.66,.25-.87-.52-1.2-1.21-.82-.21,.11-.31-.04-.29-.3,.05-.56-.23-.95-.73-.89-.69,.09-1.98,3.52-3.2,2.82-1.68-.96,1.06-3.52,1.38-4.55,.27-.87-.52-1.25-.83-.96-.18,.16-.33,.75-.56,.71-.25-.02-.09-.6-.34-.85-.35-.35-.92-.08-.91,.47,0,.46,.3,1.6-.16,1.72-.63,.17-.33-.98-.88-1.05-.44-.06-.54,.14-.54,.52,0,.13-.13,.14-.22,.1-.45-.21-1.39-.16-.24,1.48,.92,1.3,.64,2.67-.26,2.89-.92,.22-1.71-2.3-2-3.03-.29-.73-2.04-.19-1.65,.86,.5,1.34-.63,1-1.15,.93-.55-.07-1.01,1.15-.17,1.57,.98,.5,4.29,1.2,3.64,3.07-.64,1.87-2.44,.11-3.09,.19-.47,.06-.51,.67-.19,.99,.2,.2,.12,.48-.1,.5-.79,.08-.83,.82,.2,1.68,1.37,1.14,3.31,1.46,7.65,1.17,2.01-.14,5.48-.35,8.13,1.84,4.2,3.46,3.79,7.64,3.79,9.18,0,1.14-.38,4.27-1.02,4.28-.98,.02-.87-3.07-2.48-4.93-1.86-2.16-2.44-1.52-3.42-2.91-.98-1.4-.38-2.92,.99-2.92,.83,0,.69-.73,.28-.74-1.08-.03,.08-.89-.4-1.26-.52-.39-.92,.48-1.3,.39-.61-.15,.05-.95-.5-1.22-.41-.2-.46,.22-.76,.55-.27,.3-.39-.35-.74-.12-.51,.33,.86,1.79,.07,1.95-1.92,.37-.72-1.18-1.25-1.99-.23-.36-.95-.36-1.45,.25-.11,.14-.45,.06-.51-.13-.2-.57-.59-.77-1.14-.45-.31,.17-.09,.69-.33,1.18-.2,.42-.55,.13-.62-.05-.08-.22-.15-.5-.2-.95-.1-.88-.9-.75-.99-.47-.06,.19-.01,.51-.02,.81,0,.25-.2,.42-.36,.22-.03-.05-.15-.2-.17-.25-.17-.3-.83,.04-.7,.35,.17,.37,0,.47-.31,.39-.2-.1-.56,.33-.44,.57,.15,.28-.47,.39-.43,.95,.05,.68,1.46,.94,2.38,1.29,.92,.35,1.66,1.27,1.49,1.99-.24,.98-1.45,1.03-1.93,.55-.48-.48-.32-1.5-.5-2.2-.17-.66-.89-.51-1.06-.25-.19,.27-.01,.5-.31,.61-.34,.14-.49-.29-1.01-.04-.69,.34-.32,1.22,.97,1.67,.57,.2,.52,1.19-.04,1.45-.52,.24-1.06-.3-1.53-.74-.29-.27-.89,.14-.57,.88,.07,.16,0,.33-.18,.35-.25,.04-.54,.13-.62,.31-.17,.37,.09,1.01,2.24,1.5,2.2,.51,3.53-.03,4.84-.54,.4-.16,3.32-1.4,6.16-1.22,2.84,.18,3.58,1.36,4.07,2.4,.36,.79,.97,3.39,.47,5.42-.66,2.62-2.13,4.02-2.13,4.02h0Z"/><path class="cls-6" d="M394.76,174.27s-.89-2.74,.06-6.46c.73-2.87,3.25-5.71,4.24-6.45,1.31-.99,3.03-1.96,6.7-.26,3.67,1.7,6.48,5.22,6.87,5.69,1.29,1.52,2.59,3.08,5.68,3.94,3.03,.84,3.78,.22,3.81-.36,.02-.29-.27-.59-.57-.81-.2-.15-.18-.41,.01-.56,.9-.71,.42-1.62-.12-1.48-.88,.24-1.91,.54-2.4-.11-.53-.71,.08-1.98,.93-1.84,1.91,.31,2.97-.55,2.34-1.43-.47-.66-.96-.22-1.29-.62-.29-.34,.08-.5,.03-.97-.05-.44-.83-1.1-1.49-.4-.71,.75-1.18,2.13-2.11,2.4-.93,.28-2.41-.6-2.05-1.99,.27-1.02,1.81-1.66,3.2-1.48,1.38,.18,3.32,.8,3.84,0,.44-.68-.27-1.23,.11-1.48,.31-.21,.15-1-.16-1-.43-.11-.58-.35-.12-.7,.38-.3-.23-1.17-.64-.91-.07,.04-.31,.15-.38,.19-.34,.15-.46-.2-.3-.51,.19-.38,.47-.74,.52-1.02,.07-.41-.84-1.11-1.55-.09-.36,.52-.64,.84-.89,1.05-.21,.18-.85,.29-.81-.36,.04-.78,.65-1.27,.39-1.7-.48-.77-1.1-.79-1.73-.21-.21,.19-.68,.08-.73-.18-.2-1.11-1.11-1.58-1.64-1.3-1.2,.65-.75,3.4-2.9,1.64-.89-.73,1.8-1.63,1.39-2.38-.28-.52-.88,.2-1.01-.36-.14-.62,.07-1.18-.57-1.2-.86-.03-.58,1.43-1.44,1.19-.54-.15-.44-1.51-1.36-1.37-.85,.13,.02,1.99-1.35,1.3-.51-.26-1.18,.56-.15,1.12,1.72,.93,1.45,3.23-.73,4.31-2.16,1.08-2.44-.12-6.23,1.33-3.26,1.24-5.21,5.16-6.42,4.48-.79-.45,.85-4.62,1.62-6.04,1.04-1.93,3.35-7.42,10.92-8.91,4.79-.94,8.97,1.67,11.39,3.19,5.23,3.29,7.86,4.2,10.34,3.7,1.87-.38,2.31-1.33,1.38-1.97-.25-.17-.17-.58,.22-.7,.62-.18,.97-.98,.43-1.37-.76-.54-4.19,.44-3.73-2.32,.46-2.77,5.06-1.42,6.62-1.38,1.32,.03,1.58-1.8,.84-2.08-.7-.27-2.33-.61-.81-1.94,1.2-1.04-.62-2.9-1.48-2.18-.85,.71-3.54,3.33-4.54,2.44-.98-.87-.41-2.77,1.62-3.78,2.55-1.27,1.4-1.97,.7-2.01-.13,0-.29-.11-.21-.28,.25-.48,.27-.79-.33-1.01-.74-.28-1.14,1.36-1.81,.72-.48-.46,.66-1.69,.97-2.26,.38-.68-.15-1.41-.82-1.21-.49,.15-.67,.98-1,.84-.32-.1-.11-.94-.22-1.26-.19-.56-1.44-.64-1.69,.64-.29,1.49,1.4,6.54-1.35,6.61-2,.05-1.3-5.11-2.1-5.68-.58-.41-1.19-.11-1.51,.62-.15,.34-.38,.46-.57,.18-.61-.94-1.8-1.05-2.07,.21-.22,1.01,2.49,3.85,1.01,6.45-2.25,3.97-5.05,2.91-9.95,3.46-1.06,.12-5.11,1.26-5.94,.55-2.13-1.81,12.94-10.63,19.04-19.24,1.98-2.79,2.9-4.72,3.22-5.33,.53-1.03-.93-1.94-1.76-1-.46,.46-.76,.01-.64-.32,.23-.62,.07-1.11-.51-1.26-.67-.17-1.18-.03-1.54,1.24-.27,.97-.62,1.78-1.26,1.51-1.05-.45-.28-2.52,.32-3.89,.46-1.07,.4-1.64-.45-1.87-.84-.22-.76,1.28-1.68,.9-.5-.24,.01-1.41-.87-1.74-.69-.25-2.26,.26-1.8,1.5,.46,1.24,3.9,7.64,.95,8.58-2.39,.57-3.08-3.65-3.24-4.56-.2-1.11-1.01-6.73-2.29-6.78-1.36-.06-.43,1.64-1.29,2.12-.94,.53-1.71-1.34-2.58-.19-.46,.6,1.01,1.53,.27,2.05-.55,.23-1.12-.04-1.58-.22-.67-.26-1.66,.79-.87,1.75,.69,.84,4.76,1.08,5,3.93,.13,1.59-.75,2.63-1.7,1.9-.95-.72-3.89-4.24-4.83-3.9-1.05,.37,.08,1.3-.51,1.77-.25,.2-.49,.16-1-.02-.55-.2-1,.46-.51,1.2,1.36,2.1,8.03,3.66,9.94,6.64,2.36,3.67-5.38,8.43-10.7,13.02-3.35,2.89-8.8,.8-8.5-3.93,.38-6.01,1.91-8.01,4.64-10.06,4.12-3.08,3.88-3.88,3.59-4.39-.5-.87-.99-.89-1.78-.73-1.59,.33-1.63-.57-1.67-1.43-.04-1.03-.7-1.32-1.08-1.45-.79-.28-1.82-.28-2.15,2.01s-2.22,12.94-4.59,12.01c-6.33-2.48,1.12-15.29,.95-16.55,.16-1.09-1.64-1.4-1.98-.69-.39,.73-.58,2.39-2.17,2.45-1.58,.06-1.75-2.32-2.17-4.51-.33-1.73-2.27-.96-2.09,.36,.15,1.07-.35,1.28-.79,.95-.8-.61-2.4-1.37-3.11,.3-.52,1.21,5.97,10.07,2.29,11.47-2.31,.3-4.9-5.41-4.57-7.85,.17-1.27-.25-1.97-1.28-1.72-1.98,.47-.58,1.78-1.39,2.23-.55,.31-1.18-.33-1.64-.49-.83-.28-1.8,.47-1.69,1.56,.09,.87,2.15,.97,3.06,2.17s2.21,3.35,.69,4.08c-2.33,.79-2.98-1.54-4.26-3.85s-1.63-3.07-2.39-2.49c-.56,.43,.31,1.04-.38,1.35-.5,.18-.72-.28-.95-.37-.59-.25-1.06,.27-.87,.87,.11,.34,.48,.58,.66,.83,.29,.42,.06,1.07-.69,1.27-.9,.25-1.92-.75-2.4-.21-.35,.45-.53,.83,.13,1.4,.19,.17,.25,.49-.11,.59-.77,.22-1.11,.88-.44,1.55,1.01,1.01,5.26,.68,6.28,1.25,3.04,1.69,2.45,5.85-1.35,5.74-1.92-.06-3.28-2.04-4.41-1.92-1.11,.11-1.02,.79-.72,1.56,.14,.46-.09,.58-.84,.89-.72,.3-.85,1.38,.1,1.58,.91,.2,1.27-.09,1.49,.8,.22,.89-.04,.96-.61,1.65-.59,.72-.53,1.02,.07,1.47,.25,.19,.74-.36,.92-.23,.28,.2-.31,.78,.13,1.13,.63,.5,1.71-.95,2.63-1.97,.79-.86,2.56-2.01,3.37-2.32,2.08-.81,3.98,.49,3.29,2.45-.55,1.56-2.46,2.9-1.98,3.59,.97,1.39,2.06-.84,2.72-.08,.54,.62-.28,1.36,.26,1.9,.52,.52,1.48,.45,2.21-.92s2.27-4.2,4.53-4.95c2.5-.84,7.31-.35,10.26,4.9,2.94,5.26,3.18,4.68,3.35,10.77,.07,2.37-.76,7.76-.56,9.78,.31,3.2,2.15,6.59,2.43,6.74,.27,.15,1.45-.2,1.45-.2h0Z"/><path class="cls-6" d="M36.91,162.84c.03,.07-.51,.52-.45,.79,.29,1.07,7.24-.73,6.92-1.89-.44-1.6-4.93-2-6.47,1.09h0Zm-1.45,.97c.22,.8-4.58,2.1-4.79,1.31-.29-1.07,2.17-2.88,4.25-1.54,.09,.08,.48,.04,.54,.23h0Zm-4.18-2.39c-.34,.59-1.75,1.6-.09,2.12,1.01-.85,2.48-1.06,3.72-.35l1.69-.46c1.03-1.81,2.87-2.78,5.06-2.43,.44-.5,1.01-.85,1.63-1.02-3.53-3.52-10.23-2.55-12.01,2.13h0Zm6.9-4.6c.14-.9,.41-1.49,.77-2.26,2.46-4.96-2.17-3.41-1.88-8.64,.04-1.25,.12-2.7-1.05-4.2,1.21,1.29,1.26,2.52,1.25,4.24-.32,4.76,4.49,3.54,2.01,8.8-.3,.65-.68,1.31-.76,2.09,.14,0,.3,.02,.49,.06,0-.38,.19-.7,.53-1.17,3.61-5.66-1.93-5.67-1.63-10.9,.02-.96,.14-1.94-.66-2.78-.89-.81-1.68-1.26-1.66-2.6-.56,1.11-.52,1.95,.24,2.99,.98,1.16,.85,2.06,.69,3.24-.92,5.02,4.19,4.87,1.73,9.16-.3,.65-.71,1.2-.7,1.96,.09,0,.54,0,.61,.02h0Zm-3.38-3.13c-.42,1.26-.79,2.48,.55,3.54,.27-.07,.56-.15,.73-.18-1.4-.95-1.05-1.8-.58-2.88,1.17-2.7,.55-4.63-2.02-6.03-1.38-.86-2.49-1.42-.75-4.85,.58-2.07-2.39-2.12-1.69-5.17,.19-.72,.4-1.35-.91-1.95,.56,.99,.06,1.61-.36,2.2-1.91,2.43,1.48,3.37,.82,4.72-1.62,3.74-.12,5.2,1.37,6.13,2.31,1.47,2.48,2.47,1.85,5.03-.33,1.23-.66,2.47,.63,3.36,.19-.09,.34-.16,.6-.26-1.36-1.15-1.03-2.39-.55-3.76,1.72-6.29-5.49-3.37-3.15-9.82,1.2-3.28-1.81-2.08-1.14-4.55-.4,2.4,2.5,1.13,1.35,4.59-2.14,6.1,5.11,3.39,3.26,9.89h0Zm-5.64-3.9c-2.14-2.2,.56-3.04-2.15-4.75,1.23,2.47-1.33,2.85,.72,5.43,2.5,2.33-1.46,5.83,3.56,7.8,.52,.15,1.02,.26,1.23,.68,.11-.11,.2-.18,.3-.26-.64-.59-1.16-.81-1.7-1.04-3.65-1.49-.39-4.57-2.89-7.8-1.35-1.82-.13-1.87-.62-4.03,.65,2.4-.63,1.89,.77,3.89,2.69,3.56-.61,6.17,2.84,7.62,.54,.23,1.2,.55,1.84,1.14,.09-.08,.3-.23,.41-.31-.32-.48-.88-.8-1.42-1.04-4.1-1.63-.07-3.47-2.88-7.34h0Zm1.27,13.77c-1-.87,.19-1.59,.57-2.3,.14-.31,.19-.48,.39-.74-1.57-.15-4.67,1.66-4.26,3.17,.24,.89,3.29-.16,3.3-.14h0Zm11.63-3.17c.63,.21,1.6,.61,1.7,1.35,.53-.15,3.04-.73,2.85-1.44-1.23-.62-2.67-1.54-4.55,.1Z"/><path class="cls-6" d="M23.9,164.07c.03,.07-.51,.52-.45,.79,.29,1.07,7.24-.73,6.92-1.89-.44-1.6-4.93-2-6.47,1.09h0Zm-1.45,.97c.22,.8-4.58,2.1-4.79,1.31-.29-1.07,2.17-2.88,4.25-1.54,.09,.08,.48,.04,.54,.23h0Zm-4.18-2.39c-.34,.59-1.75,1.6-.09,2.12,1.01-.85,2.48-1.06,3.72-.35l1.69-.46c1.03-1.81,2.87-2.78,5.06-2.43,.44-.5,1.01-.85,1.63-1.02-3.53-3.52-10.23-2.55-12.01,2.13h0Zm6.9-4.6c.14-.9,.41-1.49,.77-2.26,2.46-4.96-2.17-3.41-1.88-8.64,.04-1.25,.12-2.7-1.05-4.2,1.21,1.29,1.26,2.52,1.25,4.24-.32,4.76,4.49,3.54,2.01,8.8-.3,.65-.68,1.31-.76,2.09,.14,0,.3,.02,.49,.06,0-.38,.19-.7,.53-1.17,3.61-5.66-1.93-5.67-1.63-10.9,.02-.96,.14-1.94-.66-2.78-.89-.81-1.68-1.26-1.66-2.6-.56,1.11-.52,1.95,.24,2.99,.98,1.16,.85,2.06,.69,3.24-.92,5.02,4.19,4.87,1.73,9.16-.3,.65-.71,1.2-.7,1.96,.09,0,.54,0,.61,.02h0Zm-3.38-3.13c-.42,1.26-.79,2.48,.55,3.54,.27-.07,.56-.15,.73-.18-1.4-.95-1.05-1.8-.58-2.88,1.17-2.7,.55-4.63-2.02-6.03-1.38-.86-2.49-1.42-.75-4.85,.58-2.07-2.39-2.12-1.69-5.17,.19-.72,.4-1.35-.91-1.95,.56,.99,.06,1.61-.36,2.2-1.91,2.43,1.48,3.37,.82,4.72-1.62,3.74-.12,5.2,1.37,6.13,2.31,1.47,2.48,2.47,1.85,5.03-.33,1.23-.66,2.47,.63,3.36,.19-.09,.34-.16,.6-.26-1.36-1.15-1.03-2.39-.55-3.76,1.72-6.29-5.49-3.37-3.15-9.82,1.2-3.28-1.81-2.08-1.14-4.55-.4,2.4,2.5,1.13,1.35,4.59-2.14,6.1,5.11,3.39,3.26,9.89h0Zm-5.64-3.9c-2.14-2.2,.56-3.04-2.15-4.75,1.23,2.47-1.33,2.85,.72,5.43,2.5,2.33-1.46,5.83,3.56,7.8,.52,.15,1.02,.26,1.23,.68,.11-.11,.2-.18,.3-.26-.64-.59-1.16-.81-1.7-1.04-3.65-1.49-.39-4.57-2.89-7.8-1.35-1.82-.13-1.87-.62-4.03,.65,2.4-.63,1.89,.77,3.89,2.69,3.56-.61,6.17,2.84,7.62,.54,.23,1.2,.55,1.84,1.14,.09-.08,.3-.23,.41-.31-.32-.48-.88-.8-1.42-1.04-4.1-1.63-.07-3.47-2.88-7.34h0Zm1.27,13.77c-1-.87,.19-1.59,.57-2.3,.14-.31,.19-.48,.39-.74-1.57-.15-4.67,1.66-4.26,3.17,.24,.89,3.29-.16,3.3-.14h0Zm11.63-3.17c.63,.21,1.6,.61,1.7,1.35,.53-.15,3.04-.73,2.85-1.44-1.23-.62-2.67-1.54-4.55,.1Z"/><path class="cls-6" d="M300.51,172.48c1.31-.82,2.41-1.22,4.03-1.82-1.52-.11-5.95,2.74-8.65,3.86-2.56,1.06-3.13,2.12-3.74,2.66-3.08,.89-2.62,3.65-5.36,3.65-.74,0-.82,.89,.21,.89,1.73,0,1.57,2.27,3.78,3.07,.53,.84,1.61,1.84,2.47,2.18-.21-.3-.45-.7-.67-1.08,.32,.17,.63,.3,.91,.36-.31-.32-.69-.78-1-1.18,.03,0,.07,0,.1,0,.21,0,.4,0,.59-.01,1.12,.33,3.63,1.61,3.91,1.41,.3-.22-.74-1.45-.13-3.02,.29-.49,.39-1.02,.43-1.5,1.09,.11,1.91,1.23,2.19,1.23,.32,0-.18-1.08-.15-1.84,.02-.46,.49-1.18,.76-1.79,.18-.41-1.87,1.03-2.93,.91-.3-.87-.97-1.94-1.9-2.66-1.16-2.72,2.73-3.8,5.15-5.33Z"/><path class="cls-6" d="M133.5,163.67c.42-.65,.88-1.26,1.3-1.82,.33-.47,.74-.84,.98-1.35,.14-.28,.33-.56,.51-.79,.28-.37,.61-.7,1.02-.84,.7-.28,1.21-.79,1.77-1.26,.47-.42,.84-.84,1.16-1.35,.19-.33,.33-.7,.47-1.02,.28-.56,.33-1.16,.51-1.77,.28-1.02,.7-1.96,1.21-2.89,.37-.7,.65-1.44,.79-2.28,.14-.74,.05-1.44,.09-2.14,0-.28-.23-.28-.37-.37s-.19,.09-.23,.19c-.23,.33-.56,.61-.79,.88-.51,.56-.98,1.12-1.21,1.86-.23,.74-.47,1.49-.65,2.23-.14,.61-.42,1.16-.74,1.68-.14,.19-.28,.37-.42,.51-.14,.19-.19,.47-.28,.65-.19,.56-.51,.98-.93,1.44-.05-.51-.19-.93-.47-1.35-.28-.47-.7-.74-1.07-1.12-.42-.42-.88-.79-1.3-1.16-.05-.05-.09-.09-.14-.09-.14-.09-.28-.19-.28-.37,.05-.28,.09-.51,.42-.65,.56-.23,1.12-.51,1.63-.88,.61-.47,1.12-.98,1.58-1.58,.51-.7,.74-1.44,.84-2.28,.05-.56-.05-1.16,.05-1.72,.05-.42,.14-.84,.42-1.21,.09-.09,.14-.23,.19-.37,.23-.47,.7-.7,1.07-.98,.33-.23,.33-.74-.05-.93-.33-.19-.65-.09-.93,.19-.37,.37-.74,.79-1.21,1.07-.28,.19-.47,.47-.65,.74-.28,.42-.51,.93-.74,1.4-.19,.47-.28,.88-.37,1.4-.09,.61-.28,1.21-.56,1.77-.14,.28-.37,.37-.65,.47-.74,.28-1.44,.65-1.91,1.35-.23,.37-.37,.74-.51,1.16q-.14,.33-.37,.14c-.33-.23-.61-.51-.93-.74-.37-.23-.51-.7-.61-1.12-.14-.51-.14-1.02-.05-1.58,0-.09,.05-.19,.09-.33,.23-.65,.7-1.02,1.3-1.35,.84-.47,1.68-.98,2.33-1.68,.61-.65,1.07-1.35,1.26-2.19,.09-.33,.09-.65,.09-.98,0-.14,.05-.23,.19-.33,1.02-.47,1.82-1.21,2.61-2.05,.37-.37,.47-.88,.61-1.4,.14-.56,.37-1.12,.74-1.58,.33-.37,.79-.61,1.16-.88,.42-.33,.88-.56,1.21-.98,.33-.37,.23-.65,0-.93-.33-.42-.88-.51-1.4-.23-.42,.23-.84,.51-1.3,.65-.28,.09-.56,.14-.84,.28-.23,.14-.37,.28-.51,.51-.23,.42-.51,.84-.7,1.26-.19,.42-.28,.88-.47,1.3-.19,.37-.28,.79-.33,1.21-.05,.42-.37,.7-.65,.93-.14,.14-.28,.23-.42,.33-.14,.14-.19,.09-.23-.09-.05-.37-.19-.7-.33-.98-.19-.37-.37-.79-.51-1.21-.23-.7-.56-1.35-.7-2.05-.05-.37-.14-.74-.14-1.12,0-.42-.56-.98-1.02-.98s-.98,0-1.44,.14c-.28,.09-.56,0-.84-.05-.37-.09-.74-.23-1.12-.37-.05,0-.09-.05-.14-.09-.33-.28-.7-.51-1.02-.74-.09-.09-.23-.09-.37-.14-.51-.09-.84-.42-1.12-.79-.09-.09-.51-.05-.56,.05-.19,.28-.09,.65,.14,.88,.42,.42,.84,.84,1.07,1.44,.14,.37,.14,.74,.19,1.12,.09,.56,.42,.98,.79,1.4,.7,.7,1.58,.88,2.51,.98,.56,.05,1.16,.05,1.72,.19,.28,.05,.47,.23,.65,.37,.28,.19,.42,.47,.51,.84,.19,.79,.51,1.54,.7,2.37,.23,.79,.19,1.4-.28,2-.56,.65-1.12,1.26-1.96,1.54-.42,.14-.79,.33-1.12,.61-.14,.09-.23,.28-.37,.19-.09-.05-.05-.28-.05-.47-.05-.88-.88-2.09-2-2-.79,.05-1.54-.09-2.28-.28-.37-.09-.65-.37-.84-.65-.14-.23-.33-.42-.47-.7-.05-.09-.14-.14-.23-.14-.19-.09-.28-.23-.33-.42-.09-.47-.23-.61-.7-.61-.33,0-.37,.05-.28,.37,.09,.37,.14,.79,.14,1.16,0,.74,.05,1.49,.42,2.14,.23,.42,.61,.65,.98,.93,.79,.51,1.72,.74,2.65,.93,.88,.19,1.4,.84,1.68,1.68,.05,.09,0,.19-.05,.28-.23,.51-.28,1.02-.23,1.58,.05,.47,.14,.88,.28,1.3,.05,.19,.14,.33,.23,.47,.51,.88,1.16,1.58,2.09,2,.37,.19,.65,.56,.98,.79,.61,.47,1.21,.98,1.82,1.49,.42,.33,.79,.7,1.02,1.21,.14,.42,.23,.84,.37,1.26,.19,.7,0,1.26-.33,1.82-.51,.88-1.12,1.72-1.77,2.47-.05,.05-.09,.14-.14,.23-.05,.33-.28,.51-.51,.7-.14,.14-.28,.33-.37,.51-.05,.14-.19,.19-.28,.28-.09-.65,.23-1.21,.14-1.86-.09-.61-.09-1.21-.28-1.77-.23-.74-.7-1.26-1.3-1.72-.51-.42-1.12-.74-1.58-1.26-.05-.05-.14-.14-.14-.23-.23-.56-.42-1.16-.61-1.72-.23-.7-.33-1.44-.56-2.14-.05-.14-.14-.28-.19-.42-.05-.05-.09-.14-.05-.19,.09-.19-.05-.28-.19-.28s-.33,.05-.37,.19c-.23,.51-.42,1.07-.51,1.63-.14,.84-.28,1.68,0,2.51,.23,.7,.37,1.44,.7,2.09,.19,.37,.42,.74,.74,1.07,.33,.37,.61,.84,.84,1.3,.28,.65,.61,1.26,.88,1.91,.14,.37,.28,.74,.33,1.12,.05,.23,.09,.47,.19,.7,.19,.47,.14,.98,.19,1.49,.05,.33-.19,.7-.47,.93-.05,.05-.09,.05-.09,.09-.14,.56-.51,1.02-.79,1.49-.47,.79-.79,1.68-1.26,2.47-.14,.28-.33,.56-.33,.93,0,.33-.14,.65-.33,.93-.09,.14-.19,.33-.05,.51,.05,.05,.05,.19,.05,.28-.05,.19,.19,.37,.37,.28,.19-.05,.37-.19,.56-.14,.14,0,.14-.09,.14-.19,0-.37,.09-.65,.37-.88,.09-.05,.14-.19,.19-.33,.28-.7,.65-1.3,1.02-1.96,.14-.28,.37-.56,.42-.88,0-.05,.05-.14,.05-.14,.47-.37,.65-.88,.88-1.4,.05-.09,.14-.19,.23-.28,.09-.09,.23-.14,.14-.33,0-.05,.37-.42,.37-.42,.61,.09,1.16-.09,1.72-.19,.51-.05,.93,.23,1.35,.47,.42,.23,.79,.51,1.16,.74,.56,.33,1.16,.37,1.72,.14,.42-.19,.7-.56,.93-.93,.51-.84,1.21-1.49,1.96-2.14,.42-.33,.84-.7,1.3-.98,.19-.09,.19-.23,.05-.37-.28-.28-.42-.61-.65-.88-.65-.74-1.68-.7-2.33,0-.23,.28-.47,.61-.65,.98-.14,.33-.42,.61-.7,.88-.23,.23-.56,.23-.88,.19-.28-.05-.56-.14-.79-.23-.84-.33-1.68-.19-2.47,.19-.28,.05-.51,.23-.84,.23h0Z"/></g><g id="Layer_2"><path class="cls-3" d="M0,140.81c20.64-10.23,24.12-10.47,33.05-4.66,12,7.8,4.07,22.23,26.6,27.84,31.69,7.88,32.48,59.7,65.31,38.9,22.98-14.55,9.39,3.76,38.3-2.3,28.91-6.05,12.38,24.98,52.09,23.62,15.85-.55,18.55,39.11,49.01,30.16,18.26-5.36,25.32-22.22,39.83-13.98,27.64,15.7,34.02-21.77,40.4-18.7,16.98,8.16,27.15-13.82,40.65-8.76,14.5,5.44,24.96-14.65,32.37-19.33,12.97-8.2,10.21-18.64,26.3-26.3,25.78-12.28,14.68-16.53,36.09-26.54v129.23S0,270,0,270V140.81"/><path class="cls-3" d="M360.73,211.51c-.75-1.17-1.59-2.26-2.34-3.26-.58-.84-1.34-1.5-1.75-2.42-.25-.5-.58-1-.92-1.42-.5-.67-1.09-1.25-1.84-1.5-1.25-.5-2.17-1.42-3.17-2.26-.84-.75-1.5-1.5-2.09-2.42-.33-.58-.58-1.25-.84-1.84-.5-1-.58-2.09-.92-3.17-.5-1.84-1.25-3.51-2.17-5.18-.67-1.25-1.17-2.59-1.42-4.09-.25-1.34-.08-2.59-.17-3.84,0-.5,.42-.5,.67-.67s.33,.17,.42,.33c.42,.58,1,1.09,1.42,1.59,.92,1,1.75,2,2.17,3.34,.42,1.34,.84,2.67,1.17,4.01,.25,1.09,.75,2.09,1.34,3.01,.25,.33,.5,.67,.75,.92,.25,.33,.33,.84,.5,1.17,.33,1,.92,1.75,1.67,2.59,.08-.92,.33-1.67,.84-2.42,.5-.84,1.25-1.34,1.92-2,.75-.75,1.59-1.42,2.34-2.09,.08-.08,.17-.17,.25-.17,.25-.17,.5-.33,.5-.67-.08-.5-.17-.92-.75-1.17-1-.42-2-.92-2.92-1.59-1.09-.84-2-1.75-2.84-2.84-.92-1.25-1.34-2.59-1.5-4.09-.08-1,.08-2.09-.08-3.09-.08-.75-.25-1.5-.75-2.17-.17-.17-.25-.42-.33-.67-.42-.84-1.25-1.25-1.92-1.75-.58-.42-.58-1.34,.08-1.67,.58-.33,1.17-.17,1.67,.33,.67,.67,1.34,1.42,2.17,1.92,.5,.33,.84,.84,1.17,1.34,.5,.75,.92,1.67,1.34,2.51,.33,.84,.5,1.59,.67,2.51,.17,1.09,.5,2.17,1,3.17,.25,.5,.67,.67,1.17,.84,1.34,.5,2.59,1.17,3.42,2.42,.42,.67,.67,1.34,.92,2.09q.25,.58,.67,.25c.58-.42,1.09-.92,1.67-1.34,.67-.42,.92-1.25,1.09-2,.25-.92,.25-1.84,.08-2.84,0-.17-.08-.33-.17-.58-.42-1.17-1.25-1.84-2.34-2.42-1.5-.84-3.01-1.75-4.18-3.01-1.09-1.17-1.92-2.42-2.26-3.93-.17-.58-.17-1.17-.17-1.75,0-.25-.08-.42-.33-.58-1.84-.84-3.26-2.17-4.68-3.67-.67-.67-.84-1.59-1.09-2.51-.25-1-.67-2-1.34-2.84-.58-.67-1.42-1.09-2.09-1.59-.75-.58-1.59-1-2.17-1.75-.58-.67-.42-1.17,0-1.67,.58-.75,1.59-.92,2.51-.42,.75,.42,1.5,.92,2.34,1.17,.5,.17,1,.25,1.5,.5,.42,.25,.67,.5,.92,.92,.42,.75,.92,1.5,1.25,2.26,.33,.75,.5,1.59,.84,2.34,.33,.67,.5,1.42,.58,2.17,.08,.75,.67,1.25,1.17,1.67,.25,.25,.5,.42,.75,.58,.25,.25,.33,.17,.42-.17,.08-.67,.33-1.25,.58-1.75,.33-.67,.67-1.42,.92-2.17,.42-1.25,1-2.42,1.25-3.67,.08-.67,.25-1.34,.25-2,0-.75,1-1.75,1.84-1.75s1.75,0,2.59,.25c.5,.17,1,0,1.5-.08,.67-.17,1.34-.42,2-.67,.08,0,.17-.08,.25-.17,.58-.5,1.25-.92,1.84-1.34,.17-.17,.42-.17,.67-.25,.92-.17,1.5-.75,2-1.42,.17-.17,.92-.08,1,.08,.33,.5,.17,1.17-.25,1.59-.75,.75-1.5,1.5-1.92,2.59-.25,.67-.25,1.34-.33,2-.17,1-.75,1.75-1.42,2.51-1.25,1.25-2.84,1.59-4.51,1.75-1,.08-2.09,.08-3.09,.33-.5,.08-.84,.42-1.17,.67-.5,.33-.75,.84-.92,1.5-.33,1.42-.92,2.76-1.25,4.26-.42,1.42-.33,2.51,.5,3.59,1,1.17,2,2.26,3.51,2.76,.75,.25,1.42,.58,2,1.09,.25,.17,.42,.5,.67,.33,.17-.08,.08-.5,.08-.84,.08-1.59,1.59-3.76,3.59-3.59,1.42,.08,2.76-.17,4.09-.5,.67-.17,1.17-.67,1.5-1.17,.25-.42,.58-.75,.84-1.25,.08-.17,.25-.25,.42-.25,.33-.17,.5-.42,.58-.75,.17-.84,.42-1.09,1.25-1.09,.58,0,.67,.08,.5,.67-.17,.67-.25,1.42-.25,2.09,0,1.34-.08,2.67-.75,3.84-.42,.75-1.09,1.17-1.75,1.67-1.42,.92-3.09,1.34-4.76,1.67-1.59,.33-2.51,1.5-3.01,3.01-.08,.17,0,.33,.08,.5,.42,.92,.5,1.84,.42,2.84-.08,.84-.25,1.59-.5,2.34-.08,.33-.25,.58-.42,.84-.92,1.59-2.09,2.84-3.76,3.59-.67,.33-1.17,1-1.75,1.42-1.09,.84-2.17,1.75-3.26,2.67-.75,.58-1.42,1.25-1.84,2.17-.25,.75-.42,1.5-.67,2.26-.33,1.25,0,2.26,.58,3.26,.92,1.59,2,3.09,3.17,4.43,.08,.08,.17,.25,.25,.42,.08,.58,.5,.92,.92,1.25,.25,.25,.5,.58,.67,.92,.08,.25,.33,.33,.5,.5,.17-1.17-.42-2.17-.25-3.34,.17-1.09,.17-2.17,.5-3.17,.42-1.34,1.25-2.26,2.34-3.09,.92-.75,2-1.34,2.84-2.26,.08-.08,.25-.25,.25-.42,.42-1,.75-2.09,1.09-3.09,.42-1.25,.58-2.59,1-3.84,.08-.25,.25-.5,.33-.75,.08-.08,.17-.25,.08-.33-.17-.33,.08-.5,.33-.5s.58,.08,.67,.33c.42,.92,.75,1.92,.92,2.92,.25,1.5,.5,3.01,0,4.51-.42,1.25-.67,2.59-1.25,3.76-.33,.67-.75,1.34-1.34,1.92-.58,.67-1.09,1.5-1.5,2.34-.5,1.17-1.09,2.26-1.59,3.42-.25,.67-.5,1.34-.58,2-.08,.42-.17,.84-.33,1.25-.33,.84-.25,1.75-.33,2.67-.08,.58,.33,1.25,.84,1.67,.08,.08,.17,.08,.17,.17,.25,1,.92,1.84,1.42,2.67,.84,1.42,1.42,3.01,2.26,4.43,.25,.5,.58,1,.58,1.67,0,.58,.25,1.17,.58,1.67,.17,.25,.33,.58,.08,.92-.08,.08-.08,.33-.08,.5,.08,.33-.33,.67-.67,.5-.33-.08-.67-.33-1-.25-.25,0-.25-.17-.25-.33,0-.67-.17-1.17-.67-1.59-.17-.08-.25-.33-.33-.58-.5-1.25-1.17-2.34-1.84-3.51-.25-.5-.67-1-.75-1.59,0-.08-.08-.25-.08-.25-.84-.67-1.17-1.59-1.59-2.51-.08-.17-.25-.33-.42-.5-.17-.17-.42-.25-.25-.58,0-.08-.67-.75-.67-.75-1.09,.17-2.09-.17-3.09-.33-.92-.08-1.67,.42-2.42,.84-.75,.42-1.42,.92-2.09,1.34-1,.58-2.09,.67-3.09,.25-.75-.33-1.25-1-1.67-1.67-.92-1.5-2.17-2.67-3.51-3.84-.75-.58-1.5-1.25-2.34-1.75-.33-.17-.33-.42-.08-.67,.5-.5,.75-1.09,1.17-1.59,1.17-1.34,3.01-1.25,4.18,0,.42,.5,.84,1.09,1.17,1.75,.25,.58,.75,1.09,1.25,1.59,.42,.42,1,.42,1.59,.33,.5-.08,1-.25,1.42-.42,1.5-.58,3.01-.33,4.43,.33,.5,.08,.92,.42,1.5,.42h0Z"/><path class="cls-3" d="M64.3,157.6s0,0,0,0c0,0,0,0,0,0Zm51.84-48.87c-.13,.1-.27,.17-.41,.27-.27,.22-.54,.43-.84,.61-.16,.1-.32,.2-.49,.29-.02,.56-.24,1.1-.63,1.49-.25,.25-.62,.47-.99,.58-.01,.07-.03,.13-.04,.2,.27,.09,.52,.23,.74,.45,.25,.25,.43,.59,.51,.96,.93,.23,1.75,1.01,1.99,1.9,.34,1.25-.42,3.04-1.84,3.24-.16,.02-.33,.05-.5,.07,.06,.21,.09,.42,.09,.63,.07,.7-.14,1.53-.69,1.95-.01,.01-.03,.02-.04,.04-.31,.31-.67,.52-1.09,.63-.44,.12-.88,.12-1.31,0-.06-.02-.12-.04-.17-.06-.07,.25-.13,.51-.2,.77,.38,.15,.72,.41,.91,.78,.14,.27,.2,.47,.24,.71,0-.05-.01-.1-.02-.15,0,.04,.02,.09,.04,.12,.07,.16,.09,.35,.09,.53,.82,.31,1.52,.84,1.88,1.55,.64,1.28,.35,2.83-.94,3.59-.67,.39-1.42,.44-2.1,.22-.04,.32-.14,.64-.31,.93-.59,1.01-2.01,1.53-3.08,.99-.29,.6-.6,1.19-.93,1.78,.83,.59,1.27,1.67,.99,2.7-.06,.22-.17,.47-.31,.7,1.03,.67,1.91,1.57,2.43,2.65,.64,1.35,.38,2.95-.98,3.75-1.66,.97-3.38-.02-4.03-1.64,.11,.28-.31-.29-.4-.36-.34-.25-.71-.46-1.09-.66-.24,.1-.48,.19-.73,.26-.19,.06-.36,.1-.56,.13-.02,0-.61,.17-.28,.03-.6,.26-1.27,.29-1.82,.06-.91,.74-1.83,1.47-2.75,2.18,.14,.29,.23,.61,.23,.95,0,.75-.29,1.6-.86,2.12,.08,.11,.17,.23,.24,.34,.7,1.17,.27,2.74-.89,3.42-.58,.34-1.28,.43-1.93,.25-.75-.2-1.25-.7-1.58-1.35,.02,.04,.04,.09,.05,.13-.03-.06-.06-.11-.09-.16-.48,.2-1.06,.15-1.52-.1-.01,0-.03-.02-.05-.03-.08-.04-.15-.1-.22-.16-2.27,1.95-4.56,3.83-7.16,5.35-.21,.17-.42,.35-.63,.52,.2-.07,.42-.1,.66-.03,.61,.17,.97,.81,.81,1.42-.17,.6-.81,.97-1.42,.8-.43-.12-.72-.47-.81-.87-.08,0-.16,0-.24,0-.21,0-.41-.02-.61-.09-.02,0-.02-.03-.04-.04-.22,.15-.42,.31-.65,.46-2.68,1.73-5.43,3.16-7.87,5.23,1.29-.36,2.59-.59,3.9-.76,.01-.08,.02-.15,.04-.26,.08-.19,.14-.38,.24-.55,.47-.86,1.41-1.06,2.3-1.12,.83-.05,1.7,.15,2.39,.59,.74-.29,1.48-.55,2.22-.81,0-.07,.01-.15,.01-.2,0-.44,.15-1,.38-1.38,.84-1.4,2.1-2.25,3.78-1.94,.22,.04,.42,.12,.61,.24,.2-.07,.41-.11,.63-.11,.54,0,.95,.22,1.35,.56,.02,.02,.03,.03,.05,.04,.16,.14,.27,.31,.37,.48,1.17-.38,2.32-.78,3.47-1.24,.03-.1,.07-.2,.1-.3,.11-.3,.23-.59,.36-.88,0,0,0,0,0-.01,.01-.04,.03-.09,.06-.18-.04,.12,.63-1.67,.21-.5,.17-.49,.39-.96,.79-1.31,1.39-1.19,3.26-.82,4.07,.71,.76-.36,1.5-.74,2.16-1.15,2.98-1.9,5.8,2.92,2.77,4.73-1.62,.97-3.56,1.52-5.36,2.19,.24,.86-.03,1.89-.9,2.31-.02,0-.04,.02-.06,.03-.13,.08-.26,.13-.4,.17-.02,.63-.26,1.25-.76,1.76-1.18,1.18-3.06,.96-4.05-.28-.57,.19-1.22,.14-1.75-.17-.4-.23-.68-.57-.85-.97-2.56,.59-5.17,.95-7.78,1.06-.19,.62-.69,1.12-1.35,1.35-.02,0-.03,.01-.05,.02-.08,.03-.16,.04-.24,.05,.06,.54,.04,1.01-.26,1.52-.3,.51-.79,.89-1.37,1.05-1.16,.32-2.54-.38-2.81-1.6-.04-.16-.11-.64-.13-.74-.04-.24-.08-.48-.12-.73-.02-.21-.06-.55-.06-.66,0-.09,0-.17,.01-.26,0-.1,.02-.18,.03-.24-.4-.05-.8-.09-1.2-.16-.1-.02-.15-.12-.15-.22-1.11,.19-2.22,.41-3.35,.69-.08,.02-.15,0-.2-.02-.59,.57-1.13,1.21-1.65,1.87,.03,0,.06-.02,.08-.02,.59-.08,1.17,.14,1.34,.76,.18,.65-.34,1.42-1.05,1.38-.31-.02-.64-.07-.92-.2-.03,.02-.06,.03-.09,.05-.17,.1-.31,.22-.46,.35-.24,.21-.49,.38-.75,.57-.02,.01-.04,0-.05,.02-.46,.82-.88,1.65-1.23,2.49,.02,.44,.04,.87,.04,1.32,0,.56-.89,.56-.87,0,0-.03,0-.06,0-.09-.09-.07-.15-.19-.09-.34,.03-.07,.06-.13,.09-.2,0-2.61-.38-5.14-.94-7.62-.01,0-.02,0-.03,0-.15-.02-.26-.11-.37-.2-.03,0-.07,0-.1-.02-.29,0-.55-.12-.81-.28-.02-.01-.13-.06-.2-.1-.21,.07-.44,.08-.69,0-.56-.16-.97-.68-.97-1.27,0-1.16,1.42-1.72,2.24-.93h0c.09,.04,.17,.09,.26,.14-.51-1.78-1.09-3.54-1.72-5.29-.29-.5-.57-1.01-.85-1.52-.04,0-.08,.01-.12,0-.08-.01-.24-.03-.31-.05-.08,.07-.18,.13-.25,.16-.08,.04-.14,.06-.2,.09-.09,.03-.21,.08-.38,.15-.22,.08-.46,.11-.69,.09-.78-.08-1.46-.36-1.87-1.07-.39-.67-.39-1.52,0-2.19,.43-.73,1.14-1.06,1.86-1.05-.8-1.68-1.52-3.37-2.17-5.09-.48,.06-.93,0-1.37-.25-.46-.27-.84-.74-.97-1.26,0-.03-.01-.05-.02-.08-.04-.16-.06-.33-.07-.5-.7-.29-1.3-.61-1.92-1.06-.61-.44-.72-.5-1.25-.46-3.27,.24-3.33-5.08,0-5.13,.59,0,1.12,.09,1.6,.26,.1-.4,.3-.74,.6-1.09,.13-.16,.31-.28,.52-.37-.12-.6-.24-1.2-.35-1.81-.08,0-.15,.02-.23,.02-1.06,0-1.95-.89-1.95-1.95,0-.34,.1-.65,.25-.93-.55-.18-1.1-.34-1.65-.46-1.35-.3-2.12-1.84-1.77-3.12,.44-1.58,2.31-2.33,3.72-1.51,.32,.18,.62,.4,.92,.62-.01-.61-.03-1.22-.03-1.83-.49-.48-.93-1.03-1.26-1.54-.49-.74-.91-1.67-1.61-2.09-2.27-1.38-1.08-4.52,.87-4.95v-.23c0-.98,.7-1.86,1.64-2.07,.08-.76,.24-1.47,.55-2.05-.19-.59-.32-1.17-.38-1.64-.22-1.72-.24-3.37,.96-4.73,1.16-1.31,3.55-.63,3.93,1.04,.3,1.32-.06,2.92-.25,4.27,.03,.02,.05,.04,.08,.06,.09-.06,.17-.12,.26-.18,2.39-1.45,5.2,2.04,3.02,3.92-.37,.32-.69,.68-.98,1.06,.58,.4,.93,1.06,.96,1.81,.02,.45-.09,.9-.32,1.29-.14,.24-.36,.46-.54,.68-.37,.45-.9,.68-1.46,.75,0,.33,0,.66,0,.99,0,1.07,0,2.13,0,3.19,.09,.05,.17,.11,.25,.17,.25,.22,.4,.52,.45,.84,.77-.17,1.59,.1,2.28,.63,0,0,.02,.01,.03,.02,.84,.65,.87,2.07,.38,2.92-.4,.69-1.11,1.1-1.87,1.17,.14,.25,.24,.54,.24,.84,0,.88-.69,1.61-1.54,1.7,0,0,0,.02,0,.03,.14-.03,.29-.05,.45-.05,.83,0,1.56,.45,1.97,1.11,1.31-.56,3.13,.49,3,2.01-.13,1.49-1.12,3.01-2.12,4.11-.18,.2-.36,.37-.55,.52,.44,.42,.72,1.01,.72,1.66,0,.85-.48,1.59-1.18,2,.45,1.74,.9,3.49,1.24,5.24,.7-.22,1.48-.09,2.08,.51,.96,.97,.78,2.69-.43,3.37,0,0,0,0,0,0l-.02,.02c-.07,.07-.38,.39-.31,.27-.15,.21-.28,.42-.47,.61-.06,.06-.13,.12-.2,.17,.03,.64,.03,1.29,.01,1.94,.39,1.12,.77,2.24,1.12,3.37,.03-.15,.07-.31,.14-.46-.1,.24,.16-.41,.12-.36,.2-.33,.52-.58,.9-.65,1.57-.27,2.15,1.82,.66,2.38-.17,.06-.33,.08-.49,.07,0,0,0,0,0,0-.03,.11-.05,.22-.07,.33-.03,.14-.02,.29-.03,.42,.07,.25,.09,.46,.08,.74-.02,.35,.04,.73-.06,1.06-.04,.13-.12,.2-.2,.25,.44,1.83,.78,3.68,.98,5.57,.3-1.71,.83-3.4,1.33-5.06-.05-.02-.09-.06-.11-.11,0-.01-.01-.02-.02-.04-.52-.04-.85-.46-.9-.94,0,0,0,0,0,0,0-.05-.01-.1-.01-.14,0,0,0,0,0,0,0-.01,0-.03,0-.04,0,.01,0,.02,0,.03,0,0,0,0,0,0,.04-.43,.05-.32,.03-.22,0,.02,0,.05,0,.07,0-.04,0-.08,.02-.13,.07-.34,.39-.63,.72-.72,.33-.09,.62,0,.86,.18,.29-1.16,.56-2.32,.77-3.49-.07-.03-.14-.07-.2-.12-.07-.06-.12-.13-.17-.2-.04,0-.09,0-.13-.02-.57-.12-.89-.78-.74-1.31,.18-.65,.98-1,1.56-.64,0,0,0,0,.02,.01,.08-.63,.14-1.27,.2-1.91-.11-.05-.2-.12-.22-.27-.3-1.8-.51-2.62,.05-4.44,.15-.5,.26-1.01,.34-1.52-.43-.82-.25-1.68,.17-2.49,0-.63,0-1.25,.01-1.88-.13-.11-.23-.25-.29-.43-.25-.86-.22-1.81-.29-2.72-.87-1.57-1.23-3.44-1.71-5.19-.47,.19-1.03,.2-1.56-.05-.64-.3-.98-.8-1.34-1.38-.26-.43-.56-.88-.63-1.39-.14-.9,.22-1.53,1.06-1.87,.29-.12,.62-.13,.94-.08-.45-1.43-.88-2.87-1.23-4.33-.07-.28-.12-.57-.18-.85-.14-.12-.29-.24-.45-.33-.13-.08-.25-.17-.38-.26-.24,.28-.62,.46-.97,.46-.68,0-1.22-.56-1.23-1.23,0-.03,0-.07,0-.1,0-.27,.09-.53,.24-.73-.71-.7-.99-1.7-.44-2.64,.49-.83,1.34-1.13,2.16-.99-.41-1.65-.61-3.37-.55-5.07,.05-1.31,1.05-2.36,2.38-2.38,.04,0,.08,0,.12,0,1.58-.02,2.63,1.63,2.25,3,0,.22,0,.45,0,.67,1.3,.06,2.53,1.09,2.07,2.81-.23,.85-.52,1.73-.98,2.49,.29,.2,.51,.48,.6,.83,.07,.31,.09,.57,0,.87-.06,.15-.12,.3-.19,.45-.09,.11-.17,.22-.26,.33-.39,.31-.44,.34-.15,.11-.27,.21-.52,.38-.83,.44,.22,.72,.44,1.45,.65,2.18,.13,.46,.28,.92,.42,1.38,.57-.22,1.27-.12,1.57,.43-.04-.61-.1-1.15-.11-1.38-.07-1.8,.03-3.59,.07-5.39-.05-.11-.1-.23-.16-.34-.53-1.15-.65-2.49-.08-3.64,.08-.17,.19-.3,.3-.42,.03-1.37,.07-2.75,.17-4.12-.39-.88-.56-1.96-.66-2.85-.77-1.1-.88-2.73-.21-3.92,.04-.08,.1-.14,.16-.2-3.19-.55-1.58-5.46,1.31-3.89,.44,.24,.82,.54,1.18,.87,.04-.23,.11-.65,.12-.73,.06-.32,.08-.66,.17-.98,.05-.19,.11-.4,.18-.62-.02-.03-.05-.05-.07-.08-.06-.11-.11-.22-.15-.34,.13,.34,.07,.18,.03,.1-.18-.42-.19-.87,.16-1.22,.1-.1,.21-.17,.32-.23-.24-.69-.55-1.33-.54-2.12,.01-1.36,1.48-2.16,2.65-1.52,1.75,.95,1.93,3.21,1.68,5.11,.54-.17,1.12-.07,1.57,.37,.59,.59,.62,1.69,0,2.27,.06,.76-.16,1.6-.29,2.29-.36,1.93-.3,3.93-.89,5.81,.28,.11,.52,.33,.71,.58,.08,.1,.13,.22,.16,.34,.28-.29,.49-.66,.69-1.03,1.27-2.3,4.94-.16,3.52,2.06-.64,1.01-1.5,1.52-2.5,1.82,0,.01,.01,.02,.02,.03,.44,.77,.08,2.03-.89,2.2-.47,.08-.89,.09-1.33-.06-.06,.08-.11,.17-.16,.26,0,0-.15,.35-.07,.15-.18,.47-.35,.76-.77,1.04,0,0-.02,0-.02,.01,0,2.66-.4,5.24-.88,7.85-.16,.85-.31,1.65-.57,2.35,.12-.1,.25-.19,.38-.27,.76-.48,1.5-.98,2.1-1.61-.05-.04-.11-.07-.16-.12-.02-.01-.03-.03-.05-.04-.26-.2-.41-.49-.48-.79-.29-.65-.44-1.41-.29-2.09,.16-.75,1.03-1.2,1.75-.99,.38,.11,.72,.31,1.03,.56,.4-1.16,.82-2.34,1.54-3.2,1.41-1.71,4.21,.12,3.61,2.1-.34,1.15-1.09,2.21-1.93,3.19,.15,.19,.28,.4,.35,.64,.17,.62,0,1.3-.46,1.75-.54,.54-1.53,.74-2.18,.28-.05-.03-.09-.07-.14-.1-.47,.46-1.04,.98-1.66,1.44,.18,.2,.32,.44,.4,.73,.3,1.08-.57,2.51-1.81,2.37-.41-.04-.82-.06-1.24-.07,0,.48-.28,.88-.52,1.3-.29,.51-.61,1.06-1.14,1.34-.09,.67-.18,1.33-.29,1.99,.07,.04,.13,.09,.17,.16,.7,.36,1.32,1.02,1.21,1.88-.11,.85-.34,1.51-.9,2.18-.37,.44-.85,.61-1.34,.6-.03,.14-.05,.27-.08,.41-.05,.26-.12,.52-.17,.78,.16,.07,.31,.16,.45,.3,.95,.97,.48,2.23,.01,3.3-.37,.86-.76,1.86-1.66,2.27-.3,2.03-.62,3.16-1.63,4.88-.06,.54-.12,1.09-.21,1.63,.29-.45,.73-.63,1.32-.54,.48,.07,.82,.63,.82,1.08,0,.49-.34,.96-.82,1.08-.12,.03-.27,.06-.38,.06-.07-.01-.15-.02-.22-.03-.15,.02-.33,.05-.12,.02-.15,.02-.29,.06-.44,.1-.1,.03-.17,.1-.24,.17,.02,.18-.02,.36-.12,.53-.07,.2-.14,.38-.29,.54-.03,.03-.07,.05-.1,.07-.24,1.09-.49,2.18-.77,3.27-.07,.27-.13,.54-.19,.81,.13,.38,.03,.8-.25,1.08-.38,1.72-.73,3.46-1.2,5.16,.09-.16,.18-.31,.27-.47,.14-.48,.39-.86,.73-1.22,.62-.98,1.3-1.9,2.05-2.76,0-.02-.01-.03,0-.05,.17-.68,.43-1.33,.61-2.01,0,0-.01,0-.02-.01-.81-.38-.57-1.67,.24-1.87,.27-.06,.55-.05,.79,.1,.68,.44,.68,1.7-.24,1.87-.03,0-.05,.02-.08,.03-.11,.33-.25,.65-.39,.98,.8-.82,1.69-1.6,2.69-2.34,0,0-.02,0-.02-.01-.18-.19-.28-.4-.29-.66,0-.02,0-.02,0-.04-.03-.13-.06-.26-.05-.39,.04-.38,.23-.71,.63-.82,.36-.1,.78,.06,.96,.39,.1,.18,.14,.38,.14,.57,.06-.04,.12-.08,.18-.13,.44-.28,.87-.56,1.3-.84-.02-.05-.02-.12,.02-.18,.31-.43,.58-.89,.6-1.43,0-.22-.1-.29-.23-.47-.16-.21-.16-.54-.18-.78-.03-.36,.28-.71,.61-.8,.48-.13,.85,.16,1.02,.58,.29,.7-.13,1.1-.4,1.7-.11,.26-.26,.5-.42,.74,1.04-.67,2.05-1.36,3.05-2.08-.08-.19-.05-.43,.19-.58,2.14-1.33,3.3-3.34,4.83-5.25,.29-.36,.58-.7,.88-1.05-.19-1.49-.48-3-.83-4.49-.16-.12-.27-.2-.54-.28-1.09-.35-1.94-.96-2.79-1.7-1.03-.9-.92-2.64,0-3.57,.42-.42,1.05-.68,1.69-.72-.03-.08-.05-.17-.08-.25-.13-.03-.25-.06-.38-.11,.03,.01,.07,.03,.1,.04-.09-.03-.18-.06-.27-.09-1.53-.48-2.33-2.24-1.49-3.67,.2-.35,.49-.63,.83-.84-.16-.74-.14-1.51,0-2.33,.21-1.14,1.32-1.64,2.32-1.77,.1-.01,.2-.03,.3-.04,1.23-.15,2.29,1.04,2.43,2.19,.47-.05,.96,.02,1.41,.29,1.39,.82,1.42,2.52,.47,3.67-.42,.51-.92,.94-1.36,1.42,.03,.39,.07,.78,.12,1.17,.45-.17,.95-.2,1.5-.11,.01,0,.02,0,.04,0,.92,.13,1.8,1.31,1.7,2.23-.12,1.08-.6,1.76-1.53,2.28-.28,.16-.54,.33-.86,.4-.08,.02-.16,.03-.24,.04-.01,.02-.03,.04-.04,.05,.03,.52,.03,1.01,.01,1.51,.48,.02,.96,.24,1.19,.63,.25-.27,.5-.53,.75-.8,1.03-1.1,2.14-2.1,3.27-3.07,.03-.18,.05-.36,.07-.54-.06,.45-.04,.32,.05-.39-.08,.61-.01-.06,0-.16,.01-.2,.02-.39,.03-.59,0-.12-.02-.41,0-.39-.04-.21-.06-.41-.05-.62,.07-2.02,2.32-3.16,3.89-2.33,.49-.41,1.03-.74,1.55-1.12,.63-.45,1-1.28,1.24-1.99,.09-.26,.27-.74,.52-1.21-.19-.21-.39-.39-.53-.65-.82-1.51,.17-4.02,2.17-3.79h0c.04-.8,.33-1.7,.82-2.37-.03-.04-.07-.09-.1-.13-.25-.43-.31-.79-.34-1.29,0-.12,0-.25,.02-.37,0,.04-.01,.09-.02,.13,0-.06,.01-.11,.02-.17,0-.04,0-.07,.01-.11,.05-.49,.1-.97,.36-1.42,.14-.25,.32-.46,.52-.64-.03-.06-.07-.12-.11-.17-.2-.31-.42-.62-.64-.93-.21-.29-.06-.09-.39-.49-.08-.09-.38-.35-.43-.42-.08-.05-.17-.1-.25-.16-1.8-1.37-1.74-4.12,.64-4.88,1.17-.37,2.12,.04,2.9,.77,.2-.13,.42-.23,.64-.27,.11-.02,.2-.03,.29-.04,0-.03,0-.05,.02-.08,0-.03,.02-.05,.03-.08,.1-.32,.3-.58,.56-.75-.57-.38-.96-1.01-.95-1.73,0-.45,.11-.82,.3-1.17-.54-.51-.93-1.3-.86-1.99,0-.06,.01-.13,.02-.19,.16-1.48,1.12-2.73,2.73-2.73,.03,0,.07,0,.1,0-.22-1.28,.12-2.85,.27-3.87,.27-1.84,1.03-4.11,2.84-4.9,.6-1.06,1.68-1.71,2.98-1.35,1.14,.31,1.91,1.41,1.92,2.53,.05,.07,.09,.15,.13,.23,.67,1.42,.21,2.76-.37,4.13-.29,.7-.64,1.45-1.06,2.14,.64,.22,1.21,.67,1.54,1.23,.83,1.43,.2,2.91-1.01,3.82h0Zm-40.54-5.61c.58-.62,1.03-1.33,1.39-2.09,.03-.05-.05-.12-.09-.07-.56,.55-1,1.23-1.7,1.64-.43,.25,.08,.88,.4,.52h0Zm-7.27,28h.24c.42-.25,.69-.93,.91-1.48,.05-.14,.11-.27,.16-.38l.04-.08c.23-.51,.46-1.04,.36-1.56-.26,.33-.41,.77-.56,1.19-.06,.19-.13,.38-.2,.56-.1,.25-.26,.48-.41,.71-.15,.22-.28,.42-.37,.63l-.17,.41Zm-2.55-8.24h.13c.93-.11,1.34-1.68,1.52-2.36,.25-.89,.38-1.78,.46-2.62-.21,.77-.43,1.5-.71,2.2-.28,.71-.57,1.3-.9,1.81h0c-.15,.22-.27,.37-.32,.52l-.17,.44Zm5.01,17.8v.04c.02,.07,.02,.14,.03,.2,0,.03,0,.06,0,.09v.04c.07,.25,.22,.42,.36,.42,.13,0,.27-.16,.34-.39v-.03c.02-.11,.04-.22,.06-.34h0s0-.02,0-.02c.37-2.41,.77-5.25,.92-8.13,.05-.89,.08-1.81,.11-2.7v-.17s.13-.04,.13-.04c.03-.01,.06-.02,.09-.02,0,0,.02,0,.03,0,.31-.14,.62-.28,.93-.42,1.77-.79,3.6-1.62,4.98-3,1.11-1.1,2.02-2.39,2.89-3.65-.01,.02-.03,.03-.04,.05-.96,1.18-1.94,2.39-3.15,3.32-1.69,1.32-3.52,2.16-5.46,3.06l-.37,.17v-.3c.05-1.63,.07-3.3,.09-4.9,.02-1.34,.03-2.73,.06-4.09v-.12s.11-.05,.11-.05c.07-.03,.12-.1,.13-.17,0-.06-.02-.13-.08-.18h-.15v-.19c.07-1.89,.14-3.32,.23-4.66v-.17h.19s.07,0,.1,.01c.09,.01,.18,.02,.27,.02,.93,0,2.1-.56,3.04-1.01,.23-.11,.45-.22,.65-.3,.88-.4,1.83-.89,2.49-1.63-.2,.09-.4,.17-.6,.26-.94,.41-1.91,.83-2.92,1.16-.26,.09-.55,.16-.85,.24-.7,.18-1.5,.39-2.01,.79l-.33,.26,.04-.42c0-.08,0-.16,.01-.25,0-.09,0-.17,.01-.26,.18-1.92,.54-3.82,.9-5.66,.7-3.6,1.36-7.02,.73-10.64-.02,.73-.02,1.46-.02,2.18,0,2.61-.02,5.31-.78,7.98v.03l-.36,.07c-.22-.53-.6-1.08-.87-1.37-.34-.39-.69-.77-1.04-1.14,.29,.44,.55,.89,.8,1.34l.04,.07c.29,.49,.58,1,.78,1.55,.1,.26,.13,.34,.27,.45l.09,.07-.03,.12c-.54,2.24-.85,4.54-.93,7.01-.04,.78-.06,1.58-.08,2.36-.01,.39-.02,.79-.04,1.18v.29s-.27-.13-.27-.13c-.03-.01-.07-.04-.12-.08-.03-.02-.06-.04-.09-.07-.12-.09-.23-.18-.35-.22l-.07-.03-.03-.07c-.1-.21-.27-.42-.42-.6l-.03-.04-.1-.12c-.22-.27-.42-.52-.69-.7,0,0,0,0,0,0,.13,.38,.34,.74,.53,1.05,.16,.27,.4,.69,.71,.74h.08l.06,.07c.05,.06,.1,.11,.16,.16,.03,.03,.05,.05,.07,.07,.15,.14,.28,.27,.43,.4l.1,.09-.04,1.45c-.12,4.15-.24,8.45-.56,12.65-.13,1.64-.32,3.29-.59,5.05h-.37c-.56-2.6-1.64-5.13-2.59-7.37l-.11-.26h0s-.18-.41-.18-.41c-.13-.29-.25-.59-.37-.89-.09-.21-.17-.42-.26-.63-.76-1.89-1.33-3.82-1.79-6.09l-.05-.22h0l-.09-.48c-.52-2.71-.77-5.47-.94-7.81,0,0,0,0,0,0,.03,2.64,.23,5.17,.59,7.52l.09,.56-.39-.39s-.02-.01-.03-.02l-.11-.07c-.36-.21-.69-.42-1.03-.73-.33-.32-.66-.66-.96-1.03,.17,.36,.36,.67,.57,.92,.07,.09,.18,.19,.3,.31,.27,.26,.58,.55,.66,.85,.07,.29,.57,.84,1,.94l.12,.03,.02,.12c.27,1.42,.58,2.66,.95,3.81,.39,1.19,.86,2.37,1.32,3.51l.12,.31-.33-.06c-.25-.04-.49-.11-.72-.18-.36-.1-.7-.2-1.06-.2-.08,0-.15,0-.22,.01,.15,.07,.3,.14,.45,.21,.64,.31,1.3,.62,2.01,.74l.1,.02,.04,.1c1.14,2.78,2.32,5.66,2.64,8.83h0Zm-7.89,10.06c.1-.23,.18-.45,.25-.69-.18,.27-.35,.53-.48,.74-.14,.22-.27,.42-.4,.62h0s0,.01,0,.01c-.08,.1-.18,.18-.26,.25-.05,.04-.1,.08-.14,.12l-.21,.21-.1-.27c-.16-.43-.32-.86-.48-1.29-1.21-3.28-2.46-6.66-3.4-10.09l-.05-.18,.18-.05c1.33-.35,2.37-1.61,3.14-2.68,.34-.48,.65-.99,.94-1.49,.2-.34,.4-.69,.62-1.02,.06-.09,.13-.19,.19-.29,.28-.42,.57-.85,.68-1.29,.01-.06,0-.11-.03-.15-.03-.04-.09-.07-.14-.07-.04,0-.1,.02-.15,.09-.24,.36-.41,.75-.6,1.16-.19,.42-.38,.85-.65,1.25-.6,.87-1.26,1.79-2.05,2.57-.72,.69-1.32,1.07-2.09,1.33l-.19,.06-.05-.2c-.78-3.1-1.32-6.44-1.63-10.21v-.14s.12-.05,.12-.05c.83-.31,1.55-.91,2.24-1.48,.11-.09,.22-.18,.33-.27,.68-.55,1.53-1.22,1.87-1.96,.01-.03,0-.05,0-.06,0,0-.01-.02-.03-.02,0,0-.02,0-.03,.01-.48,.26-.92,.69-1.35,1.1-.32,.31-.66,.63-1.02,.89-.61,.42-1.27,.76-1.96,1.01l-.23,.09-.02-.25c-.13-1.85-.21-3.84-.25-5.89-.01-1.03-.01-2.09,0-3.15v-.18h.15c.77-.49,1.5-1.75,1.9-2.8,.1-.26,.23-.54,.36-.83,.34-.72,.72-1.52,.61-2.24-.31,.44-.52,1-.72,1.54-.18,.48-.36,.97-.62,1.4-.18,.29-.39,.58-.6,.89-.25,.35-.51,.71-.72,1.08l-.36,.61,.03-1.56c.06-3.32,.12-6.75-.25-10.05-.38,4.86-.23,9.9-.09,14.38v.41s-.3-.26-.3-.26c-.23-.2-.47-.4-.73-.58-.16-.1-.33-.18-.52-.27-.25-.12-.52-.25-.74-.42-.19-.14-.38-.31-.56-.46-.36-.31-.73-.64-1.13-.81,.2,.44,.57,.78,.95,1.14,.28,.26,.58,.53,.8,.85,.45,.62,1.13,.9,1.85,1.21,.07,.03,.14,.06,.2,.09h.01s.01,.01,.02,.01h.17v.18c.02,.32,.03,.64,.03,.95,.06,1.79,.14,3.42,.25,4.99v.14s-.38,.13-.38,.13c-.12,.03-.19,.09-.23,.18l-.07,.16-.16-.06c-.29-.11-.6-.19-.88-.26-.12-.03-.23-.06-.33-.08l-.27-.07c-.59-.16-1.19-.32-1.77-.55-.16-.06-.3-.13-.44-.2-.26-.13-.51-.25-.79-.28,.14,.8,1.39,1.21,2.13,1.47l.08,.03c.15,.05,.3,.1,.45,.15,.58,.19,1.18,.38,1.73,.65,.08,.04,.15,.08,.22,.11,.21,.11,.36,.2,.54,.2,.03,0,.06,0,.1,0l.2-.03,.02,.2c.31,3.49,.78,6.54,1.42,9.34,.02,.12,.06,.26,.1,.44l.1,.35-.34-.13c-.42-.16-.9-.28-1.35-.4-.47-.12-.95-.24-1.4-.41-.47-.18-.95-.36-1.41-.54-.47-.18-.95-.36-1.44-.55,.66,.74,1.62,1.32,2.37,1.63,.16,.07,.32,.14,.49,.21,.84,.37,1.89,.83,2.75,.83,.09,0,.17,0,.25-.01,.02,0,.04-.01,.08-.01h.14l.04,.14c.9,3.42,2.18,6.81,3.42,10.1l.47,1.25-.38-.14c-.53-.19-1.01-.35-1.48-.35h-.03c.21,.42,.7,.64,1.18,.84,.11,.05,.23,.1,.34,.15,.05,.02,.1,.04,.14,.04,.01,0,.02,0,.03,0,.22-.19,.47-.36,.74-.51v-.11s.18,0,.18,0c0,0,.01,0,.02,0,0,0,.02,0,.03,0,.05-.03,.09-.05,.14-.07h.01s.01-.02,.01-.02c0,0,0-.01,.01-.01,0,0,.02-.02,.03-.03,.09-.13,.14-.28,.19-.44,.04-.12,.07-.23,.13-.36,.12-.24,.22-.46,.3-.66h0Zm13.25,10.78c.01,.05,.04,.11,.07,.15,.05,.07,.12,.12,.22,.16,.28,.64,.95,1.11,1.31,1.72,.39,.7,.82,1.37,1.23,2.05,.01,.03,.07,.03,.05-.01-.09-.84-.23-1.66-.66-2.4-.24-.43-.56-1-.96-1.38-.11-.11-.22-.19-.32-.25,.25-.04,.51-.07,.76-.09,1.13-.15,2.25-.24,3.42-.33,2.41-.2,4.93-.28,7.28-.92,.86-.24,1.7-.52,2.55-.82-.01,.05,0,.12,.05,.16,.54,.46,1.34,.55,2,.8,.85,.35,1.59,.78,2.24,1.43,.17,.17,.42-.08,.27-.25-.58-.68-1.26-1.23-2.08-1.58-.6-.26-1.33-.64-2-.74,1.18-.44,2.33-.94,3.48-1.49,.09-.03,.19-.07,.27-.13,2.72-1.31,5.33-2.85,7.87-4.46,.04-.01,.01-.07-.03-.04-2.33,1.01-4.58,2.26-6.87,3.46,.16-.24,.31-.48,.44-.66,.5-.72,.91-1.33,1.03-2.2,0-.07-.09-.09-.15-.05-.56,.59-.95,1.27-1.45,1.93-.32,.43-.66,.84-1.03,1.25-.17,.19-.31,.31-.39,.51-2.34,1.15-4.74,2.14-7.33,2.64-1.25,.23-2.51,.37-3.77,.48,.42-.36,.78-.86,1.04-1.25,.66-.91,1.19-1.93,1.98-2.75,.14-.13-.07-.32-.21-.2-.8,.66-1.37,1.45-1.94,2.29-.31,.44-.63,.9-1.02,1.27-.29,.25-.62,.43-.87,.71-1.63,.12-3.27,.19-4.89,.34l-1.35,.13c-.19,.16-.28,.35-.24,.53h0Zm-.33-.48s0,0,0,0c0-.04,0-.08,.01-.11,0,.05-.01,.07-.02,.11Zm26.96-32.72c.08,.26,.17,.54,.25,.83-.08-.34-.16-.63-.23-.83,0-.01,0-.01-.01-.01,0,0-.01,0-.01,0h0Zm1.52,10.34c-.78-.24-2.83-.94-3.49-.23-.08,.09-.05,.19,.03,.25,.32,.24,.67,.13,1.06,.17,.64,.05,1.3,.13,1.93,.31,1.14,.32,2.61,.82,3.22,1.88,.05,.09,.19,.01,.15-.08-.6-1.19-1.63-1.9-2.89-2.3h0Zm9.15-33.56s-.02-.03-.03-.03c0,0-.01,0-.02,0-.87,.61-1.62,1.41-2.16,2.32l-.17-.07c.52-2.42,1.04-4.53,1.58-6.43-1.03,2.69-1.91,5.68-2.81,9.51l-.07,.29-.12-.32c-.06-.15-.12-.32-.21-.4-.08-.08-.16-.15-.25-.23-.09-.08-.19-.16-.27-.25,.02,.12,.02,.24,.02,.36,0,.14,0,.28,.04,.4,.03,.08,.05,.17,.08,.25,.06,.17,.11,.34,.16,.52,.06,.25,.14,.48,.29,.77v.03s0,.03,0,.03c-.29,1.27-.56,2.56-.84,3.81-.42,1.96-.86,3.98-1.33,5.95l-.18-.04c.03-.11,.04-.24,.04-.37,0-.84-.5-1.87-.83-2.56l-.05-.09c-.57-1.22-1.35-2.26-2.2-2.93-.01,0-.02-.01-.04-.01-.03,0-.05,.01-.06,.03,0,0,0,.01,.01,.04,.33,.52,.69,1.04,1.03,1.54,.27,.39,.55,.8,.82,1.2,.74,1.11,.95,2.07,1.21,3.18h0s.03,0,.03,0v.08s0,.01,0,.02c0,0,0,.02,0,.04l.17,.06c-.22,.92-.46,1.88-.71,2.8-.77,2.86-1.81,5.68-3.1,8.38l-.18-.05c.13-.85,.08-1.76-.04-2.56,.04,.32,.05,.64,.03,.96-.02,.32-.07,.63-.12,.94-.07,.45-.14,.91-.12,1.37,0,.01,0,.02,.03,.04l.05,.05-.03,.06c-.6,1.16-1.08,2.05-1.57,2.86-1.55,2.58-3.95,4.39-6.08,5.88l-.13-.12c.39-.65,.64-1.47,.85-2.13l.04-.12c.35-1.16,.56-2.2,.67-3.28,0-.04,0-.07-.03-.09-.03-.03-.08-.05-.14-.05-.04,0-.13,.01-.14,.11-.05,.26-.11,.52-.16,.77-.16,.81-.33,1.65-.58,2.45-.14,.47-.35,.93-.56,1.37-.25,.54-.51,1.09-.63,1.65v.04s-.37,.25-.53,.37c-.55,.39-1.13,.79-1.67,1.19-1.53,1.13-2.95,2.43-4.32,3.69l-.64,.59,.02-.23c.09-1.3,.04-2.61-.15-3.9h0c-.02-.14-.04-.27-.02-.41,.02-.16,.09-.29,.16-.42l.02-.04c.31-.6,.52-1.28,.73-1.93,.33-1.04,.67-2.11,1.41-2.94l.02-.02c.08-.08,.14-.16,.17-.25,.01-.05,0-.1-.02-.14-.02-.03-.03-.04-.06-.05,0,0-.01,0-.02,0-.06,0-.13,.06-.18,.1-1.25,1.14-1.83,2.83-2.34,4.32l-.1,.29-1.17-4.47c-.04-.15-.08-.31-.06-.48,.02-.14,.08-.26,.14-.37l.03-.05c.25-.49,.36-1.05,.47-1.58,.02-.08,.03-.17,.05-.25,.27-1.29,.67-2.56,1.19-3.77-.28,.26-.44,.65-.58,1.01-.49,1.26-.92,2.62-1.36,4.28h-.18c-.47-2-.75-4.04-.82-6.09,0-.06,0-.14-.04-.16,0,0-.01,0-.02,0-.04,0-.12,.13-.13,.26-.18,3.13,.61,6.21,1.37,9.19l.05,.2-.19-.1c-.78-.42-1.59-.78-2.42-1.08-.06-.02-.12-.03-.17-.03-.08,0-.09,.03-.1,.04-.02,.06,.06,.14,.11,.19,.83,.77,1.83,1.37,2.89,1.74l.05,.02v.05c.48,2.05,.76,4.15,.83,6.25,.01,.36,0,.74-.19,1.05-.03,.04-.06,.08-.09,.12-.07,.1-.15,.19-.15,.29,0,.13,.12,.25,.24,.29,.1,.04,.2,.06,.3,.06,.45,0,.78-.44,1.1-.86,.13-.17,.25-.33,.37-.46,.32-.32,.67-.62,1.01-.9,.12-.1,.24-.2,.36-.3,.27-.24,.56-.48,.87-.72,.09-.07,.19-.14,.3-.21,.2-.14,.41-.28,.53-.44l.15,.11s-.05,.07-.04,.12c.06,.36,.41,.74,.69,1.05,.08,.09,.16,.17,.22,.25,.35,.4,.78,.89,1.27,1.16,.02,.01,.05,.02,.07,.02,.05,0,.1-.03,.13-.08,.02-.03,.04-.08,0-.15-.21-.39-.54-.73-.87-1.05-.08-.08-.17-.17-.25-.25-.11-.11-.21-.23-.32-.36-.25-.29-.5-.59-.82-.73-.02,0-.03,0-.04,0-.01,0-.02,0-.03,0l-.09-.16c.56-.43,1.13-.87,1.68-1.28,.95-.72,1.93-1.47,2.89-2.25,4.37-3.58,7.49-8.24,9.81-14.69l.02-.05h.06c.46-.06,.9-.25,1.37-.45,.36-.15,.72-.31,1.1-.4,.75-.19,1.49-.29,2.31-.31-.48-.06-.99-.11-1.49-.11-.34,0-.63,.02-.92,.07-.08,.01-.16,.03-.24,.04-.59,.09-1.25,.2-1.78,.46l-.2,.1,.07-.22c.92-2.68,1.73-5.68,2.54-9.44h.18s.02,.05,.03,.05c.38-.16,.72-.42,1.04-.67,.22-.17,.44-.34,.67-.49,.25-.15,.5-.28,.75-.41,.31-.16,.62-.33,.92-.52-.66,.12-1.31,.39-2,.82l-.08,.05c-.51,.31-1.04,.62-1.34,1.13l-.17-.07c.35-1.6,.68-3.23,1-4.82,.27-1.31,.54-2.66,.82-3.97v-.02s.01-.02,.01-.02c.57-.82,1.22-1.61,1.85-2.36,.25-.31,.51-.62,.77-.94,.01-.02,0-.06,0-.08h0Zm-53.13,48.61,.77-.2s0,0,0,0c.08,.01,.06,0,0,0Zm14.86,9.97s-.01-.06-.01-.09c.04,.36,.04,.28,.01,.09Z"/><path class="cls-3" d="M139.95,170.98c.45,1.7,3.16,5.72,5.08,7.68,.84,.66,1.51,1.7,2.63,1.88,.2-1.98-.82-3.9-1.75-5.63-1.16-2.13-3.7-3.37-4.66-5.6-.37-.87-1.19-2.4-.34-2.81,.82-.39,.98,2.47,1.91,1.94,.99-.56-.03-4.26,1.15-3.72,1.37,.63,.84,4.72,1.97,6.85,.62,1.6,3.08,4.57,3.65,1.2,.63-2.12,1.48-4.27,2.46-6.2,.36-.71,2.26-3.31,2.22-.88-.46,2.16-1.47,4.17-2.23,6.22-.58,2.26-1.87,4.36-2.04,6.69-.17,2.36,.41,4.73,1.05,7.01,.48,1.68,.72,3.71,2.06,4.83,.56,.47,1.52,.88,2.14,.49,2.13-1.35,1.31-4.88,1.63-7.38,.33-2.62-.87-5.54,.29-7.91,1.42-2.89-.08-4.2,1.29-5.65,2.09-.88,.6,3.25,2.74,1.69,.97-1.27,3.74-.66,1.78,.84-1.81,1.16-3.77,2.72-4.02,4.79-.1,.8-.53,4.86,1.07,2.16,.98-1.56,2.23-2.97,3.49-4.33,1.16-1.62,1.11-2.89,1.88-4.24,.55-1.52,.05-6.08,2.58-4.69-.32,1.61-.76,5,1.93,3.44,1-.4,4.89-.8,3.6,.71-1.16,.61-5.73,1.17-7.44,3.86-.59,2.3,2.59-.32,3.21-1.14,.65-1.07,2.85-1.74,2.87-.44,0,.85-4.12,2.14,.54,2.49,2.21-.06,5.28,.98,2.77,2-3.57,.17-7.62-1.49-10.77,.93-2.32,2.06-7.17,4.64-5.69,7.37,.73,1.36,3.11-.02,4.62-.35,2.07-.46,3.79-1.97,5.94-2.26,2.58-.32,4.48-2.43,5.56-4.67,1.49-2.06,2.3,.18,1.1,1.82-.25,1.08,2.93,.63,4.62,.75,1.1,.08,2.27,1.41,1.7,1.71-2.2,1.17-5.36-1.72-8.92,.56,.27,1.96,4.26,.38,5.83,1.66,.48,.39,1.44,1.42,.86,1.65-1.14,.46-5.28-2.19-2.67,1.59,.97,2.25-1.63,.26-2.04-.29-1.95-2.65-4.17-2.39-6.4-2.12-.59,.07-4.05,.6-1.51,.96,2.28,.24,5.19-.98,6.99,.84,.83,.99,3.02,3.54,1.72,4.45-1.23,.85-2.29-3.39-3.33-2.98-1.11,.03,.84,3.65-.76,3.5-.68,.29-1.45-2.99-2.83-3.72-1.95-1.04-4.38-1.37-6.62-.39-2.43,.5-4.07,2.64-5.61,4.46-1.3,1.55-2.37,3.38-2.92,5.33-.56,2-.86,4.25-.27,6.23-1.56,.98-5.21,.1-5.37-.24,1.28-1.98,2.43-4.05,2.77-6.33,.31-2.06,.46-4.49-.72-6.2-.95-1.39-2.79-2.16-4.47-2.35-2.26-.24-4.47,.93-6.57,1.8-1.78,.74-3.49,1.72-5.03,2.88-1.16,.88-1.26,2.25-3.12,3.05-3.2,.36,1.72-3.84-1.25-2.15-2.55,.57-1.04-2.58,.84-2.14,1.71-.41,4.7-.24,4.87-1.99,.15-1.49-2.26-2.29-3.75-2.47-2.77-.33-5.29-2.63-3.12-2.41,1.08,.13,1.33,.4,1.05-.78-.19-2.06,1.99,.63,3.12,1.6,1.97,1.68,5.01,1.94,7.64,1.38,3.03-.69-2.3-2.32-3.34-2.24-2.32-.44-7.59-1.94-6.77-2.99,.73-1.47,3.03,1.07,4.91,1.06,.32,0,.99-.3,.79-.56-1.46-1.93-4.66-2.71-3.7-4.21,.79-.62,3.02,1.34,4.01,1.99,1.22,.72,2.32,1.69,3.42,2.56,1.18,1.05,2.77,1.69,4.12,2.53,1.19,1.09,5.56,1.27,3.76-1.2-1.4-1.96-3.67-3.7-6.1-3.99-3.17-.05-5.4-2.56-8.23-3.58-2.18-.83-4.31-1.83-6.66-1.99-2.56-.62-.4-2.43,1.74-1.59,1.04,.41-1.69-3.16-.56-3.31,2.1-.28,3.31,4.59,6.1,5.09,1.13-.76-.16-2.27-.56-3.22-1.48-2.54-5.44-5.44-4.18-7.78,.62-1.15,2.15,1.75,3.04,2.49,.77-.77-.92-3.57,.27-3.55,2.17,.04,1.71,4.79,2.45,7.05,.74,2.15,1.81,4.17,2.81,6.19,.51,1.37,4.55,2.8,2.65,.32-2.1-2.44-3.99-4.86-5.01-8-.24-1.64-1.73-5.27,.1-5.52,1.66-.23,.62,4.83,2.14,6.84,.11-.5,.75-3.03,1.79-2.73,1.1,.33-.43,1.75,.02,3.45h0Z"/></g><g id="Layer_1"><path class="cls-2" d="M0,222.81c20.64-10.23,25.44-11.12,34.38-5.31,12,7.8,14.62,22.35,37.15,27.96,31.69,7.88,16.01,6.37,44.04-.77,26.36-6.71,15.52,10.98,44.43,4.92,28.91-6.05,33.27,13.01,72.97,11.64,15.85-.55,.93,2.06,31.39-6.88,18.26-5.36,25.32-22.22,39.83-13.98,27.64,15.7,47.08-1.52,60.57,3.54,14.5,5.44,38.55-15.76,45.96-20.43,12.97-8.2,14.77-14.41,32.43-11.99,8.55,1.17,24.64,18,36.86,11.3v47.19H0v-47.19"/><path class="cls-2" d="M118.15,215.1c-5.09,3.75-8.27,1.49-13.89,1.46-2.5-.01-5.77,1.95-8.63,4.14,1.73-3.68,2.8-7.15,3.14-10.76,3.66-4.45,8.49-10.32,12.42-16.48,6.82-10.69,5.23-26.87,5.23-26.87,0,0-1.4,5.03-4.3,11.92-2.4,5.71-7.07,11.64-14.18,19.1-.61-7.15-.31-16.65,6.16-29.14,0,0-12.49,8.03-12.66,22.95-.06,5.16,.07,9.36,.09,12.97-3.53,4.62-6.08,11.57-7.85,18.13,.44-2.29,.91-4.84,1.4-7.68,4.07-23.35-.77-28.85-2.64-41.41-1.88-12.56,4.14-24.93,4.14-24.93,0,0-7.37,7.39-9.73,18.7-2.36,11.31,2.51,23.13,4.38,35.87,1.36,9.28-3.36,24.23-6.02,31.67,.4-4.96,1.51-12.49,3.24-27.11,2.7-22.83-19.72-49.52-19.72-49.52,3.18,12.21,8.2,15.02,13.2,33.56,1.69,6.28,2.08,12.32,1.81,17.95-1.99-6.98-7.31-12.77-13.21-17.93-2.29-3.92-4.32-7.24-4.76-11.23-.74-6.71,2.46-11.3,2.46-11.3,0,0-6.73,1.27-5.64,11.68,.09,.87,.23,1.68,.39,2.44-4.91-8.55-6.43-19.94-6.43-19.94,0,0-4.16,10.17,.94,21.48,2.49,5.53,7.75,11.53,12.52,17.06,.28,1.8,.45,3.83,.45,6.2,0,6.85-.99,11.88-1.59,16.32-.35-.31-.7-.6-1.06-.87-8.27-6.12-13.31-11.1-14.85-15.65-1.55-4.55-3.26-7.91-3.26-7.91,0,0-.03,13.23,6.21,20.08,3.96,4.34,9.06,9.02,12.71,12.8,.3,2.27,.98,4.61,2.28,7.22,5.3,10.61,14.72,12.15,14.72,12.15v-.03c.32,.07,.61,.02,.85-.16,.2-.15,.34-.33,.46-.52,1.14,.76,2.94-.61,4.3-2.94,0,0,7.65-8.37,11.74-15.68,4.09-7.31,10.58-5.83,20.79-8.87,10.21-3.04,14.71-19.2,14.71-19.2,0,0-5.22,6.52-10.31,10.27h0Zm-51.02,21.39c-.77-1.59-1.63-3.21-2.56-4.78-.6-8.27,1.41-15.6,1.73-22.13,1.95,2.67,3.27,5.07,3.42,7.02,.38,5.09-1.46,14.66-2.58,19.89h0Z"/><path class="cls-2" d="M172.29,229.31c-.13-.56-.28-1.29-.35-1.92,.07-.63,.22-1.36,.35-1.92,.11-.49-.06-.58-.47-.29-.61,.44-1.63,1.03-3.1,1.37-.32,.08-.61,.1-.88,.08,.27-.11,.55-.31,.55-.65,.01-.57-7.96-5.97-14.79-2.84-.04,.02-.08,.03-.11,.05-.15,.07-.3,.15-.44,.23-.02,.01-.04,.02-.06,.03h0c-1.52,.86-2.47,2.23-3.04,3.61-.06,.14-.03,.27,.05,.29l.15,.03s-.06,.03-.15,.03c-.32,.01,.12,.45,.19,.59,.41,.75,1.34,2.08,2.96,3.01h0c6.49,4.16,12.36-.77,14.5-1.93,.84-.46,.39-.85-.01-1.06,.35-.06,.71-.06,1.08,.03,1.5,.35,2.53,1.02,3.13,1.51,.39,.32,.54,.24,.43-.25Z"/><path class="cls-2" d="M297.32,250.14c.01,.13-1.09,.64-1.13,1.13,0,1.93,12.54,2.09,12.54,0,0-2.89-7.39-5.63-11.41-1.13h0Zm-2.89,.96c0,1.45-8.68,1.45-8.68,0,0-1.93,4.98-3.86,7.88-.64,.12,.17,.79,.29,.8,.64h0Zm-5.95-5.95c-.83,.83-3.68,1.89-1.13,3.54,2.09-.96,4.66-.64,6.43,1.13h3.05c2.57-2.57,6.11-3.38,9.65-1.77,.96-.64,2.09-.96,3.22-.96-4.34-7.56-16.08-9-21.22-1.93h0Zm13.74-4.59c.64-1.45,1.37-2.32,2.33-3.45,6.43-7.23-2.09-6.75,.8-15.43,.64-2.09,1.45-4.5,.16-7.56,1.45,2.73,.96,4.82,.16,7.72-2.73,7.88,5.95,8.04-.64,15.75-.8,.96-1.76,1.9-2.24,3.18,.24,.08,.49,.18,.8,.32,.16-.64,.63-1.09,1.44-1.73,8.68-7.88-.64-10.45,2.25-19.13,.48-1.61,1.13-3.22,.16-4.98-1.13-1.77-2.25-2.89-1.61-5.14-1.45,1.61-1.77,3.05-.96,5.14,1.13,2.41,.48,3.86-.32,5.79-3.86,8.04,4.82,10.13-1.29,16.24-.8,.96-1.75,1.69-2.07,2.98,.16,.04,.91,.24,1.03,.31h0Zm-4.26-6.83c-1.29,1.93-2.46,3.81-.69,6.23,.48,0,1.01,0,1.32,.02-1.93-2.25-.95-3.52,.34-5.12,3.22-4.02,3.05-7.56-.64-11.09-1.93-2.09-3.54-3.54,.96-8.52,1.93-3.22-3.05-4.66-.48-9.48,.64-1.13,1.29-2.09-.64-3.7,.48,1.93-.64,2.73-1.61,3.54-4.34,3.22,.95,6.35-.79,8.33-4.44,5.56-2.59,8.71-.5,10.96,3.22,3.54,3.05,5.3,.8,9.32-1.13,1.93-2.25,3.86-.48,5.95,.37-.07,.65-.11,1.13-.16-1.77-2.57-.64-4.5,.8-6.59,5.79-9.81-7.72-8.2-.8-18,3.54-4.98-2.09-4.34,.16-8.2-1.77,3.86,3.7,3.05,.16,8.36-6.42,9.3,7.06,8.06,.96,18.16h0Zm-7.72-9.16c-2.6-4.68,2.35-4.87-1.45-9,.94,4.73-3.55,4.2-1.29,9.48,3.14,5.07-5.14,9.16,2.41,14.79,.8,.48,1.59,.9,1.75,1.71,.24-.13,.42-.22,.63-.3-.8-1.29-1.58-1.89-2.39-2.53-5.47-4.18,1.45-7.88-1.29-14.47-1.45-3.7,.64-3.22,.8-7.07,0,4.34-1.93,2.89-.48,6.91,2.89,7.23-3.86,10.13,1.29,14.15,.8,.64,1.78,1.48,2.58,2.77,.19-.1,.61-.25,.83-.33-.32-.96-1.12-1.76-1.93-2.4-6.16-4.62,1.48-5.87-1.49-13.7h0Zm-4.18,23.79c-1.29-1.93,1.05-2.59,2.01-3.61,.39-.46,.54-.72,1-1.07-2.57-.96-8.64,.66-8.64,3.39,0,1.61,5.63,1.24,5.63,1.29h0Zm21.06,0c.96,.64,2.41,1.77,2.25,3.05,.96,0,5.47,.16,5.47-1.13-1.79-1.61-3.79-3.82-7.72-1.93Z"/></g></svg>