<?xml version="1.0" encoding="UTF-8"?><svg id="Background" xmlns="http://www.w3.org/2000/svg" viewBox="0 0 1920 1080"><defs><style>.cls-1{fill:#87ceda;}.cls-2{fill:#fff;opacity:.1;}.cls-3{fill:#0a3147;}.cls-4{fill:#1a658b;}.cls-5{fill:#45b4ca;}.cls-6{fill:#59c1d7;}.cls-7{fill:#2481a2;}</style></defs><g id="Layer_6"><rect id="back" class="cls-1" x="0" width="1920" height="1080"/></g><g id="Layer_5"><path class="cls-6" d="M0,461.23c134.47,3.46,175.07,123.53,325.43,187.68s230.81-13.28,372.77-21.45,192.65,24.22,308.29,0,176.31-91.04,335.12-96.51c111.32-3.83,79.28,57.25,321.61,57.25,120.51,0,159.41-122.36,256.79-126.97v618.77H0V461.23"/><path class="cls-6" d="M715.75,538.67c1.58,4.99,10.19,16.54,16.16,22.07,2.58,1.84,4.71,4.84,8.07,5.22,.31-5.9-2.97-11.46-6-16.45-3.74-6.17-11.44-9.5-14.6-15.98-1.23-2.52-3.87-6.96-1.4-8.29,2.37-1.28,3.26,7.18,5.93,5.49,2.86-1.81-.69-12.65,2.89-11.21,4.15,1.67,3.15,13.89,6.82,20.07,2.07,4.65,9.77,13.12,10.99,3.04,1.58-6.39,3.8-12.89,6.45-18.74,.97-2.15,6.25-10.13,6.46-2.92-1.07,6.46-3.78,12.57-5.75,18.77-1.39,6.78-4.94,13.21-5.12,20.14-.18,7.02,1.88,13.99,4.11,20.65,1.65,4.93,2.66,10.9,6.8,14.05,1.73,1.31,4.63,2.41,6.41,1.16,6.13-4.29,3.2-14.67,3.8-22.14,.63-7.81-3.35-16.32-.24-23.5,3.8-8.77-.81-12.45,3.03-16.96,6.09-2.92,2.23,9.55,8.36,4.62,2.69-3.9,11-2.49,5.39,2.25-5.2,3.69-10.81,8.6-11.25,14.77-.17,2.38-.91,14.49,3.48,6.26,2.69-4.75,6.2-9.12,9.77-13.33,3.23-4.97,2.88-8.74,4.97-12.85,1.43-4.58-.72-18.06,7-14.27-.73,4.81-1.55,14.95,6.22,9.93,2.92-1.32,14.41-3.06,10.77,1.61-3.35,1.99-16.83,4.28-21.55,12.49-1.42,6.9,7.65-1.31,9.37-3.83,1.77-3.27,8.22-5.57,8.44-1.7,.15,2.52-11.93,6.94,1.95,7.32,6.56-.48,15.82,2.16,8.49,5.55-10.58,1.01-22.83-3.34-31.85,4.26-6.6,6.43-20.63,14.77-15.87,22.68,2.37,3.93,9.24-.48,13.67-1.69,6.07-1.66,10.96-6.39,17.33-7.54,7.63-1.31,12.96-7.83,15.86-14.64,4.14-6.32,6.87,.23,3.52,5.26-.59,3.25,8.78,1.47,13.81,1.58,3.26,.07,6.93,3.87,5.3,4.84-6.36,3.77-16.14-4.35-26.41,2.91,1.06,5.77,12.7,.54,17.53,4.1,1.49,1.1,4.47,4.02,2.79,4.79-3.31,1.52-15.98-5.76-7.72,5.11,3.2,6.55-4.81,1.01-6.09-.57-6.15-7.59-12.71-6.52-19.29-5.39-1.75,.3-11.94,2.36-4.36,3.06,6.81,.38,15.26-3.63,20.86,1.52,2.59,2.81,9.47,10.09,5.72,12.95-3.52,2.69-7.28-9.73-10.31-8.37-3.29,.24,3.01,10.73-1.76,10.5-1.99,.96-4.73-8.67-8.92-10.66-5.93-2.82-13.18-3.44-19.7-.24-7.15,1.83-11.72,8.39-16.04,14.04-3.66,4.78-6.58,10.36-7.92,16.22-1.38,6.02-1.95,12.74,.08,18.53-4.5,3.12-15.43,1.03-15.98,.05,3.52-6.06,6.65-12.37,7.34-19.18,.63-6.15,.74-13.38-3-18.31-3.02-3.98-8.6-6.03-13.58-6.34-6.74-.41-13.15,3.39-19.25,6.27-5.19,2.45-10.11,5.58-14.52,9.25-3.32,2.76-3.41,6.86-8.83,9.48-9.43,1.5,4.56-11.63-4.02-6.19-7.49,2.06-3.44-7.53,2.19-6.47,5.02-1.45,13.92-1.37,14.18-6.58,.22-4.44-7.03-6.48-11.46-6.8-8.27-.59-16.07-7.07-9.6-6.72,3.21,.24,3.99,.99,3.01-2.46-.85-6.07,5.98,1.6,9.48,4.31,6.08,4.71,15.15,5.06,22.87,3.02,8.9-2.48-7.16-6.57-10.23-6.18-6.94-.99-22.8-4.68-20.5-7.91,1.97-4.47,9.13,2.75,14.72,2.45,.96-.05,2.89-1.04,2.28-1.78-4.6-5.53-14.21-7.39-11.56-11.97,2.25-1.96,9.15,3.55,12.18,5.34,3.73,1.96,7.12,4.7,10.51,7.13,3.65,2.96,8.44,4.61,12.59,6.93,3.69,3.06,16.68,2.99,10.99-4.09-4.43-5.63-11.42-10.46-18.67-10.99-9.43,.31-16.37-6.84-24.94-9.47-6.59-2.16-13.04-4.83-20.06-4.97-7.69-1.47-1.53-7.16,4.94-4.97,3.15,1.06-5.46-9.13-2.13-9.73,6.21-1.13,10.47,13.15,18.82,14.27,3.24-2.42-.8-6.72-2.11-9.47-4.75-7.33-16.92-15.39-13.48-22.5,1.69-3.5,6.63,4.89,9.36,6.97,2.17-2.4-3.22-10.47,.31-10.57,6.45-.19,5.73,13.98,8.26,20.58,2.5,6.28,5.95,12.11,9.21,17.99,1.72,3.99,13.9,7.67,7.9,.57-6.57-6.95-12.53-13.86-15.98-23.05-.95-4.82-5.86-15.39-.48-16.4,4.89-.92,2.51,14.24,7.3,19.99,.26-1.51,1.8-9.11,4.94-8.34,3.32,.82-1.04,5.26,.54,10.25h0Z"/><path class="cls-6" d="M1579.58,365.01c0-1.7,6.61-7.59,4.64-8.13-6.11-1.66-12.5,5.36-16.07,5.36-1.48,0-3.97-.26-7.11-.67,2.78-2.65-5.39-2.63-14.7-2.23l.22,.06c-2.16-.34-4.38-.69-6.62-1.03,1.4-.83,2.75-1.88,2.44-2.74-.61-1.69-2.45-7.51-3.98-10.88-1.46-3.21-10.82,5.65-15.68,11.14-8.28-1.03-15-1.51-17.26-.62-6.79,2.68-20.92,9.29-20.92,9.29,0,3.04,15.92,13.58,26.82,13.58,5.92,0,14.27,0,21.69-.35,1.91,2.02,6.07,5.78,11.27,6.67-2.05-4.75-4.1-6.84-4.1-6.84,0,0-.17-.11-.45-.28,3.38-.31,6.21-.75,8.03-1.35,.11-.04,.23-.08,.34-.12,4.08,2.62,11.83,6.69,12.18,4.35,.37-2.44,.48-6.49,.57-7.68,.05-.66-1.23-1.12-2.37-1.39,3.11-1.39,6.27-2.48,9.46-2.48,1.44,0,12.28,6.27,16.25,4.29,2.15-1.07-4.64-4.82-4.64-7.95Z"/><path class="cls-6" d="M1738.54,563.47c-.79-1.22-1.66-2.36-2.45-3.41-.61-.88-1.4-1.57-1.84-2.54-.26-.52-.61-1.05-.96-1.49-.52-.7-1.14-1.31-1.92-1.57-1.31-.52-2.27-1.49-3.32-2.36-.88-.79-1.57-1.57-2.19-2.54-.35-.61-.61-1.31-.88-1.92-.52-1.05-.61-2.19-.96-3.32-.52-1.92-1.31-3.67-2.27-5.42-.7-1.31-1.22-2.71-1.49-4.29-.26-1.4-.09-2.71-.18-4.03,0-.52,.44-.52,.7-.7s.35,.18,.44,.35c.44,.61,1.05,1.14,1.49,1.66,.96,1.05,1.84,2.1,2.27,3.5,.44,1.4,.88,2.8,1.22,4.2,.26,1.14,.79,2.19,1.4,3.15,.26,.35,.52,.7,.79,.96,.26,.35,.35,.88,.52,1.22,.35,1.05,.96,1.84,1.75,2.71,.09-.96,.35-1.75,.88-2.54,.52-.88,1.31-1.4,2.01-2.1,.79-.79,1.66-1.49,2.45-2.19,.09-.09,.18-.18,.26-.18,.26-.18,.52-.35,.52-.7-.09-.52-.18-.96-.79-1.22-1.05-.44-2.1-.96-3.06-1.66-1.14-.88-2.1-1.84-2.97-2.97-.96-1.31-1.4-2.71-1.57-4.29-.09-1.05,.09-2.19-.09-3.24-.09-.79-.26-1.57-.79-2.27-.18-.18-.26-.44-.35-.7-.44-.88-1.31-1.31-2.01-1.84-.61-.44-.61-1.4,.09-1.75,.61-.35,1.22-.18,1.75,.35,.7,.7,1.4,1.49,2.27,2.01,.52,.35,.88,.88,1.22,1.4,.52,.79,.96,1.75,1.4,2.63,.35,.88,.52,1.66,.7,2.63,.18,1.14,.52,2.27,1.05,3.32,.26,.52,.7,.7,1.22,.88,1.4,.52,2.71,1.22,3.59,2.54,.44,.7,.7,1.4,.96,2.19q.26,.61,.7,.26c.61-.44,1.14-.96,1.75-1.4,.7-.44,.96-1.31,1.14-2.1,.26-.96,.26-1.92,.09-2.97,0-.18-.09-.35-.18-.61-.44-1.22-1.31-1.92-2.45-2.54-1.57-.88-3.15-1.84-4.37-3.15-1.14-1.22-2.01-2.54-2.36-4.11-.18-.61-.18-1.22-.18-1.84,0-.26-.09-.44-.35-.61-1.92-.88-3.41-2.27-4.9-3.85-.7-.7-.88-1.66-1.14-2.63-.26-1.05-.7-2.1-1.4-2.97-.61-.7-1.49-1.14-2.19-1.66-.79-.61-1.66-1.05-2.27-1.84-.61-.7-.44-1.22,0-1.75,.61-.79,1.66-.96,2.63-.44,.79,.44,1.57,.96,2.45,1.22,.52,.18,1.05,.26,1.57,.52,.44,.26,.7,.52,.96,.96,.44,.79,.96,1.57,1.31,2.36,.35,.79,.52,1.66,.88,2.45,.35,.7,.52,1.49,.61,2.27,.09,.79,.7,1.31,1.22,1.75,.26,.26,.52,.44,.79,.61,.26,.26,.35,.18,.44-.18,.09-.7,.35-1.31,.61-1.84,.35-.7,.7-1.49,.96-2.27,.44-1.31,1.05-2.54,1.31-3.85,.09-.7,.26-1.4,.26-2.1,0-.79,1.05-1.84,1.92-1.84s1.84,0,2.71,.26c.52,.18,1.05,0,1.57-.09,.7-.18,1.4-.44,2.1-.7,.09,0,.18-.09,.26-.18,.61-.52,1.31-.96,1.92-1.4,.18-.18,.44-.18,.7-.26,.96-.18,1.57-.79,2.1-1.49,.18-.18,.96-.09,1.05,.09,.35,.52,.18,1.22-.26,1.66-.79,.79-1.57,1.57-2.01,2.71-.26,.7-.26,1.4-.35,2.1-.18,1.05-.79,1.84-1.49,2.63-1.31,1.31-2.97,1.66-4.72,1.84-1.05,.09-2.19,.09-3.24,.35-.52,.09-.88,.44-1.22,.7-.52,.35-.79,.88-.96,1.57-.35,1.49-.96,2.89-1.31,4.46-.44,1.49-.35,2.63,.52,3.77,1.05,1.22,2.1,2.36,3.67,2.89,.79,.26,1.49,.61,2.1,1.14,.26,.18,.44,.52,.7,.35,.18-.09,.09-.52,.09-.88,.09-1.66,1.66-3.94,3.76-3.76,1.49,.09,2.89-.18,4.29-.52,.7-.18,1.22-.7,1.57-1.22,.26-.44,.61-.79,.88-1.31,.09-.18,.26-.26,.44-.26,.35-.18,.52-.44,.61-.79,.18-.88,.44-1.14,1.31-1.14,.61,0,.7,.09,.52,.7-.18,.7-.26,1.49-.26,2.19,0,1.4-.09,2.8-.79,4.03-.44,.79-1.14,1.22-1.84,1.75-1.49,.96-3.24,1.4-4.99,1.75-1.66,.35-2.63,1.57-3.15,3.15-.09,.18,0,.35,.09,.52,.44,.96,.52,1.92,.44,2.97-.09,.88-.26,1.66-.52,2.45-.09,.35-.26,.61-.44,.88-.96,1.66-2.19,2.97-3.94,3.76-.7,.35-1.22,1.05-1.84,1.49-1.14,.88-2.27,1.84-3.41,2.8-.79,.61-1.49,1.31-1.92,2.27-.26,.79-.44,1.57-.7,2.36-.35,1.31,0,2.36,.61,3.41,.96,1.66,2.1,3.24,3.32,4.64,.09,.09,.18,.26,.26,.44,.09,.61,.52,.96,.96,1.31,.26,.26,.52,.61,.7,.96,.09,.26,.35,.35,.52,.52,.18-1.22-.44-2.27-.26-3.5,.18-1.14,.18-2.27,.52-3.32,.44-1.4,1.31-2.36,2.45-3.24,.96-.79,2.1-1.4,2.97-2.36,.09-.09,.26-.26,.26-.44,.44-1.05,.79-2.19,1.14-3.24,.44-1.31,.61-2.71,1.05-4.03,.09-.26,.26-.52,.35-.79,.09-.09,.18-.26,.09-.35-.18-.35,.09-.52,.35-.52s.61,.09,.7,.35c.44,.96,.79,2.01,.96,3.06,.26,1.57,.52,3.15,0,4.72-.44,1.31-.7,2.71-1.31,3.94-.35,.7-.79,1.4-1.4,2.01-.61,.7-1.14,1.57-1.57,2.45-.52,1.22-1.14,2.36-1.66,3.59-.26,.7-.52,1.4-.61,2.1-.09,.44-.18,.88-.35,1.31-.35,.88-.26,1.84-.35,2.8-.09,.61,.35,1.31,.88,1.75,.09,.09,.18,.09,.18,.18,.26,1.05,.96,1.92,1.49,2.8,.88,1.49,1.49,3.15,2.36,4.64,.26,.52,.61,1.05,.61,1.75,0,.61,.26,1.22,.61,1.75,.18,.26,.35,.61,.09,.96-.09,.09-.09,.35-.09,.52,.09,.35-.35,.7-.7,.52-.35-.09-.7-.35-1.05-.26-.26,0-.26-.18-.26-.35,0-.7-.18-1.22-.7-1.66-.18-.09-.26-.35-.35-.61-.52-1.31-1.22-2.45-1.92-3.67-.26-.52-.7-1.05-.79-1.66,0-.09-.09-.26-.09-.26-.88-.7-1.22-1.66-1.66-2.63-.09-.18-.26-.35-.44-.52-.18-.18-.44-.26-.26-.61,0-.09-.7-.79-.7-.79-1.14,.18-2.19-.18-3.24-.35-.96-.09-1.75,.44-2.54,.88-.79,.44-1.49,.96-2.19,1.4-1.05,.61-2.19,.7-3.24,.26-.79-.35-1.31-1.05-1.75-1.75-.96-1.57-2.27-2.8-3.67-4.03-.79-.61-1.57-1.31-2.45-1.84-.35-.18-.35-.44-.09-.7,.52-.52,.79-1.14,1.22-1.66,1.22-1.4,3.15-1.31,4.37,0,.44,.52,.88,1.14,1.22,1.84,.26,.61,.79,1.14,1.31,1.66,.44,.44,1.05,.44,1.66,.35,.52-.09,1.05-.26,1.49-.44,1.57-.61,3.15-.35,4.64,.35,.52,.09,.96,.44,1.57,.44h0Z"/><path class="cls-6" d="M1701.62,590.85c.79-1.22,1.66-2.36,2.45-3.41,.61-.88,1.4-1.57,1.84-2.54,.26-.52,.61-1.05,.96-1.49,.52-.7,1.14-1.31,1.92-1.57,1.31-.52,2.27-1.49,3.32-2.36,.88-.79,1.57-1.57,2.19-2.54,.35-.61,.61-1.31,.88-1.92,.52-1.05,.61-2.19,.96-3.32,.52-1.92,1.31-3.67,2.27-5.42,.7-1.31,1.22-2.71,1.49-4.29,.26-1.4,.09-2.71,.18-4.03,0-.52-.44-.52-.7-.7s-.35,.18-.44,.35c-.44,.61-1.05,1.14-1.49,1.66-.96,1.05-1.84,2.1-2.27,3.5-.44,1.4-.88,2.8-1.22,4.2-.26,1.14-.79,2.19-1.4,3.15-.26,.35-.52,.7-.79,.96-.26,.35-.35,.88-.52,1.22-.35,1.05-.96,1.84-1.75,2.71-.09-.96-.35-1.75-.88-2.54-.52-.88-1.31-1.4-2.01-2.1-.79-.79-1.66-1.49-2.45-2.19-.09-.09-.18-.18-.26-.18-.26-.18-.52-.35-.52-.7,.09-.52,.18-.96,.79-1.22,1.05-.44,2.1-.96,3.06-1.66,1.14-.88,2.1-1.84,2.97-2.97,.96-1.31,1.4-2.71,1.57-4.29,.09-1.05-.09-2.19,.09-3.24,.09-.79,.26-1.57,.79-2.27,.18-.18,.26-.44,.35-.7,.44-.88,1.31-1.31,2.01-1.84,.61-.44,.61-1.4-.09-1.75-.61-.35-1.22-.18-1.75,.35-.7,.7-1.4,1.49-2.27,2.01-.52,.35-.88,.88-1.22,1.4-.52,.79-.96,1.75-1.4,2.63-.35,.88-.52,1.66-.7,2.63-.18,1.14-.52,2.27-1.05,3.32-.26,.52-.7,.7-1.22,.88-1.4,.52-2.71,1.22-3.59,2.54-.44,.7-.7,1.4-.96,2.19q-.26,.61-.7,.26c-.61-.44-1.14-.96-1.75-1.4-.7-.44-.96-1.31-1.14-2.1-.26-.96-.26-1.92-.09-2.97,0-.18,.09-.35,.18-.61,.44-1.22,1.31-1.92,2.45-2.54,1.57-.88,3.15-1.84,4.37-3.15,1.14-1.22,2.01-2.54,2.36-4.11,.18-.61,.18-1.22,.18-1.84,0-.26,.09-.44,.35-.61,1.92-.88,3.41-2.27,4.9-3.85,.7-.7,.88-1.66,1.14-2.63,.26-1.05,.7-2.1,1.4-2.97,.61-.7,1.49-1.14,2.19-1.66,.79-.61,1.66-1.05,2.27-1.84,.61-.7,.44-1.22,0-1.75-.61-.79-1.66-.96-2.63-.44-.79,.44-1.57,.96-2.45,1.22-.52,.18-1.05,.26-1.57,.52-.44,.26-.7,.52-.96,.96-.44,.79-.96,1.57-1.31,2.36-.35,.79-.52,1.66-.88,2.45-.35,.7-.52,1.49-.61,2.27-.09,.79-.7,1.31-1.22,1.75-.26,.26-.52,.44-.79,.61-.26,.26-.35,.18-.44-.18-.09-.7-.35-1.31-.61-1.84-.35-.7-.7-1.49-.96-2.27-.44-1.31-1.05-2.54-1.31-3.85-.09-.7-.26-1.4-.26-2.1,0-.79-1.05-1.84-1.92-1.84s-1.84,0-2.71,.26c-.52,.18-1.05,0-1.57-.09-.7-.18-1.4-.44-2.1-.7-.09,0-.18-.09-.26-.18-.61-.52-1.31-.96-1.92-1.4-.18-.18-.44-.18-.7-.26-.96-.18-1.57-.79-2.1-1.49-.18-.18-.96-.09-1.05,.09-.35,.52-.18,1.22,.26,1.66,.79,.79,1.57,1.57,2.01,2.71,.26,.7,.26,1.4,.35,2.1,.18,1.05,.79,1.84,1.49,2.63,1.31,1.31,2.97,1.66,4.72,1.84,1.05,.09,2.19,.09,3.24,.35,.52,.09,.88,.44,1.22,.7,.52,.35,.79,.88,.96,1.57,.35,1.49,.96,2.89,1.31,4.46,.44,1.49,.35,2.63-.52,3.77-1.05,1.22-2.1,2.36-3.67,2.89-.79,.26-1.49,.61-2.1,1.14-.26,.18-.44,.52-.7,.35-.18-.09-.09-.52-.09-.88-.09-1.66-1.66-3.94-3.76-3.76-1.49,.09-2.89-.18-4.29-.52-.7-.18-1.22-.7-1.57-1.22-.26-.44-.61-.79-.88-1.31-.09-.18-.26-.26-.44-.26-.35-.18-.52-.44-.61-.79-.18-.88-.44-1.14-1.31-1.14-.61,0-.7,.09-.52,.7,.18,.7,.26,1.49,.26,2.19,0,1.4,.09,2.8,.79,4.03,.44,.79,1.14,1.22,1.84,1.75,1.49,.96,3.24,1.4,4.99,1.75,1.66,.35,2.63,1.57,3.15,3.15,.09,.18,0,.35-.09,.52-.44,.96-.52,1.92-.44,2.97,.09,.88,.26,1.66,.52,2.45,.09,.35,.26,.61,.44,.88,.96,1.66,2.19,2.97,3.94,3.76,.7,.35,1.22,1.05,1.84,1.49,1.14,.88,2.27,1.84,3.41,2.8,.79,.61,1.49,1.31,1.92,2.27,.26,.79,.44,1.57,.7,2.36,.35,1.31,0,2.36-.61,3.41-.96,1.66-2.1,3.24-3.32,4.64-.09,.09-.18,.26-.26,.44-.09,.61-.52,.96-.96,1.31-.26,.26-.52,.61-.7,.96-.09,.26-.35,.35-.52,.52-.18-1.22,.44-2.27,.26-3.5-.18-1.14-.18-2.27-.52-3.32-.44-1.4-1.31-2.36-2.45-3.24-.96-.79-2.1-1.4-2.97-2.36-.09-.09-.26-.26-.26-.44-.44-1.05-.79-2.19-1.14-3.24-.44-1.31-.61-2.71-1.05-4.03-.09-.26-.26-.52-.35-.79-.09-.09-.18-.26-.09-.35,.18-.35-.09-.52-.35-.52s-.61,.09-.7,.35c-.44,.96-.79,2.01-.96,3.06-.26,1.57-.52,3.15,0,4.72,.44,1.31,.7,2.71,1.31,3.94,.35,.7,.79,1.4,1.4,2.01,.61,.7,1.14,1.57,1.57,2.45,.52,1.22,1.14,2.36,1.66,3.59,.26,.7,.52,1.4,.61,2.1,.09,.44,.18,.88,.35,1.31,.35,.88,.26,1.84,.35,2.8,.09,.61-.35,1.31-.88,1.75-.09,.09-.18,.09-.18,.18-.26,1.05-.96,1.92-1.49,2.8-.88,1.49-1.49,3.15-2.36,4.64-.26,.52-.61,1.05-.61,1.75,0,.61-.26,1.22-.61,1.75-.18,.26-.35,.61-.09,.96,.09,.09,.09,.35,.09,.52-.09,.35,.35,.7,.7,.52,.35-.09,.7-.35,1.05-.26,.26,0,.26-.18,.26-.35,0-.7,.18-1.22,.7-1.66,.18-.09,.26-.35,.35-.61,.52-1.31,1.22-2.45,1.92-3.67,.26-.52,.7-1.05,.79-1.66,0-.09,.09-.26,.09-.26,.88-.7,1.22-1.66,1.66-2.63,.09-.18,.26-.35,.44-.52,.18-.18,.44-.26,.26-.61,0-.09,.7-.79,.7-.79,1.14,.18,2.19-.18,3.24-.35,.96-.09,1.75,.44,2.54,.88,.79,.44,1.49,.96,2.19,1.4,1.05,.61,2.19,.7,3.24,.26,.79-.35,1.31-1.05,1.75-1.75,.96-1.57,2.27-2.8,3.67-4.03,.79-.61,1.57-1.31,2.45-1.84,.35-.18,.35-.44,.09-.7-.52-.52-.79-1.14-1.22-1.66-1.22-1.4-3.15-1.31-4.37,0-.44,.52-.88,1.14-1.22,1.84-.26,.61-.79,1.14-1.31,1.66-.44,.44-1.05,.44-1.66,.35-.52-.09-1.05-.26-1.49-.44-1.57-.61-3.15-.35-4.64,.35-.52,.09-.96,.44-1.57,.44h0Z"/><path class="cls-6" d="M1142.25,585.72s-2.23-2.12-3.23-6.11c-.77-3.08,.15-7.02,.71-8.23,.73-1.59,1.86-3.39,6.17-3.65,4.31-.27,8.75,1.62,9.36,1.86,1.99,.77,4,1.59,7.35,.82,3.27-.75,3.66-1.72,3.41-2.28-.13-.28-.56-.42-.94-.47-.26-.04-.38-.3-.27-.54,.49-1.12-.43-1.74-.86-1.33-.71,.67-1.53,1.48-2.32,1.12-.86-.4-.94-1.9-.07-2.21,1.96-.68,2.52-2.03,1.48-2.54-.78-.38-1.01,.28-1.53,.07-.45-.17-.18-.51-.47-.93-.26-.39-1.34-.61-1.61,.38-.28,1.06-.03,2.61-.76,3.34-.73,.73-2.57,.66-2.94-.83-.27-1.1,.86-2.49,2.26-3.02,1.39-.53,3.54-.93,3.62-1.96,.07-.86-.88-1.02-.65-1.45,.19-.36-.36-1.02-.66-.86-.46,.12-.72-.03-.47-.6,.2-.47-.81-.98-1.06-.53-.04,.08-.21,.3-.27,.38-.24,.31-.53,.05-.54-.33-.01-.45,.06-.93-.03-1.22-.14-.43-1.36-.62-1.5,.71-.07,.68-.17,1.11-.3,1.44-.11,.28-.65,.7-.95,.07-.36-.75-.03-1.53-.5-1.79-.84-.48-1.43-.18-1.73,.68-.1,.29-.6,.42-.78,.2-.75-.94-1.85-.93-2.2-.39-.8,1.23,1.03,3.58-1.89,3.02-1.21-.23,.87-2.45,.1-2.95-.53-.35-.72,.64-1.13,.18-.45-.51-.53-1.15-1.15-.84-.83,.41,.18,1.64-.75,1.86-.59,.14-1.18-1.19-1.98-.6-.74,.55,1.03,1.86-.61,1.91-.61,.02-.83,1.13,.43,1.13,2.09,0,3,2.31,1.51,4.43-1.49,2.11-2.36,1.13-5.19,4.41-2.43,2.82-2.28,7.51-3.76,7.48-.97-.02-1.55-4.78-1.55-6.5,0-2.34-.62-8.69,5.75-13.94,4.03-3.32,9.29-2.99,12.35-2.79,6.59,.44,9.54-.04,11.62-1.77,1.57-1.31,1.5-2.43,.3-2.55-.33-.03-.46-.46-.15-.76,.49-.49,.42-1.42-.29-1.5-.99-.12-3.72,2.54-4.69-.29-.98-2.85,4.04-3.91,5.53-4.67,1.26-.64,.58-2.5-.27-2.39-.79,.1-2.51,.61-1.75-1.42,.6-1.59-2.06-2.41-2.5-1.31-.44,1.1-1.64,4.93-3.03,4.6-1.36-.33-1.79-2.4-.4-4.38,1.75-2.49,.32-2.56-.36-2.24-.13,.06-.33,.04-.33-.15,0-.58-.15-.88-.82-.79-.84,.11-.38,1.86-1.34,1.59-.69-.19-.24-1.93-.24-2.62,0-.83-.86-1.25-1.39-.72-.38,.38-.13,1.26-.51,1.29-.35,.07-.58-.83-.85-1.08-.47-.43-1.68,.13-1.26,1.46,.49,1.55,4.65,5.44,2.09,6.9-1.86,1.06-3.82-4.15-4.86-4.28-.75-.1-1.17,.5-1.1,1.35,.03,.4-.13,.63-.44,.45-1.05-.57-2.23-.07-1.84,1.25,.31,1.06,4.3,2.36,4.23,5.56-.1,4.89-3.27,5.31-7.61,8.32-.93,.65-4.17,3.78-5.31,3.54-2.92-.62,6.77-16.58,8.14-27.79,.44-3.63,.33-5.92,.32-6.66-.02-1.24-1.86-1.35-2.17-.04-.2,.66-.71,.4-.76,.02-.1-.7-.5-1.09-1.12-.93-.72,.18-1.13,.58-.82,1.95,.24,1.05,.32,1.99-.42,2.06-1.22,.11-1.54-2.23-1.68-3.83-.11-1.24-.46-1.75-1.37-1.53-.91,.22-.06,1.59-1.13,1.7-.59,.03-.71-1.34-1.7-1.19-.77,.11-1.99,1.39-.93,2.32,1.06,.93,7.56,5.21,5.26,7.59-1.96,1.75-4.75-1.88-5.37-2.64-.75-.94-4.37-5.82-5.6-5.22-1.31,.64,.43,1.76-.13,2.65-.62,.98-2.29-.4-2.52,1.13-.12,.8,1.73,.93,1.29,1.79-.4,.5-1.08,.53-1.59,.6-.76,.1-1.16,1.59,.07,2.09,1.07,.44,5.03-1.41,6.7,1.16,.93,1.43,.63,2.85-.63,2.65-1.26-.2-5.81-2.01-6.53-1.22-.8,.88,.74,1.19,.42,1.93-.13,.31-.38,.4-.95,.49-.62,.09-.71,.94,.13,1.39,2.34,1.28,9.42-.63,12.73,1.19,4.08,2.26-.78,10.67-3.45,17.7-1.68,4.43-7.88,5.22-10,.62-2.7-5.85-2.28-8.51-.74-11.83,2.31-5,1.68-5.63,1.15-5.96-.91-.57-1.38-.34-2.05,.22-1.33,1.12-1.83,.3-2.3-.5-.56-.95-1.33-.88-1.76-.82-.89,.14-1.86,.66-1,2.99,.86,2.32,4.49,13.31,1.78,13.64-7.21,.88-6.72-14.96-7.52-16.06-.4-1.11-2.26-.49-2.21,.35,0,.88,.66,2.54-.8,3.41-1.46,.86-2.83-1.3-4.34-3.14-1.19-1.46-2.62,.25-1.78,1.41,.68,.94,.32,1.39-.27,1.29-1.06-.17-2.95-.07-2.78,1.86,.13,1.4,10.74,6.45,7.99,9.63-2.02,1.46-7.36-2.6-8.3-5.07-.49-1.28-1.24-1.73-2.08-.97-1.62,1.45,.35,1.97-.18,2.81-.36,.57-1.28,.29-1.79,.38-.93,.16-1.46,1.36-.8,2.32,.53,.77,2.52-.18,3.98,.49s3.78,2.04,2.72,3.5c-1.79,1.92-3.58,.07-5.97-1.46s-3.09-2.07-3.52-1.13c-.31,.69,.82,.82,.33,1.46-.38,.42-.82,.11-1.08,.13-.69,.07-.86,.8-.38,1.26,.28,.26,.75,.3,1.04,.44,.49,.24,.6,.97,0,1.55-.72,.69-2.19,.27-2.37,1.02-.1,.6-.08,1.05,.84,1.25,.27,.06,.49,.34,.2,.61-.62,.6-.6,1.39,.38,1.68,1.46,.43,5.3-2.03,6.55-2.01,3.72,.04,5.28,4.26,1.65,6.09-1.83,.92-4.12-.25-5.13,.43-.99,.67-.56,1.26,.11,1.83,.37,.37,.21,.59-.33,1.27-.53,.65-.1,1.73,.89,1.44,.96-.28,1.15-.73,1.81,0,.66,.73,.45,.93,.27,1.86-.19,.98,.02,1.23,.81,1.34,.33,.05,.51-.71,.75-.68,.37,.05,.11,.89,.7,1,.85,.15,1.12-1.76,1.48-3.19,.3-1.22,1.39-3.19,1.99-3.89,1.55-1.82,3.99-1.56,4.34,.63,.28,1.75-.84,3.98-.04,4.39,1.62,.82,1.51-1.84,2.52-1.46,.82,.31,.43,1.43,1.22,1.66,.75,.22,1.62-.33,1.62-1.99s0-5.1,1.75-6.97c1.92-2.06,6.7-4.05,12.15-.6,5.44,3.45,5.38,2.79,8.63,8.43,1.27,2.2,3.23,7.69,4.45,9.49,1.92,2.85,5.38,5.11,5.71,5.11,.33,0,1.26-.93,1.26-.93h0Z"/><path class="cls-6" d="M347.74,620.61c-5.66,2.52-8.23-.3-13.6-1.5-2.39-.53-5.93,.67-9.13,2.16,2.42-3.16,4.17-6.26,5.25-9.65,4.43-3.5,10.29-8.11,15.34-13.19,8.76-8.82,10.62-24.64,10.62-24.64,0,0-2.39,4.52-6.61,10.52-3.49,4.97-9.2,9.67-17.57,15.33,.91-6.97,3.18-16.01,11.98-26.62,0,0-13.64,5.08-16.92,19.34-1.13,4.93-1.88,8.98-2.62,12.44-4.34,3.69-8.23,9.81-11.3,15.72,.9-2.1,1.88-4.45,2.95-7.06,8.77-21.51,5.29-27.79,6.11-40.2,.82-12.42,9.17-23.01,9.17-23.01,0,0-8.6,5.54-13.22,15.87-4.62,10.34-2.42,22.67-3.29,35.26-.63,9.17-8.27,22.5-12.38,29.07,1.41-4.66,4.05-11.65,8.76-25.29,7.35-21.3-8.54-51.54-8.54-51.54,.5,12.36,4.72,16.1,5.63,34.89,.31,6.37-.58,12.24-2.01,17.56-.45-7.1-4.34-13.75-8.91-19.93-1.38-4.23-2.63-7.84-2.22-11.75,.69-6.58,4.71-10.31,4.71-10.31,0,0-6.71-.19-7.84,10.01-.09,.85-.13,1.66-.14,2.42-2.92-9.21-1.99-20.44-1.99-20.44,0,0-6.11,8.87-3.59,20.76,1.23,5.82,5.01,12.66,8.43,18.95-.1,1.78-.37,3.77-.86,6.03-1.43,6.56-3.43,11.17-4.93,15.3-.27-.37-.54-.73-.83-1.05-6.64-7.59-10.42-13.41-10.95-18.09-.53-4.68-1.47-8.26-1.47-8.26,0,0-2.79,12.67,1.76,20.53,2.88,4.98,6.8,10.53,9.5,14.92-.19,2.24-.02,4.62,.68,7.39,2.86,11.27,11.56,14.71,11.56,14.71v-.03c.29,.13,.59,.15,.85,.03,.22-.1,.4-.25,.55-.41,.94,.96,2.95,.03,4.74-1.92,0,0,9.07-6.42,14.51-12.56,5.44-6.14,11.35-3.38,21.76-4.16,10.42-.78,18.1-15.31,18.1-15.31,0,0-6.36,5.15-12.02,7.68h0Zm-53.32,9.83c-.41-1.68-.89-3.42-1.46-5.11,1.15-8.05,4.61-14.64,6.27-20.83,1.31,2.97,2.07,5.53,1.81,7.43-.7,4.95-4.46,13.73-6.62,18.5h0Z"/><path class="cls-6" d="M386.83,657.62c-6.19-.12-7.32-3.77-11.67-7.14-1.93-1.5-5.65-1.92-9.18-1.93,3.54-1.83,6.44-3.89,8.86-6.5,5.5-1.28,12.76-2.96,19.49-5.41,11.68-4.25,20.09-17.78,20.09-17.78,0,0-4.09,3.07-10.46,6.71-5.27,3.01-12.44,4.84-22.42,6.4,3.79-5.92,9.68-13.13,22.17-18.99,0,0-14.51-1.21-23.54,10.3-3.13,3.98-5.52,7.32-7.67,10.15-5.5,1.49-11.63,5.37-16.92,9.42,1.71-1.52,3.59-3.22,5.67-5.14,17.09-15.73,16.61-22.89,22.64-33.78,6.03-10.89,18.09-16.92,18.09-16.92,0,0-10.14,1.35-18.72,8.74-8.58,7.39-11.84,19.49-17.98,30.51-4.47,8.03-17.06,16.84-23.57,21.04,3.26-3.62,8.62-8.82,18.69-19.16,15.72-16.15,14.2-50.28,14.2-50.28-4.81,11.39-2.58,16.58-9.75,33.97-2.43,5.89-5.74,10.82-9.3,15.04,2.61-6.62,1.93-14.29,.42-21.83,.55-4.41,.95-8.21,2.99-11.58,3.43-5.66,8.65-7.33,8.65-7.33,0,0-5.99-3.03-11.35,5.73-.45,.73-.83,1.44-1.15,2.13,1.28-9.58,6.89-19.34,6.89-19.34,0,0-9.3,5.43-12.08,17.26-1.36,5.79-.85,13.59-.44,20.74-.85,1.57-1.94,3.25-3.35,5.09-4.09,5.33-7.86,8.65-10.97,11.75-.09-.45-.18-.89-.31-1.31-2.78-9.69-3.73-16.57-2.22-21.03,1.51-4.46,2.18-8.1,2.18-8.1,0,0-7.91,10.28-7.15,19.32,.49,5.74,1.67,12.42,2.25,17.54-1.12,1.95-1.99,4.18-2.53,6.98-2.2,11.41,4.2,18.23,4.2,18.23v-.03c.22,.25,.48,.39,.77,.39,.25,0,.47-.05,.67-.13,.44,1.27,2.65,1.28,5.1,.28,0,0,10.94-1.95,18.48-5.19,7.54-3.24,11.71,1.77,21.46,5.5,9.76,3.73,22.89-6.16,22.89-6.16,0,0-7.95,1.96-14.15,1.83h0Zm-52.44-13.8c.35-1.7,.65-3.47,.86-5.24,4.46-6.79,10.4-11.29,14.54-16.18-.08,3.24-.48,5.89-1.53,7.5-2.74,4.18-9.88,10.53-13.87,13.93h0Z"/></g><g id="Layer_4"><path class="cls-5" d="M0,784.68c144.38-109.28,318.29,28.26,459.68,43.34,187.96,20.04,263.82-3.23,379.45-27.45,127.15-49.02,208.85-127.81,367.66-133.28,158.81-5.47,404.43,271.91,713.21,117.38v295.32H0v-295.32"/><path class="cls-5" d="M1256.97,551.18c-.84,6.99,3.25,25.95,7.48,36.06,2.14,3.7,3.07,8.56,6.97,10.9,3.68-7.05,2.76-15.7,1.84-23.5-1.14-9.65-8.71-18.02-8.97-27.73-.1-3.77-.86-10.68,2.91-10.94,3.62-.25-.02,10.61,4.2,10.04,4.52-.62,6.22-15.88,9.8-12.12,4.15,4.37-3.89,18.77-2.85,28.39-.06,6.85,4.65,21.53,11.76,9.86,5.5-6.95,11.85-13.67,18.36-19.36,2.39-2.09,13.31-8.93,9.54,.02-4.91,7.32-11.65,13.29-17.52,19.79-5.49,7.53-13.42,13.43-17.51,21.81-4.14,8.49-5.51,18.19-6.49,27.59-.73,6.97-2.83,14.84,.49,21.01,1.38,2.57,4.33,5.53,7.2,5,9.91-1.84,12.11-16.19,17.01-25,5.12-9.22,5-21.86,12.83-28.93,9.55-8.62,5.95-15.71,13.18-19.09,9.09-.18-2.6,12.94,7.67,10.33,5.47-3.27,14.86,3.09,5.35,5.76-8.43,1.61-18.04,4.5-22.03,11.82-1.54,2.82-9.19,17.24,.77,9.61,5.95-4.32,12.69-7.72,19.4-10.88,6.73-4.29,8.4-9.1,13.26-12.96,4.31-4.82,9.2-22.52,16.54-13.57-3.58,5.48-10.24,17.45,2.08,15.64,4.31,0,19.36,4.29,12.3,7.99-5.22,.56-23.01-4.15-33.37,3.27-5.6,7.66,10.11,2.66,13.62,.54,3.99-3.02,13.18-2.24,11.29,2.63-1.23,3.17-18.49,1.84-1.7,10.05,8.3,3.08,18.17,11.48,7.31,11.54-13.53-4.66-26.1-16.84-41.39-12.55-11.68,4.19-33.51,6.58-32.1,18.92,.7,6.14,11.59,4.57,17.69,5.56,8.37,1.36,17-1.71,25.43,.44,10.07,2.66,20.25-2.36,27.59-9.08,8.6-5.43,8.28,4.11,1.38,8.41-2.54,3.65,9.93,6.7,16.04,9.65,3.95,1.91,6.34,8.61,3.79,8.89-9.89,1.07-17.35-14.34-33.97-11.17-1.92,7.66,15.26,7.75,19.18,14.81,1.21,2.17,3.24,7.42,.75,7.42-4.91,.02-16.36-15.98-12.3,1.95,.26,9.81-6.46-1.44-7.14-4.1-3.3-12.73-11.93-15.08-20.62-17.37-2.31-.61-15.94-3.78-7.04,1.31,8.13,4.26,20.72,4.07,24.71,13.51,1.6,4.88,5.97,17.64-.23,19.06-5.81,1.33-3.48-15.99-7.95-16.01-4.17-1.55-2.3,14.82-8.02,11.88-2.97,.06-.96-13.26-4.98-18.03-5.7-6.76-14.22-11.57-24-11.29-9.78-1.74-19.04,3.74-27.48,8.24-7.14,3.81-13.83,9.02-18.75,15.45-5.05,6.61-9.5,14.51-10.24,22.75-7.25,1.31-19.48-7.35-19.61-8.85,7.7-5.46,15.05-11.45,19.7-19.4,4.2-7.19,8.37-15.98,6.54-24.1-1.47-6.56-7.16-12.19-13.1-15.34-8.02-4.26-18-3.18-27.08-3.06-7.73,.11-15.5,1.19-22.95,3.23-5.61,1.53-8.01,6.5-16.1,6.69-12.4-3.42,12.07-11.7-1.47-9.83-10.33-1.65-.01-11.14,6.3-6.7,6.96,1.03,17.81,6.08,21.04-.14,2.75-5.31-5-11.86-10.25-14.72-9.8-5.34-15.74-17.63-8.02-13.59,3.81,2.08,4.34,3.44,5.06-1.33,2.35-7.91,6.44,5.3,9.21,10.57,4.82,9.16,15.74,14.66,26.32,16.47,12.29,1.93-5.11-12.04-9.08-13.27-7.95-5.09-25.32-18.46-20.7-21.14,4.91-4.38,9.66,8.46,16.67,11.22,1.21,.48,4.12,.34,3.78-.91-2.55-9.34-13.29-16.98-7.48-21.11,3.85-1.14,9.23,9.46,11.94,13.34,3.48,4.49,6.09,9.74,8.89,14.6,2.82,5.66,7.77,10.37,11.56,15.52,2.81,5.81,18.76,12.97,15.75,1.12-2.28-9.37-8.14-19.19-16.74-23.89-11.72-4.89-16.24-17.52-25.27-25.52-6.87-6.33-13.27-13.19-21.8-17.28-8.6-6.09,2.12-9.62,8.83-3.33,3.26,3.06-1.59-14.23,2.83-13.11,8.23,2.09,5.49,21.95,15.1,27.98,5.32-1.16,2.77-8.68,2.71-12.78-1.72-11.63-12.14-28.29-3.96-35.08,4.03-3.35,5.4,9.69,7.57,13.76,4-1.72,1.9-14.62,6.28-12.78,8,3.37-.78,20.33-1.37,29.83-.45,9.09,.53,18.16,1.25,27.18-.12,5.85,12.75,17.15,9.37,5.11-4.17-12.19-7.62-23.98-6.72-37.16,1.52-6.44,1.41-22.12,8.56-20.37,6.5,1.6-4.87,18.85-2.22,28.56,1.16-1.71,7.3-10.16,10.71-7.46,3.62,2.86-4.21,5.86-5.05,12.86h0Z"/><path class="cls-5" d="M171.89,727.36c1.34-2.09,2.84-4.03,4.18-5.83,1.05-1.49,2.39-2.69,3.14-4.33,.45-.9,1.05-1.79,1.64-2.54,.9-1.2,1.94-2.24,3.29-2.69,2.24-.9,3.88-2.54,5.68-4.03,1.49-1.34,2.69-2.69,3.74-4.33,.6-1.05,1.05-2.24,1.49-3.29,.9-1.79,1.05-3.74,1.64-5.68,.9-3.29,2.24-6.28,3.88-9.26,1.2-2.24,2.09-4.63,2.54-7.32,.45-2.39,.15-4.63,.3-6.87,0-.9-.75-.9-1.2-1.2s-.6,.3-.75,.6c-.75,1.05-1.79,1.94-2.54,2.84-1.64,1.79-3.14,3.59-3.88,5.98-.75,2.39-1.49,4.78-2.09,7.17-.45,1.94-1.34,3.74-2.39,5.38-.45,.6-.9,1.2-1.34,1.64-.45,.6-.6,1.49-.9,2.09-.6,1.79-1.64,3.14-2.99,4.63-.15-1.64-.6-2.99-1.49-4.33-.9-1.49-2.24-2.39-3.44-3.59-1.34-1.34-2.84-2.54-4.18-3.74-.15-.15-.3-.3-.45-.3-.45-.3-.9-.6-.9-1.2,.15-.9,.3-1.64,1.34-2.09,1.79-.75,3.59-1.64,5.23-2.84,1.94-1.49,3.59-3.14,5.08-5.08,1.64-2.24,2.39-4.63,2.69-7.32,.15-1.79-.15-3.74,.15-5.53,.15-1.34,.45-2.69,1.34-3.88,.3-.3,.45-.75,.6-1.2,.75-1.49,2.24-2.24,3.44-3.14,1.05-.75,1.05-2.39-.15-2.99-1.05-.6-2.09-.3-2.99,.6-1.2,1.2-2.39,2.54-3.88,3.44-.9,.6-1.49,1.49-2.09,2.39-.9,1.34-1.64,2.99-2.39,4.48-.6,1.49-.9,2.84-1.2,4.48-.3,1.94-.9,3.88-1.79,5.68-.45,.9-1.2,1.2-2.09,1.49-2.39,.9-4.63,2.09-6.13,4.33-.75,1.2-1.2,2.39-1.64,3.74q-.45,1.05-1.2,.45c-1.05-.75-1.94-1.64-2.99-2.39-1.2-.75-1.64-2.24-1.94-3.59-.45-1.64-.45-3.29-.15-5.08,0-.3,.15-.6,.3-1.05,.75-2.09,2.24-3.29,4.18-4.33,2.69-1.49,5.38-3.14,7.47-5.38,1.94-2.09,3.44-4.33,4.03-7.02,.3-1.05,.3-2.09,.3-3.14,0-.45,.15-.75,.6-1.05,3.29-1.49,5.83-3.88,8.37-6.57,1.2-1.2,1.49-2.84,1.94-4.48,.45-1.79,1.2-3.59,2.39-5.08,1.05-1.2,2.54-1.94,3.74-2.84,1.34-1.05,2.84-1.79,3.88-3.14,1.05-1.2,.75-2.09,0-2.99-1.05-1.34-2.84-1.64-4.48-.75-1.34,.75-2.69,1.64-4.18,2.09-.9,.3-1.79,.45-2.69,.9-.75,.45-1.2,.9-1.64,1.64-.75,1.34-1.64,2.69-2.24,4.03-.6,1.34-.9,2.84-1.49,4.18-.6,1.2-.9,2.54-1.05,3.88-.15,1.34-1.2,2.24-2.09,2.99-.45,.45-.9,.75-1.34,1.05-.45,.45-.6,.3-.75-.3-.15-1.2-.6-2.24-1.05-3.14-.6-1.2-1.2-2.54-1.64-3.88-.75-2.24-1.79-4.33-2.24-6.57-.15-1.2-.45-2.39-.45-3.59,0-1.34-1.79-3.14-3.29-3.14s-3.14,0-4.63,.45c-.9,.3-1.79,0-2.69-.15-1.2-.3-2.39-.75-3.59-1.2-.15,0-.3-.15-.45-.3-1.05-.9-2.24-1.64-3.29-2.39-.3-.3-.75-.3-1.2-.45-1.64-.3-2.69-1.34-3.59-2.54-.3-.3-1.64-.15-1.79,.15-.6,.9-.3,2.09,.45,2.84,1.34,1.34,2.69,2.69,3.44,4.63,.45,1.2,.45,2.39,.6,3.59,.3,1.79,1.34,3.14,2.54,4.48,2.24,2.24,5.08,2.84,8.07,3.14,1.79,.15,3.74,.15,5.53,.6,.9,.15,1.49,.75,2.09,1.2,.9,.6,1.34,1.49,1.64,2.69,.6,2.54,1.64,4.93,2.24,7.62,.75,2.55,.6,4.49-.9,6.43-1.79,2.09-3.59,4.03-6.28,4.93-1.34,.45-2.54,1.05-3.59,1.94-.45,.3-.75,.9-1.2,.6-.3-.15-.15-.9-.15-1.49-.15-2.84-2.84-6.72-6.42-6.42-2.54,.15-4.93-.3-7.32-.9-1.2-.3-2.09-1.2-2.69-2.09-.45-.75-1.05-1.34-1.49-2.24-.15-.3-.45-.45-.75-.45-.6-.3-.9-.75-1.05-1.34-.3-1.49-.75-1.94-2.24-1.94-1.05,0-1.2,.15-.9,1.2,.3,1.2,.45,2.54,.45,3.74,0,2.39,.15,4.78,1.34,6.87,.75,1.34,1.94,2.09,3.14,2.99,2.54,1.64,5.53,2.39,8.52,2.99,2.84,.6,4.48,2.69,5.38,5.38,.15,.3,0,.6-.15,.9-.75,1.64-.9,3.29-.75,5.08,.15,1.49,.45,2.84,.9,4.18,.15,.6,.45,1.05,.75,1.49,1.64,2.84,3.74,5.08,6.72,6.42,1.2,.6,2.09,1.79,3.14,2.54,1.94,1.49,3.88,3.14,5.83,4.78,1.34,1.05,2.54,2.24,3.29,3.88,.45,1.34,.75,2.69,1.2,4.03,.6,2.24,0,4.03-1.05,5.83-1.64,2.84-3.59,5.53-5.68,7.92-.15,.15-.3,.45-.45,.75-.15,1.05-.9,1.64-1.64,2.24-.45,.45-.9,1.05-1.2,1.64-.15,.45-.6,.6-.9,.9-.3-2.09,.75-3.88,.45-5.98-.3-1.94-.3-3.88-.9-5.68-.75-2.39-2.24-4.03-4.18-5.53-1.64-1.34-3.59-2.39-5.08-4.03-.15-.15-.45-.45-.45-.75-.75-1.79-1.34-3.74-1.94-5.53-.75-2.24-1.05-4.63-1.79-6.87-.15-.45-.45-.9-.6-1.34-.15-.15-.3-.45-.15-.6,.3-.6-.15-.9-.6-.9s-1.05,.15-1.2,.6c-.75,1.64-1.34,3.44-1.64,5.23-.45,2.69-.9,5.38,0,8.07,.75,2.24,1.2,4.63,2.24,6.72,.6,1.2,1.34,2.39,2.39,3.44,1.05,1.2,1.94,2.69,2.69,4.18,.9,2.09,1.94,4.03,2.84,6.13,.45,1.2,.9,2.39,1.05,3.59,.15,.75,.3,1.49,.6,2.24,.6,1.49,.45,3.14,.6,4.78,.15,1.05-.6,2.24-1.49,2.99-.15,.15-.3,.15-.3,.3-.45,1.79-1.64,3.29-2.54,4.78-1.49,2.54-2.54,5.38-4.03,7.92-.45,.9-1.05,1.79-1.05,2.99,0,1.05-.45,2.09-1.05,2.99-.3,.45-.6,1.05-.15,1.64,.15,.15,.15,.6,.15,.9-.15,.6,.6,1.2,1.2,.9,.6-.15,1.2-.6,1.79-.45,.45,0,.45-.3,.45-.6,0-1.2,.3-2.09,1.2-2.84,.3-.15,.45-.6,.6-1.05,.9-2.24,2.09-4.18,3.29-6.28,.45-.9,1.2-1.79,1.34-2.84,0-.15,.15-.45,.15-.45,1.49-1.2,2.09-2.84,2.84-4.48,.15-.3,.45-.6,.75-.9,.3-.3,.75-.45,.45-1.05,0-.15,1.2-1.34,1.2-1.34,1.94,.3,3.74-.3,5.53-.6,1.64-.15,2.99,.75,4.33,1.49,1.34,.75,2.54,1.64,3.74,2.39,1.79,1.05,3.74,1.2,5.53,.45,1.34-.6,2.24-1.79,2.99-2.99,1.64-2.69,3.88-4.78,6.28-6.87,1.34-1.05,2.69-2.24,4.18-3.14,.6-.3,.6-.75,.15-1.2-.9-.9-1.34-1.94-2.09-2.84-2.09-2.39-5.38-2.24-7.47,0-.75,.9-1.49,1.94-2.09,3.14-.45,1.05-1.34,1.94-2.24,2.84-.75,.75-1.79,.75-2.84,.6-.9-.15-1.79-.45-2.54-.75-2.69-1.05-5.38-.6-7.92,.6-.89,.15-1.64,.75-2.69,.75h0Z"/><path class="cls-5" d="M678.71,837.49c.05,.24-1.9,1.39-1.87,2.29,.36,3.57,23.58,1.55,23.19-2.31-.53-5.35-14.72-9.04-21.32,.03h0Zm-5.17,2.32c.27,2.68-15.79,4.28-16.06,1.6-.36-3.57,8.51-8.06,14.45-2.64,.25,.3,1.51,.39,1.61,1.04h0Zm-12.1-9.9c-1.39,1.7-6.45,4.18-1.43,6.75,3.69-2.17,8.5-2.05,12.1,.89l5.65-.56c4.28-5.23,10.68-7.37,17.51-5.05,1.67-1.37,3.69-2.17,5.77-2.38-9.42-13.17-31.4-13.68-39.61,.35h0Zm24.57-11.03c.92-2.79,2.1-4.55,3.68-6.81,10.56-14.57-5.11-12.1-1.36-28.69,.8-3.98,1.84-8.59-1.1-14.01,3.18,4.79,2.68,8.74,1.72,14.24-3.6,15.07,12.49,13.77,1.72,29.26-1.31,1.93-2.9,3.83-3.55,6.3,.45,.1,.94,.24,1.54,.45,.18-1.22,.97-2.14,2.34-3.47,14.6-16.17-3.12-19.21,.63-35.8,.6-3.06,1.49-6.15-.62-9.25-2.41-3.06-4.7-4.94-3.92-9.22-2.38,3.24-2.71,5.98-.84,9.69,2.53,4.25,1.6,7.05,.47,10.76-5.65,15.58,10.79,17.84,.62,30.27-1.31,1.93-2.92,3.46-3.28,5.89,.31,.04,1.73,.28,1.95,.38h0Zm-9.14-11.84c-2.02,3.81-3.85,7.51-.13,11.64,.89-.09,1.87-.17,2.44-.2-3.98-3.81-2.4-6.33-.32-9.54,5.21-8.03,4.26-14.54-3.24-20.4-3.95-3.51-7.2-5.89,.21-15.94,2.97-6.3-6.51-8.06-2.64-17.45,.98-2.2,1.99-4.1-1.87-6.72,1.25,3.48-.68,5.17-2.32,6.84-7.44,6.75,2.93,11.58,.08,15.56-7.19,11.1-3.18,16.58,1.1,20.36,6.6,5.95,6.63,9.25,3.21,17.1-1.73,3.78-3.45,7.55,.21,11.09,.67-.19,1.19-.33,2.05-.5-3.75-4.43-2.02-8.21,.27-12.34,8.89-19.21-15.79-13.74-4.81-33.16,5.62-9.87-4.67-7.64-1.22-15.19-2.56,7.46,7.4,4.97,1.84,15.43-10.15,18.4,14.55,13.6,5.14,33.42h0Zm-15.96-15.52c-5.68-8.18,3.44-9.45-4.34-16.38,2.62,8.57-5.8,8.42-.63,17.78,6.74,8.8-7.82,17.9,7.19,26.91,1.58,.74,3.12,1.38,3.56,2.84,.42-.29,.73-.48,1.11-.68-1.72-2.23-3.28-3.2-4.88-4.24-10.88-6.72,1.22-14.84-5.05-26.52-3.36-6.57,.6-6.07,.18-13.23,.8,8.03-3.03,5.71,.38,12.88,6.69,12.85-5.27,19.45,4.99,25.93,1.61,1.04,3.56,2.41,5.28,4.64,.34-.22,1.07-.58,1.48-.77-.77-1.73-2.4-3.05-4-4.09-12.25-7.41,1.65-11.14-5.28-25.06h0Zm-3.34,44.78c-2.73-3.33,1.47-4.98,3.05-7.05,.63-.92,.86-1.42,1.65-2.16-4.94-1.31-15.85,2.81-15.35,7.87,.3,2.97,10.64,1.25,10.64,1.34h0Zm38.95-3.89c1.9,1.01,4.79,2.83,4.73,5.23,1.78-.18,10.14-.71,9.9-3.09-3.62-2.64-7.71-6.37-14.63-2.14Z"/><path class="cls-5" d="M543.67,786.5c-2.53-.66-6.04-.22-5.28,4.59-.22,.51-2.53,1.84-1.39,2.34-.25,.66-.32,1.14,.44,1.58,.76,.44,4.27,2.75,7.69,2.37,1.17,1.9,1.61,2.18,7.63,3.73-2.5-1.49-2.85-2.09-2.91-3.13-.06-1.04,.19-2.03,.19-2.03,0,0,1.74-.28,3.26-.89,.51,1.04,3.42,4.08,8.76,4.65-2.21-.57-2.94-1.93-3.26-3.45-.32-1.52-1.17-1.99-2.78-2.59,1.68-.95,1.99-1.65,2.69-1.65s3.42,3.23,4.94,3.04c.47-.63,.54-2.5,.13-3.2-.41-.7-.22-.6-.09-1.77,.13-1.17,.32-2.5-.41-3.35-1.39,.63-3.45,3.48-4.59,3.48s-1.71-.41-2.12-1.08c1.9-1.08,1.04-3.7,4.49-4.59-2.12-.19-4.81,.76-6.68-.25-1.87-1.01-11.2-2.28-10.69,2.18Z"/><path class="cls-5" d="M563.92,763.52c-2.53-.66-6.04-.22-5.28,4.59-.22,.51-2.53,1.84-1.39,2.34-.25,.66-.32,1.14,.44,1.58,.76,.44,4.27,2.75,7.69,2.37,1.17,1.9,1.61,2.18,7.63,3.73-2.5-1.49-2.85-2.09-2.91-3.13-.06-1.04,.19-2.03,.19-2.03,0,0,1.74-.28,3.26-.89,.51,1.04,3.42,4.08,8.76,4.65-2.21-.57-2.94-1.93-3.26-3.45-.32-1.52-1.17-1.99-2.78-2.59,1.68-.95,1.99-1.65,2.69-1.65s3.42,3.23,4.94,3.04c.47-.63,.54-2.5,.13-3.2-.41-.7-.22-.6-.09-1.77,.13-1.17,.32-2.5-.41-3.35-1.39,.63-3.45,3.48-4.59,3.48s-1.71-.41-2.12-1.08c1.9-1.08,1.04-3.7,4.49-4.59-2.12-.19-4.81,.76-6.68-.25-1.87-1.01-11.2-2.28-10.69,2.18Z"/></g><g id="Layer_3"><path class="cls-7" d="M0,661.3c82.56-40.93,131.73-22.96,169.68-42.38,52.96-27.11,87.61-71.19,179.23-86.3,145.53-24,96.14,69.99,236.94,89.87,173.6,24.51,82.5,131.45,198.13,107.23,115.63-24.22,118.47,184.19,277.28,178.72,63.4-2.18,42.1-123,163.77-122.7,61.42,.15,135.77-109.28,177.84-131.59,101.11-53.62,180.85,16.39,228.26,41.36,85.79,45.19,134.81,71.23,288.87-34.21v418.7H0v-418.7"/><path class="cls-7" d="M833.29,752.01s2.45,2.45,3.33,2.45c.88,0,9.97-5.94,15.04-13.46,3.21-4.76,8.37-19.21,11.72-25.01,8.57-14.87,8.39-13.12,22.73-22.21,14.34-9.09,26.93-3.85,32,1.57,4.6,4.91,4.61,13.99,4.61,18.36s2.28,5.83,4.26,5.25c2.08-.61,1.05-3.55,3.21-4.37,2.66-1.01,2.39,6,6.65,3.85,2.12-1.08-.83-6.96-.1-11.57,.92-5.79,7.35-6.48,11.43-1.67,1.57,1.85,4.44,7.06,5.24,10.26,.94,3.75,1.66,8.79,3.9,8.4,1.56-.28,.87-2.49,1.83-2.62,.61-.09,1.09,1.92,1.97,1.79,2.08-.31,2.65-.96,2.14-3.54-.48-2.45-1.05-2.97,.7-4.9,1.75-1.92,2.25-.74,4.77,0,2.61,.76,3.75-2.07,2.36-3.79-1.43-1.77-1.84-2.37-.88-3.34,1.77-1.52,2.9-3.06,.29-4.83-2.64-1.79-8.68,1.28-13.51-1.13-9.56-4.84-5.45-15.94,4.35-16.05,3.3-.04,13.4,6.44,17.25,5.3,2.56-.76,2.62-2.86,.99-4.43-.75-.72-.17-1.46,.53-1.61,2.41-.51,2.47-1.7,2.21-3.29-.47-1.98-4.35-.86-6.24-2.68-1.57-1.51-1.28-3.44,0-4.08,.77-.39,2.01-.47,2.74-1.17,1.28-1.23,.82-3.15-.99-3.32-.7-.07-1.87,.76-2.86-.35-1.28-1.69,1.69-2.04,.87-3.85-1.12-2.47-2.97-1.05-9.27,2.97-6.3,4.02-11.02,8.92-15.74,3.85-2.8-3.85,3.32-7.46,7.17-9.21s9.09,.76,10.49-1.28c1.75-2.55,.35-5.71-2.1-6.12-1.35-.22-3.77,.52-4.72-.99-1.4-2.21,3.81-3.58-.47-7.4-2.21-1.98-4.2-.81-5.48,2.57-2.46,6.49-16.52,17.2-21.86,13.35-7.26-8.39,20.71-21.7,21.04-25.38,.46-5.07-4.52-5.33-7.32-4.9-1.55,.24-2.5-.95-.7-3.41,2.22-3.03-1.54-7.55-4.69-3.7-3.97,4.86-7.58,10.55-11.42,8.28-3.85-2.27-2.1-6.65-2.1-8.98,.12-2.21-4.78-3.85-5.83-.93-2.11,2.9-.81,44.65-19.82,42.32-7.13-.88,2.42-29.82,4.69-35.94,2.27-6.12-.29-7.51-2.62-7.87-1.14-.18-3.15-.34-4.63,2.15-1.26,2.1-2.55,4.27-6.06,1.32-1.75-1.47-2.99-2.08-5.39-.58-1.4,.87-3.06,2.54,3.03,15.71,4.05,8.75,5.16,15.74-1.95,31.16-5.6,12.13-21.92,10.03-26.35-1.63-7.04-18.52-19.85-40.69-9.09-46.63,8.72-4.82,27.37,.23,33.55-3.15,2.21-1.21,1.97-3.42,.35-3.67-1.52-.23-2.16-.46-2.51-1.28-.83-1.94,3.21-2.74,1.11-5.07-1.89-2.1-13.87,2.68-17.2,3.21-3.33,.53-4.11-3.23-1.66-6.99,4.41-6.77,14.83-1.91,17.66-3.06,3.23-1.31,2.19-5.25,.17-5.51-1.35-.18-3.15-.26-4.2-1.57-1.14-2.28,3.73-2.61,3.41-4.72-.61-4.02-5.02-.38-6.65-2.97-1.49-2.36,3.1-5.32-.35-6.99-3.23-1.57-12.77,11.28-14.75,13.75-1.62,2.01-8.98,11.56-14.14,6.96-6.06-6.28,11.05-17.56,13.85-20.01,2.8-2.45-.41-5.83-2.45-6.12-2.63-.37-2.93,3.22-4.49,3.15-2.81-.3-.58-3.91-2.97-4.49-2.41-.58-3.32,.76-3.61,4.02-.37,4.21-1.22,10.38-4.43,10.08-1.95-.18-1.74-2.65-1.11-5.42,.81-3.61-.26-4.66-2.16-5.13-1.63-.41-2.68,.61-2.95,2.45-.14,.99-1.48,1.69-2.01-.06-.82-3.44-5.65-3.15-5.71,.12-.04,1.96-.32,7.98,.85,17.55,3.6,29.54,29.14,71.58,21.45,73.21-2.99,.64-11.53-7.62-13.99-9.32-11.43-7.93-19.79-9.04-20.05-21.91-.18-8.45,10.33-11.86,11.14-14.66,1.02-3.48-2.07-4.8-4.85-3.29-.83,.45-1.26-.14-1.17-1.19,.19-2.23-.92-3.81-2.9-3.55-2.74,.35-7.91,14.08-12.81,11.28-6.73-3.85,4.23-14.09,5.51-18.19,1.09-3.5-2.1-4.98-3.32-3.85-.71,.66-1.31,3.02-2.23,2.84-1.01-.09-.34-2.4-1.35-3.41-1.4-1.4-3.67-.31-3.66,1.89,.01,1.83,1.19,6.39-.63,6.9-2.51,.7-1.31-3.9-3.52-4.2-1.77-.24-2.16,.56-2.17,2.08,0,.52-.53,.57-.88,.41-1.79-.84-5.57-.64-.95,5.91,3.67,5.22,2.54,10.69-1.05,11.54-3.67,.88-6.82-9.22-7.98-12.12-1.17-2.92-8.16-.76-6.59,3.44,2,5.34-2.52,4-4.61,3.73-2.22-.29-4.02,4.61-.7,6.3,3.93,2,17.15,4.8,14.57,12.3-2.56,7.46-9.75,.43-12.36,.76-1.87,.23-2.04,2.68-.76,3.96,.8,.8,.46,1.92-.4,2.01-3.15,.33-3.34,3.29,.8,6.73,5.48,4.55,13.23,5.83,30.6,4.66,8.04-.54,21.92-1.4,32.53,7.34,16.78,13.83,15.16,30.55,15.16,36.72,0,4.55-1.51,17.08-4.08,17.14-3.9,.09-3.5-12.26-9.91-19.7-7.46-8.66-9.75-6.06-13.67-11.63-3.93-5.6-1.54-11.67,3.98-11.67,3.32,0,2.75-2.93,1.14-2.97-4.34-.12,.33-3.57-1.62-5.03-2.1-1.58-3.68,1.94-5.22,1.57-2.45-.58,.2-3.81-1.98-4.9-1.63-.82-1.85,.87-3.03,2.22-1.06,1.21-1.57-1.38-2.97-.47-2.03,1.33,3.44,7.17,.26,7.78-7.69,1.48-2.88-4.73-4.98-7.96-.92-1.42-3.81-1.46-5.8,1.02-.46,.57-1.78,.23-2.05-.53-.8-2.28-2.36-3.06-4.57-1.8-1.23,.7-.37,2.74-1.31,4.72-.79,1.66-2.21,.53-2.5-.19-.34-.86-.6-2.02-.8-3.8-.38-3.5-3.59-2.99-3.96-1.87-.25,.76-.05,2.03-.09,3.22-.03,.98-.79,1.69-1.43,.86-.14-.2-.58-.78-.7-.99-.67-1.19-3.34,.16-2.8,1.4,.68,1.49-.01,1.89-1.23,1.57-.79-.41-2.24,1.32-1.75,2.27,.59,1.14-1.9,1.55-1.72,3.82,.21,2.7,5.86,3.76,9.53,5.16,3.67,1.4,6.65,5.06,5.94,7.96-.96,3.93-5.81,4.11-7.74,2.19-1.93-1.92-1.26-5.99-2.01-8.79-.7-2.62-3.54-2.03-4.24-1.01-.74,1.09-.04,2.01-1.23,2.45-1.36,.57-1.97-1.18-4.02-.17-2.74,1.34-1.27,4.9,3.89,6.69,2.29,.8,2.1,4.76-.17,5.81-2.08,.96-4.24-1.18-6.1-2.94-1.15-1.09-3.55,.55-2.28,3.51,.28,.64-.03,1.32-.72,1.42-1.02,.14-2.15,.5-2.48,1.25-.68,1.48,.35,4.02,8.98,6.01,8.8,2.02,14.11-.12,19.35-2.16,1.6-.62,13.29-5.6,24.66-4.9,11.36,.7,14.34,5.42,16.26,9.62,1.46,3.18,3.89,13.58,1.87,21.68-2.63,10.49-8.51,16.09-8.51,16.09h0Z"/><path class="cls-7" d="M1579.03,697.1s-3.58-10.96,.22-25.83c2.93-11.48,12.99-22.83,16.95-25.82,5.23-3.94,12.13-7.84,26.79-1.05,14.66,6.79,25.9,20.88,27.49,22.74,5.18,6.08,10.35,12.33,22.71,15.74,12.11,3.34,15.1,.86,15.26-1.45,.08-1.16-1.09-2.37-2.26-3.23-.8-.59-.71-1.65,.06-2.26,3.59-2.83,1.69-6.5-.47-5.92-3.52,.94-7.65,2.17-9.61-.44-2.13-2.84,.3-7.93,3.7-7.38,7.65,1.24,11.89-2.2,9.37-5.73-1.89-2.64-3.83-.87-5.14-2.5-1.18-1.34,.31-2.02,.12-3.88-.18-1.74-3.33-4.41-5.97-1.6-2.82,2.99-4.74,8.51-8.44,9.62-3.7,1.11-9.64-2.39-8.19-7.95,1.07-4.09,7.26-6.66,12.79-5.93,5.53,.73,13.3,3.22,15.38-.02,1.75-2.72-1.08-4.9,.43-5.93,1.26-.85,.62-3.99-.65-4.02-1.73-.42-2.33-1.38-.47-2.79,1.5-1.18-.91-4.66-2.55-3.63-.28,.18-1.23,.61-1.54,.76-1.36,.6-1.83-.79-1.2-2.04,.76-1.5,1.87-2.96,2.06-4.08,.29-1.66-3.37-4.46-6.21-.34-1.45,2.09-2.55,3.36-3.56,4.21-.85,.72-3.39,1.16-3.25-1.44,.17-3.11,2.61-5.08,1.55-6.78-1.91-3.07-4.38-3.15-6.92-.84-.84,.77-2.73,.31-2.92-.71-.81-4.43-4.44-6.33-6.55-5.18-4.8,2.62-2.98,13.62-11.59,6.58-3.55-2.91,7.21-6.51,5.58-9.54-1.13-2.09-3.51,.81-4.02-1.42-.57-2.47,.3-4.73-2.29-4.81-3.46-.11-2.33,5.7-5.78,4.78-2.17-.58-1.77-6.03-5.46-5.48-3.42,.51,.08,7.96-5.41,5.19-2.05-1.04-4.73,2.24-.58,4.48,6.89,3.72,5.78,12.92-2.9,17.26-8.64,4.31-9.76-.48-24.91,5.3-13.03,4.97-20.85,20.66-25.66,17.92-3.17-1.8,3.4-18.47,6.46-24.15,4.17-7.71,13.4-29.68,43.69-35.63,19.14-3.76,35.89,6.66,45.57,12.76,20.9,13.17,31.45,16.8,41.36,14.81,7.49-1.5,9.25-5.33,5.54-7.86-1.02-.69-.68-2.32,.86-2.78,2.47-.74,3.9-3.91,1.73-5.46-3.03-2.17-16.75,1.77-14.92-9.28,1.84-11.1,20.23-5.69,26.49-5.53,5.29,.13,6.34-7.2,3.37-8.33-2.79-1.07-9.34-2.44-3.24-7.76,4.79-4.18-2.48-11.59-5.91-8.74-3.41,2.84-14.16,13.32-18.15,9.76-3.91-3.49-1.64-11.08,6.47-15.12,10.18-5.07,5.6-7.86,2.8-8.02-.54-.03-1.17-.45-.82-1.1,1.01-1.9,1.06-3.16-1.31-4.06-2.95-1.12-4.57,5.43-7.23,2.87-1.92-1.85,2.62-6.77,3.87-9.04,1.5-2.73-.6-5.63-3.29-4.83-1.95,.58-2.68,3.91-3.99,3.35-1.26-.4-.43-3.76-.87-5.06-.76-2.24-5.75-2.54-6.74,2.56-1.16,5.97,5.62,26.16-5.38,26.42-8,.19-5.2-20.44-8.39-22.72-2.3-1.65-4.76-.43-6.02,2.48-.6,1.37-1.53,1.83-2.26,.7-2.45-3.76-7.2-4.19-8.27,.84-.87,4.05,9.95,15.38,4.03,25.82-9.01,15.9-20.21,11.65-39.82,13.84-4.23,.47-20.45,5.02-23.76,2.21-8.51-7.23,51.74-42.5,76.16-76.96,7.91-11.15,11.61-18.87,12.89-21.34,2.13-4.12-3.72-7.74-7.05-4-1.84,1.83-3.04,.05-2.55-1.27,.91-2.47,.29-4.46-2.03-5.05-2.69-.69-4.73-.11-6.15,4.95-1.09,3.89-2.49,7.11-5.04,6.02-4.2-1.8-1.1-10.06,1.27-15.58,1.84-4.27,1.6-6.57-1.8-7.46-3.38-.88-3.02,5.11-6.73,3.6-1.99-.96,.05-5.65-3.48-6.96-2.74-1.01-9.03,1.05-7.18,5.99,1.84,4.95,15.61,30.56,3.8,34.32-9.55,2.26-12.3-14.62-12.96-18.22-.81-4.42-4.05-26.9-9.15-27.12-5.44-.23-1.71,6.55-5.15,8.5-3.78,2.13-6.82-5.38-10.3-.77-1.82,2.42,4.03,6.12,1.07,8.2-2.2,.93-4.49-.18-6.3-.87-2.69-1.03-6.65,3.18-3.5,7,2.76,3.34,19.05,4.3,19.99,15.73,.52,6.35-3,10.51-6.79,7.61-3.79-2.9-15.54-16.95-19.31-15.6-4.19,1.5,.31,5.21-2.04,7.08-.99,.79-1.94,.64-4-.09-2.19-.78-3.98,1.83-2.04,4.82,5.43,8.39,32.13,14.65,39.77,26.55,9.42,14.68-21.52,33.72-42.8,52.1-13.39,11.57-35.19,3.18-34-15.73,1.51-24.05,7.62-32.03,18.57-40.22,16.49-12.34,15.54-15.53,14.38-17.57-1.99-3.5-3.95-3.57-7.13-2.91-6.37,1.32-6.54-2.26-6.68-5.73-.18-4.11-2.8-5.27-4.34-5.81-3.16-1.13-7.29-1.12-8.58,8.05-1.29,9.17-8.88,51.75-18.38,48.04-25.3-9.91,4.47-61.16,3.79-66.21,.66-4.35-6.56-5.61-7.9-2.77-1.57,2.91-2.34,9.55-8.67,9.79-6.34,.24-7-9.3-8.68-18.04-1.34-6.93-9.08-3.82-8.36,1.46,.59,4.29-1.4,5.13-3.17,3.79-3.2-2.43-9.6-5.46-12.44,1.18-2.06,4.83,23.89,40.3,9.16,45.89-9.25,1.21-19.6-21.64-18.29-31.41,.68-5.09-1.01-7.88-5.11-6.9-7.92,1.89-2.34,7.11-5.57,8.93-2.2,1.24-4.73-1.32-6.56-1.95-3.34-1.14-7.22,1.87-6.75,6.23,.37,3.49,8.61,3.9,12.24,8.68s8.83,13.42,2.74,16.33c-9.32,3.15-11.91-6.15-17.06-15.42s-6.5-12.3-9.57-9.96c-2.24,1.71,1.24,4.15-1.5,5.39-1.98,.72-2.89-1.1-3.8-1.49-2.37-1-4.25,1.09-3.48,3.48,.44,1.36,1.93,2.3,2.63,3.3,1.17,1.66,.23,4.27-2.75,5.09-3.59,1-7.68-3.02-9.59-.86-1.4,1.8-2.12,3.33,.54,5.59,.78,.66,1,1.97-.42,2.37-3.1,.86-4.44,3.52-1.75,6.2,4.05,4.02,21.03,2.74,25.12,5.01,12.15,6.75,9.8,23.38-5.4,22.98-7.67-.24-13.13-8.15-17.64-7.7-4.45,.45-4.08,3.14-2.9,6.23,.55,1.85-.36,2.33-3.35,3.57-2.89,1.21-3.38,5.51,.39,6.32,3.65,.79,5.07-.36,5.95,3.22,.89,3.58-.18,3.85-2.43,6.59-2.37,2.88-2.1,4.07,.29,5.87,1,.75,2.96-1.43,3.67-.91,1.11,.81-1.24,3.12,.52,4.51,2.52,2,6.82-3.81,10.53-7.86,3.16-3.46,10.25-8.03,13.46-9.28,8.33-3.25,15.9,1.95,13.14,9.79-2.2,6.24-9.85,11.6-7.93,14.37,3.86,5.56,8.24-3.38,10.89-.32,2.14,2.48-1.13,5.46,1.06,7.62,2.08,2.06,5.9,1.78,8.85-3.68,2.95-5.46,9.08-16.79,18.13-19.82,9.99-3.35,29.25-1.41,41.02,19.62,11.78,21.03,12.73,18.72,13.41,43.06,.26,9.5-3.03,31.02-2.23,39.13,1.26,12.81,8.61,26.36,9.7,26.95,1.09,.59,5.8-.81,5.8-.81h0Z"/><path class="cls-7" d="M147.65,651.37c.1,.28-2.02,2.07-1.81,3.16,1.16,4.26,28.96-2.93,27.7-7.54-1.74-6.39-19.72-7.98-25.89,4.38h0Zm-5.81,3.87c.87,3.2-18.31,8.42-19.18,5.22-1.16-4.26,8.69-11.52,17.01-6.16,.37,.31,1.92,.17,2.16,.94h0Zm-16.72-9.56c-1.34,2.34-6.98,6.4-.36,8.49,4.04-3.39,9.91-4.22,14.88-1.38l6.75-1.84c4.13-7.23,11.46-11.13,20.24-9.71,1.74-2,4.04-3.39,6.52-4.07-14.13-14.08-40.93-10.22-48.04,8.5h0Zm27.6-18.4c.55-3.58,1.62-5.96,3.08-9.02,9.85-19.85-8.68-13.66-7.51-34.57,.16-5,.49-10.81-4.19-16.79,4.84,5.17,5.03,10.07,5,16.95-1.3,19.04,17.97,14.18,8.06,35.19-1.19,2.61-2.74,5.24-3.03,8.37,.57,.03,1.19,.1,1.96,.23-.03-1.52,.74-2.79,2.13-4.7,14.44-22.62-7.71-22.7-6.53-43.61,.1-3.84,.55-7.78-2.64-11.11-3.55-3.23-6.71-5.04-6.65-10.4-2.23,4.42-2.07,7.81,.96,11.94,3.94,4.65,3.39,8.23,2.77,12.98-3.69,20.08,16.75,19.47,6.92,36.64-1.19,2.61-2.84,4.79-2.78,7.83,.38-.01,2.16-.02,2.45,.06h0Zm-13.51-12.52c-1.68,5.03-3.14,9.91,2.21,14.17,1.07-.29,2.24-.59,2.93-.74-5.62-3.81-4.21-7.2-2.33-11.52,4.69-10.81,2.2-18.53-8.09-24.12-5.52-3.46-9.94-5.69-2.99-19.4,2.33-8.26-9.55-8.46-6.77-20.66,.74-2.87,1.58-5.39-3.64-7.78,2.23,3.97,.22,6.42-1.42,8.78-7.65,9.71,5.92,13.46,3.27,18.88-6.46,14.95-.47,20.79,5.5,24.51,9.23,5.88,9.94,9.88,7.38,20.11-1.33,4.94-2.65,9.88,2.51,13.43,.78-.37,1.38-.64,2.39-1.03-5.45-4.62-4.13-9.56-2.19-15.04,6.89-25.14-21.98-13.47-12.6-39.29,4.82-13.14-7.23-8.33-4.58-18.21-1.59,9.59,10.01,4.52,5.38,18.37-8.58,24.41,20.44,13.56,13.06,39.55h0Zm-22.56-15.6c-8.56-8.78,2.25-12.18-8.61-19.02,4.93,9.87-5.32,11.41,2.86,21.73,9.98,9.32-5.85,23.33,14.22,31.22,2.07,.58,4.07,1.04,4.9,2.72,.45-.44,.79-.73,1.21-1.05-2.55-2.36-4.63-3.22-6.79-4.16-14.59-5.95-1.54-18.27-11.54-31.19-5.42-7.3-.51-7.49-2.48-16.11,2.61,9.59-2.52,7.55,3.09,15.56,10.74,14.24-2.43,24.69,11.35,30.48,2.16,.94,4.81,2.2,7.36,4.56,.37-.33,1.18-.93,1.64-1.23-1.29-1.94-3.54-3.21-5.7-4.15-16.39-6.51-.26-13.87-11.53-29.37h0Zm5.08,55.07c-4-3.49,.77-6.34,2.27-9.19,.58-1.25,.76-1.91,1.56-2.96-6.26-.58-18.68,6.65-17.04,12.69,.97,3.55,13.17-.65,13.2-.54h0Zm46.52-12.67c2.52,.84,6.39,2.46,6.81,5.39,2.13-.58,12.17-2.93,11.4-5.77-4.93-2.47-10.67-6.17-18.21,.38Z"/><path class="cls-7" d="M95.61,656.26c.1,.28-2.02,2.07-1.81,3.16,1.16,4.26,28.96-2.93,27.7-7.54-1.74-6.39-19.72-7.98-25.89,4.38h0Zm-5.81,3.87c.87,3.2-18.31,8.42-19.18,5.22-1.16-4.26,8.69-11.52,17.01-6.16,.37,.31,1.92,.17,2.16,.94h0Zm-16.72-9.56c-1.34,2.34-6.98,6.4-.36,8.49,4.04-3.39,9.91-4.22,14.88-1.38l6.75-1.84c4.13-7.23,11.46-11.13,20.24-9.71,1.74-2,4.04-3.39,6.52-4.07-14.13-14.08-40.93-10.22-48.04,8.5h0Zm27.6-18.4c.55-3.58,1.62-5.96,3.08-9.02,9.85-19.85-8.68-13.66-7.51-34.57,.16-5,.49-10.81-4.19-16.79,4.84,5.17,5.03,10.07,5,16.95-1.3,19.04,17.97,14.18,8.06,35.19-1.19,2.61-2.74,5.24-3.03,8.37,.57,.03,1.19,.1,1.96,.23-.03-1.52,.74-2.79,2.13-4.7,14.44-22.62-7.71-22.7-6.53-43.61,.1-3.84,.55-7.78-2.64-11.11-3.55-3.23-6.71-5.04-6.65-10.4-2.23,4.42-2.07,7.81,.96,11.94,3.94,4.65,3.39,8.23,2.77,12.98-3.69,20.08,16.75,19.47,6.92,36.64-1.19,2.61-2.84,4.79-2.78,7.83,.38-.01,2.16-.02,2.45,.06h0Zm-13.51-12.52c-1.68,5.03-3.14,9.91,2.21,14.17,1.07-.29,2.24-.59,2.93-.74-5.62-3.81-4.21-7.2-2.33-11.52,4.69-10.81,2.2-18.53-8.09-24.12-5.52-3.46-9.94-5.69-2.99-19.4,2.33-8.26-9.55-8.46-6.77-20.66,.74-2.87,1.58-5.39-3.64-7.78,2.23,3.97,.22,6.42-1.42,8.78-7.65,9.71,5.92,13.46,3.27,18.88-6.46,14.95-.47,20.79,5.5,24.51,9.23,5.88,9.94,9.88,7.38,20.11-1.33,4.94-2.65,9.88,2.51,13.43,.78-.37,1.38-.64,2.39-1.03-5.45-4.62-4.13-9.56-2.19-15.04,6.89-25.14-21.98-13.47-12.6-39.29,4.82-13.14-7.23-8.33-4.58-18.21-1.59,9.59,10.01,4.52,5.38,18.37-8.58,24.41,20.44,13.56,13.06,39.55h0Zm-22.56-15.6c-8.56-8.78,2.25-12.18-8.61-19.02,4.93,9.87-5.32,11.41,2.86,21.73,9.98,9.32-5.85,23.33,14.22,31.22,2.07,.58,4.07,1.04,4.9,2.72,.45-.44,.79-.73,1.21-1.05-2.55-2.36-4.63-3.22-6.79-4.16-14.59-5.95-1.54-18.27-11.54-31.19-5.42-7.3-.51-7.49-2.48-16.11,2.61,9.59-2.52,7.55,3.09,15.56,10.74,14.24-2.43,24.69,11.35,30.48,2.16,.94,4.81,2.2,7.36,4.56,.37-.33,1.18-.93,1.64-1.23-1.29-1.94-3.54-3.21-5.7-4.15-16.39-6.51-.26-13.87-11.53-29.37h0Zm5.08,55.07c-4-3.49,.77-6.34,2.27-9.19,.58-1.25,.76-1.91,1.56-2.96-6.26-.58-18.68,6.65-17.04,12.69,.97,3.55,13.17-.65,13.2-.54h0Zm46.52-12.67c2.52,.84,6.39,2.46,6.81,5.39,2.13-.58,12.17-2.93,11.4-5.77-4.93-2.47-10.67-6.17-18.21,.38Z"/></g><g id="Layer_2"><path class="cls-4" d="M0,506.75c82.56-40.93,101.77-44.48,137.51-21.24,48,31.22,10.99,148.06,101.11,170.47,126.75,31.52,129.92,238.8,261.26,155.62,91.91-58.21,37.56,15.03,153.19-9.19,115.63-24.22,49.53,99.94,208.34,94.47,63.4-2.18,74.18,156.42,196.02,120.64,73.02-21.45,101.28-88.89,159.32-55.91,110.55,62.81,136.09-87.06,161.62-74.8,67.92,32.64,108.62-55.28,162.61-35.04,57.99,21.75,99.86-58.61,129.48-77.32,51.9-32.78,40.85-74.55,105.19-105.19,103.12-49.1,58.72-122.47,144.36-162.51v573.25H0V506.75"/><path class="cls-4" d="M1442.92,846.02c-3.01-4.68-6.35-9.02-9.35-13.03-2.34-3.34-5.35-6.01-7.02-9.69-1-2-2.34-4.01-3.67-5.68-2-2.67-4.34-5.01-7.35-6.01-5.01-2-8.68-5.68-12.69-9.02-3.34-3.01-6.01-6.01-8.35-9.69-1.34-2.34-2.34-5.01-3.34-7.35-2-4.01-2.34-8.35-3.67-12.69-2-7.35-5.01-14.03-8.68-20.71-2.67-5.01-4.68-10.36-5.68-16.37-1-5.35-.33-10.36-.67-15.37,0-2,1.67-2,2.67-2.67s1.34,.67,1.67,1.34c1.67,2.34,4.01,4.34,5.68,6.35,3.67,4.01,7.02,8.02,8.68,13.36,1.67,5.35,3.34,10.69,4.68,16.03,1,4.34,3.01,8.35,5.35,12.03,1,1.34,2,2.67,3.01,3.67,1,1.34,1.34,3.34,2,4.68,1.34,4.01,3.67,7.02,6.68,10.36,.33-3.67,1.34-6.68,3.34-9.69,2-3.34,5.01-5.35,7.68-8.02,3.01-3.01,6.35-5.68,9.35-8.35,.33-.33,.67-.67,1-.67,1-.67,2-1.34,2-2.67-.33-2-.67-3.67-3.01-4.68-4.01-1.67-8.02-3.67-11.69-6.35-4.34-3.34-8.02-7.02-11.36-11.36-3.67-5.01-5.35-10.36-6.01-16.37-.33-4.01,.33-8.35-.33-12.36-.33-3.01-1-6.01-3.01-8.68-.67-.67-1-1.67-1.34-2.67-1.67-3.34-5.01-5.01-7.68-7.02-2.34-1.67-2.34-5.35,.33-6.68,2.34-1.34,4.68-.67,6.68,1.34,2.67,2.67,5.35,5.68,8.68,7.68,2,1.34,3.34,3.34,4.68,5.35,2,3.01,3.67,6.68,5.35,10.02,1.34,3.34,2,6.35,2.67,10.02,.67,4.34,2,8.68,4.01,12.69,1,2,2.67,2.67,4.68,3.34,5.35,2,10.36,4.68,13.7,9.69,1.67,2.67,2.67,5.35,3.67,8.35q1,2.34,2.67,1c2.34-1.67,4.34-3.67,6.68-5.35,2.67-1.67,3.67-5.01,4.34-8.02,1-3.67,1-7.35,.33-11.36,0-.67-.33-1.34-.67-2.34-1.67-4.68-5.01-7.35-9.35-9.69-6.01-3.34-12.03-7.02-16.7-12.03-4.34-4.68-7.68-9.69-9.02-15.7-.67-2.34-.67-4.68-.67-7.02,0-1-.33-1.67-1.34-2.34-7.35-3.34-13.03-8.68-18.71-14.7-2.67-2.67-3.34-6.35-4.34-10.02-1-4.01-2.67-8.02-5.35-11.36-2.34-2.67-5.68-4.34-8.35-6.35-3.01-2.34-6.35-4.01-8.68-7.02-2.34-2.67-1.67-4.68,0-6.68,2.34-3.01,6.35-3.67,10.02-1.67,3.01,1.67,6.01,3.67,9.35,4.68,2,.67,4.01,1,6.01,2,1.67,1,2.67,2,3.67,3.67,1.67,3.01,3.67,6.01,5.01,9.02,1.34,3.01,2,6.35,3.34,9.35,1.34,2.67,2,5.68,2.34,8.68,.33,3.01,2.67,5.01,4.68,6.68,1,1,2,1.67,3.01,2.34,1,1,1.34,.67,1.67-.67,.33-2.67,1.34-5.01,2.34-7.02,1.34-2.67,2.67-5.68,3.67-8.68,1.67-5.01,4.01-9.69,5.01-14.7,.33-2.67,1-5.35,1-8.02,0-3.01,4.01-7.02,7.35-7.02s7.02,0,10.36,1c2,.67,4.01,0,6.01-.33,2.67-.67,5.35-1.67,8.02-2.67,.33,0,.67-.33,1-.67,2.34-2,5.01-3.67,7.35-5.35,.67-.67,1.67-.67,2.67-1,3.67-.67,6.01-3.01,8.02-5.68,.67-.67,3.67-.33,4.01,.33,1.34,2,.67,4.68-1,6.35-3.01,3.01-6.01,6.01-7.68,10.36-1,2.67-1,5.35-1.34,8.02-.67,4.01-3.01,7.02-5.68,10.02-5.01,5.01-11.36,6.35-18.04,7.02-4.01,.33-8.35,.33-12.36,1.34-2,.33-3.34,1.67-4.68,2.67-2,1.34-3.01,3.34-3.67,6.01-1.34,5.68-3.67,11.02-5.01,17.04-1.67,5.69-1.34,10.03,2,14.38,4.01,4.68,8.02,9.02,14.03,11.02,3.01,1,5.68,2.34,8.02,4.34,1,.67,1.67,2,2.67,1.34,.67-.33,.33-2,.33-3.34,.33-6.35,6.35-15.03,14.36-14.36,5.68,.33,11.02-.67,16.37-2,2.67-.67,4.68-2.67,6.01-4.68,1-1.67,2.34-3.01,3.34-5.01,.33-.67,1-1,1.67-1,1.34-.67,2-1.67,2.34-3.01,.67-3.34,1.67-4.34,5.01-4.34,2.34,0,2.67,.33,2,2.67-.67,2.67-1,5.68-1,8.35,0,5.35-.33,10.69-3.01,15.37-1.67,3.01-4.34,4.68-7.02,6.68-5.68,3.67-12.36,5.35-19.04,6.68-6.35,1.34-10.02,6.01-12.03,12.03-.33,.67,0,1.34,.33,2,1.67,3.67,2,7.35,1.67,11.36-.33,3.34-1,6.35-2,9.35-.33,1.34-1,2.34-1.67,3.34-3.67,6.35-8.35,11.36-15.03,14.36-2.67,1.34-4.68,4.01-7.02,5.68-4.34,3.34-8.68,7.02-13.03,10.69-3.01,2.34-5.68,5.01-7.35,8.68-1,3.01-1.67,6.01-2.67,9.02-1.34,5.01,0,9.02,2.34,13.03,3.67,6.35,8.02,12.36,12.69,17.71,.33,.33,.67,1,1,1.67,.33,2.34,2,3.67,3.67,5.01,1,1,2,2.34,2.67,3.67,.33,1,1.34,1.34,2,2,.67-4.68-1.67-8.68-1-13.36,.67-4.34,.67-8.68,2-12.69,1.67-5.35,5.01-9.02,9.35-12.36,3.67-3.01,8.02-5.35,11.36-9.02,.33-.33,1-1,1-1.67,1.67-4.01,3.01-8.35,4.34-12.36,1.67-5.01,2.34-10.36,4.01-15.37,.33-1,1-2,1.34-3.01,.33-.33,.67-1,.33-1.34-.67-1.34,.33-2,1.34-2s2.34,.33,2.67,1.34c1.67,3.67,3.01,7.68,3.67,11.69,1,6.01,2,12.03,0,18.04-1.67,5.01-2.67,10.36-5.01,15.03-1.34,2.67-3.01,5.35-5.35,7.68-2.34,2.67-4.34,6.01-6.01,9.35-2,4.68-4.34,9.02-6.35,13.7-1,2.67-2,5.35-2.34,8.02-.33,1.67-.67,3.34-1.34,5.01-1.34,3.34-1,7.02-1.34,10.69-.33,2.34,1.34,5.01,3.34,6.68,.33,.33,.67,.33,.67,.67,1,4.01,3.67,7.35,5.68,10.69,3.34,5.68,5.68,12.03,9.02,17.71,1,2,2.34,4.01,2.34,6.68,0,2.34,1,4.68,2.34,6.68,.67,1,1.34,2.34,.33,3.67-.33,.33-.33,1.34-.33,2,.33,1.34-1.34,2.67-2.67,2-1.34-.33-2.67-1.34-4.01-1-1,0-1-.67-1-1.34,0-2.67-.67-4.68-2.67-6.35-.67-.33-1-1.34-1.34-2.34-2-5.01-4.68-9.35-7.35-14.03-1-2-2.67-4.01-3.01-6.35,0-.33-.33-1-.33-1-3.34-2.67-4.68-6.35-6.35-10.02-.33-.67-1-1.34-1.67-2-.67-.67-1.67-1-1-2.34,0-.33-2.67-3.01-2.67-3.01-4.34,.67-8.35-.67-12.36-1.34-3.67-.33-6.68,1.67-9.69,3.34-3.01,1.67-5.68,3.67-8.35,5.35-4.01,2.34-8.35,2.67-12.36,1-3.01-1.34-5.01-4.01-6.68-6.68-3.67-6.01-8.68-10.69-14.03-15.37-3.01-2.34-6.01-5.01-9.35-7.02-1.34-.67-1.34-1.67-.33-2.67,2-2,3.01-4.34,4.68-6.35,4.68-5.35,12.03-5.01,16.7,0,1.67,2,3.34,4.34,4.68,7.02,1,2.34,3.01,4.34,5.01,6.35,1.67,1.67,4.01,1.67,6.35,1.34,2-.33,4.01-1,5.68-1.67,6.01-2.34,12.03-1.34,17.71,1.34,2,.34,3.67,1.67,6.01,1.67h0Z"/><path class="cls-4" d="M257.19,630.39s.01-.03,.02-.03c0,0-.01,.02-.02,.03Zm207.36-195.49c-.52,.38-1.09,.7-1.64,1.06-1.08,.87-2.18,1.71-3.36,2.45-.63,.39-1.28,.79-1.95,1.17-.06,2.24-.97,4.39-2.54,5.97-1.02,1.01-2.47,1.9-3.98,2.32-.06,.27-.11,.54-.17,.81,1.07,.34,2.09,.92,2.96,1.81,.99,.99,1.71,2.37,2.04,3.84,3.71,.9,6.99,4.03,7.97,7.62,1.37,5.01-1.67,12.14-7.37,12.97-.65,.09-1.32,.19-1.99,.29,.22,.83,.35,1.69,.34,2.52,.26,2.8-.56,6.1-2.76,7.82-.06,.05-.11,.09-.18,.15-1.23,1.22-2.69,2.07-4.35,2.54-1.75,.47-3.5,.47-5.25,0-.23-.07-.47-.16-.69-.24-.27,1.02-.52,2.05-.79,3.06,1.53,.6,2.87,1.63,3.64,3.14,.54,1.08,.79,1.89,.95,2.83-.03-.19-.05-.39-.07-.58,.03,.17,.08,.34,.16,.5,.26,.65,.38,1.38,.38,2.13,3.3,1.25,6.09,3.34,7.51,6.2,2.55,5.13,1.42,11.34-3.76,14.38-2.68,1.57-5.7,1.75-8.4,.87-.16,1.3-.57,2.57-1.23,3.7-2.35,4.02-8.03,6.1-12.33,3.95-1.17,2.39-2.39,4.77-3.71,7.11,3.33,2.36,5.07,6.66,3.94,10.79-.25,.9-.68,1.87-1.24,2.79,4.12,2.68,7.66,6.3,9.71,10.59,2.58,5.39,1.53,11.79-3.93,14.99-6.64,3.89-13.51-.09-16.1-6.55,.45,1.13-1.23-1.16-1.58-1.42-1.36-.99-2.86-1.84-4.37-2.63-.95,.41-1.93,.75-2.93,1.05-.76,.23-1.45,.4-2.24,.52-.06,.01-2.46,.7-1.13,.12-2.42,1.05-5.08,1.14-7.29,.26-3.62,2.98-7.32,5.88-10.99,8.74,.58,1.15,.94,2.44,.94,3.81,0,3.02-1.15,6.39-3.45,8.49,.34,.45,.69,.9,.97,1.37,2.79,4.68,1.08,10.94-3.58,13.67-2.31,1.35-5.13,1.71-7.71,1.01-2.98-.82-5.01-2.82-6.3-5.42,.07,.18,.14,.35,.22,.52-.1-.23-.23-.44-.36-.65-1.93,.79-4.22,.61-6.09-.39-.06-.04-.13-.07-.19-.11-.33-.17-.61-.39-.89-.62-9.06,7.81-18.23,15.31-28.63,21.4-.84,.7-1.67,1.39-2.53,2.07,.8-.3,1.68-.39,2.66-.12,2.42,.67,3.88,3.25,3.22,5.67-.67,2.42-3.25,3.88-5.67,3.22-1.73-.48-2.88-1.87-3.22-3.47-.33,0-.65,0-.97,0-.83,.02-1.63-.09-2.42-.35-.07-.02-.08-.1-.14-.15-.87,.6-1.7,1.25-2.58,1.82-10.71,6.92-21.74,12.64-31.5,20.91,5.15-1.44,10.37-2.37,15.62-3.02,.04-.3,.08-.6,.15-1.05,.31-.74,.57-1.51,.96-2.21,1.9-3.43,5.64-4.25,9.2-4.47,3.31-.21,6.78,.6,9.54,2.38,2.94-1.14,5.91-2.21,8.89-3.24,.02-.27,.05-.59,.05-.79,0-1.77,.61-3.99,1.52-5.51,3.36-5.62,8.4-8.99,15.12-7.76,.88,.16,1.69,.5,2.46,.94,.8-.28,1.65-.45,2.51-.45,2.15,0,3.8,.88,5.41,2.23,.06,.06,.13,.12,.2,.17,.65,.55,1.1,1.22,1.46,1.92,4.68-1.52,9.3-3.11,13.86-4.96,.14-.4,.26-.79,.42-1.2,.46-1.19,.92-2.36,1.44-3.54,.02-.02,.02-.03,.03-.06,.04-.15,.12-.38,.24-.71-.17,.49,2.52-6.7,.85-1.98,.69-1.95,1.56-3.86,3.18-5.24,5.56-4.76,13.05-3.3,16.29,2.83,3.05-1.43,5.99-2.94,8.63-4.62,11.94-7.6,23.2,11.66,11.07,18.94-6.48,3.89-14.24,6.06-21.44,8.76,.96,3.46-.14,7.57-3.6,9.22-.07,.04-.15,.07-.23,.11-.51,.3-1.05,.52-1.6,.7-.06,2.53-1.03,5.01-3.05,7.04-4.71,4.71-12.25,3.83-16.18-1.13-2.3,.77-4.89,.55-7.01-.69-1.58-.93-2.73-2.3-3.41-3.87-10.22,2.37-20.67,3.81-31.13,4.26-.76,2.48-2.77,4.5-5.41,5.41-.07,.02-.13,.05-.2,.07-.31,.1-.63,.14-.94,.2,.23,2.16,.16,4.06-1.04,6.1-1.19,2.04-3.18,3.57-5.46,4.2-4.62,1.28-10.15-1.52-11.24-6.39-.15-.65-.45-2.54-.51-2.97-.17-.96-.34-1.93-.47-2.91-.09-.82-.24-2.2-.24-2.65,0-.35,0-.68,.06-1.02,.04-.4,.07-.71,.1-.98-1.6-.2-3.22-.37-4.82-.62-.42-.07-.61-.48-.61-.88-4.45,.78-8.9,1.65-13.39,2.76-.31,.08-.58,.03-.81-.08-2.36,2.3-4.54,4.84-6.61,7.48,.11-.03,.23-.08,.34-.09,2.35-.34,4.67,.54,5.36,3.04,.72,2.59-1.34,5.7-4.2,5.51-1.23-.08-2.55-.28-3.7-.81-.12,.07-.25,.13-.37,.2-.67,.38-1.26,.88-1.84,1.39-.97,.85-1.96,1.51-2.99,2.28-.07,.05-.15,.03-.22,.07-1.82,3.27-3.52,6.59-4.94,9.97,.07,1.75,.18,3.49,.18,5.27,0,2.26-3.55,2.26-3.5,0,0-.12,0-.24,0-.37-.38-.26-.6-.75-.35-1.35,.11-.26,.23-.52,.35-.79-.03-10.42-1.5-20.54-3.77-30.49-.05,0-.08,.02-.12,0-.58-.09-1.04-.44-1.49-.79-.14-.02-.28-.04-.42-.07-1.15,0-2.21-.47-3.24-1.12-.08-.05-.52-.25-.81-.4-.85,.26-1.77,.31-2.77,.04-2.26-.62-3.86-2.73-3.86-5.06,0-4.65,5.69-6.86,8.98-3.71h0c.35,.16,.68,.38,1.03,.57-2.03-7.1-4.37-14.15-6.89-21.16-1.15-2.02-2.29-4.04-3.39-6.06-.16,0-.32,.05-.5,.03-.32-.05-.97-.14-1.25-.18-.33,.26-.71,.52-1,.65-.31,.14-.57,.25-.81,.35-.35,.13-.83,.31-1.54,.59-.87,.34-1.83,.46-2.77,.36-3.13-.3-5.82-1.46-7.49-4.3-1.57-2.67-1.57-6.08,0-8.75,1.7-2.91,4.58-4.23,7.44-4.19-3.18-6.71-6.09-13.48-8.69-20.35-1.91,.23-3.72,.03-5.48-.99-1.86-1.08-3.35-2.95-3.89-5.05-.02-.1-.05-.2-.07-.3-.16-.65-.25-1.33-.26-1.99-2.79-1.16-5.2-2.46-7.68-4.23-2.46-1.77-2.86-2-5-1.84-13.1,.96-13.31-20.33,0-20.5,2.37-.03,4.48,.36,6.41,1.05,.39-1.58,1.22-2.97,2.39-4.35,.53-.63,1.26-1.12,2.07-1.48-.49-2.4-.97-4.81-1.4-7.23-.31,.04-.61,.09-.91,.09-4.26,0-7.81-3.55-7.81-7.81,0-1.35,.38-2.61,1.01-3.73-2.18-.7-4.4-1.34-6.59-1.83-5.39-1.21-8.49-7.34-7.08-12.47,1.75-6.34,9.22-9.33,14.89-6.06,1.28,.74,2.49,1.59,3.67,2.49-.06-2.44-.11-4.87-.14-7.31-1.96-1.93-3.71-4.11-5.06-6.18-1.94-2.98-3.64-6.67-6.45-8.38-9.1-5.53-4.34-18.1,3.47-19.8v-.93c0-3.91,2.81-7.45,6.56-8.28,.31-3.04,.97-5.87,2.21-8.19-.77-2.34-1.29-4.68-1.53-6.56-.86-6.87-.97-13.49,3.85-18.92,4.63-5.22,14.19-2.54,15.73,4.15,1.21,5.28-.24,11.67-1.02,17.07,.11,.07,.2,.16,.31,.23,.34-.23,.69-.5,1.05-.71,9.55-5.78,20.79,8.17,12.09,15.67-1.48,1.27-2.75,2.71-3.92,4.23,2.33,1.62,3.71,4.26,3.84,7.26,.08,1.81-.35,3.59-1.27,5.16-.55,.94-1.43,1.84-2.14,2.71-1.46,1.79-3.59,2.73-5.83,2.99,0,1.32-.03,2.64-.03,3.95,0,4.27-.01,8.51-.03,12.76,.35,.21,.69,.43,1,.69,1.02,.87,1.61,2.07,1.8,3.35,3.08-.69,6.38,.38,9.11,2.51,.03,.03,.07,.06,.11,.09,3.36,2.61,3.49,8.29,1.51,11.68-1.61,2.74-4.44,4.41-7.48,4.69,.58,1.01,.94,2.14,.94,3.36,0,3.51-2.75,6.45-6.18,6.81,0,.03,0,.07,0,.1,.58-.11,1.18-.19,1.79-.19,3.31,0,6.23,1.81,7.89,4.46,5.24-2.24,12.5,1.95,11.99,8.04-.5,5.95-4.47,12.03-8.49,16.45-.73,.81-1.45,1.47-2.19,2.1,1.75,1.7,2.87,4.05,2.87,6.64,0,3.39-1.92,6.37-4.7,7.98,1.82,6.98,3.59,13.95,4.96,20.95,2.8-.86,5.91-.37,8.34,2.05,3.86,3.86,3.11,10.78-1.74,13.49,0,0-.01,0-.02,.01l-.08,.08c-.3,.28-1.52,1.57-1.25,1.1-.59,.83-1.13,1.69-1.87,2.42-.25,.25-.52,.48-.81,.68,.13,2.58,.14,5.17,.06,7.77,1.57,4.47,3.07,8.97,4.46,13.49,.13-.61,.29-1.22,.56-1.84-.41,.95,.64-1.65,.5-1.46,.79-1.33,2.06-2.33,3.59-2.59,6.26-1.08,8.62,7.29,2.62,9.51-.68,.25-1.3,.31-1.95,.28,0,0,0,.02-.01,.02-.14,.44-.22,.88-.3,1.33-.1,.57-.09,1.14-.11,1.69,.3,.98,.37,1.84,.31,2.98-.06,1.38,.17,2.91-.22,4.25-.15,.51-.46,.81-.81,1.01,1.75,7.32,3.13,14.73,3.91,22.29,1.19-6.86,3.33-13.6,5.31-20.24-.19-.08-.36-.22-.45-.44-.02-.05-.05-.09-.07-.14-2.07-.16-3.39-1.85-3.62-3.76,0-.01,0-.02,0-.03-.02-.19-.05-.38-.05-.57,0,0,.01,0,.02,.01,0-.05,0-.1,0-.15,0,.04-.01,.09-.01,.14,0,0-.02-.01-.03-.02,.17-1.71,.18-1.28,.11-.88-.02,.1-.01,.2-.03,.29,.02-.16,.03-.33,.06-.5,.27-1.37,1.57-2.51,2.87-2.87,1.31-.36,2.47-.02,3.44,.71,1.18-4.64,2.25-9.29,3.07-13.98-.29-.12-.57-.29-.81-.5-.28-.23-.49-.51-.67-.8-.17-.03-.34-.02-.52-.06-2.27-.49-3.56-3.1-2.97-5.24,.72-2.61,3.9-3.99,6.26-2.55,.02,.02,.04,.04,.07,.05,.32-2.53,.58-5.08,.81-7.64-.43-.2-.79-.5-.89-1.06-1.21-7.18-2.05-10.47,.21-17.75,.62-2,1.05-4.03,1.34-6.09-1.71-3.27-1-6.73,.67-9.96,.03-2.51,.02-5.02,.05-7.52-.51-.45-.94-.99-1.14-1.71-.99-3.45-.87-7.25-1.18-10.87-3.47-6.29-4.9-13.74-6.86-20.74-1.88,.77-4.12,.79-6.24-.22-2.55-1.2-3.92-3.22-5.35-5.54-1.04-1.71-2.22-3.53-2.54-5.56-.56-3.59,.89-6.14,4.26-7.5,1.16-.47,2.47-.53,3.76-.32-1.8-5.73-3.5-11.49-4.92-17.33-.27-1.12-.49-2.26-.72-3.41-.57-.48-1.15-.95-1.79-1.34-.52-.31-1.01-.68-1.51-1.05-.95,1.12-2.47,1.82-3.86,1.82-2.73,0-4.89-2.25-4.94-4.94,0-.13,0-.26,0-.39-.02-1.1,.36-2.11,.98-2.93-2.82-2.79-3.97-6.78-1.74-10.58,1.94-3.32,5.35-4.52,8.64-3.96-1.65-6.62-2.42-13.5-2.19-20.28,.18-5.23,4.19-9.45,9.51-9.51,.16,0,.33,0,.49,0,6.33-.08,10.54,6.52,8.98,12.02-.02,.89,0,1.79,0,2.67,5.2,.24,10.12,4.36,8.27,11.23-.92,3.42-2.1,6.9-3.92,9.96,1.15,.79,2.05,1.91,2.39,3.31,.3,1.22,.38,2.27,.04,3.5-.24,.61-.5,1.21-.77,1.8-.34,.45-.68,.89-1.02,1.33-1.56,1.22-1.76,1.37-.6,.44-1.08,.85-2.08,1.5-3.31,1.78,.87,2.9,1.77,5.8,2.62,8.71,.54,1.84,1.11,3.68,1.69,5.52,2.27-.87,5.06-.47,6.27,1.74-.17-2.45-.39-4.59-.43-5.54-.28-7.18,.1-14.37,.27-21.55-.21-.45-.41-.9-.63-1.37-2.14-4.59-2.59-9.97-.3-14.56,.34-.67,.74-1.21,1.19-1.67,.1-5.49,.29-10.98,.69-16.47-1.55-3.51-2.24-7.85-2.63-11.4-3.08-4.41-3.54-10.91-.86-15.69,.18-.31,.41-.54,.63-.81-12.78-2.19-6.3-21.84,5.26-15.57,1.75,.95,3.3,2.15,4.73,3.47,.15-.94,.43-2.6,.49-2.91,.23-1.3,.33-2.63,.68-3.9,.2-.75,.44-1.6,.74-2.49-.09-.11-.18-.21-.28-.34-.25-.44-.45-.89-.6-1.37,.5,1.36,.26,.72,.11,.38-.73-1.69-.76-3.47,.63-4.86,.38-.38,.83-.67,1.29-.91-.98-2.76-2.21-5.33-2.18-8.48,.05-5.45,5.91-8.65,10.61-6.09,7.01,3.82,7.74,12.82,6.72,20.43,2.15-.67,4.49-.3,6.28,1.48,2.35,2.35,2.46,6.77,.02,9.07,.22,3.02-.66,6.41-1.17,9.15-1.45,7.71-1.21,15.73-3.55,23.26,1.13,.45,2.1,1.33,2.85,2.31,.31,.41,.51,.87,.65,1.34,1.13-1.17,1.95-2.64,2.78-4.13,5.08-9.21,19.75-.65,14.08,8.23-2.56,4.02-6.01,6.08-10,7.27,.02,.04,.05,.08,.07,.11,1.76,3.09,.33,8.14-3.58,8.79-1.88,.31-3.54,.37-5.31-.25-.23,.34-.43,.69-.63,1.06,0,.02-.6,1.39-.28,.59-.73,1.87-1.38,3.05-3.09,4.18-.03,.02-.07,.02-.09,.05-.03,10.62-1.59,20.98-3.5,31.41-.62,3.4-1.24,6.6-2.3,9.4,.5-.39,.99-.75,1.51-1.07,3.06-1.93,5.98-3.93,8.41-6.42-.22-.15-.43-.3-.64-.46-.07-.05-.14-.11-.21-.17-1.03-.82-1.63-1.95-1.93-3.18-1.18-2.59-1.75-5.62-1.16-8.34,.66-3,4.14-4.8,7-3.97,1.51,.44,2.89,1.25,4.13,2.26,1.61-4.63,3.3-9.35,6.15-12.82,5.63-6.85,16.83,.5,14.45,8.42-1.38,4.6-4.36,8.84-7.72,12.74,.6,.76,1.11,1.6,1.38,2.55,.68,2.49-.04,5.2-1.86,7.02-2.14,2.15-6.11,2.98-8.74,1.13-.19-.14-.38-.27-.57-.41-1.89,1.86-4.17,3.91-6.65,5.77,.7,.79,1.27,1.75,1.59,2.93,1.19,4.32-2.29,10.03-7.23,9.5-1.65-.18-3.3-.25-4.95-.27,.01,1.92-1.14,3.51-2.1,5.18-1.18,2.05-2.46,4.25-4.55,5.36-.35,2.66-.74,5.32-1.15,7.98,.28,.15,.5,.36,.66,.62,2.79,1.44,5.28,4.07,4.85,7.52-.43,3.41-1.36,6.05-3.62,8.72-1.49,1.75-3.41,2.45-5.35,2.42-.11,.55-.21,1.1-.32,1.65-.22,1.06-.46,2.1-.69,3.14,.63,.26,1.24,.64,1.8,1.2,3.79,3.88,1.91,8.91,.06,13.2-1.49,3.42-3.02,7.44-6.65,9.07-1.21,8.14-2.49,12.63-6.54,19.54-.24,2.18-.5,4.35-.83,6.5,1.16-1.8,2.91-2.51,5.28-2.17,1.94,.29,3.3,2.52,3.3,4.33,0,1.96-1.37,3.84-3.3,4.32-.48,.13-1.1,.23-1.52,.23-.3-.04-.59-.08-.88-.12-.59,.1-1.34,.22-.49,.09-.59,.09-1.17,.23-1.75,.39-.39,.1-.67,.39-.95,.7,.06,.73-.09,1.44-.46,2.1-.27,.79-.58,1.53-1.18,2.15-.12,.13-.27,.18-.41,.27-.95,4.36-1.98,8.71-3.08,13.09-.27,1.07-.51,2.17-.76,3.24,.54,1.53,.13,3.2-1.01,4.31-1.53,6.87-2.93,13.84-4.79,20.62,.35-.65,.72-1.24,1.07-1.87,.58-1.94,1.54-3.45,2.91-4.87,2.49-3.92,5.2-7.58,8.21-11.04,0-.08-.06-.13-.03-.22,.68-2.72,1.74-5.33,2.42-8.03-.03,0-.05-.03-.07-.05-3.24-1.52-2.29-6.69,.98-7.47,1.08-.26,2.19-.21,3.15,.41,2.72,1.75,2.73,6.8-.98,7.47-.12,.02-.22,.09-.33,.12-.46,1.33-1.01,2.62-1.56,3.91,3.22-3.27,6.76-6.39,10.75-9.38-.02-.02-.07-.03-.1-.06-.7-.76-1.11-1.59-1.17-2.65,0-.06,0-.09,0-.14-.1-.52-.23-1.02-.18-1.57,.17-1.53,.92-2.85,2.51-3.29,1.45-.4,3.1,.23,3.85,1.57,.4,.72,.55,1.51,.57,2.29,.25-.17,.47-.34,.73-.5,1.75-1.14,3.47-2.24,5.2-3.36-.08-.22-.09-.47,.09-.71,1.25-1.72,2.33-3.55,2.39-5.72,.02-.89-.41-1.17-.94-1.87-.63-.83-.64-2.17-.73-3.14-.13-1.46,1.11-2.83,2.44-3.2,1.9-.52,3.39,.65,4.07,2.31,1.14,2.8-.51,4.4-1.58,6.79-.46,1.02-1.05,2.01-1.7,2.95,4.15-2.69,8.21-5.45,12.21-8.31-.32-.77-.19-1.71,.76-2.31,8.57-5.31,13.22-13.36,19.32-20.99,1.14-1.43,2.33-2.8,3.51-4.18-.77-5.98-1.94-11.99-3.3-17.95-.63-.48-1.07-.78-2.17-1.12-4.37-1.38-7.76-3.83-11.18-6.82-4.14-3.62-3.69-10.57,0-14.26,1.68-1.68,4.19-2.71,6.74-2.89-.1-.34-.22-.68-.31-1.02-.51-.11-1-.25-1.51-.43,.14,.05,.26,.11,.39,.16-.35-.14-.7-.26-1.07-.37-6.12-1.91-9.31-8.96-5.96-14.67,.82-1.39,1.97-2.54,3.3-3.38-.63-2.95-.58-6.05,.02-9.3,.83-4.57,5.28-6.55,9.3-7.08,.39-.06,.79-.11,1.2-.15,4.94-.61,9.14,4.18,9.73,8.74,1.87-.22,3.83,.09,5.64,1.15,5.58,3.26,5.66,10.08,1.89,14.67-1.67,2.03-3.68,3.75-5.44,5.69,.14,1.57,.3,3.12,.47,4.69,1.79-.67,3.81-.78,6.01-.45,.05,0,.1,.01,.15,.02,3.69,.54,7.21,5.25,6.79,8.92-.49,4.33-2.4,7.03-6.11,9.13-1.12,.64-2.14,1.3-3.45,1.6-.31,.07-.63,.11-.95,.15-.06,.08-.11,.15-.17,.22,.12,2.06,.12,4.06,.05,6.02,1.93,.07,3.83,.96,4.76,2.53,1.01-1.07,2.02-2.13,3.02-3.21,4.13-4.39,8.58-8.39,13.07-12.29,.1-.72,.2-1.44,.29-2.17-.23,1.81-.17,1.29,.22-1.58-.34,2.45-.05-.23-.02-.62,.05-.79,.07-1.58,.12-2.37,.02-.47-.08-1.65-.03-1.58-.14-.83-.25-1.66-.22-2.5,.29-8.07,9.28-12.66,15.54-9.33,1.97-1.63,4.13-2.96,6.21-4.46,2.51-1.8,3.99-5.1,4.96-7.94,.36-1.06,1.08-2.94,2.07-4.83-.76-.82-1.55-1.58-2.11-2.62-3.26-6.05,.67-16.07,8.69-15.15h0c.16-3.21,1.32-6.8,3.28-9.49-.13-.17-.27-.34-.4-.51-1.01-1.73-1.23-3.16-1.35-5.14-.03-.5,.02-.98,.07-1.47-.02,.17-.05,.35-.07,.52,.03-.22,.05-.45,.07-.67,.02-.15,.03-.3,.05-.45,.22-1.97,.41-3.9,1.44-5.7,.57-.98,1.27-1.85,2.07-2.58-.14-.23-.29-.48-.43-.69-.82-1.26-1.69-2.49-2.57-3.71-.83-1.16-.23-.38-1.57-1.96-.31-.37-1.51-1.42-1.71-1.67-.34-.19-.66-.39-.98-.63-7.22-5.49-6.94-16.5,2.56-19.51,4.68-1.49,8.49,.15,11.59,3.07,.79-.53,1.66-.93,2.55-1.09,.42-.08,.79-.13,1.17-.18,.02-.11,.04-.21,.07-.31,.03-.11,.07-.22,.1-.33,.39-1.27,1.21-2.3,2.22-3.01-2.27-1.51-3.83-4.05-3.79-6.91,.03-1.79,.44-3.29,1.21-4.69-2.16-2.03-3.73-5.19-3.42-7.95,.02-.26,.05-.51,.08-.77,.65-5.91,4.47-10.91,10.91-10.91,.13,0,.27,.02,.4,.02-.88-5.11,.49-11.4,1.08-15.47,1.07-7.36,4.11-16.44,11.37-19.61,2.4-4.22,6.74-6.83,11.94-5.41,4.55,1.25,7.62,5.64,7.68,10.14,.19,.29,.36,.59,.52,.93,2.66,5.66,.83,11.06-1.47,16.52-1.18,2.79-2.55,5.81-4.25,8.55,2.55,.9,4.83,2.69,6.14,4.93,3.32,5.74,.81,11.63-4.02,15.29h0Zm-162.17-22.44c2.31-2.46,4.13-5.3,5.58-8.36,.1-.22-.22-.48-.38-.27-2.25,2.2-4.02,4.93-6.81,6.54-1.72,1.02,.32,3.54,1.61,2.09h0Zm-29.07,111.98h.96c1.67-.99,2.77-3.71,3.65-5.9,.22-.55,.43-1.07,.63-1.53l.14-.32c.9-2.04,1.84-4.15,1.44-6.26-1.05,1.32-1.65,3.07-2.23,4.77-.26,.75-.52,1.51-.82,2.23-.41,1.01-1.03,1.93-1.63,2.82-.58,.86-1.13,1.67-1.48,2.54l-.66,1.66Zm-10.2-32.96h.54c3.72-.43,5.37-6.72,6.07-9.43,.98-3.54,1.52-7.12,1.85-10.47-.83,3.08-1.73,5.98-2.86,8.8-1.11,2.84-2.29,5.22-3.61,7.26l-.03,.05c-.61,.82-1.06,1.42-1.29,2.02l-.68,1.77Zm20.03,71.21v.14c.07,.29,.09,.55,.12,.82,0,.12,.02,.24,.04,.37l.02,.17c.26,.99,.86,1.69,1.44,1.69,.53,0,1.1-.64,1.38-1.56l.04-.12c.05-.44,.1-.89,.2-1.35v-.09c1.49-9.62,3.08-21.02,3.7-32.52,.21-3.58,.32-7.25,.42-10.8l.02-.69,.5-.16c.14-.05,.26-.07,.35-.08,.03,0,.07,0,.1-.02,1.23-.57,2.47-1.13,3.71-1.68,7.08-3.18,14.42-6.46,19.93-11.98,4.42-4.42,8.06-9.57,11.55-14.6-.06,.07-.11,.14-.17,.21-3.82,4.7-7.78,9.56-12.6,13.27-6.77,5.27-14.09,8.66-21.84,12.24l-1.47,.68,.03-1.2c.18-6.54,.26-13.18,.34-19.61,.07-5.36,.14-10.91,.25-16.35v-.47s.44-.19,.44-.19c.27-.12,.47-.4,.51-.69,.03-.26-.08-.51-.32-.72h-.6l.03-.77c.26-7.55,.54-13.29,.91-18.63l.05-.69h.7c.15,0,.29,.03,.38,.06,.34,.05,.71,.08,1.09,.08,3.71,0,8.41-2.25,12.18-4.05,.93-.45,1.8-.86,2.6-1.22,3.5-1.58,7.31-3.57,9.98-6.53-.8,.35-1.6,.69-2.38,1.03-3.77,1.63-7.66,3.32-11.66,4.63-1.04,.35-2.19,.65-3.41,.97-2.82,.73-6.01,1.57-8.06,3.15l-1.34,1.03,.14-1.68c.02-.31,.04-.65,.05-.98,.01-.34,.03-.69,.06-1.06,.7-7.68,2.17-15.28,3.59-22.64,2.79-14.41,5.43-28.08,2.9-42.56-.07,2.93-.08,5.85-.09,8.71-.03,10.43-.06,21.22-3.1,31.91v.11s-1.43,.29-1.43,.29c-.88-2.11-2.4-4.31-3.47-5.48-1.35-1.55-2.75-3.07-4.15-4.55,1.15,1.78,2.19,3.58,3.21,5.35l.15,.27c1.14,1.97,2.33,4.01,3.12,6.19,.41,1.06,.51,1.35,1.1,1.8l.38,.3-.11,.46c-2.18,8.98-3.4,18.15-3.73,28.06-.15,3.14-.24,6.34-.33,9.43-.05,1.57-.1,3.14-.15,4.71l-.04,1.16-1.04-.52c-.12-.06-.3-.15-.47-.31-.12-.09-.23-.18-.35-.27-.47-.37-.91-.71-1.41-.89l-.29-.1-.13-.26c-.42-.83-1.08-1.66-1.66-2.39l-.12-.15-.38-.46c-.87-1.06-1.69-2.07-2.76-2.81,0,0,0,0-.02,0,.53,1.54,1.37,2.95,2.13,4.18,.64,1.1,1.6,2.75,2.84,2.95h.34l.22,.26c.19,.23,.42,.43,.63,.64,.11,.1,.21,.19,.3,.29,.58,.58,1.13,1.08,1.7,1.61l.4,.37-.16,5.8c-.47,16.61-.95,33.79-2.26,50.59-.52,6.55-1.29,13.15-2.36,20.21l-1.46,.04c-2.24-10.42-6.55-20.56-10.35-29.51l-.44-1.04h.03s-.71-1.64-.71-1.64c-.51-1.17-1-2.38-1.48-3.55-.34-.83-.69-1.67-1.05-2.53-3.03-7.55-5.3-15.28-7.17-24.36l-.18-.9h0l-.37-1.9c-2.07-10.82-3.07-21.89-3.76-31.25,0,0,0-.02-.01-.03,.12,10.56,.91,20.68,2.35,30.06l.35,2.25-1.55-1.56s-.08-.05-.12-.08l-.44-.26c-1.43-.85-2.78-1.66-4.1-2.93-1.3-1.3-2.64-2.64-3.83-4.13,.69,1.46,1.45,2.69,2.3,3.66,.29,.35,.73,.77,1.21,1.22,1.09,1.03,2.33,2.19,2.63,3.41,.3,1.14,2.29,3.37,4,3.75l.48,.1,.09,.48c1.1,5.66,2.34,10.65,3.78,15.24,1.55,4.75,3.45,9.48,5.29,14.05l.5,1.23-1.31-.22c-1-.17-1.96-.45-2.89-.71-1.45-.42-2.81-.81-4.25-.81-.3,0-.61,.02-.89,.05,.6,.28,1.2,.56,1.8,.85,2.55,1.23,5.2,2.49,8.02,2.95l.41,.07,.16,.38c4.57,11.13,9.29,22.65,10.56,35.31h0Zm-31.56,40.25c.39-.9,.72-1.8,1-2.75-.74,1.09-1.39,2.11-1.94,2.96-.54,.87-1.09,1.69-1.62,2.49l-.02,.03-.02,.02c-.34,.42-.71,.73-1.05,1.01-.21,.17-.39,.33-.56,.5l-.83,.83-.4-1.09c-.63-1.72-1.27-3.44-1.9-5.15-4.84-13.11-9.85-26.66-13.61-40.36l-.2-.72,.73-.19c5.3-1.39,9.5-6.45,12.55-10.71,1.37-1.9,2.59-3.97,3.77-5.97,.79-1.35,1.62-2.74,2.48-4.08,.24-.37,.5-.75,.76-1.14,1.12-1.66,2.28-3.38,2.73-5.16,.06-.23,.02-.44-.11-.6-.13-.16-.34-.26-.56-.26-.17,0-.42,.07-.61,.37-.95,1.43-1.65,2.99-2.39,4.64-.75,1.67-1.53,3.41-2.6,5.02-2.4,3.49-5.05,7.16-8.19,10.3-2.87,2.75-5.29,4.29-8.38,5.31l-.76,.25-.2-.78c-3.14-12.41-5.27-25.78-6.5-40.86l-.05-.56,.53-.2c3.33-1.25,6.19-3.63,8.96-5.93,.42-.35,.87-.71,1.34-1.08,2.72-2.18,6.11-4.89,7.46-7.82,.05-.1,.01-.19,0-.23,0-.02-.06-.08-.12-.08-.03,0-.07,.02-.13,.05-1.93,1.04-3.7,2.74-5.41,4.39-1.29,1.24-2.63,2.53-4.07,3.55-2.43,1.66-5.06,3.02-7.82,4.05l-.94,.35-.07-.99c-.51-7.42-.85-15.35-1.02-23.57-.05-4.13-.05-8.38,0-12.62v-.74h.58c3.06-1.97,6.02-7.01,7.61-11.2,.39-1.06,.91-2.15,1.46-3.31,1.36-2.88,2.88-6.1,2.43-8.98-1.25,1.78-2.07,4-2.87,6.15-.71,1.92-1.44,3.9-2.48,5.61-.72,1.17-1.54,2.33-2.41,3.55-.99,1.4-2.02,2.86-2.89,4.31l-1.43,2.44,.11-6.26c.23-13.3,.47-27.01-1.01-40.2-1.53,19.46-.9,39.59-.35,57.51l.06,1.66-1.27-1.06c-.93-.78-1.89-1.58-2.94-2.31-.63-.39-1.33-.74-2.07-1.1-1.01-.49-2.06-1-2.95-1.66-.76-.57-1.51-1.22-2.24-1.86-1.44-1.25-2.93-2.55-4.54-3.25,.8,1.75,2.27,3.11,3.82,4.55,1.13,1.05,2.3,2.13,3.2,3.39,1.79,2.48,4.51,3.62,7.4,4.82,.27,.11,.54,.23,.81,.34l.05,.02s.06,.02,.07,.02h.68l.03,.72c.05,1.27,.11,2.57,.11,3.81,.23,7.16,.56,13.7,1.02,19.96l.04,.58-1.55,.51c-.46,.14-.76,.37-.91,.71l-.29,.64-.66-.25c-1.17-.44-2.42-.75-3.51-1.03-.47-.12-.91-.23-1.3-.34l-1.09-.3c-2.34-.64-4.77-1.3-7.07-2.19-.62-.23-1.21-.52-1.77-.8-1.05-.52-2.04-1.01-3.16-1.12,.56,3.18,5.54,4.86,8.53,5.87l.34,.11c.6,.2,1.21,.39,1.82,.59,2.33,.75,4.74,1.52,6.91,2.61,.31,.16,.6,.31,.87,.46,.84,.46,1.44,.78,2.16,.78,.13,0,.25,0,.38-.02l.78-.12,.07,.79c1.25,13.95,3.1,26.15,5.67,37.35,.09,.48,.22,1.05,.42,1.76l.38,1.42-1.37-.52c-1.7-.66-3.59-1.13-5.41-1.58-1.87-.46-3.79-.95-5.58-1.63-1.88-.73-3.79-1.45-5.64-2.14-1.88-.71-3.82-1.43-5.74-2.19,2.64,2.98,6.48,5.28,9.48,6.54,.62,.26,1.28,.55,1.97,.86,3.37,1.48,7.55,3.33,11,3.33,.35,0,.68-.02,1.01-.06,.07-.02,.18-.06,.31-.06h.58l.15,.55c3.59,13.67,8.72,27.26,13.67,40.4l1.88,4.99-1.51-.54c-2.12-.76-4.03-1.38-5.93-1.38h-.13c.86,1.69,2.82,2.55,4.71,3.38,.45,.2,.9,.39,1.34,.61,.2,.1,.39,.15,.58,.15,.05,0,.09,0,.14,0,.89-.77,1.87-1.45,2.97-2.04l-.02-.43h.75s.05,0,.07-.01c.04,0,.08-.02,.13-.03,.18-.12,.37-.21,.57-.26l.05-.05,.05-.02s.03-.04,.05-.06c.03-.04,.07-.07,.1-.11,.37-.52,.56-1.11,.76-1.74,.15-.46,.3-.94,.54-1.44,.48-.96,.88-1.82,1.22-2.64h0Zm53,43.13c.05,.22,.16,.43,.27,.59,.22,.27,.48,.48,.86,.65,1.13,2.57,3.81,4.44,5.25,6.86,1.56,2.79,3.27,5.47,4.93,8.2,.06,.1,.27,.1,.22-.06-.38-3.38-.91-6.65-2.63-9.6-.96-1.71-2.25-4.02-3.86-5.52-.43-.43-.86-.75-1.29-1.02,1.02-.16,2.04-.26,3.06-.38,4.5-.59,9.01-.97,13.67-1.34,9.65-.8,19.72-1.12,29.11-3.7,3.43-.97,6.81-2.1,10.19-3.27-.06,.22,0,.48,.22,.65,2.14,1.82,5.36,2.19,7.99,3.22,3.38,1.39,6.38,3.11,8.95,5.73,.69,.7,1.66-.32,1.07-1.02-2.31-2.73-5.04-4.93-8.31-6.32-2.41-1.02-5.3-2.57-7.99-2.95,4.71-1.77,9.33-3.75,13.94-5.95,.37-.11,.75-.27,1.07-.53,10.88-5.25,21.33-11.42,31.47-17.85,.16-.06,.05-.27-.11-.16-9.33,4.02-18.33,9.06-27.5,13.83,.65-.97,1.23-1.93,1.77-2.63,1.98-2.9,3.65-5.31,4.13-8.79,0-.27-.38-.38-.59-.22-2.25,2.36-3.81,5.1-5.79,7.72-1.28,1.71-2.63,3.38-4.12,4.98-.69,.75-1.23,1.23-1.55,2.04-9.38,4.61-18.98,8.58-29.32,10.56-4.98,.91-10.03,1.5-15.06,1.93,1.66-1.45,3.11-3.43,4.18-4.99,2.63-3.65,4.77-7.72,7.93-10.99,.54-.53-.26-1.29-.86-.81-3.22,2.63-5.47,5.79-7.78,9.17-1.23,1.77-2.51,3.59-4.07,5.09-1.18,1.02-2.47,1.72-3.48,2.84-6.54,.48-13.08,.75-19.57,1.34l-5.42,.53c-.75,.64-1.12,1.39-.96,2.14h0Zm-1.34-1.92s.02,0,.03,0c.02-.15,.02-.3,.04-.45-.03,.21-.04,.3-.07,.46Zm107.83-130.86c.34,1.03,.69,2.15,1,3.34-.33-1.37-.66-2.51-.9-3.33-.01-.04-.03-.04-.05-.04-.02,0-.05,.01-.05,.03h0Zm6.08,41.34c-3.11-.97-11.32-3.75-13.94-.91-.32,.37-.21,.75,.11,1.02,1.29,.97,2.67,.54,4.23,.7,2.57,.22,5.2,.53,7.71,1.23,4.55,1.29,10.46,3.27,12.87,7.5,.22,.38,.75,.06,.59-.32-2.41-4.77-6.54-7.61-11.58-9.21h0Zm36.6-134.25c-.03-.07-.08-.12-.13-.12-.02,0-.06,0-.07,.02-3.49,2.43-6.47,5.64-8.63,9.27l-.68-.27c2.07-9.67,4.15-18.12,6.34-25.71-4.13,10.76-7.65,22.72-11.24,38.03l-.27,1.18-.49-1.27c-.23-.62-.48-1.26-.83-1.61-.31-.33-.65-.62-1.01-.92-.37-.31-.75-.65-1.1-1.01,.09,.46,.08,.95,.07,1.42-.02,.58-.03,1.12,.15,1.59,.11,.34,.22,.68,.34,1.02,.22,.67,.45,1.37,.64,2.07,.23,.99,.58,1.94,1.15,3.08l.06,.12-.03,.13c-1.14,5.07-2.26,10.24-3.34,15.24-1.69,7.83-3.44,15.93-5.34,23.79l-.73-.17c.1-.45,.15-.95,.15-1.47,0-3.35-2-7.5-3.32-10.24l-.18-.38c-2.29-4.89-5.42-9.05-8.81-11.73-.05-.04-.1-.06-.16-.06-.11,0-.21,.06-.23,.12,0,.02-.03,.06,.05,.16,1.32,2.1,2.75,4.17,4.13,6.17,1.08,1.57,2.2,3.19,3.26,4.81,2.94,4.44,3.82,8.28,4.83,12.72v.02l.11,.02v.31s0,.05,.02,.09c.01,.03,.03,.08,.03,.15l.69,.22c-.9,3.69-1.82,7.51-2.85,11.21-3.07,11.44-7.25,22.72-12.4,33.51l-.71-.22c.52-3.4,.3-7.04-.18-10.25,.15,1.27,.21,2.57,.11,3.84-.09,1.26-.28,2.53-.47,3.75-.27,1.8-.56,3.65-.49,5.5,0,.06,0,.07,.1,.17l.19,.19-.13,.23c-2.39,4.66-4.33,8.19-6.29,11.44-6.19,10.31-15.8,17.56-24.34,23.54l-.53-.5c1.54-2.58,2.57-5.88,3.4-8.53l.16-.5c1.41-4.64,2.26-8.8,2.66-13.12,.01-.14-.02-.26-.11-.36-.12-.14-.34-.22-.55-.22-.15,0-.5,.04-.58,.43-.22,1.03-.42,2.06-.63,3.1-.66,3.25-1.34,6.61-2.32,9.8-.56,1.87-1.42,3.7-2.25,5.47-1.01,2.15-2.05,4.37-2.51,6.61l-.03,.14s-1.44,1.01-2.1,1.48c-2.22,1.55-4.51,3.15-6.7,4.77-6.13,4.51-11.79,9.73-17.27,14.78l-2.55,2.35,.07-.94c.37-5.2,.17-10.45-.6-15.6v-.04c-.08-.51-.16-1.04-.08-1.58,.09-.62,.37-1.17,.65-1.69l.07-.15c1.23-2.42,2.09-5.11,2.91-7.71,1.32-4.15,2.69-8.45,5.64-11.76l.07-.08c.3-.33,.58-.65,.68-1.01,.05-.19,.02-.42-.07-.58-.06-.1-.14-.16-.23-.18-.02,0-.05,0-.08,0-.24,0-.53,.23-.73,.42-4.99,4.55-7.3,11.31-9.34,17.28l-.4,1.17-4.7-17.89c-.15-.58-.33-1.24-.23-1.92,.08-.55,.33-1.03,.57-1.49l.11-.22c.99-1.96,1.45-4.18,1.89-6.34,.07-.34,.14-.67,.21-1.01,1.1-5.15,2.7-10.23,4.77-15.08-1.1,1.04-1.78,2.59-2.34,4.04-1.95,5.04-3.68,10.48-5.45,17.11h-.72c-1.89-7.98-3-16.17-3.3-24.35,0-.25-.04-.54-.17-.63-.03-.02-.05-.02-.08-.02-.17,0-.5,.52-.52,1.06-.71,12.51,2.44,24.83,5.49,36.74l.22,.82-.75-.4c-3.11-1.66-6.38-3.12-9.69-4.34-.24-.09-.49-.14-.69-.14-.33,0-.38,.13-.39,.17-.1,.22,.22,.57,.43,.76,3.31,3.07,7.32,5.48,11.58,6.98l.19,.07,.05,.2c1.89,8.19,3,16.6,3.29,25,.05,1.46,.03,2.98-.77,4.19-.11,.17-.23,.33-.37,.49-.3,.38-.58,.75-.6,1.15-.02,.53,.46,.99,.95,1.18,.41,.15,.8,.23,1.19,.23,1.82,0,3.13-1.75,4.41-3.45,.51-.68,.99-1.33,1.5-1.85,1.26-1.29,2.67-2.46,4.03-3.61,.48-.4,.96-.8,1.44-1.21,1.09-.94,2.26-1.91,3.47-2.88,.35-.29,.76-.56,1.19-.85,.81-.55,1.65-1.12,2.11-1.74l.6,.45c-.07,.09-.18,.28-.14,.47,.23,1.45,1.64,2.96,2.78,4.18,.32,.35,.63,.68,.89,.99,1.39,1.59,3.13,3.56,5.09,4.63,.09,.05,.19,.07,.28,.07,.22,0,.42-.12,.53-.31,.07-.1,.16-.33,.03-.59-.82-1.57-2.18-2.91-3.49-4.22-.34-.34-.68-.67-1-1-.44-.44-.85-.93-1.29-1.45-.99-1.16-2.01-2.37-3.28-2.91-.06-.02-.12-.02-.17-.02-.04,0-.08,0-.13,.02l-.35-.65c2.23-1.73,4.5-3.46,6.71-5.14,3.81-2.9,7.73-5.89,11.57-9.01,17.48-14.3,29.95-32.97,39.23-58.75l.08-.22,.23-.02c1.85-.21,3.61-.97,5.47-1.77,1.42-.61,2.89-1.25,4.4-1.6,2.99-.75,5.96-1.15,9.23-1.24-1.91-.24-3.98-.43-5.96-.43-1.35,0-2.54,.08-3.66,.26-.31,.05-.63,.1-.96,.15-2.35,.37-5.02,.79-7.14,1.85l-.82,.41,.3-.86c3.68-10.72,6.92-22.72,10.18-37.75l.73,.02c.02,.11,.09,.19,.13,.2,1.52-.63,2.87-1.68,4.17-2.69,.86-.67,1.75-1.36,2.7-1.95,.99-.58,2.02-1.13,3.02-1.66,1.23-.65,2.49-1.31,3.69-2.07-2.62,.5-5.23,1.58-7.98,3.3l-.31,.19c-2.05,1.23-4.18,2.5-5.35,4.51l-.69-.26c1.38-6.39,2.72-12.94,4.01-19.27,1.07-5.22,2.17-10.63,3.29-15.9l.02-.07,.04-.07c2.3-3.3,4.89-6.43,7.4-9.46,1.01-1.22,2.06-2.49,3.07-3.75,.04-.1,.03-.24-.02-.33h0Zm-212.52,194.43,3.06-.82s-.01,0-.02,0c.3,.05,.23,.03,.02,0Zm59.46,39.89c-.01-.12-.04-.23-.06-.36,.18,1.43,.15,1.14,.06,.36Z"/><path class="cls-4" d="M1315.39,872.61c5.24-3.3,9.63-4.9,16.13-7.26-6.08-.42-23.81,10.98-34.62,15.45-10.23,4.24-12.52,8.47-14.95,10.63-12.31,3.57-10.5,14.62-21.44,14.62-2.96,0-3.29,3.55,.84,3.55,6.94,0,6.28,9.06,15.11,12.3,2.12,3.35,6.45,7.37,9.88,8.73-.84-1.21-1.8-2.79-2.67-4.32,1.26,.67,2.52,1.18,3.63,1.42-1.24-1.27-2.76-3.13-4-4.7,.14,0,.28,0,.42,0,.82,0,1.6-.02,2.35-.06,4.49,1.32,14.51,6.45,15.63,5.63,1.21-.89-2.96-5.78-.53-12.08,1.16-1.95,1.55-4.08,1.73-6.01,4.38,.43,7.63,4.92,8.77,4.92,1.27,0-.72-4.3-.59-7.35,.08-1.82,1.94-4.7,3.04-7.18,.72-1.63-7.48,4.12-11.73,3.66-1.19-3.48-3.88-7.77-7.59-10.64-4.63-10.88,10.91-15.22,20.59-21.31Z"/></g><g id="Layer_1"><path class="cls-3" d="M0,891.26c82.56-40.93,101.77-44.48,137.51-21.24,48,31.22,58.48,89.42,148.6,111.83,126.75,31.52,64.05,25.49,176.17-3.06,105.43-26.85,62.07,43.9,177.7,19.68,115.63-24.22,133.09,52.04,291.89,46.57,63.4-2.18,3.72,8.25,125.55-27.53,73.02-21.45,101.28-88.89,159.32-55.91,110.55,62.81,188.31-6.1,242.3,14.15,57.99,21.75,154.21-63.02,183.83-81.73,51.9-32.78,59.1-57.64,129.7-47.97,34.19,4.68,98.55,72,147.43,45.21v188.74H0v-188.74"/><path class="cls-3" d="M472.59,860.41c-20.37,14.98-33.07,5.96-55.55,5.85-9.99-.05-23.06,7.81-34.52,16.55,6.91-14.71,11.2-28.59,12.55-43.04,14.62-17.8,33.98-41.29,49.69-65.92,27.28-42.77,20.92-107.48,20.92-107.48,0,0-5.62,20.12-17.2,47.69-9.6,22.84-28.27,46.56-56.72,76.41-2.43-28.6-1.25-66.58,24.62-116.55,0,0-49.98,32.11-50.64,91.81-.23,20.66,.29,37.43,.36,51.9-14.12,18.47-24.31,46.27-31.4,72.52,1.75-9.16,3.62-19.36,5.6-30.73,16.28-93.4-3.07-115.39-10.58-165.63-7.51-50.25,16.57-99.72,16.57-99.72,0,0-29.48,29.55-38.91,74.79-9.43,45.24,10.06,92.52,17.52,143.47,5.44,37.11-13.44,96.91-24.1,126.68,1.58-19.82,6.03-49.97,12.95-108.46,10.8-91.32-78.87-198.08-78.87-198.08,12.72,48.85,32.81,60.08,52.79,134.24,6.77,25.12,8.31,49.3,7.24,71.79-7.98-27.9-29.25-51.07-52.85-71.71-9.18-15.66-17.3-28.96-19.06-44.92-2.97-26.84,9.83-45.22,9.83-45.22,0,0-26.94,5.07-22.55,46.74,.36,3.49,.91,6.72,1.56,9.77-19.65-34.19-25.72-79.76-25.72-79.76,0,0-16.65,40.69,3.74,85.91,9.98,22.14,30.98,46.13,50.09,68.25,1.14,7.18,1.81,15.34,1.81,24.81,0,27.4-3.98,47.52-6.36,65.3-1.39-1.24-2.8-2.42-4.24-3.48-33.06-24.49-53.22-44.4-59.4-62.61-6.18-18.21-13.05-31.64-13.05-31.64,0,0-.12,52.93,24.85,80.33,15.82,17.37,36.26,36.06,50.86,51.22,1.2,9.1,3.94,18.46,9.14,28.87,21.21,42.43,58.87,48.6,58.87,48.6l-.05-.11c1.31,.26,2.49,.09,3.45-.64,.8-.61,1.38-1.33,1.84-2.1,4.57,3.03,11.78-2.44,17.21-11.78,0,0,30.6-33.48,46.95-62.7,16.35-29.22,42.31-23.33,83.16-35.49,40.86-12.16,58.85-76.79,58.85-76.79,0,0-20.89,26.08-41.26,41.07h0Zm-204.08,85.54c-3.09-6.36-6.52-12.85-10.25-19.1-2.41-33.08,5.65-62.38,6.91-88.51,7.79,10.69,13.08,20.27,13.67,28.07,1.52,20.35-5.83,58.64-10.33,79.55h0Z"/><path class="cls-3" d="M689.17,917.25c-.52-2.23-1.13-5.17-1.4-7.67,.28-2.5,.88-5.44,1.4-7.67,.45-1.95-.25-2.34-1.87-1.16-2.44,1.77-6.53,4.12-12.38,5.49-1.28,.3-2.44,.39-3.53,.32,1.06-.46,2.19-1.26,2.21-2.59,.04-2.29-31.82-23.87-59.15-11.35-.15,.06-.3,.13-.45,.19-.61,.28-1.19,.59-1.76,.9-.08,.04-.16,.08-.24,.12h.01c-6.06,3.45-9.9,8.93-12.16,14.42-.23,.56-.14,1.07,.18,1.14l.58,.13s-.25,.12-.58,.13c-1.27,.05,.5,1.82,.78,2.35,1.62,3.02,5.36,8.32,11.85,12.06h0c25.98,16.63,49.46-3.09,58-7.73,3.37-1.83,1.56-3.4-.05-4.25,1.41-.24,2.83-.24,4.3,.1,5.98,1.4,10.12,4.07,12.54,6.06,1.55,1.27,2.17,.95,1.72-1Z"/></g><g id="Layer_0"><g><polyline class="cls-2" points="834.13 0 320.34 1080 463.4 1080 865.1 0"/><polyline class="cls-2" points="904.77 0 731.27 1080 869.79 1080 935.74 0"/><polyline class="cls-2" points="1073.66 0 1587.45 1080 1444.39 1080 1042.68 0"/><polyline class="cls-2" points="1003.02 0 1176.51 1080 1038 1080 972.04 0"/></g></g></svg>